<svg width="49" height="48" viewBox="0 0 49 48" fill="none" xmlns="http://www.w3.org/2000/svg">
<path d="M32 45C29.6266 45 27.3066 44.2962 25.3332 42.9776C23.3598 41.6591 21.8217 39.7849 20.9135 37.5922C20.0052 35.3995 19.7676 32.9867 20.2306 30.6589C20.6936 28.3311 21.8365 26.193 23.5147 24.5147C25.193 22.8365 27.3311 21.6936 29.6589 21.2306C31.9867 20.7676 34.3995 21.0052 36.5922 21.9135C38.7849 22.8217 40.6591 24.3598 41.9776 26.3332C43.2962 28.3066 44 30.6266 44 33C44 36.1826 42.7357 39.2349 40.4853 41.4853C38.2349 43.7357 35.1826 45 32 45ZM32 24C30.22 24 28.4799 24.5278 26.9999 25.5168C25.5198 26.5057 24.3663 27.9113 23.6851 29.5559C23.0039 31.2004 22.8257 33.01 23.1729 34.7558C23.5202 36.5016 24.3774 38.1053 25.636 39.364C26.8947 40.6226 28.4984 41.4798 30.2442 41.8271C31.99 42.1743 33.7996 41.9961 35.4442 41.3149C37.0887 40.6337 38.4943 39.4802 39.4832 38.0001C40.4722 36.5201 41 34.78 41 33C41 30.6131 40.0518 28.3239 38.364 26.636C36.6761 24.9482 34.387 24 32 24Z" fill="#008BCC"/>
<path d="M34.385 37.5L30.5 33.615V27H33.5V32.385L36.5 35.385L34.385 37.5Z" fill="#008BCC"/>
<path d="M42.5 9C42.5 8.20435 42.1839 7.44129 41.6213 6.87868C41.0587 6.31607 40.2957 6 39.5 6H33.5V3H30.5V6H18.5V3H15.5V6H9.5C8.70435 6 7.94129 6.31607 7.37868 6.87868C6.81607 7.44129 6.5 8.20435 6.5 9V39C6.5 39.7957 6.81607 40.5587 7.37868 41.1213C7.94129 41.6839 8.70435 42 9.5 42H15.5V39H9.5V9H15.5V12H18.5V9H30.5V12H33.5V9H39.5V18H42.5V9Z" fill="#008BCC"/>
</svg>
