<svg width="66" height="25" viewBox="0 0 66 25" fill="none" xmlns="http://www.w3.org/2000/svg">
<path d="M22 12.0029C22 6.48293 17.52 2.00293 12 2.00293C6.48 2.00293 2 6.48293 2 12.0029C2 16.8429 5.44 20.8729 10 21.8029V15.0029H8V12.0029H10V9.50293C10 7.57293 11.57 6.00293 13.5 6.00293H16V9.00293H14C13.45 9.00293 13 9.45293 13 10.0029V12.0029H16V15.0029H13V21.9529C18.05 21.4529 22 17.1929 22 12.0029Z" fill="#FAFAFA"/>
<path d="M55.0281 2.00392C55.7578 2.00112 56.4876 2.00845 57.2171 2.02592L57.4111 2.03292C57.6351 2.04092 57.8561 2.05092 58.1231 2.06292C59.1871 2.11292 59.9131 2.28092 60.5501 2.52792C61.2101 2.78192 61.7661 3.12592 62.3221 3.68192C62.8305 4.18152 63.2239 4.78586 63.4751 5.45292C63.7221 6.08992 63.8901 6.81692 63.9401 7.88092C63.9521 8.14692 63.9621 8.36892 63.9701 8.59292L63.9761 8.78692C63.9939 9.51611 64.0015 10.2455 63.9991 10.9749L64.0001 11.7209V13.0309C64.0026 13.7607 63.9949 14.4904 63.9771 15.2199L63.9711 15.4139C63.9631 15.6379 63.9531 15.8589 63.9411 16.1259C63.8911 17.1899 63.7211 17.9159 63.4751 18.5529C63.2247 19.2207 62.8312 19.8255 62.3221 20.3249C61.8221 20.8332 61.2174 21.2267 60.5501 21.4779C59.9131 21.7249 59.1871 21.8929 58.1231 21.9429C57.8561 21.9549 57.6351 21.9649 57.4111 21.9729L57.2171 21.9789C56.4876 21.9967 55.7578 22.0044 55.0281 22.0019L54.2821 22.0029H52.9731C52.2434 22.0054 51.5136 21.9977 50.7841 21.9799L50.5901 21.9739C50.3527 21.9653 50.1154 21.9553 49.8781 21.9439C48.8141 21.8939 48.0881 21.7239 47.4501 21.4779C46.7828 21.2273 46.1783 20.8337 45.6791 20.3249C45.1701 19.8252 44.7763 19.2205 44.5251 18.5529C44.2781 17.9159 44.1101 17.1899 44.0601 16.1259C44.049 15.8886 44.039 15.6513 44.0301 15.4139L44.0251 15.2199C44.0067 14.4904 43.9983 13.7607 44.0001 13.0309V10.9749C43.9973 10.2455 44.0046 9.51611 44.0221 8.78692L44.0291 8.59292C44.0371 8.36892 44.0471 8.14692 44.0591 7.88092C44.1091 6.81592 44.2771 6.09092 44.5241 5.45292C44.7755 4.78554 45.1701 4.18136 45.6801 3.68292C46.179 3.17367 46.7831 2.77949 47.4501 2.52792C48.0881 2.28092 48.8131 2.11292 49.8781 2.06292L50.5901 2.03292L50.7841 2.02792C51.5133 2.00949 52.2427 2.00115 52.9721 2.00292L55.0281 2.00392ZM54.0001 7.00392C53.3376 6.99455 52.6798 7.11694 52.0651 7.36398C51.4503 7.61103 50.8907 7.97779 50.4189 8.44297C49.9471 8.90815 49.5725 9.46245 49.3168 10.0737C49.0611 10.6849 48.9294 11.3409 48.9294 12.0034C48.9294 12.666 49.0611 13.3219 49.3168 13.9332C49.5725 14.5444 49.9471 15.0987 50.4189 15.5639C50.8907 16.029 51.4503 16.3958 52.0651 16.6428C52.6798 16.8899 53.3376 17.0123 54.0001 17.0029C55.3262 17.0029 56.5979 16.4761 57.5356 15.5385C58.4733 14.6008 59.0001 13.329 59.0001 12.0029C59.0001 10.6768 58.4733 9.40506 57.5356 8.46738C56.5979 7.5297 55.3262 7.00392 54.0001 7.00392ZM54.0001 9.00392C54.3986 8.99657 54.7946 9.06871 55.1649 9.21612C55.5352 9.36353 55.8724 9.58326 56.1569 9.86246C56.4413 10.1417 56.6673 10.4747 56.8215 10.8423C56.9758 11.2098 57.0553 11.6043 57.0554 12.0029C57.0554 12.4015 56.9761 12.7961 56.8219 13.1636C56.6678 13.5312 56.4419 13.8644 56.1576 14.1437C55.8732 14.423 55.5361 14.6428 55.1658 14.7903C54.7955 14.9379 54.3996 15.0101 54.0011 15.0029C53.2054 15.0029 52.4424 14.6868 51.8798 14.1242C51.3172 13.5616 51.0011 12.7986 51.0011 12.0029C51.0011 11.2073 51.3172 10.4442 51.8798 9.8816C52.4424 9.31899 53.2054 9.00292 54.0011 9.00292L54.0001 9.00392ZM59.2501 5.50392C58.9275 5.51683 58.6224 5.65407 58.3987 5.88689C58.175 6.11971 58.0501 6.43005 58.0501 6.75292C58.0501 7.07578 58.175 7.38612 58.3987 7.61894C58.6224 7.85177 58.9275 7.989 59.2501 8.00192C59.5816 8.00192 59.8996 7.87022 60.134 7.6358C60.3684 7.40138 60.5001 7.08344 60.5001 6.75192C60.5001 6.4204 60.3684 6.10245 60.134 5.86803C59.8996 5.63361 59.5816 5.50192 59.2501 5.50192V5.50392Z" fill="#FAFAFA"/>
</svg>
