<svg width="40" height="40" viewBox="0 0 40 40" fill="none" xmlns="http://www.w3.org/2000/svg">
<rect width="40" height="40" fill="white"/>
<path d="M26.3 13.7102C26.2075 13.6175 26.0976 13.544 25.9766 13.4938C25.8556 13.4436 25.7259 13.4178 25.595 13.4178C25.464 13.4178 25.3343 13.4436 25.2134 13.4938C25.0924 13.544 24.9825 13.6175 24.89 13.7102L20 18.5902L15.11 13.7002C15.0174 13.6076 14.9075 13.5342 14.7865 13.4841C14.6656 13.434 14.5359 13.4082 14.405 13.4082C14.274 13.4082 14.1444 13.434 14.0234 13.4841C13.9025 13.5342 13.7926 13.6076 13.7 13.7002C13.6074 13.7928 13.534 13.9027 13.4839 14.0237C13.4337 14.1446 13.408 14.2743 13.408 14.4052C13.408 14.5362 13.4337 14.6658 13.4839 14.7868C13.534 14.9077 13.6074 15.0176 13.7 15.1102L18.59 20.0002L13.7 24.8902C13.6074 24.9828 13.534 25.0927 13.4839 25.2137C13.4337 25.3346 13.408 25.4643 13.408 25.5952C13.408 25.7262 13.4337 25.8558 13.4839 25.9768C13.534 26.0977 13.6074 26.2076 13.7 26.3002C13.7926 26.3928 13.9025 26.4662 14.0234 26.5163C14.1444 26.5665 14.274 26.5922 14.405 26.5922C14.5359 26.5922 14.6656 26.5665 14.7865 26.5163C14.9075 26.4662 15.0174 26.3928 15.11 26.3002L20 21.4102L24.89 26.3002C24.9826 26.3928 25.0925 26.4662 25.2134 26.5163C25.3344 26.5665 25.464 26.5922 25.595 26.5922C25.7259 26.5922 25.8556 26.5665 25.9765 26.5163C26.0975 26.4662 26.2074 26.3928 26.3 26.3002C26.3926 26.2076 26.466 26.0977 26.5161 25.9768C26.5662 25.8558 26.592 25.7262 26.592 25.5952C26.592 25.4643 26.5662 25.3346 26.5161 25.2137C26.466 25.0927 26.3926 24.9828 26.3 24.8902L21.41 20.0002L26.3 15.1102C26.68 14.7302 26.68 14.0902 26.3 13.7102Z" fill="#2F2F2F"/>
</svg>
