<svg width="88" height="16" viewBox="0 0 88 16" fill="none" xmlns="http://www.w3.org/2000/svg">
<path d="M7.99992 11.5134L12.1199 14L11.0266 9.31337L14.6666 6.16004L9.87325 5.75337L7.99992 1.33337L6.12658 5.75337L1.33325 6.16004L4.97325 9.31337L3.87992 14L7.99992 11.5134Z" fill="#008BCC"/>
<path d="M25.9999 11.5134L30.1199 14L29.0266 9.31337L32.6666 6.16004L27.8733 5.75337L25.9999 1.33337L24.1266 5.75337L19.3333 6.16004L22.9733 9.31337L21.8799 14L25.9999 11.5134Z" fill="#008BCC"/>
<path d="M43.9999 11.5134L48.1199 14L47.0266 9.31337L50.6666 6.16004L45.8733 5.75337L43.9999 1.33337L42.1266 5.75337L37.3333 6.16004L40.9733 9.31337L39.8799 14L43.9999 11.5134Z" fill="#008BCC"/>
<path d="M61.9999 11.5134L66.1199 14L65.0266 9.31337L68.6666 6.16004L63.8733 5.75337L61.9999 1.33337L60.1266 5.75337L55.3333 6.16004L58.9733 9.31337L57.8799 14L61.9999 11.5134Z" fill="#008BCC"/>
<path d="M79.9999 11.5134L84.1199 14L83.0266 9.31337L86.6666 6.16004L81.8733 5.75337L79.9999 1.33337L78.1266 5.75337L73.3333 6.16004L76.9733 9.31337L75.8799 14L79.9999 11.5134Z" fill="#B3B3B3"/>
</svg>
