<svg width="124" height="20" viewBox="0 0 124 20" fill="none" xmlns="http://www.w3.org/2000/svg">
<path d="M8.32283 2.79163H13.7994C14.5636 2.79163 15.0412 3.44787 14.8621 4.25043L12.3108 15.7496C12.1317 16.5521 11.3635 17.2084 10.5993 17.2084H5.12279C4.35856 17.2084 3.88098 16.5522 4.0601 15.7496L6.61129 4.25043C6.79041 3.44371 7.5546 2.79163 8.31879 2.79163H8.32283Z" fill="#D10429"/>
<path d="M13.3212 2.79163H19.622C20.3861 2.79163 20.0399 3.44787 19.8608 4.25043L17.3095 15.7496C17.1303 16.5521 17.1861 17.2084 16.4219 17.2084H10.1215C9.35333 17.2084 8.87968 16.5522 9.06276 15.7496L11.6141 4.25043C11.7931 3.44371 12.5573 2.79163 13.3255 2.79163H13.3215H13.3212Z" fill="#022E64"/>
<path d="M19.4002 2.79163H24.8768C25.641 2.79163 26.1186 3.44787 25.9395 4.25043L23.3882 15.7496C23.2091 16.5521 22.4409 17.2084 21.6767 17.2084H16.2002C15.432 17.2084 14.9583 16.5522 15.1375 15.7496L17.6888 4.25043C17.8678 3.44371 18.632 2.79163 19.3962 2.79163H19.4002Z" fill="#076F74"/>
<path d="M18.481 13.6324H18.9984L19.1456 13.1099H18.6322L18.481 13.6324ZM18.8949 12.1944L18.7158 12.8131C18.7158 12.8131 18.9108 12.7085 19.0183 12.6751C19.1258 12.65 19.2849 12.6291 19.2849 12.6291L19.4083 12.1986H18.8909L18.8949 12.1944ZM19.1536 11.3083L18.9825 11.9018C18.9825 11.9018 19.1735 11.8098 19.2809 11.7807C19.3884 11.7514 19.5476 11.743 19.5476 11.743L19.671 11.3125H19.1576L19.1536 11.3083ZM20.2959 11.3083L19.6273 13.6281H19.8063L19.6671 14.1089H19.4879L19.4442 14.2551H18.8073L18.8511 14.1089H17.5615L17.6889 13.6658H17.8203L18.4969 11.3083L18.6323 10.8318H19.281L19.2133 11.07C19.2133 11.07 19.3844 10.9405 19.5516 10.8944C19.7149 10.8485 20.6542 10.8318 20.6542 10.8318L20.5148 11.3041H20.2919L20.2959 11.3083Z" fill="#FEFEFE"/>
<path d="M20.5614 10.8316H21.254L21.2619 11.1033C21.258 11.1492 21.2938 11.1701 21.3774 11.1701H21.5167L21.3893 11.6175H21.0151C20.6928 11.6425 20.5694 11.4963 20.5773 11.3332L20.5654 10.8357L20.5614 10.8316ZM20.6467 12.9596H19.986L20.0974 12.5625H20.8536L20.9611 12.1988H20.2168L20.3442 11.7515H22.4139L22.2865 12.1988H21.59L21.4826 12.5625H22.1791L22.0636 12.9596H21.3113L21.176 13.1268H21.4825L21.5581 13.6284C21.5661 13.6785 21.5661 13.712 21.582 13.7329C21.5979 13.7496 21.6895 13.758 21.7412 13.758H21.8328L21.6895 14.2471H21.4546C21.4188 14.2471 21.3631 14.2429 21.2874 14.2429C21.2158 14.2345 21.1681 14.1927 21.1203 14.1676C21.0765 14.1467 21.0129 14.0924 20.9969 13.9963L20.9253 13.4947L20.583 13.9879C20.4755 14.1425 20.3283 14.2638 20.0775 14.2638H19.5999L19.7273 13.829H19.9104C19.9622 13.829 20.0099 13.8082 20.0458 13.7872C20.0816 13.7705 20.1134 13.7538 20.1453 13.6995L20.6467 12.9596ZM13.4198 11.8716H15.1671L15.0397 12.3105H14.3431L14.2357 12.6825H14.9521L14.8208 13.1339H14.1083L13.9332 13.74C13.9133 13.8069 14.1044 13.8153 14.172 13.8153L14.5302 13.7651L14.3869 14.2667H13.5829C13.5193 14.2667 13.4715 14.2583 13.3998 14.2416C13.3321 14.2249 13.3003 14.1915 13.2725 14.1455C13.2446 14.0953 13.1968 14.0577 13.2286 13.949L13.4595 13.1465H13.0615L13.1929 12.6867H13.5909L13.6983 12.3147H13.3004L13.4278 11.8757L13.4198 11.8716ZM14.627 11.0782H15.3434L15.2121 11.5338H14.2329L14.1254 11.6299C14.0777 11.6759 14.0658 11.6592 14.006 11.6927C13.9504 11.7219 13.8349 11.7804 13.6836 11.7804H13.3692L13.4966 11.3415H13.5921C13.6717 11.3415 13.7275 11.3331 13.7553 11.3164C13.7871 11.2955 13.823 11.2495 13.8588 11.1743L14.0378 10.8315H14.7504L14.627 11.0823V11.0782ZM15.9772 11.8306C15.9772 11.8306 16.1722 11.6425 16.5066 11.584C16.5823 11.5673 17.0599 11.5756 17.0599 11.5756L17.1315 11.3248H16.1245L15.9772 11.8348V11.8306ZM16.9245 12.0229H15.9254L15.8658 12.236H16.7334C16.8369 12.2235 16.8569 12.2402 16.8648 12.2319L16.9284 12.0229H16.9245ZM15.627 10.8357H16.2359L16.1484 11.1576C16.1484 11.1576 16.3395 10.9946 16.4748 10.9361C16.6101 10.8859 16.9126 10.8357 16.9126 10.8357L17.8996 10.8316L17.5614 12.0103C17.5056 12.211 17.4379 12.3406 17.3981 12.4033C17.3624 12.4618 17.3185 12.5161 17.231 12.5663C17.1474 12.6123 17.0717 12.6415 17.0001 12.6457C16.9364 12.6499 16.833 12.6541 16.6976 12.6541H15.7464L15.4797 13.5862C15.4559 13.6781 15.4439 13.7241 15.4599 13.7491C15.4718 13.7701 15.5076 13.7951 15.5514 13.7951L15.9693 13.7533L15.826 14.2633H15.3563C15.2051 14.2633 15.0976 14.2591 15.022 14.2549C14.9504 14.2466 14.8747 14.2549 14.823 14.2131C14.7792 14.1713 14.7116 14.117 14.7155 14.0626C14.7195 14.0125 14.7394 13.9289 14.7713 13.8118L15.627 10.8357Z" fill="#FEFEFE"/>
<path d="M17.4013 12.7117L17.3456 12.9959C17.3218 13.0837 17.3018 13.1506 17.2381 13.2091C17.1705 13.2677 17.0949 13.3303 16.9118 13.3303L16.5735 13.3471L16.5695 13.6647C16.5655 13.7525 16.5894 13.7441 16.6013 13.7608C16.6173 13.7775 16.6291 13.7817 16.6451 13.7901L16.7526 13.7817L17.075 13.765L16.9396 14.2332H16.5695C16.3108 14.2332 16.1158 14.2248 16.056 14.1747C15.9923 14.1328 15.9844 14.0827 15.9844 13.9907L16.0083 12.7451H16.6013L16.5934 13H16.7366C16.7844 13 16.8203 12.9959 16.8401 12.9833C16.86 12.9708 16.872 12.9499 16.88 12.9206L16.9396 12.72H17.4053L17.4013 12.7117ZM8.96399 6.47174C8.94411 6.57206 8.56203 8.41542 8.56203 8.41542C8.47841 8.78742 8.41872 9.05498 8.21972 9.22634C8.1043 9.32666 7.96895 9.37262 7.81376 9.37262C7.56299 9.37262 7.41972 9.24306 7.39584 8.99646L7.39184 8.91286C7.39184 8.91286 7.46745 8.41542 7.46745 8.41126C7.46745 8.41126 7.86549 6.7309 7.93714 6.50934C7.94111 6.49682 7.94111 6.48846 7.94111 6.48426C7.16495 6.49266 7.02568 6.48426 7.01772 6.47174C7.01372 6.48846 6.99384 6.59294 6.99384 6.59294L6.58784 8.48654L6.55199 8.64534L6.48438 9.17206C6.48438 9.3267 6.51222 9.45626 6.57195 9.56078C6.75899 9.90354 7.28838 9.9537 7.58688 9.9537C7.97295 9.9537 8.33514 9.8659 8.57791 9.71126C9.0038 9.4479 9.11522 9.0341 9.21076 8.67046L9.25853 8.48234C9.25853 8.48234 9.66849 6.7393 9.74014 6.51358C9.74411 6.50102 9.74411 6.49266 9.74811 6.4885C9.18291 6.49266 9.01972 6.4885 8.96399 6.47594V6.47174ZM11.2343 9.93666C10.9597 9.93246 10.8602 9.93246 10.5378 9.94918L10.5258 9.9241C10.5537 9.7945 10.5855 9.66914 10.6094 9.53954L10.6492 9.36398C10.7089 9.0923 10.7646 8.77042 10.7726 8.6743C10.7806 8.61578 10.7965 8.4695 10.6373 8.4695C10.5696 8.4695 10.502 8.5029 10.4303 8.53634C10.3905 8.68266 10.3149 9.0923 10.2751 9.27622C10.1955 9.66914 10.1915 9.7151 10.1557 9.90742L10.1318 9.93246C9.84922 9.9283 9.74972 9.9283 9.42334 9.94502L9.40741 9.91574C9.46314 9.68166 9.51488 9.44758 9.56664 9.2135C9.70195 8.5823 9.7378 8.3399 9.77357 8.01802L9.80145 8.0013C10.1199 7.95534 10.1955 7.94278 10.5418 7.87174L10.5696 7.90518L10.5179 8.10582C10.5776 8.06822 10.6333 8.03058 10.693 8.0013C10.8562 7.9177 11.0353 7.89262 11.1348 7.89262C11.286 7.89262 11.4532 7.93862 11.5209 8.12254C11.5846 8.28554 11.5447 8.48618 11.4572 8.8833L11.4134 9.08394C11.3258 9.52702 11.31 9.60642 11.2621 9.90738L11.2303 9.93246L11.2343 9.93666ZM12.352 9.93774C12.1848 9.93774 12.0773 9.93358 11.9739 9.93774C11.8704 9.93774 11.7709 9.94614 11.6156 9.9503L11.6077 9.93774L11.5997 9.92102C11.6435 9.75382 11.6634 9.6953 11.6873 9.63678C11.7072 9.57826 11.7271 9.51974 11.7669 9.34838C11.8146 9.12682 11.8465 8.97218 11.8664 8.83422C11.8903 8.70462 11.9022 8.59182 11.9181 8.46222L11.9301 8.45386L11.942 8.44134C12.1092 8.41626 12.2127 8.39954 12.3201 8.38282C12.4276 8.3661 12.539 8.34522 12.7102 8.31178L12.7181 8.3285L12.7221 8.34522L12.6266 8.75902C12.5948 8.89698 12.563 9.0349 12.5351 9.17286C12.4753 9.46546 12.4475 9.57414 12.4356 9.65354C12.4197 9.72878 12.4156 9.76642 12.3918 9.9169L12.3758 9.92942L12.3599 9.94198L12.352 9.93774ZM14.1189 8.91074C14.107 8.98598 14.0433 9.26606 13.9597 9.3831C13.9 9.47086 13.8323 9.52522 13.7527 9.52522C13.7289 9.52522 13.5935 9.52522 13.5896 9.31202C13.5896 9.20754 13.6095 9.09882 13.6333 8.98182C13.705 8.64322 13.7926 8.36318 14.0115 8.36318C14.1826 8.36318 14.1945 8.57218 14.1189 8.91074ZM14.8393 8.94418C14.9348 8.5011 14.8593 8.2921 14.7677 8.1667C14.6244 7.97442 14.3697 7.91174 14.107 7.91174C13.9478 7.91174 13.5737 7.92846 13.2791 8.2127C13.0682 8.4175 12.9687 8.69758 12.913 8.9651C12.8532 9.23678 12.7856 9.72586 13.2155 9.90978C13.3468 9.9683 13.5378 9.98498 13.6612 9.98498C13.9757 9.98498 14.2981 9.89306 14.5408 9.62554C14.7279 9.40818 14.8115 9.08214 14.8433 8.94418H14.8393ZM21.5482 9.98738C21.2138 9.98322 21.1183 9.98322 20.8118 9.99994L20.7919 9.97486C20.8755 9.64462 20.9591 9.31022 21.0347 8.97582C21.1302 8.5411 21.1541 8.35718 21.186 8.10222L21.2098 8.08134C21.5402 8.03118 21.6318 8.01866 21.978 7.95178L21.986 7.98102C21.9223 8.2569 21.8626 8.52862 21.7989 8.8003C21.6716 9.37298 21.6277 9.66558 21.58 9.96654L21.5482 9.99162V9.98738Z" fill="#FEFEFE"/>
<path d="M21.0677 8.9664C21.0517 9.03744 20.9881 9.32168 20.9045 9.43872C20.8488 9.52232 20.7135 9.57668 20.6378 9.57668C20.6139 9.57668 20.4826 9.57668 20.4747 9.36768C20.4747 9.26316 20.4945 9.15448 20.5184 9.03744C20.5901 8.70724 20.6777 8.42716 20.8966 8.42716C21.0677 8.42716 21.1433 8.63196 21.0677 8.97056V8.9664ZM21.7244 8.99984C21.8199 8.55676 21.4299 8.96224 21.3702 8.81592C21.2746 8.586 21.3343 8.1262 20.9523 7.97156C20.805 7.90884 20.4587 7.98828 20.1642 8.27252C19.9572 8.47316 19.8537 8.7532 19.7981 9.02072C19.7382 9.28824 19.6707 9.78152 20.0965 9.95288C20.2319 10.0156 20.3552 10.0323 20.4786 10.0239C20.9085 9.99884 21.2348 9.31748 21.4777 9.04996C21.6646 8.8368 21.6965 9.1294 21.7244 8.99984ZM16.7267 9.93636C16.4521 9.93216 16.3566 9.93216 16.0342 9.94888L16.0222 9.9238C16.0501 9.7942 16.082 9.66884 16.1097 9.53924L16.1456 9.36368C16.2053 9.092 16.265 8.77012 16.2689 8.674C16.2769 8.61548 16.2928 8.4692 16.1376 8.4692C16.0699 8.4692 15.9984 8.5026 15.9307 8.53604C15.8948 8.68236 15.8152 9.092 15.7754 9.27592C15.6998 9.66884 15.6919 9.7148 15.656 9.90712L15.6321 9.93216C15.3496 9.928 15.2501 9.928 14.9237 9.94472L14.9078 9.91544C14.9635 9.68136 15.0152 9.44728 15.067 9.2132C15.2023 8.582 15.2342 8.3396 15.2739 8.01772L15.2978 8.001C15.6163 7.95504 15.6959 7.94248 16.0381 7.87144L16.0661 7.90488L16.0183 8.10552C16.074 8.06792 16.1337 8.03028 16.1894 8.001C16.3526 7.9174 16.5317 7.89232 16.6312 7.89232C16.7825 7.89232 16.9456 7.93832 17.0172 8.12224C17.0809 8.28524 17.0372 8.48588 16.9496 8.883L16.9058 9.08364C16.8143 9.52672 16.8024 9.60612 16.7545 9.90708L16.7227 9.93216L16.7267 9.93636ZM19.1114 6.4756L18.8805 6.4798C18.2835 6.48816 18.0447 6.48396 17.9492 6.47144C17.9412 6.51744 17.9253 6.59684 17.9253 6.59684C17.9253 6.59684 17.7104 7.63348 17.7104 7.63764C17.7104 7.63764 17.2009 9.84468 17.177 9.94916C17.6984 9.9408 17.9094 9.9408 18.0009 9.95336C18.0209 9.84884 18.1402 9.2344 18.1442 9.2344C18.1442 9.2344 18.2477 8.78296 18.2517 8.76624C18.2517 8.76624 18.2835 8.72024 18.3153 8.69936H18.3631C18.8129 8.69936 19.3183 8.69936 19.7164 8.39424C19.9871 8.18524 20.1701 7.87172 20.2537 7.49552C20.2736 7.40356 20.2895 7.29488 20.2895 7.18204C20.2895 7.03572 20.2617 6.89364 20.1821 6.78076C19.9791 6.48396 19.577 6.4798 19.1114 6.4756ZM19.4099 7.55824C19.3621 7.78812 19.2189 7.9846 19.0358 8.07656C18.8845 8.15596 18.7014 8.16432 18.5104 8.16432H18.387L18.3949 8.11416C18.3949 8.11416 18.6219 7.07752 18.6219 7.08172L18.6297 7.02736L18.6337 6.98556L18.7253 6.99396C18.7253 6.99396 19.195 7.03572 19.2029 7.03572C19.386 7.11096 19.4656 7.30324 19.4099 7.55824ZM24.3026 7.90488L24.2747 7.87144C23.9364 7.94248 23.8727 7.95504 23.5623 8.00104L23.5384 8.02608C23.5384 8.03028 23.5344 8.03448 23.5344 8.0428V8.03864C23.3036 8.60292 23.3076 8.48172 23.1205 8.9248C23.1205 8.90388 23.1205 8.89136 23.1165 8.87044L23.0687 7.90904L23.0408 7.8756C22.6826 7.94668 22.6747 7.9592 22.3483 8.0052L22.3244 8.03028C22.3204 8.0428 22.3204 8.05536 22.3204 8.06788L22.3244 8.07208C22.3642 8.2936 22.3562 8.24344 22.3961 8.5904C22.416 8.76176 22.4399 8.93316 22.4597 9.10036C22.4915 9.3846 22.5115 9.52252 22.5512 9.95308C22.3284 10.3376 22.2766 10.4839 22.0617 10.8224L22.0736 10.8559C22.3961 10.8434 22.4676 10.8434 22.7064 10.8434L22.7583 10.7807C22.9373 10.3753 24.3065 7.90908 24.3065 7.90908L24.3026 7.90488ZM12.6595 8.18176C12.8426 8.048 12.8664 7.86408 12.7112 7.76796C12.556 7.6718 12.2814 7.70108 12.0983 7.83484C11.9152 7.96444 11.8953 8.14832 12.0506 8.24864C12.2018 8.34064 12.4764 8.31552 12.6595 8.18176Z" fill="#FEFEFE"/>
<path d="M22.7056 10.836L22.4389 11.3167C22.3553 11.4797 22.1961 11.6051 21.9494 11.6051L21.5234 11.5968L21.6469 11.162H21.7304C21.7742 11.162 21.8061 11.1579 21.8299 11.1453C21.8538 11.137 21.8658 11.1202 21.8857 11.0952L22.0449 10.8318H22.7095L22.7056 10.836Z" fill="#FEFEFE"/>
<g clip-path="url(#clip0_199_3187)">
<path d="M52.1454 4.01465C49.7313 4.01465 47.5739 5.37436 47.5739 7.88652C47.5739 10.7675 51.4001 10.9665 51.4001 12.4138C51.4001 13.0232 50.7574 13.5687 49.6597 13.5687C48.1019 13.5687 46.9375 12.8065 46.9375 12.8065L46.4394 15.3415C46.4394 15.3415 47.7806 15.9854 49.5614 15.9854C52.2008 15.9854 54.2777 14.5589 54.2777 12.0038C54.2777 8.95954 50.4356 8.76646 50.4356 7.42313C50.4356 6.94568 50.9632 6.42263 52.0578 6.42263C53.2927 6.42263 54.3003 6.97701 54.3003 6.97701L54.7879 4.5286C54.7879 4.5286 53.6916 4.01465 52.1454 4.01465ZM30.0585 4.19945L30 4.56902C30 4.56902 31.0156 4.77098 31.9304 5.17391C33.1082 5.6359 33.1921 5.90488 33.3904 6.74024L35.5519 15.7948H38.4495L42.9134 4.19945H40.0225L37.1542 12.0832L35.9838 5.40054C35.8764 4.63574 35.3327 4.19945 34.6672 4.19945H30.0585ZM44.0759 4.19945L41.8081 15.7948H44.5648L46.8247 4.19941H44.0759V4.19945ZM59.4511 4.19945C58.7863 4.19945 58.4341 4.58618 58.1757 5.26197L54.1369 15.7948H57.0278L57.5871 14.0393H61.1091L61.4492 15.7948H64L61.7747 4.19945H59.4511ZM59.8271 7.33215L60.684 11.6833H58.3882L59.8271 7.33215Z" fill="#1434CB"/>
</g>
<path d="M72.3164 3.33331H85.6497V10.5311L84.9898 11.5622L85.6497 12.48V16.6666H72.3164V9.8814L72.7289 9.40705L72.3164 8.95332V3.33331Z" fill="#016FD0"/>
<path d="M74.9047 12.6244V10.5311H77.1211L77.3589 10.8411L77.6046 10.5311H85.6497V12.48C85.6497 12.48 85.4394 12.6223 85.196 12.6244H80.7413L80.4732 12.2944V12.6244H79.5946V12.0611C79.5946 12.0611 79.4746 12.1397 79.2151 12.1397H78.916V12.6244H77.5858L77.3483 12.3077L77.1072 12.6244L74.9047 12.6244ZM72.3164 8.95334L72.8162 7.78809H73.6806L73.9642 8.44081V7.78809H75.0388L75.2076 8.25986L75.3713 7.78809H80.1947V8.02526C80.1947 8.02526 80.4483 7.78809 80.865 7.78809L82.43 7.79357L82.7088 8.43774V7.78809H83.608L83.8555 8.15811V7.78809H84.7629V9.88142H83.8555L83.6183 9.51018V9.8814H82.2972L82.1643 9.55142H81.8091L81.6784 9.8814H80.7825C80.4239 9.8814 80.1947 9.64908 80.1947 9.64908V9.8814H78.8439L78.5757 9.55144V9.88142H73.5526L73.4198 9.55144H73.0657L72.9339 9.8814H72.3164V8.95334Z" fill="white"/>
<path d="M72.9935 8.04617L72.3193 9.61358H72.7582L72.8826 9.29971H73.6058L73.7295 9.61358H74.1781L73.5045 8.04617H72.9935ZM73.2429 8.41094L73.4633 8.95942H73.0218L73.2429 8.41094ZM74.2245 9.61331V8.0459L74.8482 8.04821L75.2109 9.05879L75.565 8.0459H76.1837V9.61331H75.7919V8.45838L75.3765 9.61331H75.0328L74.6163 8.45838V9.61331H74.2245ZM76.4518 9.61331V8.0459H77.7305V8.3965H76.8478V8.66461H77.7099V8.9946H76.8478V9.27303H77.7305V9.61331H76.4518ZM77.9574 8.04617V9.61358H78.3492V9.05673H78.5142L78.9841 9.61358H79.4629L78.9473 9.0361C79.1589 9.01825 79.3772 8.83664 79.3772 8.55467C79.3772 8.22484 79.1183 8.04617 78.8294 8.04617H77.9574ZM78.3492 8.39677H78.7972C78.9046 8.39677 78.9828 8.48082 78.9828 8.56175C78.9828 8.66588 78.8815 8.72675 78.803 8.72675H78.3492V8.39677ZM79.9373 9.61331H79.5372V8.0459H79.9373V9.61331ZM80.886 9.61331H80.7996C80.3818 9.61331 80.128 9.28409 80.128 8.83605C80.128 8.37692 80.3789 8.0459 80.9066 8.0459H81.3397V8.41713H80.8908C80.6766 8.41713 80.5251 8.5843 80.5251 8.83991C80.5251 9.14346 80.6983 9.27095 80.9478 9.27095H81.051L80.886 9.61331ZM81.7386 8.04617L81.0645 9.61358H81.5034L81.6278 9.29971H82.3509L82.4747 9.61358H82.9232L82.2497 8.04617H81.7386ZM81.9881 8.41094L82.2085 8.95942H81.767L81.9881 8.41094ZM82.969 9.61331V8.0459H83.4672L84.1033 9.03069V8.0459H84.4952V9.61331H84.0131L83.3608 8.60275V9.61331H82.969ZM75.1732 12.3563V10.7889H76.4518V11.1395H75.5691V11.4076H76.4312V11.7376H75.5691V12.016H76.4518V12.3563H75.1732ZM81.4387 12.3563V10.7889H82.7174V11.1395H81.8347V11.4076H82.6926V11.7376H81.8347V12.016H82.7174V12.3563H81.4387ZM76.5015 12.3563L77.1241 11.5823L76.4866 10.7889H76.9803L77.3599 11.2793L77.7409 10.7889H78.2152L77.5862 11.5726L78.2099 12.3563H77.7163L77.3477 11.8736L76.9881 12.3563H76.5015ZM78.2564 10.7891V12.3565H78.6586V11.8616H79.0711C79.4201 11.8616 79.6846 11.6764 79.6846 11.3163C79.6846 11.018 79.4771 10.7891 79.122 10.7891H78.2564ZM78.6586 11.1436H79.093C79.2057 11.1436 79.2863 11.2127 79.2863 11.3241C79.2863 11.4287 79.2061 11.5045 79.0917 11.5045H78.6586V11.1436ZM79.8548 10.7889V12.3563H80.2466V11.7994H80.4116L80.8815 12.3563H81.3603L80.8447 11.7788C81.0563 11.761 81.2746 11.5793 81.2746 11.2974C81.2746 10.9675 81.0157 10.7889 80.7268 10.7889H79.8548ZM80.2466 11.1395H80.6946C80.802 11.1395 80.8802 11.2235 80.8802 11.3045C80.8802 11.4086 80.7789 11.4695 80.7004 11.4695H80.2466V11.1395ZM82.8989 12.3563V12.016H83.6831C83.7991 12.016 83.8494 11.9533 83.8494 11.8845C83.8494 11.8186 83.7993 11.752 83.6831 11.752H83.3287C83.0207 11.752 82.8491 11.5643 82.8491 11.2826C82.8491 11.0312 83.0062 10.7889 83.464 10.7889H84.227L84.0621 11.1415H83.4021C83.2759 11.1415 83.2371 11.2077 83.2371 11.271C83.2371 11.3359 83.2851 11.4076 83.3815 11.4076H83.7527C84.0961 11.4076 84.2451 11.6024 84.2451 11.8574C84.2451 12.1317 84.079 12.3563 83.734 12.3563H82.8989ZM84.3371 12.3563V12.016H85.1213C85.2373 12.016 85.2875 11.9533 85.2875 11.8845C85.2875 11.8186 85.2375 11.752 85.1213 11.752H84.7669C84.4589 11.752 84.2873 11.5643 84.2873 11.2826C84.2873 11.0312 84.4444 10.7889 84.9022 10.7889H85.6652L85.5002 11.1415H84.8403C84.7141 11.1415 84.6753 11.2077 84.6753 11.271C84.6753 11.3359 84.7233 11.4076 84.8197 11.4076H85.1909C85.5343 11.4076 85.6833 11.6024 85.6833 11.8574C85.6833 12.1317 85.5172 12.3563 85.1722 12.3563H84.3371Z" fill="#016FD0"/>
<path d="M111.27 10C111.27 13.9657 108.179 17.18 104.366 17.18C100.553 17.18 97.4619 13.9656 97.4619 10C97.4619 6.03469 100.553 2.82001 104.366 2.82001C108.179 2.82001 111.27 6.03485 111.27 10Z" fill="#D9222A"/>
<path d="M113.634 2.81982C111.851 2.81982 110.225 3.52366 109 4.6785C108.75 4.91406 108.517 5.16798 108.303 5.43834H109.698C109.889 5.67982 110.064 5.93382 110.224 6.19882H107.776C107.629 6.4437 107.496 6.69758 107.379 6.95914H110.621C110.733 7.20654 110.83 7.46034 110.914 7.7193H107.086C107.006 7.96866 106.939 8.2225 106.886 8.47962H111.114C111.218 8.97922 111.27 9.48886 111.27 9.99994C111.27 10.7973 111.145 11.5644 110.914 12.2808H107.086C107.17 12.5399 107.267 12.7937 107.378 13.0411H110.621C110.504 13.3027 110.371 13.5567 110.223 13.8016H107.776C107.936 14.0664 108.112 14.3203 108.303 14.5615H109.697C109.483 14.8323 109.25 15.0865 109 15.322C110.225 16.4766 111.851 17.1801 113.635 17.1801C117.448 17.1801 120.539 13.9657 120.539 10.0001C120.539 6.03498 117.448 2.82014 113.635 2.82014" fill="#EE9F2D"/>
<path d="M119.618 14.0024C119.618 13.8744 119.718 13.7703 119.841 13.7703C119.965 13.7703 120.064 13.8744 120.064 14.0024C120.064 14.1303 119.965 14.2344 119.841 14.2344C119.718 14.2344 119.618 14.1303 119.618 14.0024ZM119.841 14.1787C119.935 14.1787 120.011 14.0997 120.011 14.0024C120.011 13.9051 119.935 13.8263 119.842 13.8262H119.841C119.748 13.8261 119.672 13.9047 119.672 14.0019V14.0024C119.672 14.0997 119.748 14.1787 119.841 14.1787C119.841 14.1787 119.841 14.1787 119.841 14.1787ZM119.811 14.1043H119.766V13.9005H119.848C119.866 13.9005 119.883 13.9005 119.898 13.9106C119.914 13.9218 119.923 13.9415 119.923 13.9618C119.923 13.9846 119.91 14.0059 119.889 14.0143L119.925 14.1043H119.875L119.845 14.0236H119.811L119.811 14.1043ZM119.811 13.9887H119.837C119.846 13.9887 119.856 13.9895 119.865 13.9847C119.872 13.9797 119.876 13.9703 119.876 13.9613C119.876 13.953 119.872 13.9453 119.865 13.9406C119.857 13.9355 119.844 13.9366 119.836 13.9366H119.811V13.9887ZM102.754 10.7862C102.675 10.7767 102.64 10.7741 102.586 10.7741C102.161 10.7741 101.946 10.9256 101.946 11.2249C101.946 11.4093 102.051 11.5267 102.215 11.5267C102.52 11.5267 102.74 11.2243 102.754 10.7862ZM103.299 12.106H102.678L102.692 11.799C102.502 12.0416 102.25 12.1569 101.906 12.1569C101.5 12.1569 101.222 11.8269 101.222 11.3478C101.222 10.6268 101.706 10.2061 102.538 10.2061C102.622 10.2061 102.731 10.2141 102.843 10.2289C102.866 10.1313 102.872 10.0894 102.872 10.0369C102.872 9.84059 102.742 9.76743 102.392 9.76743C102.025 9.76311 101.722 9.85827 101.598 9.90075C101.606 9.85159 101.702 9.23439 101.702 9.23439C102.076 9.12055 102.322 9.07771 102.599 9.07771C103.243 9.07771 103.584 9.37823 103.583 9.94619C103.584 10.0984 103.56 10.2862 103.522 10.533C103.457 10.9624 103.318 11.8819 103.299 12.106ZM100.908 12.106H100.158L100.588 9.30615L99.6291 12.106H99.1184L99.0552 9.32215L98.604 12.106H97.9023L98.4884 8.46379H99.5661L99.6315 10.5025L100.289 8.46379H101.488L100.908 12.106ZM114.561 10.7862C114.482 10.7767 114.448 10.7741 114.394 10.7741C113.969 10.7741 113.754 10.9256 113.754 11.2249C113.754 11.4093 113.859 11.5267 114.022 11.5267C114.328 11.5267 114.548 11.2243 114.561 10.7862ZM115.106 12.106H114.485L114.499 11.799C114.31 12.0416 114.057 12.1569 113.714 12.1569C113.307 12.1569 113.029 11.8269 113.029 11.3478C113.029 10.6268 113.513 10.2061 114.345 10.2061C114.43 10.2061 114.539 10.2141 114.65 10.2289C114.673 10.1313 114.68 10.0894 114.68 10.0369C114.68 9.84059 114.549 9.76743 114.199 9.76743C113.832 9.76311 113.53 9.85827 113.406 9.90075C113.413 9.85159 113.51 9.23439 113.51 9.23439C113.883 9.12055 114.129 9.07771 114.406 9.07771C115.05 9.07771 115.391 9.37823 115.39 9.94619C115.392 10.0984 115.368 10.2862 115.33 10.533C115.265 10.9624 115.125 11.8819 115.106 12.106ZM106.63 12.061C106.425 12.1282 106.265 12.1569 106.091 12.1569C105.708 12.1569 105.499 11.9279 105.499 11.5063C105.493 11.3754 105.554 11.0311 105.602 10.7168C105.645 10.4401 105.927 8.69563 105.927 8.69563H106.672L106.585 9.14395H107.035L106.933 9.85579H106.481C106.395 10.4191 106.272 11.1208 106.27 11.2138C106.27 11.3664 106.348 11.4331 106.527 11.4331C106.612 11.4331 106.678 11.424 106.729 11.4051L106.63 12.061ZM108.914 12.037C108.658 12.1184 108.411 12.1577 108.149 12.157C107.315 12.1562 106.881 11.7032 106.881 10.8357C106.881 9.82323 107.434 9.07787 108.184 9.07787C108.799 9.07787 109.191 9.49519 109.191 10.1497C109.191 10.3669 109.164 10.5789 109.099 10.8782H107.616C107.565 11.3078 107.83 11.4869 108.263 11.4869C108.53 11.4869 108.77 11.4297 109.038 11.3003L108.914 12.037ZM108.495 10.281C108.499 10.2193 108.574 9.75235 108.149 9.75235C107.911 9.75235 107.741 9.94051 107.672 10.281H108.495ZM103.748 10.0803C103.748 10.455 103.923 10.7134 104.319 10.9074C104.623 11.0557 104.67 11.0998 104.67 11.2342C104.67 11.4189 104.536 11.5022 104.239 11.5022C104.016 11.5022 103.808 11.4659 103.568 11.3853C103.568 11.3853 103.469 12.0382 103.465 12.0694C103.635 12.1081 103.787 12.1439 104.245 12.157C105.035 12.157 105.401 11.8439 105.401 11.167C105.401 10.76 105.248 10.5212 104.872 10.3417C104.558 10.1917 104.522 10.1582 104.522 10.0199C104.522 9.85971 104.647 9.77803 104.889 9.77803C105.036 9.77803 105.237 9.79435 105.427 9.82251L105.534 9.13551C105.34 9.10351 105.046 9.07783 104.874 9.07783C104.036 9.07787 103.746 9.53335 103.748 10.0803ZM112.559 9.15571C112.768 9.15571 112.962 9.21255 113.229 9.35255L113.352 8.56203C113.242 8.51719 112.855 8.25403 112.528 8.25403C112.026 8.25403 111.602 8.51287 111.304 8.94003C110.869 8.79019 110.69 9.09303 110.471 9.39471L110.276 9.44187C110.291 9.34255 110.304 9.24387 110.3 9.14403H109.612C109.518 10.0607 109.351 10.9891 109.22 11.907L109.186 12.1061H109.936C110.061 11.2603 110.13 10.7189 110.172 10.3524L110.454 10.189C110.496 10.0259 110.628 9.97071 110.893 9.97739C110.858 10.1777 110.84 10.381 110.84 10.5847C110.84 11.5537 111.343 12.1571 112.15 12.1571C112.357 12.1571 112.536 12.1286 112.812 12.0507L112.944 11.2204C112.696 11.3476 112.492 11.4075 112.307 11.4075C111.871 11.4075 111.608 11.0729 111.608 10.5201C111.608 9.71803 112 9.15571 112.559 9.15571Z" fill="black"/>
<path d="M101.124 11.8896H100.374L100.804 9.09008L99.845 11.8896H99.3342L99.271 9.10608L98.8197 11.8896H98.1182L98.7042 8.24792H99.7819L99.8122 10.5024L100.539 8.24792H101.703L101.124 11.8896Z" fill="white"/>
<path d="M118.905 8.46399L118.739 9.51635C118.534 9.23583 118.314 9.03283 118.023 9.03283C117.645 9.03283 117.301 9.33103 117.075 9.76983C116.761 9.70215 116.437 9.58731 116.437 9.58731L116.437 9.58999C116.462 9.34463 116.472 9.19499 116.47 9.14415H115.781C115.688 10.0608 115.521 10.9893 115.391 11.9071L115.356 12.1062H116.106C116.207 11.4223 116.285 10.8545 116.342 10.4041C116.598 10.1635 116.726 9.95351 116.985 9.96751C116.871 10.2557 116.803 10.5876 116.803 10.9282C116.803 11.6687 117.164 12.1572 117.709 12.1572C117.983 12.1572 118.194 12.0587 118.4 11.8303L118.364 12.1057H119.073L119.644 8.46403L118.905 8.46399ZM117.968 11.4216C117.713 11.4216 117.584 11.2253 117.584 10.8378C117.584 10.2556 117.825 9.84279 118.165 9.84279C118.422 9.84279 118.562 10.0469 118.562 10.4231C118.562 11.0103 118.317 11.4216 117.968 11.4216Z" fill="black"/>
<path d="M102.969 10.5704C102.891 10.5609 102.856 10.5584 102.802 10.5584C102.377 10.5584 102.162 10.7099 102.162 11.0091C102.162 11.1932 102.267 11.3109 102.431 11.3109C102.736 11.3109 102.956 11.0086 102.969 10.5704ZM103.515 11.8897H102.894L102.908 11.5832C102.718 11.8254 102.465 11.9412 102.122 11.9412C101.716 11.9412 101.438 11.6112 101.438 11.1321C101.438 10.4108 101.922 9.99038 102.754 9.99038C102.838 9.99038 102.947 9.99838 103.059 10.0132C103.082 9.91558 103.088 9.87374 103.088 9.8209C103.088 9.62454 102.958 9.55174 102.608 9.55174C102.241 9.54742 101.938 9.64258 101.814 9.68458C101.822 9.63558 101.918 9.0191 101.918 9.0191C102.291 8.90478 102.538 8.86194 102.815 8.86194C103.459 8.86194 103.8 9.16262 103.799 9.7301C103.8 9.88294 103.776 10.0706 103.738 10.3171C103.673 10.7461 103.534 11.6661 103.515 11.8897ZM113.568 8.34606L113.445 9.13674C113.178 8.9969 112.983 8.93994 112.775 8.93994C112.216 8.93994 111.824 9.50226 111.824 10.3042C111.824 10.857 112.087 11.1914 112.523 11.1914C112.708 11.1914 112.911 11.1317 113.16 11.0044L113.028 11.8344C112.752 11.9127 112.574 11.9412 112.366 11.9412C111.559 11.9412 111.056 11.3379 111.056 10.3689C111.056 9.06686 111.75 8.15686 112.744 8.15686C113.071 8.1569 113.458 8.30122 113.568 8.34606ZM114.777 10.5704C114.699 10.5609 114.664 10.5584 114.61 10.5584C114.185 10.5584 113.97 10.7099 113.97 11.0091C113.97 11.1932 114.075 11.3109 114.239 11.3109C114.544 11.3109 114.764 11.0086 114.777 10.5704ZM115.322 11.8897H114.701L114.715 11.5832C114.526 11.8254 114.273 11.9412 113.93 11.9412C113.524 11.9412 113.245 11.6112 113.245 11.1321C113.245 10.4108 113.73 9.99038 114.561 9.99038C114.646 9.99038 114.755 9.99838 114.867 10.0132C114.89 9.91558 114.896 9.87374 114.896 9.8209C114.896 9.62454 114.765 9.55174 114.415 9.55174C114.049 9.54742 113.746 9.64258 113.622 9.68458C113.63 9.63558 113.726 9.0191 113.726 9.0191C114.099 8.90478 114.346 8.86194 114.623 8.86194C115.267 8.86194 115.607 9.16262 115.607 9.7301C115.608 9.88294 115.584 10.0706 115.546 10.3171C115.481 10.7461 115.341 11.6661 115.322 11.8897ZM106.846 11.8449C106.641 11.9121 106.481 11.9412 106.307 11.9412C105.924 11.9412 105.715 11.7122 105.715 11.2905C105.71 11.1593 105.77 10.8153 105.818 10.5011C105.861 10.224 106.143 8.4797 106.143 8.4797H106.888L106.801 8.92818H107.183L107.081 9.6397H106.698C106.611 10.2034 106.488 10.9045 106.486 10.9977C106.486 11.1509 106.565 11.217 106.743 11.217C106.828 11.217 106.894 11.2083 106.945 11.1893L106.846 11.8449ZM109.13 11.8212C108.874 11.9025 108.627 11.9417 108.365 11.9412C107.531 11.9404 107.097 11.4874 107.097 10.6199C107.097 9.60706 107.65 8.8619 108.401 8.8619C109.015 8.8619 109.407 9.27906 109.407 9.9339C109.407 10.1513 109.38 10.3632 109.315 10.6624H107.832C107.782 11.092 108.046 11.2713 108.479 11.2713C108.746 11.2713 108.987 11.2139 109.254 11.0842L109.13 11.8212ZM108.711 10.0647C108.716 10.0032 108.79 9.53606 108.365 9.53606C108.127 9.53606 107.958 9.72474 107.889 10.0647H108.711ZM103.964 9.86454C103.964 10.2392 104.139 10.4973 104.535 10.6915C104.839 10.8399 104.886 10.884 104.886 11.0184C104.886 11.2031 104.752 11.2864 104.455 11.2864C104.232 11.2864 104.024 11.2501 103.783 11.1695C103.783 11.1695 103.685 11.8224 103.681 11.8536C103.851 11.8923 104.003 11.9276 104.461 11.9412C105.252 11.9412 105.617 11.6281 105.617 10.9514C105.617 10.5442 105.464 10.3054 105.088 10.1259C104.774 9.97554 104.738 9.94254 104.738 9.80406C104.738 9.64406 104.863 9.5617 105.105 9.5617C105.252 9.5617 105.453 9.57854 105.643 9.6067L105.75 8.91954C105.556 8.88754 105.262 8.8619 105.091 8.8619C104.252 8.8619 103.962 9.31706 103.964 9.86454ZM119.289 11.8897H118.58L118.615 11.614C118.41 11.8427 118.199 11.9412 117.924 11.9412C117.379 11.9412 117.019 11.4527 117.019 10.7122C117.019 9.72698 117.578 8.8965 118.239 8.8965C118.53 8.8965 118.75 9.01998 118.954 9.30034L119.121 8.24802H119.86L119.289 11.8897ZM118.184 11.2054C118.533 11.2054 118.778 10.7941 118.778 10.2073C118.778 9.83106 118.638 9.6269 118.381 9.6269C118.041 9.6269 117.799 10.0395 117.799 10.6219C117.799 11.0093 117.929 11.2054 118.184 11.2054ZM115.997 8.92822C115.904 9.8449 115.737 10.7734 115.607 11.6907L115.572 11.8898H116.322C116.59 10.0788 116.655 9.7251 117.075 9.76942C117.142 9.39874 117.267 9.0741 117.36 8.91026C117.046 8.84226 116.871 9.02678 116.641 9.37726C116.659 9.22574 116.692 9.07858 116.686 8.92826L115.997 8.92822ZM109.827 8.92822C109.733 9.8449 109.567 10.7734 109.436 11.6907L109.402 11.8898H110.152C110.42 10.0788 110.485 9.7251 110.905 9.76942C110.972 9.39874 111.097 9.0741 111.19 8.91026C110.876 8.84226 110.7 9.02678 110.471 9.37726C110.489 9.22574 110.522 9.07858 110.516 8.92826L109.827 8.92822ZM119.619 11.6579C119.618 11.5299 119.718 11.4261 119.841 11.4259H119.842C119.964 11.4257 120.064 11.5293 120.064 11.6572V11.6579C120.064 11.7859 119.965 11.8897 119.842 11.8897C119.718 11.8897 119.619 11.7859 119.619 11.6579ZM119.842 11.8341C119.935 11.8341 120.011 11.7553 120.011 11.6581V11.6579C120.011 11.5606 119.935 11.4817 119.842 11.4816H119.842C119.748 11.4817 119.672 11.5606 119.672 11.6579C119.672 11.7552 119.748 11.8341 119.842 11.8341ZM119.811 11.7592H119.766V11.5559H119.848C119.866 11.5559 119.883 11.5563 119.898 11.5661C119.914 11.5774 119.923 11.5968 119.923 11.6171C119.923 11.6401 119.91 11.6615 119.889 11.6697L119.926 11.7592H119.875L119.845 11.6788H119.811L119.811 11.7592ZM119.811 11.6441H119.836C119.846 11.6441 119.856 11.6448 119.865 11.6401C119.872 11.6351 119.876 11.6256 119.876 11.6165C119.876 11.6081 119.872 11.6004 119.865 11.5956C119.857 11.5909 119.844 11.5923 119.836 11.5923H119.811L119.811 11.6441Z" fill="white"/>
<defs>
<clipPath id="clip0_199_3187">
<rect width="34" height="12" fill="white" transform="translate(30 4)"/>
</clipPath>
</defs>
</svg>
