<svg width="32" height="40" viewBox="0 0 32 40" fill="none" xmlns="http://www.w3.org/2000/svg">
<path d="M19.1248 29.1L10.6998 20.7C10.5998 20.6 10.5288 20.4917 10.4868 20.375C10.4448 20.2584 10.4242 20.1334 10.4248 20C10.4248 19.8667 10.4455 19.7417 10.4868 19.625C10.5282 19.5084 10.5992 19.4 10.6998 19.3L19.1248 10.875C19.3582 10.6417 19.6498 10.525 19.9998 10.525C20.3498 10.525 20.6498 10.65 20.8998 10.9C21.1498 11.15 21.2748 11.4417 21.2748 11.775C21.2748 12.1084 21.1498 12.4 20.8998 12.65L13.5498 20L20.8998 27.35C21.1332 27.5834 21.2498 27.871 21.2498 28.213C21.2498 28.555 21.1248 28.8507 20.8748 29.1C20.6248 29.35 20.3332 29.475 19.9998 29.475C19.6665 29.475 19.3748 29.35 19.1248 29.1Z" fill="#666666"/>
</svg>
