<svg width="112" height="16" viewBox="0 0 112 16" fill="none" xmlns="http://www.w3.org/2000/svg">
<path d="M8.00004 11.5133L12.12 14L11.0267 9.31331L14.6667 6.15998L9.87337 5.75331L8.00004 1.33331L6.12671 5.75331L1.33337 6.15998L4.97337 9.31331L3.88004 14L8.00004 11.5133Z" fill="#008BCC"/>
<path d="M32 11.5133L36.12 14L35.0267 9.31331L38.6667 6.15998L33.8734 5.75331L32 1.33331L30.1267 5.75331L25.3334 6.15998L28.9734 9.31331L27.88 14L32 11.5133Z" fill="#008BCC"/>
<path d="M56 11.5133L60.12 14L59.0267 9.31331L62.6667 6.15998L57.8734 5.75331L56 1.33331L54.1267 5.75331L49.3334 6.15998L52.9734 9.31331L51.88 14L56 11.5133Z" fill="#008BCC"/>
<path d="M80 11.5133L84.12 14L83.0267 9.31331L86.6667 6.15998L81.8734 5.75331L80 1.33331L78.1267 5.75331L73.3334 6.15998L76.9734 9.31331L75.88 14L80 11.5133Z" fill="#008BCC"/>
<path d="M104 11.5133L108.12 14L107.027 9.31331L110.667 6.15998L105.873 5.75331L104 1.33331L102.127 5.75331L97.3334 6.15998L100.973 9.31331L99.88 14L104 11.5133Z" fill="#008BCC"/>
</svg>
