<svg width="531" height="384" viewBox="0 0 531 384" fill="none" xmlns="http://www.w3.org/2000/svg">
<path opacity="0.5" d="M240.857 130.872L510.454 289.179C519.875 294.726 518.685 304.308 507.776 310.915L392.341 378.696C381.432 385.101 364.772 385.807 355.35 380.259L85.753 221.953C76.2821 216.405 77.4722 206.823 88.381 200.216L203.866 132.435C209.486 129.262 215.757 127.468 222.179 127.196C228.602 126.925 234.998 128.184 240.857 130.872Z" fill="url(#paint0_linear_3_17)"/>
<path opacity="0.5" d="M90.6614 264.467C99.5869 270.821 92.0995 279.193 78.7609 285.396C74.8695 287.515 70.5972 288.813 66.2005 289.212C61.8038 289.61 57.3733 289.102 53.1747 287.716C48.2161 285.85 44.3485 278.537 38.299 275.562C23.7208 268.3 5.12624 267.341 0.812285 259.071C-3.50167 250.8 10.2336 245.101 21.5887 241.016C27.8365 238.746 33.6875 241.016 43.5055 245.403C47.1748 247.068 50.8938 250.447 57.687 253.22C72.2652 259.777 82.5294 258.667 90.6614 264.467Z" fill="url(#paint1_linear_3_17)"/>
<path d="M433.993 106.311C427.146 109.716 420.844 114.154 415.299 119.473C418.374 124.517 423.531 132.283 425.216 132.283C426.902 132.283 435.431 123.256 438.505 115.388C439.221 114.05 439.597 112.55 439.597 111.026C439.597 109.502 439.221 108.002 438.505 106.664C437.096 105.981 435.488 105.856 433.993 106.311Z" fill="#5AB5FF"/>
<path d="M427.498 103.991C421.795 106.966 410.638 114.935 410.638 114.935C412.528 116.157 414.204 117.691 415.597 119.474C421.141 114.154 427.444 109.716 434.291 106.311C435.694 105.931 437.183 106.055 438.506 106.664C437.158 105.129 435.381 104.051 433.413 103.573C431.446 103.096 429.381 103.241 427.498 103.991Z" fill="#94C5FF"/>
<path d="M106.727 186.649L117.19 179.639L138.908 150.843C138.908 150.843 120.214 145.799 110.496 154.323C100.777 162.846 106.727 186.649 106.727 186.649Z" fill="#2A6ED1"/>
<path d="M302.442 300.628L336.061 277.328L334.623 264.821C334.623 264.821 315.88 259.777 306.161 268.3C296.442 276.824 302.442 300.628 302.442 300.628Z" fill="#2A6ED1"/>
<path d="M372.605 326.701C372.605 306.528 360.606 283.228 345.779 274.554C342.218 272.456 338.192 271.311 334.077 271.225C327.994 271.255 322.037 273.001 316.871 276.268C314.188 278.35 311.95 280.967 310.296 283.959C308.642 286.95 307.606 290.254 307.251 293.668L337.449 356.96C340.594 358.37 344.011 359.038 347.446 358.916C350.88 358.794 354.243 357.884 357.283 356.254C362.206 353.297 366.237 349.024 368.936 343.898C369.784 342.267 370.53 340.582 371.167 338.855C372.3 334.911 372.785 330.805 372.605 326.701Z" fill="#191919"/>
<path d="M349.358 356.867C361.202 351.741 363.58 330.321 354.67 309.023C345.759 287.725 328.935 274.615 317.092 279.74C305.248 284.866 302.87 306.286 311.78 327.584C320.691 348.882 337.515 361.992 349.358 356.867Z" fill="#333333"/>
<path d="M311.566 305.821C311.566 321.707 321.087 340.165 332.789 347.075C344.491 353.984 354.012 346.621 354.012 330.735C354.012 314.848 344.541 296.39 332.789 289.481C321.037 282.572 311.566 289.935 311.566 305.821Z" fill="#B3DDFF"/>
<path d="M332.044 292.809C342.606 298.962 351.134 315.554 351.134 329.826C351.134 344.099 342.606 350.705 332.044 344.502C321.482 338.299 313.003 321.707 313.003 307.434C313.003 293.162 321.532 286.606 332.044 292.809ZM336.209 297.6C335.026 296.317 333.654 295.228 332.143 294.372C330.101 292.886 327.604 292.189 325.102 292.406C324.341 292.495 323.628 292.831 323.069 293.364C322.474 294.019 322.623 294.826 323.069 296.138C323.515 297.449 324.656 299.164 325.499 300.475C326.342 301.786 326.193 300.828 327.085 300.929C327.963 300.939 328.834 301.092 329.664 301.383C331.188 302.019 332.609 302.886 333.879 303.955C334.523 304.459 334.821 304.308 335.069 303.955C335.738 302.855 336.255 301.667 336.606 300.424C336.753 299.954 336.794 299.455 336.725 298.966C336.657 298.477 336.48 298.01 336.209 297.6ZM321.879 312.73C321.938 316.596 322.889 320.395 324.654 323.82C326.42 327.244 328.951 330.2 332.044 332.449C337.647 335.777 342.209 332.449 342.209 324.682C342.146 320.809 341.194 317.005 339.429 313.573C337.664 310.14 335.135 307.175 332.044 304.913C326.441 301.483 321.879 305.064 321.879 312.679V312.73ZM348.358 318.731C347.574 315.032 346.236 311.477 344.391 308.191C343.443 306.395 342.313 304.704 341.019 303.148C340.126 302.391 339.631 302.694 339.333 303.4C338.784 304.654 338.401 305.977 338.193 307.334C338.134 307.667 338.143 308.009 338.22 308.339C338.297 308.669 338.439 308.979 338.639 309.25C339.842 311.053 340.888 312.96 341.763 314.949C342.274 316.231 342.705 317.545 343.052 318.882C343.498 320.295 343.449 320.849 343.944 321.253C344.964 322.053 346.06 322.745 347.217 323.321C348.159 323.875 348.605 323.724 348.705 322.463C348.694 321.183 348.511 319.91 348.159 318.681L348.358 318.731ZM344.093 343.241C344.639 343.241 346.027 341.98 346.821 340.72C348.446 338.485 349.332 335.783 349.349 333.004C349.424 331.804 349.341 330.6 349.101 329.423C348.804 328.011 348.308 327.456 347.366 327.153C346.354 326.809 345.305 326.589 344.242 326.498C343.746 326.498 343.895 327.103 343.647 328.212C343.53 329.25 343.28 330.267 342.903 331.238C342.364 332.529 341.551 333.683 340.523 334.617C340.126 335.021 340.176 335.576 340.523 336.231C341.058 337.954 341.705 339.638 342.457 341.274C342.705 342.485 343.201 343.241 344.093 343.191V343.241ZM326.54 337.694C327.197 338.731 327.98 339.68 328.87 340.518C330.806 342.623 333.335 344.068 336.11 344.653C337.341 345.018 338.648 345.018 339.878 344.653C340.523 344.099 340.424 343.191 339.878 342.132C339.236 340.398 338.474 338.713 337.598 337.089C337.3 336.483 336.953 336.029 336.358 336.029C334.932 335.991 333.529 335.647 332.242 335.021C331.298 334.499 330.402 333.891 329.565 333.205C328.623 332.499 328.325 331.944 327.978 332.297C327.227 333.017 326.592 333.85 326.094 334.769C325.796 335.626 325.796 336.382 326.54 337.643V337.694ZM315.879 320.143C316.882 323.732 318.439 327.137 320.491 330.23C321.129 331.266 321.915 332.2 322.821 333.004C323.714 333.861 324.16 333.609 324.457 332.55C324.847 331.334 325.129 330.085 325.3 328.818C325.3 328.162 324.953 327.809 324.259 326.498C323.559 325.301 322.945 324.054 322.424 322.766C321.621 320.74 320.991 318.648 320.54 316.512C320.437 315.847 320.081 315.249 319.548 314.848C318.437 314.025 317.219 313.363 315.929 312.881C315.235 312.881 314.689 312.881 314.59 313.94C314.8 316.032 315.232 318.095 315.879 320.093V320.143ZM315.879 310.359C316.99 310.891 318.179 311.232 319.4 311.368C319.796 311.368 320.143 311.368 320.143 310.41C320.225 308.697 320.525 307.001 321.036 305.367C321.348 304.501 321.783 303.685 322.325 302.946C322.821 302.139 323.218 302.139 323.019 301.383C322.581 299.673 322.052 297.99 321.433 296.339C320.937 294.978 320.441 294.372 319.598 294.423C318.842 294.514 318.14 294.871 317.615 295.432C315.841 297.374 314.744 299.854 314.491 302.492C314.154 304.252 314.07 306.053 314.243 307.838C314.283 308.365 314.46 308.872 314.756 309.306C315.052 309.74 315.457 310.087 315.929 310.309L315.879 310.359Z" fill="white"/>
<path d="M330.954 308.797C333.475 310.634 335.537 313.046 336.975 315.84C338.413 318.634 339.187 321.732 339.235 324.885C339.235 331.088 335.566 333.912 330.954 331.239C328.443 329.397 326.39 326.983 324.961 324.189C323.531 321.396 322.765 318.301 322.723 315.152C322.723 308.949 326.392 306.124 330.954 308.797Z" fill="#444444"/>
<path d="M347.218 323.119C346.062 322.544 344.965 321.851 343.946 321.051C343.45 320.648 343.5 320.093 343.053 318.681C342.706 317.343 342.275 316.029 341.764 314.747C340.889 312.758 339.844 310.851 338.64 309.048C338.44 308.777 338.298 308.467 338.221 308.137C338.144 307.808 338.135 307.465 338.194 307.132C338.402 305.775 338.785 304.453 339.334 303.198C339.632 302.492 340.128 302.19 341.02 302.946C342.314 304.503 343.444 306.193 344.392 307.989C346.238 311.275 347.576 314.83 348.359 318.53C348.626 319.703 348.743 320.906 348.706 322.11C348.607 323.522 348.161 323.674 347.218 323.119Z" fill="#333333"/>
<path d="M335.268 303.956C335.268 304.309 334.723 304.46 334.078 303.956C332.809 302.888 331.388 302.02 329.864 301.384C329.033 301.094 328.163 300.94 327.285 300.93C326.393 300.93 326.145 300.93 325.698 300.476C325.252 300.022 323.913 297.349 323.269 296.139C322.624 294.929 322.475 294.021 323.269 293.365C323.828 292.832 324.541 292.496 325.302 292.407C327.804 292.19 330.3 292.888 332.343 294.374C333.854 295.23 335.225 296.319 336.409 297.601C336.713 297.995 336.926 298.454 337.029 298.943C337.132 299.433 337.123 299.94 337.004 300.426C336.591 301.679 336.006 302.868 335.268 303.956Z" fill="#333333"/>
<path d="M314.541 302.643C314.794 300.005 315.891 297.525 317.664 295.583C318.19 295.022 318.891 294.665 319.648 294.574C320.491 294.574 320.987 295.129 321.482 296.49C322.102 298.141 322.631 299.824 323.069 301.534C323.069 302.29 323.069 302.29 322.375 303.097C321.832 303.836 321.398 304.652 321.086 305.518C320.574 307.152 320.274 308.848 320.193 310.561C320.193 311.418 319.846 311.519 319.449 311.519C318.229 311.383 317.04 311.042 315.929 310.511C315.487 310.294 315.105 309.969 314.819 309.563C314.533 309.158 314.352 308.686 314.293 308.191C314.101 306.339 314.184 304.469 314.541 302.643Z" fill="#333333"/>
<path d="M315.929 313.033C317.219 313.515 318.437 314.177 319.549 315C320.081 315.401 320.437 315.999 320.54 316.664C320.991 318.8 321.621 320.892 322.425 322.918C322.946 324.206 323.559 325.453 324.259 326.65C324.954 327.961 325.35 328.314 325.301 328.969C325.129 330.236 324.847 331.485 324.458 332.701C324.16 333.761 323.714 334.013 322.822 333.155C321.915 332.352 321.13 331.417 320.491 330.382C318.439 327.288 316.883 323.884 315.879 320.295C315.243 318.347 314.811 316.335 314.59 314.294C314.69 312.882 315.235 312.781 315.929 313.033Z" fill="#333333"/>
<path d="M328.326 332.348C328.673 331.995 328.971 332.348 329.913 333.256C330.75 333.942 331.646 334.549 332.59 335.071C333.877 335.697 335.28 336.041 336.706 336.08C337.301 336.08 337.648 336.534 337.946 337.139C338.822 338.763 339.584 340.448 340.226 342.182C340.574 343.241 340.673 344.149 340.226 344.704C338.996 345.068 337.689 345.068 336.458 344.704C333.683 344.118 331.154 342.673 329.218 340.568C328.328 339.73 327.545 338.781 326.888 337.744C326.144 336.483 326.144 335.727 326.64 334.92C327.069 333.979 327.637 333.112 328.326 332.348Z" fill="#333333"/>
<path d="M340.524 334.567C341.552 333.633 342.364 332.479 342.904 331.188C343.281 330.217 343.531 329.2 343.648 328.162C343.895 327.053 343.647 326.397 344.243 326.448C345.306 326.539 346.354 326.76 347.366 327.103C348.309 327.406 348.804 327.961 349.102 329.373C349.341 330.55 349.425 331.754 349.35 332.954C349.332 335.733 348.447 338.435 346.821 340.67C346.028 341.931 344.639 343.191 344.094 343.191C343.548 343.191 342.705 342.485 342.259 341.426C341.507 339.79 340.861 338.105 340.325 336.383C340.177 335.526 340.127 334.971 340.524 334.567Z" fill="#333333"/>
<path d="M174.61 209.799C174.61 189.626 162.611 166.326 147.785 157.652C144.223 155.554 140.197 154.409 136.082 154.324C129.995 154.326 124.032 156.074 118.876 159.367C116.195 161.435 113.961 164.043 112.315 167.028C110.668 170.012 109.644 173.31 109.306 176.715L139.454 239.705C142.595 241.129 146.015 241.806 149.452 241.684C152.889 241.561 156.253 240.643 159.289 238.999C164.217 236.073 168.251 231.813 170.941 226.694C171.781 225.059 172.526 223.375 173.172 221.651C174.272 217.804 174.758 213.802 174.61 209.799Z" fill="#191919"/>
<path d="M151.395 239.752C163.238 234.626 165.616 213.206 156.706 191.908C147.796 170.61 130.971 157.5 119.128 162.625C107.284 167.751 104.906 189.171 113.817 210.469C122.727 231.767 139.551 244.877 151.395 239.752Z" fill="#333333"/>
<path d="M113.57 188.718C113.57 204.604 123.091 223.062 134.793 229.921C146.495 236.779 156.015 229.517 156.015 213.631C156.015 197.745 146.545 179.236 134.793 172.377C123.041 165.519 113.57 172.781 113.57 188.718Z" fill="#B3DDFF"/>
<path d="M134.049 175.656C144.611 181.859 153.14 198.451 153.14 212.724C153.14 226.996 144.611 233.552 134.049 227.399C123.487 221.247 115.107 204.604 115.107 190.533C115.107 176.463 123.537 169.503 134.049 175.656ZM138.214 180.447C137.014 179.197 135.645 178.127 134.148 177.27C132.106 175.784 129.61 175.086 127.107 175.303C126.351 175.358 125.643 175.7 125.124 176.261C124.529 176.917 124.628 177.673 125.124 179.035C125.62 180.397 126.711 182.061 127.553 183.372C128.396 184.683 128.248 183.725 129.14 183.776C130.018 183.827 130.885 183.996 131.719 184.28C133.243 184.916 134.664 185.784 135.933 186.852C136.578 187.356 136.876 187.205 137.123 186.852C137.792 185.752 138.31 184.564 138.661 183.322C138.798 182.839 138.829 182.331 138.752 181.834C138.675 181.337 138.491 180.864 138.214 180.447ZM123.884 195.577C123.943 199.443 124.894 203.242 126.659 206.666C128.425 210.091 130.956 213.047 134.049 215.296C139.652 218.574 144.214 215.296 144.214 207.479C144.155 203.612 143.204 199.814 141.439 196.389C139.673 192.964 137.142 190.008 134.049 187.76C128.446 184.482 123.884 187.961 123.884 195.577ZM150.363 201.528C149.593 197.824 148.254 194.267 146.396 190.987C145.454 189.188 144.324 187.497 143.024 185.944C142.132 185.188 141.636 185.49 141.338 186.196C140.784 187.449 140.401 188.772 140.198 190.13C140.137 190.455 140.145 190.79 140.222 191.112C140.299 191.434 140.443 191.735 140.644 191.996C141.836 193.824 142.881 195.746 143.768 197.745C144.279 199.027 144.71 200.341 145.057 201.679C145.503 203.091 145.454 203.646 145.95 204.049C146.981 204.831 148.076 205.523 149.222 206.117C150.165 206.621 150.611 206.52 150.71 205.26C150.753 204.006 150.636 202.751 150.363 201.528ZM146.098 226.088C146.644 226.088 148.032 224.827 148.826 223.567C151.023 220.255 151.843 216.194 151.107 212.27C150.809 210.858 150.313 210.303 149.371 210C148.361 209.64 147.312 209.403 146.247 209.294C145.751 209.294 145.9 209.899 145.652 211.059C145.529 212.096 145.279 213.112 144.908 214.085C144.354 215.367 143.544 216.518 142.528 217.464C142.132 217.817 142.181 218.372 142.528 219.028C143.058 220.752 143.704 222.437 144.462 224.071C144.859 225.332 145.256 226.088 146.098 226.088ZM128.545 220.49C129.189 221.537 129.974 222.487 130.876 223.314C132.815 225.425 135.34 226.885 138.115 227.5C139.346 227.864 140.653 227.864 141.884 227.5C142.528 226.946 142.429 226.038 141.884 224.979C141.251 223.241 140.488 221.555 139.603 219.935C139.305 219.33 138.958 218.876 138.363 218.876C136.944 218.788 135.551 218.446 134.247 217.868C133.31 217.334 132.415 216.727 131.57 216.052C130.628 215.346 130.33 214.791 129.983 215.094C129.24 215.839 128.606 216.688 128.099 217.616C127.801 218.523 127.801 219.28 128.545 220.49ZM117.884 202.99C118.888 206.579 120.444 209.983 122.496 213.077C123.134 214.113 123.92 215.047 124.826 215.85C125.719 216.657 126.165 216.456 126.463 215.396C126.852 214.18 127.134 212.932 127.305 211.665C127.305 210.958 126.958 210.605 126.264 209.345C125.574 208.143 124.961 206.896 124.43 205.613C123.626 203.587 122.996 201.495 122.545 199.359C122.442 198.694 122.086 198.096 121.553 197.695C120.442 196.872 119.224 196.21 117.934 195.728C117.24 195.425 116.694 195.728 116.595 196.787C116.801 198.896 117.234 200.976 117.884 202.99ZM117.884 193.206C119.003 193.715 120.189 194.055 121.405 194.215C121.801 194.215 122.149 194.215 122.149 193.257C122.238 191.544 122.538 189.85 123.041 188.214C123.355 187.364 123.789 186.565 124.33 185.843C124.826 185.036 125.223 185.036 125.025 184.229C124.826 183.422 123.934 180.8 123.438 179.489C122.942 178.178 122.446 177.471 121.603 177.572C120.847 177.664 120.145 178.02 119.62 178.581C117.846 180.523 116.749 183.004 116.496 185.641C116.159 187.402 116.076 189.203 116.248 190.987C116.328 191.47 116.524 191.924 116.818 192.312C117.112 192.699 117.495 193.006 117.934 193.206H117.884Z" fill="white"/>
<path d="M132.958 191.693C135.472 193.525 137.53 195.929 138.968 198.713C140.406 201.498 141.183 204.586 141.239 207.731C141.239 213.934 137.57 216.808 132.958 214.136C130.447 212.294 128.394 209.879 126.965 207.085C125.535 204.292 124.769 201.197 124.727 198.048C124.727 191.845 128.396 189.02 132.958 191.693Z" fill="#444444"/>
<path d="M149.222 206.015C148.076 205.421 146.981 204.729 145.949 203.947C145.454 203.544 145.503 202.989 145.057 201.577C144.71 200.239 144.279 198.925 143.768 197.643C142.88 195.644 141.836 193.722 140.644 191.894C140.443 191.633 140.299 191.332 140.222 191.01C140.145 190.688 140.137 190.353 140.197 190.028C140.4 188.67 140.784 187.347 141.338 186.094C141.636 185.388 142.131 185.086 143.024 185.842C144.323 187.395 145.454 189.085 146.396 190.885C148.254 194.165 149.592 197.722 150.362 201.426C150.628 202.616 150.744 203.836 150.71 205.057C150.61 206.418 150.164 206.519 149.222 206.015Z" fill="#333333"/>
<path d="M137.272 186.852C137.024 187.205 136.727 187.356 136.082 186.852C134.812 185.784 133.391 184.916 131.867 184.28C131.034 183.996 130.166 183.827 129.289 183.776C128.396 183.776 128.148 184.028 127.702 183.372C127.256 182.716 125.917 180.245 125.272 179.035C124.628 177.825 124.529 176.917 125.272 176.261C125.792 175.7 126.5 175.358 127.256 175.303C129.758 175.086 132.254 175.784 134.297 177.27C135.794 178.127 137.163 179.197 138.363 180.447C138.665 180.851 138.875 181.319 138.978 181.816C139.081 182.313 139.074 182.828 138.958 183.322C138.56 184.573 137.993 185.761 137.272 186.852Z" fill="#333333"/>
<path d="M116.545 185.489C116.798 182.851 117.896 180.37 119.669 178.428C120.194 177.868 120.896 177.511 121.652 177.42C122.495 177.42 122.991 177.924 123.487 179.336C123.983 180.748 124.677 182.564 125.074 184.077C125.47 185.59 125.074 184.884 124.379 185.69C123.838 186.412 123.404 187.211 123.09 188.061C122.587 189.697 122.287 191.392 122.198 193.104C122.198 193.911 121.851 194.062 121.454 194.062C120.238 193.902 119.052 193.562 117.933 193.054C117.491 192.837 117.11 192.512 116.824 192.106C116.538 191.701 116.357 191.229 116.297 190.734C116.134 188.982 116.218 187.216 116.545 185.489Z" fill="#333333"/>
<path d="M117.934 195.93C119.224 196.412 120.442 197.074 121.554 197.897C122.086 198.298 122.442 198.895 122.546 199.561C122.996 201.697 123.627 203.789 124.43 205.815C124.961 207.098 125.574 208.344 126.265 209.547C126.959 210.807 127.355 211.16 127.306 211.866C127.134 213.133 126.852 214.382 126.463 215.598C126.165 216.657 125.719 216.859 124.826 216.052C123.92 215.249 123.135 214.314 122.496 213.278C120.444 210.185 118.888 206.781 117.884 203.192C117.248 201.243 116.816 199.232 116.595 197.191C116.694 195.577 117.24 195.577 117.934 195.93Z" fill="#333333"/>
<path d="M129.983 215.195C130.33 214.893 130.627 215.447 131.569 216.153C132.414 216.828 133.309 217.436 134.247 217.969C135.55 218.548 136.943 218.889 138.363 218.978C138.958 218.978 139.305 219.432 139.602 220.037C140.488 221.656 141.25 223.342 141.883 225.08C142.23 226.139 142.329 227.047 141.883 227.602C140.653 227.966 139.345 227.966 138.115 227.602C135.34 226.987 132.814 225.526 130.875 223.416C129.973 222.589 129.189 221.638 128.545 220.592C127.801 219.381 127.801 218.625 128.545 217.818C128.905 216.882 129.389 215.999 129.983 215.195Z" fill="#333333"/>
<path d="M142.529 217.463C143.544 216.517 144.355 215.366 144.909 214.084C145.279 213.11 145.529 212.094 145.653 211.058C145.653 209.898 145.653 209.293 146.248 209.293C147.313 209.402 148.361 209.639 149.371 209.999C150.314 210.301 150.809 210.856 151.107 212.268C151.843 216.192 151.023 220.253 148.826 223.565C148.033 224.826 146.644 226.087 146.099 226.087C145.553 226.087 144.71 225.33 144.264 224.322C143.506 222.688 142.86 221.003 142.33 219.278C142.181 218.371 142.132 217.816 142.529 217.463Z" fill="#333333"/>
<path d="M469.744 163.401C456.455 152.811 439.993 140.253 430.076 132.486C425.117 138.74 415.2 148.473 393.779 162.292C374.952 174.546 355.03 184.964 334.276 193.408C333.681 193.661 373.102 218.978 400.225 250.498C409.746 261.593 420.704 268.855 445.943 262.601C461.07 256.864 475.326 248.986 488.29 239.201C498.832 231.283 507.97 221.595 515.314 210.555C504.058 192.097 489.43 179.035 469.744 163.401Z" fill="#33BEFF"/>
<path d="M526.123 229.013C523.315 222.748 520.186 216.638 516.751 210.706C503.115 227.247 460.273 255.489 449.562 258.818C425.266 266.282 414.158 256.347 404.44 247.572C373.746 219.683 334.028 193.76 334.623 193.508C355.376 185.064 375.299 174.646 394.126 162.392C415.497 148.573 425.414 138.84 430.422 132.586L426.009 129.207C415.348 115.893 403.696 93.4508 389.762 74.0344C386.916 69.9209 383.677 66.1032 380.093 62.6367C370.176 65.814 357.978 61.8803 349.102 58.1483C331.308 50.2974 312.323 45.6065 292.971 44.2794C272.013 43.763 251.059 45.453 230.444 49.3227C211.254 52.6007 194.196 62.5359 173.866 59.4091C186.213 51.2391 214.923 32.6296 234.212 22.1901C243.898 16.9452 253.716 12.0533 263.666 7.51442C267.286 5.85016 271.054 3.93367 274.922 2.16855C272.667 1.31169 270.366 0.587662 268.029 0C260.479 1.14628 253.191 3.657 246.509 7.41354C238.873 11.0447 230.196 16.8443 219.882 21.3328C218.94 21.7867 211.006 24.863 207.981 26.376C180.66 42.2621 92.5459 94.056 92.5459 94.056C92.5459 94.056 139.255 121.794 190.081 156.945C240.906 192.096 318.161 244.243 366.953 278.688C415.745 313.133 404.44 342.687 404.44 342.687L509.363 281.361L519.577 275.41C525.28 272.737 529.098 269.106 529.098 263.407C529.098 256.347 532.073 243.537 526.123 229.013Z" fill="#008BCC"/>
<path d="M234.113 22.2403C214.825 32.6797 186.114 51.2892 173.768 59.4592C194.098 62.3842 211.155 52.4491 230.345 49.3727C250.961 45.5031 271.915 43.813 292.872 44.3295C312.064 45.6597 330.894 50.2983 348.557 58.0471C357.433 61.7791 369.78 65.7128 379.548 62.5355C376.095 59.1978 372.267 56.2863 368.143 53.8612L311.467 20.7777C299.7 13.7165 287.454 7.51456 274.823 2.21869C270.955 3.98382 267.187 5.90023 263.567 7.56449C253.683 12.1034 243.865 16.9953 234.113 22.2403Z" fill="#33BEFF"/>
<path d="M409.894 296.843C400.572 274.199 377.911 250.546 353.565 231.281C338.094 219.026 318.508 203.997 309.384 196.987C298.723 183.673 287.07 161.231 273.137 141.814C267.662 133.573 260.445 126.68 252.013 121.642L195.386 88.558C192.015 86.5912 166.379 71.3607 151.85 67.78C149.024 67.1244 134.049 72.218 109.306 86.8434C105.091 89.3145 95.9673 91.8865 92.5459 94.2064C87.984 97.6358 87.5873 108.428 87.5873 127.391C87.5873 133.09 86.8434 161.079 92.8929 169.3C95.1115 173.875 97.9858 178.09 101.422 181.807C101.422 181.252 101.422 180.647 101.422 180.092C101.422 150.993 118.777 137.679 140.198 150.237C160.379 162.088 176.99 192.751 178.825 220.59C186.808 225.33 204.461 235.719 230.344 250.445C263.368 269.307 290.789 284.84 298.475 289.177C300.806 264.566 317.119 253.875 336.953 265.625C358.374 278.183 375.729 311.973 375.729 341.021C375.729 341.526 375.729 342.03 375.729 342.534C380.619 345.228 385.972 346.94 391.498 347.578C403.249 344.501 413.018 340.719 413.018 331.54C412.919 324.127 415.894 311.569 409.894 296.843Z" fill="#008BCC"/>
<path d="M336.904 265.677C317.07 254.027 300.756 264.618 298.426 289.229C290.74 284.892 263.319 269.359 230.295 250.497C204.412 235.67 186.759 225.281 178.776 220.641C178.776 219.986 178.776 219.179 178.776 218.372C176.247 191.189 159.983 161.837 140.347 150.288C118.926 137.731 101.571 151.045 101.571 180.144C101.571 180.699 101.571 181.304 101.571 181.859C103.078 183.559 104.738 185.112 106.529 186.499C106.529 185.742 106.529 184.935 106.529 184.179C106.529 159.467 121.405 148.12 139.504 158.963C157.603 169.806 172.528 198.401 172.528 223.112C172.528 224.071 172.528 224.978 172.528 225.886L175.9 227.853L178.776 229.517L298.227 298.66L302.492 301.081C302.492 300.274 302.492 299.416 302.492 298.559C302.492 273.847 317.368 262.5 335.466 273.343C353.565 284.186 368.49 312.73 368.49 337.442C368.49 338.199 368.49 338.854 368.49 339.56C369.482 339.913 372.408 341.275 375.829 342.737C375.829 342.233 375.829 341.729 375.829 341.225C375.68 312.024 358.325 278.235 336.904 265.677Z" fill="#2A7BD3"/>
<path d="M378.209 75.9008C368.566 83.3338 358.426 90.0744 347.862 96.0737C322.326 111.203 274.723 134.654 274.723 134.654L309.433 188.667C329.615 170.713 396.655 131.124 409.894 124.013C400.146 107.437 389.57 91.3783 378.209 75.9008Z" fill="#B5E0FF"/>
<path d="M382.869 160.275C417.579 140.102 422.538 132.234 422.538 132.234L382.373 72.0687C382.373 72.0687 381.035 73.3295 378.059 75.6998C389.404 91.1784 399.963 107.237 409.695 123.812C396.456 130.923 329.416 170.512 309.235 188.466L313.449 195.577C337.307 185.33 360.494 173.538 382.869 160.275Z" fill="#97CDFC"/>
<path opacity="0.5" d="M276.707 137.731C276.707 137.731 329.813 129.964 358.87 117.053C392.588 101.924 399.035 96.8806 399.035 96.8806L382.523 72.1688C369.585 81.9436 356.127 90.9847 342.209 99.2509C327.978 107.724 274.723 134.553 274.723 134.553L276.707 137.731Z" fill="white"/>
<path d="M508.767 246.513C509.164 240.259 511.495 231.887 515.412 230.626C515.412 230.626 515.957 230.979 516.403 231.635C516.453 230.879 516.453 230.121 516.403 229.366C514.618 228.105 510.007 224.575 510.007 224.776C499.842 243.688 453.083 271.83 421.249 272.183C418.422 272.183 428.538 280.554 429.232 280.353C436.469 278.377 444.14 278.838 451.099 281.664C460.471 276.268 470.537 271.981 479.809 266.534C487.297 261.592 499.197 253.472 508.767 246.513Z" fill="#191919"/>
<path d="M475.496 286.353C486.68 280.188 497.553 273.455 508.074 266.18C509.859 265.021 510.157 261.995 509.958 258.717C495.316 270.124 479.426 279.77 462.604 287.463C464.696 288.277 466.942 288.6 469.175 288.408C471.407 288.216 473.568 287.514 475.496 286.353Z" fill="#191919"/>
<path d="M453.728 282.974L459.629 286.101C468.058 281.512 476.835 277.578 485.066 272.535C493.297 267.492 501.727 262.045 509.859 256.245C509.561 253.724 509.115 251.202 508.966 249.639C491.694 262.598 473.189 273.766 453.728 282.974Z" fill="#191919"/>
<path d="M459.628 286.354L461.81 287.514L462.603 287.917C479.425 280.225 495.316 270.579 509.958 259.171C509.958 258.314 509.958 257.406 509.66 256.498C501.727 262.298 493.396 267.694 484.867 272.788C476.339 277.881 468.058 281.311 459.628 286.354Z" fill="#333333"/>
<path d="M508.718 248.883C508.718 248.177 508.718 247.319 508.718 246.512C499.148 253.472 487.248 261.642 479.661 266.282C470.389 271.981 460.323 276.368 450.951 281.411C451.821 281.754 452.666 282.158 453.48 282.622C472.872 273.401 491.31 262.234 508.52 249.286C508.768 249.387 508.718 249.135 508.718 248.883Z" fill="#333333"/>
<path d="M432.852 282.773C428.935 272.687 416.737 266.131 405.729 264.063C400.77 263.155 385.002 260.129 381.283 267.038C380.341 268.804 383.514 272.082 387.333 274.402C395.037 278.778 401.221 285.472 405.035 293.566C406.165 296.72 407.844 299.641 409.993 302.19C412.869 305.367 423.728 299.87 427.001 297.499C432.455 293.566 435.926 290.742 432.852 282.773Z" fill="#B5E0FF"/>
<path d="M503.71 194.568C501.826 207.428 510.801 227.349 515.412 236.78C517.892 241.823 524.288 241.823 528.404 236.074C524.1 220.184 515.553 205.818 503.71 194.568Z" fill="#B5E0FF"/>
<path d="M529.842 245.252C529.698 245.008 529.494 244.805 529.251 244.664C529.008 244.523 528.734 244.447 528.454 244.445C521.908 245.151 519.082 250.446 517.694 256.448C515.958 264.113 514.52 268.854 507.132 273.241C501.677 276.519 496.124 279.596 490.57 282.723L462.852 298.558C458.552 300.097 453.828 299.844 449.712 297.852C444.356 294.776 440.637 292.103 435.282 296.995C428.163 303.382 423.711 312.294 422.836 321.908C422.836 325.287 422.836 326.094 427.448 323.774C438.456 318.277 450.902 309.401 459.232 310.864C463.546 308.393 497.81 289.178 508.421 282.118C509.584 279.282 511.643 276.922 514.272 275.41C520.16 272.402 525.259 268.011 529.148 262.6C530.312 256.895 530.546 251.034 529.842 245.252Z" fill="#191919"/>
<path d="M441.381 299.667C439.874 300.758 438.641 302.193 437.779 303.858C436.918 305.522 436.453 307.369 436.423 309.25C436.423 312.931 438.604 314.595 441.381 312.982C442.89 311.905 444.126 310.48 444.988 308.823C445.85 307.166 446.313 305.324 446.34 303.45C446.29 299.768 444.108 298.104 441.381 299.667Z" fill="#444444"/>
<path d="M523.296 252.363C521.944 253.36 520.837 254.662 520.063 256.167C519.288 257.672 518.868 259.339 518.833 261.038C518.833 264.366 520.866 266.081 523.296 264.467C524.654 263.476 525.764 262.175 526.539 260.668C527.314 259.162 527.732 257.492 527.759 255.793C527.759 252.464 525.775 251.052 523.296 252.363Z" fill="#444444"/>
<path d="M430.571 310.511C429.642 311.229 428.883 312.15 428.351 313.207C427.819 314.263 427.527 315.427 427.497 316.614C427.497 319.034 428.935 320.144 430.671 319.085C431.652 318.384 432.455 317.456 433.015 316.377C433.576 315.299 433.877 314.101 433.894 312.882C433.795 310.562 432.456 309.452 430.571 310.511Z" fill="#444444"/>
<path d="M176.494 96.6281C165.04 90.4754 153.437 88.9624 143.619 99.4018C141.013 102.523 138.58 105.79 136.33 109.186L295.946 202.939V188.869C289.748 178.782 282.211 166.426 275.517 156.138C252.559 141.714 232.328 131.88 211.056 118.516C199.701 111.203 188.445 103.083 176.494 96.6281Z" fill="#B5E0FF"/>
<path d="M259.848 135.057C249.931 127.038 213.287 104.444 183.833 87.7511C167.172 78.3203 159.04 73.4788 151.602 74.6892C144.958 75.7483 142.082 79.1777 137.371 85.2295C130.975 93.5508 125.124 102.578 125.124 102.578L136.33 109.185C138.58 105.789 141.013 102.522 143.619 99.4009C153.536 88.9615 165.04 90.4745 176.494 96.6272C187.949 102.78 199.7 111.202 211.204 118.515C232.328 131.879 252.559 141.714 275.666 156.137C271.105 148.586 265.806 141.523 259.848 135.057Z" fill="#97CDFC"/>
<path d="M326.937 197.946C326.69 197.946 326.442 197.946 326.64 198.299C340.513 207.655 353.689 218.038 366.06 229.365C377.366 239.452 387.878 251.001 400.77 258.566C399.035 253.018 355.846 212.017 326.937 197.946Z" fill="#3688D8"/>
<path d="M498.801 204.653C481 179.437 454.422 158.054 429.133 140.857C429.133 140.857 428.687 140.857 428.886 141.21C440.687 151.599 453.331 160.979 465.083 171.469C476.835 181.959 494.14 202.586 498.801 204.653Z" fill="#3688D8"/>
<path d="M430.571 282.925C429.523 280.378 427.78 278.189 425.549 276.616C423.317 275.043 420.69 274.152 417.977 274.049C411.332 274.654 403.101 275.562 407.564 282.875C409.531 286.629 411.19 290.542 412.522 294.575C413.96 297.702 416.34 300.627 420.406 298.307C427.497 294.424 433.596 291.398 430.571 282.925Z" fill="white"/>
<path d="M512.883 214.437C510.751 216.303 514.172 225.986 516.602 232.139C519.032 238.292 520.519 238.392 523.742 236.678C526.966 234.963 525.28 227.6 522.057 222.153C518.834 216.707 515.759 211.916 512.883 214.437Z" fill="white"/>
<path d="M225.436 110.446C225.436 110.446 222.362 147.363 222.362 165.569C222.362 183.775 211.205 166.224 211.056 162.845C210.312 147.716 217.304 106.563 217.304 106.563L225.436 110.446Z" fill="#3688D8"/>
<path d="M405.134 327.457C403.666 329.53 402.006 331.455 400.175 333.206C398.246 334.578 396.407 336.077 394.672 337.694C394.225 338.199 394.672 338.804 395.267 338.754C397.728 338.049 399.934 336.629 401.614 334.669C403.57 332.799 405.168 330.576 406.324 328.112C406.367 328.033 406.393 327.946 406.402 327.856C406.411 327.766 406.403 327.675 406.378 327.588C406.352 327.502 406.311 327.421 406.255 327.351C406.199 327.281 406.13 327.222 406.051 327.179C405.973 327.136 405.888 327.109 405.799 327.1C405.711 327.091 405.621 327.099 405.536 327.125C405.451 327.151 405.372 327.193 405.303 327.25C405.234 327.307 405.176 327.377 405.134 327.457Z" fill="#2A7BD3"/>
<path d="M391.201 333.004C390.267 331.459 389.056 330.108 387.63 329.02C386.45 327.732 385.117 326.597 383.664 325.641C383.552 325.566 383.418 325.532 383.285 325.543C383.152 325.555 383.026 325.612 382.929 325.706C382.832 325.799 382.768 325.923 382.748 326.057C382.729 326.192 382.754 326.33 382.821 326.448C383.757 327.945 384.855 329.332 386.093 330.583C387.141 332.031 388.434 333.278 389.911 334.265C390.087 334.358 390.286 334.394 390.482 334.366C390.678 334.337 390.861 334.247 391.004 334.108C391.146 333.968 391.242 333.786 391.277 333.588C391.313 333.39 391.286 333.185 391.201 333.004Z" fill="#2A7BD3"/>
<path d="M174.61 183.221C174.61 183.221 187.85 183.877 226.725 204.655C269.071 227.248 277.649 232.846 307.252 260.584C300.97 264.567 296.373 270.788 294.36 278.034C294.36 278.034 212.99 229.467 183.585 212.724C183.016 202.29 179.934 192.158 174.61 183.221Z" fill="#33BEFF"/>
<path d="M89.0259 100.914C91.2394 102.757 93.5755 104.442 96.0175 105.957C97.4555 106.815 97.9514 109.992 97.6043 113.774C97.0589 119.574 96.1663 126.937 95.9184 129.761C95.5217 134.149 90.5135 131.072 87.6375 129.761C86.3334 120.141 86.8043 110.358 89.0259 100.914Z" fill="#B5E0FF"/>
<path d="M157.9 72.4211C151.55 86.9441 145.988 101.81 141.239 116.953C140.049 122.45 146.495 127.897 147.09 125.476C151.057 108.036 155.906 90.8153 161.619 73.8836C161.966 72.9254 157.9 72.4211 157.9 72.4211Z" fill="#3688D8"/>
<path d="M220.328 109.841C220.328 109.841 215.369 147.313 214.08 166.779C212.872 191.245 213.635 215.769 216.361 240.108C216.361 240.108 216.361 218.422 216.609 208.083C217.452 189.575 217.551 165.72 219.088 152.608C220.973 136.823 222.361 111.001 222.361 111.001L220.328 109.841Z" fill="#2A7BD3"/>
<path d="M230.494 170.662C226.923 169.25 224.643 168.846 223.998 170.964C223.105 173.94 227.271 176.008 228.956 176.966C232.378 178.781 236.692 182.009 238.378 178.428C240.064 174.848 233.37 171.771 230.494 170.662Z" fill="#333333"/>
<path d="M152.396 124.416C148.875 123.055 146.594 122.601 145.95 124.719C145.007 127.745 149.222 129.762 150.908 130.771C154.379 132.586 158.693 135.814 160.379 132.233C162.065 128.653 155.272 125.576 152.396 124.416Z" fill="#333333"/>
<path d="M292.326 267.441C290.49 268.465 288.733 269.628 287.07 270.921C285.682 271.929 283.698 272.787 282.954 274.35C282.886 274.476 282.854 274.62 282.862 274.763C282.871 274.907 282.92 275.046 283.003 275.162C283.086 275.279 283.201 275.369 283.333 275.421C283.465 275.474 283.609 275.487 283.748 275.46C285.423 274.78 286.918 273.709 288.111 272.333C289.868 271.07 291.526 269.67 293.07 268.147C293.162 268.047 293.211 267.913 293.206 267.776C293.202 267.639 293.144 267.509 293.045 267.416C292.946 267.322 292.815 267.272 292.68 267.277C292.546 267.282 292.418 267.341 292.326 267.441Z" fill="#2A7BD3"/>
<path d="M251.418 251.051C250.724 248.832 250.327 246.462 249.782 244.193C249.725 244.038 249.624 243.905 249.491 243.811C249.358 243.717 249.2 243.666 249.038 243.666C248.876 243.666 248.718 243.717 248.585 243.811C248.452 243.905 248.35 244.038 248.294 244.193C248.288 246.656 248.656 249.106 249.385 251.455C249.881 253.17 250.377 255.792 252.063 256.498C252.133 256.54 252.211 256.565 252.292 256.572C252.373 256.579 252.454 256.568 252.53 256.539C252.606 256.51 252.675 256.464 252.731 256.405C252.788 256.345 252.83 256.274 252.856 256.195C253.253 254.582 251.963 252.615 251.418 251.051Z" fill="#2A7BD3"/>
<path d="M256.922 244.193C256.575 245.605 256.228 247.017 255.93 248.43C255.531 249.524 255.395 250.7 255.534 251.859C255.534 252.565 256.476 252.515 256.823 251.859C257.436 250.814 257.809 249.642 257.914 248.43C258.211 247.118 258.459 245.807 258.757 244.546C259.054 243.286 257.22 242.983 256.922 244.193Z" fill="#2A7BD3"/>
<path d="M234.112 243.74C233.17 242.025 231.881 240.562 231.088 238.696C230.112 236.59 229.539 234.313 229.402 231.989C229.402 231.384 228.509 231.182 228.41 231.989C227.882 234.339 228.073 236.798 228.96 239.034C229.846 241.27 231.385 243.176 233.369 244.496C233.418 244.546 233.475 244.585 233.539 244.612C233.603 244.639 233.671 244.653 233.741 244.653C233.81 244.653 233.878 244.639 233.942 244.612C234.006 244.585 234.064 244.546 234.112 244.496C234.161 244.446 234.2 244.387 234.226 244.323C234.253 244.258 234.267 244.188 234.267 244.118C234.267 244.048 234.253 243.978 234.226 243.913C234.2 243.848 234.161 243.789 234.112 243.74Z" fill="#2A7BD3"/>
<path d="M197.073 213.38C195.833 214.389 194.792 215.549 193.552 216.608C192.312 217.667 190.726 218.272 190.18 219.533C190.118 219.632 190.083 219.747 190.079 219.864C190.075 219.982 190.103 220.099 190.159 220.202C190.214 220.305 190.296 220.391 190.396 220.451C190.496 220.511 190.61 220.542 190.726 220.542C192.312 220.542 193.8 218.928 194.792 217.869C196.043 216.714 196.924 215.202 197.321 213.532C197.321 213.532 197.221 213.279 197.073 213.38Z" fill="#2A7BD3"/>
<path d="M204.361 226.845C203.816 225.634 202.774 224.827 202.229 223.567C201.833 222.349 201.534 221.101 201.336 219.835C201.336 219.229 200.245 219.028 199.998 219.835C199.417 221.429 199.435 223.185 200.048 224.767C200.661 226.349 201.826 227.645 203.32 228.408C203.522 228.501 203.75 228.518 203.964 228.457C204.178 228.395 204.363 228.259 204.488 228.072C204.612 227.885 204.668 227.66 204.644 227.435C204.621 227.21 204.521 227.001 204.361 226.845Z" fill="#2A7BD3"/>
<path d="M98.6446 152.103C98.7104 151.943 98.7108 151.762 98.6457 151.602C98.5806 151.441 98.4553 151.313 98.2975 151.246C98.1397 151.179 97.9623 151.179 97.8042 151.245C97.6461 151.311 97.5204 151.439 97.4546 151.599C96.3536 153.266 95.8827 155.283 96.1287 157.275C96.3748 159.268 97.3212 161.103 98.7934 162.442C98.9053 162.508 99.0344 162.539 99.1637 162.53C99.293 162.521 99.4165 162.472 99.5182 162.391C99.6199 162.309 99.6951 162.198 99.7339 162.072C99.7726 161.946 99.7732 161.812 99.7355 161.685C98.3912 158.687 98.0095 155.335 98.6446 152.103Z" fill="#2A7BD3"/>
<path opacity="0.5" d="M275.219 18.3577C275.219 17.1473 272.393 14.8275 271.996 14.6762C269.186 13.8153 266.214 13.6453 263.326 14.1801C260.438 14.7149 257.717 15.9393 255.385 17.7525C250.157 20.6468 245.419 24.3757 241.352 28.7971C239.716 30.8648 238.724 32.983 243.187 32.983C253.53 30.7894 263.595 27.4055 273.186 22.8966C275.517 21.6358 275.913 19.8202 275.219 18.3577Z" fill="white"/>
<path d="M226.576 86.4908C206.197 76.9086 189.536 64.7545 167.817 58.9548C167.123 58.9548 166.627 59.8122 167.321 60.1148C186.461 69.2934 257.716 107.824 274.228 120.23C267.534 109.841 243.287 94.3582 226.576 86.4908Z" fill="#3688D8"/>
<path d="M322.326 30.8645C301.995 21.3329 285.285 9.12831 263.567 3.32861C262.872 3.32861 262.376 4.18591 263.071 4.53894C282.211 13.6672 353.515 52.1973 369.977 64.6541C363.283 54.0633 339.036 38.732 322.326 30.8645Z" fill="#3688D8"/>
<path d="M488.041 258.062C489.261 259.246 490.084 260.79 490.393 262.476C490.702 264.162 490.481 265.904 489.763 267.455C489.044 269.006 487.864 270.288 486.389 271.119C484.914 271.95 483.219 272.288 481.545 272.085C479.871 271.883 478.302 271.149 477.06 269.989C475.819 268.828 474.968 267.3 474.628 265.621C474.288 263.941 474.476 262.195 475.166 260.63C475.856 259.066 477.012 257.761 478.471 256.902C479.904 255.798 481.702 255.301 483.486 255.518C485.271 255.734 486.904 256.646 488.041 258.062Z" fill="white"/>
<path d="M291.583 206.621C291.583 206.621 302.393 208.79 304.674 207.428C305.231 207.026 305.669 206.477 305.943 205.841C306.217 205.206 306.316 204.506 306.23 203.817C306.143 203.128 305.874 202.476 305.452 201.931C305.029 201.386 304.469 200.967 303.831 200.72C300.74 200.267 297.6 200.267 294.509 200.72L291.583 206.621Z" fill="#333333"/>
<path d="M277.054 203.797C283.173 198.243 290.076 193.653 297.533 190.181L296.591 189.172C293.665 186.6 291.384 189.172 288.558 190.282C281.765 193.56 272.046 199.208 267.93 207.429C264.558 214.187 265.154 218.826 270.41 219.482C270.117 216.509 270.574 213.509 271.736 210.765C272.899 208.021 274.729 205.623 277.054 203.797Z" fill="#5AB5FF"/>
<path d="M289.649 214.033C299.566 208.99 302.046 202.333 300.905 196.685C300.373 194.249 299.208 192.002 297.533 190.179C290.076 193.651 283.173 198.241 277.054 203.796C274.729 205.621 272.899 208.019 271.736 210.763C270.574 213.507 270.118 216.507 270.41 219.48C277.175 219.363 283.798 217.488 289.649 214.033Z" fill="#489CEF"/>
<path opacity="0.5" d="M272.146 79.5812C270.663 78.4202 268.982 77.5482 267.187 77.0092C262.228 75.6979 258.956 75.0927 256.873 69.3435C253.997 61.6273 248.791 55.8276 239.915 56.7354C232.61 58.1211 225.465 60.2674 218.593 63.1403L194.445 71.1086C189.334 72.0562 184.639 74.5936 181.007 78.3708C178.817 82.9331 177.761 87.9725 177.933 93.0466C176.544 106.159 172.974 122.348 182.891 132.888C184.332 133.917 185.526 135.262 186.385 136.825C187.243 138.388 187.744 140.128 187.85 141.915C187.114 149.962 186.8 158.042 186.908 166.123C187.205 171.166 187.899 190.885 197.916 185.741C200.891 184.228 201.684 180.244 202.428 177.268C203.916 171.317 205.354 162.139 206.99 156.036C213.039 157.196 211.948 169.855 212.345 171.62C212.512 173.562 212.912 175.476 213.535 177.319C214.626 180.193 216.411 183.673 219.882 183.118C223.353 182.564 224.841 179.336 225.634 176.814C227.667 170.561 226.18 163.299 227.469 156.642C228.411 151.598 229.105 145.597 234.361 143.126C235.601 142.521 236.84 143.126 238.229 142.369C240.857 140.755 241.303 137.326 241.7 134.351C242.394 129.307 241.303 123.861 247.303 122.096C250.683 121.545 254.096 121.224 257.518 121.137C259.324 121.135 261.101 120.672 262.686 119.791C264.271 118.91 265.614 117.639 266.592 116.094C266.99 115.476 267.25 114.775 267.353 114.043C267.456 113.311 267.399 112.565 267.187 111.858C266.338 110.629 265.739 109.24 265.426 107.772C265.113 106.305 265.092 104.788 265.365 103.312C265.638 101.836 266.198 100.431 267.014 99.1786C267.829 97.9265 268.883 96.8532 270.112 96.0221C271.168 95.1524 272.178 94.2266 273.137 93.2484C274.888 91.6317 276.014 89.4316 276.311 87.0451C276.242 85.5555 275.83 84.1033 275.106 82.8064C274.382 81.5095 273.368 80.4045 272.146 79.5812Z" fill="white"/>
<path d="M463.793 116.801C463.793 116.801 447.033 119.827 443.959 120.735C440.885 121.643 441.381 123.307 447.876 122.349C453.383 121.16 458.727 119.297 463.793 116.801Z" fill="white"/>
<path d="M461.165 124.971C458.555 127.211 456.428 129.975 454.918 133.091C453.48 136.318 453.232 139.546 454.372 138.588C455.739 136.515 456.886 134.3 457.794 131.981C459.331 129.308 461.165 124.971 461.165 124.971Z" fill="white"/>
<path d="M248.989 63.8482C246.807 60.1667 234.41 66.1177 231.088 67.6307C227.766 69.1436 223.204 69.9001 219.783 71.3122C224.493 66.8742 231.981 60.9736 231.138 53.9635C231.127 53.7616 231.066 53.5658 230.962 53.3937C230.858 53.2217 230.712 53.0791 230.54 52.9788C230.367 52.8785 230.173 52.8238 229.974 52.8196C229.775 52.8154 229.579 52.8619 229.402 52.9549C221.121 56.5356 214.279 61.9823 205.502 64.8065C197.6 67.1874 189.397 68.3768 181.155 68.3367C181.424 73.6262 180.838 78.9247 179.42 84.0211C186.699 89.3803 192.546 96.5055 196.428 104.749C198.61 108.884 200.593 113.12 202.725 117.256C203.767 119.223 205.8 123.459 207.981 124.569C210.163 125.678 212.394 123.56 212.94 120.635C213.355 117.263 212.582 113.85 210.758 111.002C215.717 114.179 221.667 116.449 223.799 111.305C225.931 106.161 213.882 96.9317 208.626 93.0988C209.667 93.0988 230.741 98.1421 232.229 91.7876C233.617 86.1392 210.014 81.9534 208.031 81.3986C214.279 81.3986 254.988 74.5399 248.989 63.8482Z" fill="#B5E0FF"/>
<path d="M183.586 67.427C186.837 67.2575 190.014 66.3822 192.905 64.8599C195.796 63.3377 198.333 61.2037 200.346 58.6014C202.329 55.0207 192.412 59.4083 190.181 59.8622C185.291 60.8901 180.292 61.28 175.305 61.0222C167.966 60.6187 160.429 60.1648 153.289 60.1648C153.057 61.0114 153.004 61.8981 153.132 62.767C153.26 63.636 153.567 64.4677 154.033 65.208C154.677 66.4184 160.032 74.7397 160.231 74.7397C166.098 79.0584 171.559 83.9207 176.545 89.2642C179.47 92.4918 181.949 95.9716 184.528 99.3506C186.114 101.519 188.643 104.848 190.081 103.234C194.494 98.1907 187.255 89.5668 183.139 84.927C186.253 86.877 189.464 88.6613 192.759 90.2728C193.362 90.4521 193.998 90.4868 194.617 90.3741C195.235 90.2613 195.82 90.0043 196.324 89.6232C196.829 89.242 197.24 88.7471 197.524 88.1773C197.809 87.6075 197.96 86.9783 197.965 86.3391C198.362 83.5653 191.024 79.8333 188.296 77.816C191.519 77.816 200.494 81.4976 201.932 77.816C203.965 72.7728 187.255 68.587 183.586 67.427Z" fill="#CAE9F9"/>
<path d="M154.776 60.8718C158.148 59.7623 164.693 51.7941 160.429 52.3993C155.942 53.1743 151.53 54.3385 147.239 55.8791C140.446 57.7955 130.231 56.1817 120.958 54.82C129.869 59.1765 138.513 64.0774 146.842 69.4958C150.61 72.32 153.734 75.699 157.205 78.8258C157.762 79.5415 158.46 80.131 159.255 80.5565C160.049 80.9821 160.921 81.2342 161.817 81.2969C165.09 81.2969 165.585 78.8257 164.842 76.2537C164.479 74.9751 163.945 73.7533 163.255 72.6225C165.189 72.9756 166.775 72.6226 167.371 70.5549C168.808 65.7638 160.28 62.5361 154.776 60.8718Z" fill="#E1F4FF"/>
<path d="M139.205 60.015C143.648 62.2192 147.881 64.8359 151.85 67.832C158.345 71.7657 156.808 67.5294 153.883 65.2599C149.184 62.9946 144.265 61.2366 139.205 60.015Z" fill="white"/>
<path d="M163.007 57.9464C163.503 57.9464 172.626 54.4665 176.345 52.9031C180.064 51.3397 181.304 53.9621 176.345 56.3829C172.062 57.878 167.512 58.4115 163.007 57.9464Z" fill="white"/>
<path d="M169.056 63.6965C169.056 63.6965 176.246 63.6965 179.568 64.2008C182.89 64.7051 183.386 66.9746 179.171 66.8737C175.636 66.4558 172.207 65.3788 169.056 63.6965Z" fill="white"/>
<path d="M172.28 79.1788L184.577 91.7869C188.246 95.4684 190.924 90.5261 185.668 86.7437C181.431 83.8296 176.951 81.2984 172.28 79.1788Z" fill="white"/>
<path d="M198.461 63.6961C202.786 61.079 206.973 58.2341 211.006 55.1731C214.973 51.8445 217.8 53.9627 213.436 58.0477C208.938 61.0773 203.814 63.0103 198.461 63.6961Z" fill="white"/>
<path d="M207.039 71.7151C207.039 71.7151 219.485 67.8823 225.436 65.7137C231.386 63.5451 233.865 65.7137 227.617 69.4457C221.37 73.1777 207.039 71.7151 207.039 71.7151Z" fill="white"/>
<path d="M193.056 92.5934C197.587 96.3298 201.77 100.483 205.552 105C209.37 110.043 212.246 105.454 207.039 100.915C202.745 97.548 198.046 94.7518 193.056 92.5934Z" fill="white"/>
<path d="M226.278 83.0107C226.278 83.0107 238.129 82.6577 246.707 81.3969C255.286 80.1361 254.145 86.4401 246.212 86.4401C239.442 86.2502 232.732 85.0958 226.278 83.0107Z" fill="white"/>
<path d="M84.1656 129.41C82.5823 127.932 80.6534 126.89 78.5624 126.384C75.3187 126.55 72.1139 127.178 69.0419 128.25L67.7031 134.353C67.7031 134.353 75.488 138.69 78.4631 137.832C81.4383 136.975 84.1656 129.41 84.1656 129.41Z" fill="#FFC9B6"/>
<path d="M130.727 54.3654C121.653 50.7847 113.521 47.3554 108.761 46.0946C104.001 44.8338 103.505 48.2631 102.563 50.7343C102.017 52.1464 100.976 54.5672 100.232 56.9879C98.7445 61.6781 99.8851 62.7876 103.059 63.998C107.571 65.6623 111.091 66.9735 112.976 67.5786C114.86 68.1838 115.653 67.5787 116.595 65.6118C117.481 63.7877 118.275 61.9193 118.975 60.0138C119.209 59.4144 119.652 58.9235 120.219 58.6351C120.786 58.3467 121.438 58.281 122.05 58.4504C124.132 59.0556 127.008 59.8625 128.446 60.1147C130.727 60.4173 132.116 54.8193 130.727 54.3654ZM114.067 62.8885C113.174 65.0066 110.645 63.4936 107.967 62.5354C103.753 61.1233 103.009 60.3669 103.951 58.0974C105.339 54.4159 105.736 53.5081 105.736 53.5081L116.447 57.3914C116.447 57.3914 115.108 60.4173 114.067 62.7876V62.8885Z" fill="#333333"/>
<path d="M108.761 265.526C100.282 252.112 70.6294 242.126 59.8693 241.319C57.4416 241.461 55.022 240.925 52.8721 239.77C50.7222 238.614 48.9238 236.883 47.6713 234.763C44.6466 228.207 48.1671 216.91 57.5884 203.798C70.7782 184.986 80.7449 146.204 81.7862 121.845C82.309 102.582 84.3319 83.3914 87.8357 64.4534C89.7199 56.7877 92.2487 52.2992 95.6702 50.282C98.432 48.9173 101.59 48.6302 104.546 49.475C104.837 49.105 104.979 48.6363 104.943 48.1638C101.643 47.1842 98.1007 47.5084 95.0257 49.0716C91.2572 51.2906 88.5794 56.0816 86.5464 64.2012C83.047 83.1932 80.9915 102.431 80.3978 121.744C79.3565 145.952 69.4891 184.381 56.448 202.991C46.9772 216.557 43.407 228.207 46.5309 235.318C47.8542 237.68 49.7985 239.62 52.1459 240.921C54.4933 242.222 57.1508 242.831 59.8198 242.681C70.0841 243.437 99.4883 253.423 107.67 266.283C108.922 267.948 109.794 269.875 110.223 271.925C110.652 273.974 110.627 276.096 110.149 278.135C107.769 286.758 95.5214 292.709 84.7118 297.954L83.6705 298.509L84.2159 299.719L85.2573 299.215C96.3645 293.819 108.86 287.767 111.488 278.488C111.974 276.255 111.983 273.941 111.512 271.705C111.042 269.469 110.103 267.361 108.761 265.526Z" fill="#515151"/>
<path d="M70.133 241.974C68.695 239.251 63.9348 239.352 57.8853 241.319C51.8359 243.286 49.6046 244.093 49.555 245.908C49.5054 247.724 48.6624 252.616 56.1994 252.061C58.7817 252.051 61.3308 251.468 63.6688 250.353C66.0068 249.238 68.0774 247.618 69.7364 245.606C70.0434 244.422 70.177 243.198 70.133 241.974Z" fill="#191919"/>
<path d="M49.6545 92.7958C49.4012 91.8423 48.958 90.9519 48.3524 90.1798C47.7468 89.4077 46.9917 88.7704 46.134 88.3073C44.6252 87.1077 42.8581 86.2896 40.9778 85.9201C39.0975 85.5506 37.1578 85.6403 35.3183 86.1819C33.4788 86.7234 31.792 87.7014 30.3965 89.0354C29.0011 90.3693 27.9369 92.0211 27.2915 93.8549C24.6635 100.663 27.5394 107.673 29.8699 114.431C31.2087 118.214 29.5724 124.215 32.0517 127.443C34.531 130.67 53.2247 120.634 53.5222 110.649C52.9021 104.568 51.6045 98.5785 49.6545 92.7958Z" fill="#008BCC"/>
<path d="M50.6464 76.103C48.9605 80.2888 41.0764 95.7211 41.0764 95.7211L58.9768 104.799C59.3173 97.4725 60.7038 90.2354 63.0925 83.3148C66.4643 74.5396 50.6464 76.103 50.6464 76.103Z" fill="#FFB9A4"/>
<path d="M59.9182 147.615C58.7282 144.488 58.1827 143.479 54.9596 143.277C51.7366 143.076 48.216 143.782 45.0425 143.277C40.136 142.738 35.3285 141.499 30.7618 139.596C28.8776 138.89 25.8033 148.623 25.357 153.414C24.8673 158.481 25.2193 163.596 26.3983 168.544C23.0058 176.947 22.5852 186.287 25.2083 194.97C21.3401 198.947 18.3011 203.676 16.2732 208.876C14.2454 214.075 13.2704 219.638 13.4069 225.23C13.0102 241.469 17.1259 237.939 24.8116 230.979C32.7602 221.671 39.9726 211.739 46.3814 201.275C50.1499 194.315 51.6871 189.372 55.2077 182.262C58.4892 176.882 60.9626 171.035 62.5462 164.913C63.0783 159.015 62.1758 153.074 59.9182 147.615Z" fill="#22262A"/>
<path d="M65.7703 155.785C63.9356 152.355 37.7048 149.632 38.0519 149.783C36.7627 155.079 29.4241 169.502 40.4817 175.504C43.5955 188.567 47.7922 201.338 53.0269 213.681C51.936 219.481 50.1013 221.195 52.2335 228.811C49.9526 233.854 50.3989 250.143 53.0269 252.917C58.3326 258.515 66.9109 259.675 67.9026 247.874C68.4976 241.469 75.8858 212.571 76.7783 200.014C73.8032 181.152 71.4231 166.174 65.7703 155.785Z" fill="#303236"/>
<path d="M32.1008 154.826C32.1008 154.826 35.8197 160.979 48.1665 162.542C54.7676 163.712 61.56 162.326 67.2074 158.659L65.7694 155.784C58.5976 157.49 51.1246 157.386 44.0014 155.482C40.3962 153.875 36.7044 152.477 32.9437 151.296L32.1008 154.826Z" fill="#22262A"/>
<path d="M69.2407 148.271C70.282 146.153 63.4391 144.388 63.4391 144.388L61.6541 149.431C61.6541 149.431 67.2077 152.306 69.2407 148.271Z" fill="#22262A"/>
<path d="M68.7942 102.326C66.2157 100.662 41.2741 87.1961 39.0428 88.457C33.0925 91.6846 29.1257 102.881 28.3819 109.941C27.9852 114.48 28.3818 135.712 28.1339 139.494C27.5885 140.402 26.2002 142.672 27.7869 143.932C25.7539 146.051 27.2414 147.16 29.2744 149.329C35.5021 154.117 42.7589 157.332 50.4474 158.709C58.8274 158.709 64.381 158.709 66.5628 156.944C68.7445 155.179 67.3066 153.363 65.9678 152.203C66.7115 147.715 72.0668 140.654 72.8106 136.468C74.8034 128.799 76.2616 120.996 77.1742 113.118C77.4221 106.209 73.6536 105.402 68.7942 102.326Z" fill="#33BEFF"/>
<path d="M40.729 88.9122C40.729 88.9122 41.2248 90.6268 45.9354 93.098C50.3477 95.1303 54.9063 96.8163 59.5715 98.1412V97.1326C56.3775 94.9623 53.0666 92.9756 49.6544 91.1816C44.6958 88.5591 42.9604 88.8617 42.9604 88.8617L40.729 88.9122Z" fill="#008BCC"/>
<path d="M69.3898 71.1096C69.2183 68.6707 68.3334 66.3397 66.8489 64.4165C65.3644 62.4932 63.3481 61.0655 61.0594 60.3171C58.6026 59.8312 56.0614 60.0451 53.7165 60.935C51.3715 61.8249 49.3139 63.3563 47.7705 65.3603C46.1007 67.5583 45.258 70.2907 45.3944 73.0649C45.5308 75.839 46.6373 78.4723 48.5143 80.4899C50.4729 83.118 52.9358 85.3142 55.7537 86.9453C58.5305 88.4583 64.0345 90.6773 67.1584 86.1888C69.8133 81.6529 70.6145 76.2394 69.3898 71.1096Z" fill="#FFC9B6"/>
<path d="M49.5547 246.007C51.1618 247.013 52.9517 247.679 54.8176 247.965C56.6834 248.251 58.5869 248.151 60.4139 247.672C66.9592 246.461 68.9923 244.595 70.3311 242.074C70.5406 245.803 70.5406 249.541 70.3311 253.27C69.9344 258.868 68.9426 264.466 69.0418 265.172C72.7607 263.911 76.331 261.793 79.5044 263.81C80.8754 264.625 81.9142 265.912 82.4327 267.438C82.9512 268.965 82.9151 270.629 82.3309 272.131C80.6525 274.253 78.5367 275.975 76.1327 277.174C72.5433 278.8 68.7585 279.936 64.8766 280.553C63.5754 281.548 62.0535 282.202 60.445 282.457C58.8365 282.712 57.191 282.561 55.6538 282.016C52.7778 280.452 51.3398 279.192 52.1827 275.964C53.6207 270.618 52.9265 270.316 51.0918 261.339C49.8284 256.335 49.3102 251.167 49.5547 246.007Z" fill="#333333"/>
<path d="M10.1846 249.186C8.84486 239.744 9.57291 230.117 12.3168 220.994C18.6487 220.915 24.8731 222.663 30.2669 226.038C28.8785 231.081 28.3825 232.543 27.49 236.124C26.9941 238.192 26.3991 240.259 25.7049 242.277C24.7132 245.353 24.9612 245.404 28.0851 245.353C32.7957 245.353 37.2089 246.11 37.2089 251.506C36.3484 253.834 34.8727 255.876 32.9444 257.406C30.9594 258.737 28.69 259.563 26.3261 259.818C23.9622 260.072 21.5728 259.747 19.358 258.869C17.0275 260.937 11.6227 258.869 8.39961 256.095C7.35831 255.288 9.04415 250.396 10.1846 249.186Z" fill="#333333"/>
<path d="M68.6464 62.8881C66.9109 62.5855 67.6051 60.9716 66.0183 60.0134C62.1477 58.0127 57.7189 57.4252 53.4732 58.3491C45.5395 60.0134 40.8288 64.1489 43.9527 70.5538C43.3576 73.8823 46.0353 82.4053 45.3411 86.7929C46.57 87.169 47.8631 87.2773 49.1359 87.1105C50.4088 86.9437 51.6326 86.5057 52.7276 85.825C53.8227 85.1444 54.7642 84.2365 55.4908 83.1606C56.2173 82.0847 56.7126 80.8649 56.9441 79.5811C60.1672 80.1359 66.1671 73.7814 64.5803 70.9068C70.481 72.2684 70.729 63.2915 68.6464 62.8881Z" fill="#191919"/>
<path d="M65.5215 74.8414C65.5215 74.8414 63.0422 71.3616 60.8108 75.6988C58.5794 80.0359 63.4885 80.742 63.4885 80.742L65.5215 74.8414Z" fill="#FFC9B6"/>
<path d="M58.9758 69.4961C58.9758 69.4961 64.8269 74.5393 74.149 68.6388C83.4711 62.7382 75.2896 55.829 68.7938 56.6864C65.1915 56.9918 61.7504 58.3392 58.8767 60.5696L58.9758 69.4961Z" fill="#22262A"/>
<path d="M68.6455 62.8887C67.9017 54.517 56.1003 49.7763 47.0757 56.2317C44.2196 58.4031 42.3172 61.6295 41.7791 65.2148C41.2411 68.8001 42.1106 72.4568 44.1998 75.3959C45.2907 78.6236 66.7117 77.5645 68.6455 62.8887Z" fill="#54585F"/>
<path d="M52.3812 55.2741C52.6787 55.9298 51.9845 56.9384 50.7944 57.4932C49.6044 58.0479 48.3648 58.0479 48.0673 57.4932C47.7697 56.9384 48.4638 55.8289 49.6539 55.2237C50.8439 54.6185 52.0837 54.6185 52.3812 55.2741Z" fill="#22262A"/>
<path d="M111.487 60.5696C109.306 57.8967 108.264 57.0898 105.934 57.8463C104.595 58.3002 103.405 58.7036 103.603 60.0149C103.752 60.7977 103.752 61.6023 103.603 62.3852C103.256 63.4443 102.264 63.2425 101.273 63.0912C100.43 64.5538 101.818 65.8146 102.711 68.1345C103.306 69.597 96.2647 81.2468 95.1738 83.2641L91.6036 89.6186C86.596 92.2787 81.7598 95.2601 77.1245 98.5451C75.3082 99.9937 73.7916 101.793 72.6619 103.84L77.9179 118.567C81.2814 115.379 84.8968 112.478 88.7276 109.892C93.8296 106.554 98.3675 102.399 102.165 97.5869C104.397 96.1748 104.05 96.0235 104.05 94.4601C106.063 90.0574 107.385 85.3605 107.967 80.5408C108.76 76.9601 110.396 70.7569 110.396 70.7569C115.454 66.1172 113.322 62.8391 111.487 60.5696Z" fill="#FFC9B6"/>
<path d="M75.9346 97.5353C73.2074 98.4935 70.9761 99.5021 70.9761 100.914C66.0175 99.7543 63.092 101.923 60.1665 106.411C55.7533 113.27 55.555 125.626 63.5382 129.913C68.7447 132.737 72.0669 130.821 75.6866 123.659C77.4717 122.348 79.3064 119.473 83.1741 116.346C84.4581 112.855 84.4293 109.004 83.0933 105.532C81.7573 102.06 79.2081 99.2128 75.9346 97.5353Z" fill="#008BCC"/>
<path d="M77.2733 131.326C76.5739 132.119 76.1396 133.118 76.0327 134.178C75.9258 135.238 76.1518 136.305 76.6783 137.226C77.8683 139.042 83.0252 139.647 83.0252 136.167C84.5128 135.713 83.9674 134.15 83.9674 132.738C85.1079 131.225 84.6616 129.208 83.5211 129.056C82.3812 128.656 81.1411 128.663 80.0054 129.075C78.8697 129.488 77.9061 130.282 77.2733 131.326Z" fill="#FFC9B6"/>
<path d="M74.2483 129.41C74.2483 129.41 77.0747 126.889 79.2069 127.141C81.339 127.393 82.0332 129.461 82.1324 131.226C82.2316 132.991 80.5457 132.941 79.8515 131.68L79.1076 130.419C79.1076 130.419 76.678 133.395 74.8929 132.638C73.1078 131.882 74.2483 129.41 74.2483 129.41Z" fill="#FFC9B6"/>
<path d="M55.6045 215.395C57.3388 216.495 59.3651 217.024 61.4061 216.908C62.9447 216.739 64.3627 215.982 65.3729 214.79C63.7259 214.589 62.0613 214.589 60.4143 214.79C58.7284 215.092 55.6045 215.395 55.6045 215.395Z" fill="#22262A"/>
<path d="M56.7947 212.774C58.6243 211.388 60.6248 210.252 62.745 209.395C64.5797 208.941 66.0672 208.689 66.0672 208.689C64.7474 209.731 63.3554 210.675 61.902 211.513C60.2584 212.15 58.5425 212.574 56.7947 212.774Z" fill="#22262A"/>
<path d="M30.0183 112.363L26.7953 123.559C26.7953 123.559 26.7953 135.713 27.2912 139.798C26.6961 141.311 25.6052 141.664 26.7953 143.479C24.3656 143.479 25.159 146.001 26.349 147.968C28.7541 151.56 32.1049 154.392 36.0181 156.138C42.8137 159.189 50.2197 160.571 57.6376 160.172C62.5961 158.911 68.5463 157.499 68.1001 155.129C67.849 154.09 67.7324 153.022 67.7531 151.952L69.2406 148.321C67.3458 148.97 65.3418 149.225 63.3482 149.069C61.3546 148.913 59.4123 148.35 57.6376 147.413C53.7203 145.547 46.679 136.57 48.5633 121.793C42.0552 119.363 35.8349 116.2 30.0183 112.363Z" fill="#54585F"/>
<path d="M44.3984 123.257C46.0461 116.961 48.1341 110.792 50.6463 104.799C53.7206 98.7469 57.2907 96.0235 59.4229 96.427C60.245 96.5429 61.0254 96.8668 61.6924 97.3691C62.3595 97.8713 62.8921 98.5358 63.2411 99.3017C61.8691 99.1416 60.4805 99.3784 59.2349 99.9851C57.9894 100.592 56.9373 101.543 56.1998 102.731C52.2947 109.467 49.5604 116.837 48.1174 124.518C48.2661 127.342 44.3984 123.257 44.3984 123.257Z" fill="#54585F"/>
<path d="M43.952 89.6681C41.0927 91.898 38.966 94.9579 37.8531 98.4433C36.068 102.68 32.2993 115.943 32.2993 115.943L29.6218 114.027C30.9268 108.56 32.5832 103.185 34.5804 97.939C35.7675 94.0547 38.1268 90.6493 41.324 88.2056C41.8034 87.9408 42.3403 87.802 42.8859 87.802C43.4315 87.802 43.9684 87.9408 44.4479 88.2056C44.3332 88.7094 44.167 89.1995 43.952 89.6681Z" fill="#54585F"/>
<path d="M46.0845 154.928C48.5043 156.229 51.1834 156.953 53.9191 157.046C56.4365 156.848 58.8936 156.163 61.1586 155.029C58.927 154.691 56.6671 154.589 54.415 154.726C51.644 154.949 48.8628 155.017 46.0845 154.928Z" fill="#22262A"/>
<defs>
<linearGradient id="paint0_linear_3_17" x1="-134187" y1="58658.4" x2="-172783" y2="58658.4" gradientUnits="userSpaceOnUse">
<stop stop-color="#489CEF"/>
<stop offset="1" stop-color="#2D6DC2"/>
</linearGradient>
<linearGradient id="paint1_linear_3_17" x1="-28326.6" y1="11546.6" x2="-30125.8" y2="11546.6" gradientUnits="userSpaceOnUse">
<stop stop-color="#489CEF"/>
<stop offset="1" stop-color="#2D6DC2"/>
</linearGradient>
</defs>
</svg>
