<svg width="96" height="16" viewBox="0 0 96 16" fill="none" xmlns="http://www.w3.org/2000/svg">
<path d="M7.99992 11.5135L12.1199 14.0002L11.0266 9.3135L14.6666 6.16016L9.87325 5.7535L7.99992 1.3335L6.12658 5.7535L1.33325 6.16016L4.97325 9.3135L3.87992 14.0002L7.99992 11.5135Z" fill="#008BCC"/>
<path d="M27.9999 11.5135L32.1199 14.0002L31.0266 9.3135L34.6666 6.16016L29.8733 5.7535L27.9999 1.3335L26.1266 5.7535L21.3333 6.16016L24.9733 9.3135L23.8799 14.0002L27.9999 11.5135Z" fill="#008BCC"/>
<path d="M47.9999 11.5135L52.1199 14.0002L51.0266 9.3135L54.6666 6.16016L49.8733 5.7535L47.9999 1.3335L46.1266 5.7535L41.3333 6.16016L44.9733 9.3135L43.8799 14.0002L47.9999 11.5135Z" fill="#008BCC"/>
<path d="M67.9999 11.5135L72.1199 14.0002L71.0266 9.3135L74.6666 6.16016L69.8733 5.7535L67.9999 1.3335L66.1266 5.7535L61.3333 6.16016L64.9733 9.3135L63.8799 14.0002L67.9999 11.5135Z" fill="#008BCC"/>
<path d="M87.9999 11.5135L92.1199 14.0002L91.0266 9.3135L94.6666 6.16016L89.8733 5.7535L87.9999 1.3335L86.1266 5.7535L81.3333 6.16016L84.9733 9.3135L83.8799 14.0002L87.9999 11.5135Z" fill="black" fill-opacity="0.3"/>
</svg>
