<svg width="24" height="24" viewBox="0 0 24 24" fill="none" xmlns="http://www.w3.org/2000/svg">
<rect x="0.5" y="0.5" width="23" height="23" rx="11.5" fill="#8B8B8B"/>
<path fill-rule="evenodd" clip-rule="evenodd" d="M9.88597 6.50732C9.96711 6.38561 10.1037 6.3125 10.25 6.3125H13.75C13.8963 6.3125 14.0329 6.38561 14.114 6.50732L15.1508 8.0625H17.25C17.6754 8.0625 18.0835 8.23151 18.3843 8.53235C18.6852 8.83319 18.8542 9.24121 18.8542 9.66667V16.0833C18.8542 16.5088 18.6852 16.9168 18.3843 17.2177C18.0835 17.5185 17.6754 17.6875 17.25 17.6875H6.74999C6.32454 17.6875 5.91652 17.5185 5.61568 17.2177C5.31484 16.9168 5.14583 16.5088 5.14583 16.0833V9.66667C5.14583 9.24121 5.31484 8.83319 5.61568 8.53235C5.91652 8.23151 6.32454 8.0625 6.74999 8.0625H8.84919L9.88597 6.50732ZM10.4841 7.1875L9.44735 8.74268C9.36621 8.86439 9.22961 8.9375 9.08333 8.9375H6.74999C6.55661 8.9375 6.37114 9.01432 6.2344 9.15107C6.09765 9.28781 6.02083 9.47328 6.02083 9.66667V16.0833C6.02083 16.2767 6.09765 16.4622 6.2344 16.5989C6.37114 16.7357 6.55661 16.8125 6.74999 16.8125H17.25C17.4434 16.8125 17.6288 16.7357 17.7656 16.5989C17.9023 16.4622 17.9792 16.2767 17.9792 16.0833V9.66667C17.9792 9.47328 17.9023 9.28781 17.7656 9.15107C17.6288 9.01432 17.4434 8.9375 17.25 8.9375H14.9167C14.7704 8.9375 14.6338 8.86439 14.5526 8.74268L13.5159 7.1875H10.4841Z" fill="white"/>
<path d="M9.44735 8.74268L10.4841 7.1875H13.5159L14.5526 8.74268C14.6338 8.86439 14.7704 8.9375 14.9167 8.9375H17.25C17.4434 8.9375 17.6288 9.01432 17.7656 9.15107C17.9023 9.28781 17.9792 9.47328 17.9792 9.66667V16.0833C17.9792 16.2767 17.9023 16.4622 17.7656 16.5989C17.6288 16.7357 17.4434 16.8125 17.25 16.8125H6.74999C6.55661 16.8125 6.37114 16.7357 6.2344 16.5989C6.09765 16.4622 6.02083 16.2767 6.02083 16.0833V9.66667C6.02083 9.47328 6.09765 9.28781 6.2344 9.15107C6.37114 9.01432 6.55661 8.9375 6.74999 8.9375H9.08333C9.22961 8.9375 9.36621 8.86439 9.44735 8.74268Z" fill="white"/>
<path fill-rule="evenodd" clip-rule="evenodd" d="M12 10.6875C10.953 10.6875 10.1042 11.5363 10.1042 12.5833C10.1042 13.6304 10.953 14.4792 12 14.4792C13.047 14.4792 13.8958 13.6304 13.8958 12.5833C13.8958 11.5363 13.047 10.6875 12 10.6875ZM9.22917 12.5833C9.22917 11.053 10.4697 9.8125 12 9.8125C13.5303 9.8125 14.7708 11.053 14.7708 12.5833C14.7708 14.1136 13.5303 15.3542 12 15.3542C10.4697 15.3542 9.22917 14.1136 9.22917 12.5833Z" fill="#8B8B8B"/>
<path d="M10.1042 12.5833C10.1042 11.5363 10.953 10.6875 12 10.6875C13.047 10.6875 13.8958 11.5363 13.8958 12.5833C13.8958 13.6304 13.047 14.4792 12 14.4792C10.953 14.4792 10.1042 13.6304 10.1042 12.5833Z" fill="#8B8B8B"/>
<rect x="0.5" y="0.5" width="23" height="23" rx="11.5" stroke="white"/>
</svg>
