<svg width="112" height="16" viewBox="0 0 112 16" fill="none" xmlns="http://www.w3.org/2000/svg">
<path d="M8.00004 11.5134L12.12 14L11.0267 9.31337L14.6667 6.16004L9.87337 5.75337L8.00004 1.33337L6.12671 5.75337L1.33337 6.16004L4.97337 9.31337L3.88004 14L8.00004 11.5134Z" fill="#008BCC"/>
<path d="M32 11.5134L36.12 14L35.0267 9.31337L38.6667 6.16004L33.8734 5.75337L32 1.33337L30.1267 5.75337L25.3334 6.16004L28.9734 9.31337L27.88 14L32 11.5134Z" fill="#008BCC"/>
<path d="M56 11.5134L60.12 14L59.0267 9.31337L62.6667 6.16004L57.8734 5.75337L56 1.33337L54.1267 5.75337L49.3334 6.16004L52.9734 9.31337L51.88 14L56 11.5134Z" fill="#008BCC"/>
<path d="M80 11.5134L84.12 14L83.0267 9.31337L86.6667 6.16004L81.8734 5.75337L80 1.33337L78.1267 5.75337L73.3334 6.16004L76.9734 9.31337L75.88 14L80 11.5134Z" fill="#008BCC"/>
<path d="M104 11.5134L108.12 14L107.027 9.31337L110.667 6.16004L105.873 5.75337L104 1.33337L102.127 5.75337L97.3334 6.16004L100.973 9.31337L99.88 14L104 11.5134Z" fill="#008BCC"/>
</svg>
