<svg width="40" height="40" viewBox="0 0 40 40" fill="none" xmlns="http://www.w3.org/2000/svg">
<rect width="40" height="40" rx="20" transform="matrix(-1 0 0 1 40 0)" fill="#E5F7FF"/>
<path d="M15.2178 18.9244C16.4978 21.44 18.56 23.4933 21.0756 24.7822L23.0311 22.8267C23.2711 22.5867 23.6267 22.5067 23.9378 22.6133C24.9333 22.9422 26.0089 23.12 27.1111 23.12C27.6 23.12 28 23.52 28 24.0089V27.1111C28 27.6 27.6 28 27.1111 28C18.7644 28 12 21.2356 12 12.8889C12 12.4 12.4 12 12.8889 12H16C16.4889 12 16.8889 12.4 16.8889 12.8889C16.8889 14 17.0667 15.0667 17.3956 16.0622C17.4933 16.3733 17.4222 16.72 17.1733 16.9689L15.2178 18.9244Z" fill="#008BCC"/>
</svg>
