<svg width="24" height="24" viewBox="0 0 24 24" fill="none" xmlns="http://www.w3.org/2000/svg">
<path d="M17.8311 20.2778C16.7972 21.2277 15.6685 21.0777 14.5819 20.6278C13.4321 20.1678 12.3771 20.1478 11.164 20.6278C9.64491 21.2477 8.84317 21.0677 7.93595 20.2778C2.78795 15.2485 3.54749 7.58942 9.39173 7.30946C10.8159 7.37945 11.8075 8.04936 12.6409 8.10935C13.8857 7.86939 15.0777 7.17947 16.4069 7.26946C17.9998 7.38945 19.2025 7.98937 19.9936 9.06923C16.7023 10.939 17.4829 15.0485 20.5 16.1983C19.8987 17.6981 19.1181 19.188 17.8205 20.2878L17.8311 20.2778ZM12.5354 7.24946C12.3771 5.01975 14.2865 3.17998 16.4808 3C16.7867 5.57967 14.0123 7.49943 12.5354 7.24946Z" fill="white"/>
</svg>
