<svg width="25" height="24" viewBox="0 0 25 24" fill="none" xmlns="http://www.w3.org/2000/svg">
<path d="M20.1889 3.2625C19.9667 2.525 19.3444 2 18.6111 2H6.38889C5.65556 2 5.04444 2.525 4.81111 3.2625L2.5 10.75V20.75C2.5 21.4375 3 22 3.61111 22H4.72222C5.33333 22 5.83333 21.4375 5.83333 20.75V19.5H19.1667V20.75C19.1667 21.4375 19.6667 22 20.2778 22H21.3889C22 22 22.5 21.4375 22.5 20.75V10.75L20.1889 3.2625ZM6.77778 4.5H18.2111L19.3667 8.25H5.62222L6.77778 4.5Z" fill="white"/>
<path d="M7 16C7.82843 16 8.5 15.3284 8.5 14.5C8.5 13.6716 7.82843 13 7 13C6.17157 13 5.5 13.6716 5.5 14.5C5.5 15.3284 6.17157 16 7 16Z" fill="#008BCC"/>
<path d="M18 16C18.8284 16 19.5 15.3284 19.5 14.5C19.5 13.6716 18.8284 13 18 13C17.1716 13 16.5 13.6716 16.5 14.5C16.5 15.3284 17.1716 16 18 16Z" fill="#008BCC"/>
</svg>
