<svg width="388" height="348" viewBox="0 0 388 348" fill="none" xmlns="http://www.w3.org/2000/svg">
<g clip-path="url(#clip0_156_3139)">
<path d="M363.767 306.133L374.662 200.336C374.884 198.067 374.629 195.778 373.915 193.613L335.199 77.5815C333.17 71.4948 327.674 67.0681 321.079 66.216L107.151 38.9699C104.234 38.5858 101.268 38.9455 98.527 40.0151C95.7865 41.0844 93.3613 42.8294 91.4769 45.087L17.9805 134.367C15.3576 137.528 14.0394 141.569 14.2952 145.666L24.2877 305.898L363.767 306.133Z" fill="#E5F7FF"/>
<path d="M266.764 211.524L257.627 202.948H116.756L110.327 211.524H266.764Z" fill="#008BCC"/>
<path opacity="0.2" d="M266.764 211.524L257.627 202.948H116.756L110.327 211.524H266.764Z" fill="black"/>
<path d="M266.72 211.524H111.731V305.765H266.72V211.524Z" fill="#008BCC"/>
<path opacity="0.2" d="M266.72 211.524H111.731V305.765H266.72V211.524Z" fill="black"/>
<path d="M259.737 108.604H116.203V275.155H259.737V108.604Z" fill="white"/>
<path d="M253.292 116.077H122.644V267.679H253.292V116.077Z" stroke="#B2B6BB" stroke-width="2.53" stroke-miterlimit="10"/>
<path d="M140.98 144.319C142.94 144.319 143.931 144.222 144.911 144.338C145.892 144.454 146.849 144.958 148.813 144.958C150.776 144.958 151.714 144.28 152.689 144.164C153.663 144.048 154.682 144.311 156.64 144.311C157.946 144.284 159.253 144.34 160.552 144.477C161.532 144.596 162.512 145.03 164.47 145.03C165.792 145.037 167.114 144.949 168.424 144.767C169.706 144.57 171.002 144.471 172.3 144.471C174.257 144.471 175.249 144.23 176.229 144.347C177.209 144.463 178.167 144.731 180.13 144.731C181.44 144.739 182.749 144.654 184.048 144.477C185.345 144.311 186.652 144.234 187.96 144.247C189.268 144.245 190.575 144.337 191.869 144.524C192.847 144.64 193.835 144.391 195.793 144.391C197.75 144.391 198.733 144.598 199.71 144.482C200.688 144.366 201.665 143.893 203.623 143.893C205.58 143.893 206.616 143.873 207.596 143.992C208.576 144.111 209.498 144.546 211.455 144.546C213.413 144.546 214.413 144.728 215.39 144.612C216.682 144.443 217.985 144.365 219.288 144.377C221.246 144.377 222.223 144.341 223.203 144.457C224.183 144.573 225.161 145.08 227.121 145.08C228.445 145.083 229.767 144.99 231.078 144.803C232.058 144.684 232.994 144.183 234.954 144.183" stroke="#3F4249" stroke-width="1.2" stroke-miterlimit="10" stroke-linecap="round"/>
<path d="M183.397 152.431C185.548 152.431 185.548 152.915 187.702 152.915C189.856 152.915 189.853 152.567 192.008 152.567C194.162 152.567 194.162 153.009 196.313 153.009C198.464 153.009 198.467 152.52 200.618 152.52C202.77 152.52 202.772 153.267 204.924 153.267C207.075 153.267 207.078 152.652 209.232 152.652C211.386 152.652 211.383 153.316 213.537 153.316C215.691 153.316 215.691 152.437 217.843 152.437C219.994 152.437 219.997 153.192 222.151 153.192C224.305 153.192 224.302 152.473 226.456 152.473C228.61 152.473 228.61 153.325 230.765 153.325C232.919 153.325 232.919 152.409 235.073 152.409" stroke="#3F4249" stroke-width="1.2" stroke-miterlimit="10" stroke-linecap="round"/>
<path d="M141.1 152.63C142.393 152.63 142.393 153.224 143.686 153.224C144.979 153.224 144.979 152.605 146.272 152.605C147.565 152.605 147.565 153.158 148.858 153.158C150.151 153.158 150.151 152.782 151.447 152.782C152.742 152.782 152.74 153.191 154.033 153.191C155.326 153.191 155.326 152.657 156.619 152.657C157.912 152.657 157.912 153.025 159.205 153.025C160.498 153.025 160.498 152.638 161.791 152.638C163.084 152.638 163.087 152.953 164.38 152.953C165.673 152.953 165.673 152.497 166.966 152.497C168.259 152.497 168.261 153.15 169.554 153.15C170.847 153.15 170.85 152.569 172.143 152.569" stroke="#3F4249" stroke-width="1.2" stroke-miterlimit="10" stroke-linecap="round"/>
<path d="M159.688 160.739C161.261 160.739 162.023 161.323 162.809 161.439C163.595 161.555 164.406 161.162 165.979 161.162C167.552 161.162 168.388 161.716 169.174 161.611C169.961 161.505 170.697 160.963 172.27 160.963C173.328 160.944 174.385 161.012 175.432 161.168C176.218 161.284 176.988 161.151 178.56 161.151C180.133 161.151 180.95 161.591 181.736 161.475C182.522 161.359 183.278 160.808 184.851 160.808C186.424 160.808 187.218 161.11 188.004 161.226C188.791 161.342 189.569 161.149 191.141 161.149C192.714 161.149 193.506 161.425 194.292 161.306C195.079 161.187 195.862 160.781 197.435 160.781C199.007 160.781 199.769 161.314 200.558 161.431C201.603 161.625 202.663 161.723 203.725 161.724C205.298 161.724 206.054 161.171 206.84 161.06C207.89 160.874 208.953 160.781 210.019 160.784C211.591 160.784 212.345 161.378 213.131 161.495C214.184 161.636 215.247 161.695 216.309 161.671C217.885 161.671 218.674 161.395 219.46 161.292C220.495 161.083 221.547 160.973 222.603 160.966C223.662 160.934 224.721 160.982 225.773 161.11C226.809 161.24 227.853 161.291 228.896 161.262C230.469 161.262 231.203 161.016 231.989 160.899C232.775 160.783 233.617 161.32 235.19 161.32" stroke="#3F4249" stroke-width="1.2" stroke-miterlimit="10" stroke-linecap="round"/>
<path d="M141.216 161.074C142.39 161.074 142.39 161.464 143.563 161.464C144.737 161.464 144.737 160.996 145.911 160.996C147.085 160.996 147.085 161.519 148.257 161.519C149.428 161.519 149.433 161.005 150.607 161.005C151.781 161.005 151.781 161.472 152.955 161.472" stroke="#3F4249" stroke-width="1.2" stroke-miterlimit="10" stroke-linecap="round"/>
<path d="M209.236 169.515C211.097 169.515 211.097 170.044 212.96 170.044C214.823 170.044 214.821 169.573 216.681 169.573C218.542 169.573 218.545 169.8 220.405 169.8C222.266 169.8 222.269 169.402 224.132 169.402C225.995 169.402 225.993 169.922 227.856 169.922C229.719 169.922 229.719 169.56 231.58 169.56C233.44 169.56 233.443 169.977 235.307 169.977" stroke="#3F4249" stroke-width="1.2" stroke-miterlimit="10" stroke-linecap="round"/>
<path d="M173.826 169.598C175.98 169.598 175.98 169.875 178.134 169.875C180.288 169.875 180.286 169.509 182.44 169.509C184.594 169.509 184.594 169.842 186.745 169.842C188.896 169.842 188.899 169.344 191.053 169.344C193.207 169.344 193.207 169.88 195.362 169.88C197.516 169.88 197.516 169.382 199.67 169.382C201.824 169.382 201.824 169.781 203.978 169.781" stroke="#3F4249" stroke-width="1.2" stroke-miterlimit="10" stroke-linecap="round"/>
<path d="M141.341 169.443C143.038 169.443 143.038 169.913 144.733 169.913C146.427 169.913 146.427 169.568 148.122 169.568C149.816 169.568 149.819 169.883 151.513 169.883C153.208 169.883 153.211 169.521 154.905 169.521C156.6 169.521 156.6 169.891 158.297 169.891C159.994 169.891 159.994 169.368 161.689 169.368C163.383 169.368 163.386 170.035 165.083 170.035" stroke="#3F4249" stroke-width="1.2" stroke-miterlimit="10" stroke-linecap="round"/>
<path d="M141.448 177.649C143.406 177.649 144.364 178.172 145.341 178.291C146.318 178.41 147.321 178.189 149.281 178.189C151.241 178.189 152.241 178.407 153.218 178.291C154.196 178.175 155.156 177.912 157.111 177.912C159.066 177.912 160.007 178.305 160.987 178.421C161.967 178.537 162.984 178.302 164.941 178.302C166.899 178.302 167.829 177.801 168.817 177.682C169.806 177.563 170.825 178.072 172.782 178.072C174.74 178.072 175.676 178.349 176.658 178.451C177.641 178.554 178.657 178.111 180.615 178.111C182.572 178.111 183.506 177.834 184.491 177.704C185.477 177.574 186.496 177.782 188.453 177.782C189.765 177.789 191.074 177.898 192.368 178.108C193.346 178.225 194.329 178.142 196.286 178.142C198.244 178.142 199.249 178.435 200.229 178.319C201.209 178.202 202.167 177.951 204.105 177.951C205.41 177.948 206.714 178.041 208.006 178.227C209.305 178.45 210.62 178.568 211.938 178.579C213.895 178.579 214.859 178.097 215.839 177.981C217.139 177.768 218.453 177.658 219.771 177.652C221.091 177.616 222.411 177.656 223.727 177.771C224.705 177.887 225.643 178.509 227.603 178.509C229.564 178.509 230.491 177.829 231.48 177.71C232.468 177.591 233.484 178.327 235.445 178.327" stroke="#3F4249" stroke-width="1.2" stroke-miterlimit="10" stroke-linecap="round"/>
<path d="M141.683 186.699C143.64 186.699 144.623 186.345 145.603 186.461C146.584 186.577 147.555 186.859 149.513 186.859C151.47 186.859 152.406 186.27 153.389 186.154C154.372 186.038 155.388 186.054 157.346 186.054C159.303 186.054 160.242 186.74 161.222 186.857C162.531 187.074 163.855 187.188 165.181 187.197C167.139 187.197 168.111 186.585 169.091 186.467C170.391 186.312 171.699 186.244 173.008 186.262C174.966 186.262 175.921 186.588 176.901 186.704C177.881 186.821 178.881 186.704 180.839 186.704C182.796 186.704 183.787 186.721 184.767 186.602C185.748 186.483 186.706 186.544 188.671 186.544C190.637 186.544 191.648 186.054 192.625 186.173C193.602 186.292 194.544 186.704 196.501 186.704C197.807 186.687 199.109 186.564 200.394 186.336C201.694 186.111 203.01 185.991 204.329 185.977C205.65 185.958 206.97 186.024 208.282 186.176C209.26 186.292 210.201 187.092 212.159 187.092C214.116 187.092 215.116 186.763 216.093 186.646C217.387 186.494 218.689 186.428 219.991 186.45C221.949 186.45 222.965 186.065 223.945 186.173C224.925 186.281 225.867 187.125 227.821 187.125C229.776 187.125 230.767 186.668 231.745 186.552C232.722 186.436 233.697 186.093 235.654 186.093" stroke="#3F4249" stroke-width="1.2" stroke-miterlimit="10" stroke-linecap="round"/>
<path d="M184.099 194.88C186.253 194.88 186.253 195.043 188.404 195.043C190.556 195.043 190.558 194.861 192.71 194.861C194.861 194.861 194.864 195.027 197.018 195.027C199.172 195.027 199.169 194.866 201.323 194.866C203.477 194.866 203.475 195.331 205.629 195.331C207.783 195.331 207.78 194.534 209.934 194.534C212.088 194.534 212.088 195.146 214.239 195.146C216.391 195.146 216.394 194.888 218.545 194.888C220.696 194.888 220.699 194.98 222.853 194.98C225.007 194.98 225.007 194.8 227.161 194.8C229.315 194.8 229.313 195.267 231.467 195.267C233.621 195.267 233.621 194.75 235.775 194.75" stroke="#3F4249" stroke-width="1.2" stroke-miterlimit="10" stroke-linecap="round"/>
<path d="M141.8 194.562C143.093 194.562 143.093 195.27 144.386 195.27C145.679 195.27 145.679 194.601 146.972 194.601C148.265 194.601 148.265 195.082 149.56 195.082C150.856 195.082 150.853 194.805 152.146 194.805C153.439 194.805 153.439 195.068 154.732 195.068C156.025 195.068 156.025 194.559 157.318 194.559C158.611 194.559 158.611 195.112 159.904 195.112C161.197 195.112 161.197 194.559 162.493 194.559C163.789 194.559 163.786 195.054 165.079 195.054C166.372 195.054 166.372 194.656 167.665 194.656C168.958 194.656 168.961 195.209 170.254 195.209C171.547 195.209 171.55 194.744 172.843 194.744" stroke="#3F4249" stroke-width="1.2" stroke-miterlimit="10" stroke-linecap="round"/>
<path d="M160.389 202.845C161.453 202.845 162.516 202.942 163.562 203.135C164.595 203.279 165.637 203.339 166.68 203.315C168.252 203.315 169.058 203.57 169.844 203.454C170.874 203.252 171.921 203.15 172.97 203.147C174.543 203.147 175.282 203.526 176.069 203.642C177.127 203.788 178.195 203.851 179.264 203.83C180.332 203.861 181.401 203.812 182.462 203.683C183.248 203.567 183.982 203.083 185.554 203.083C187.127 203.083 187.88 203.42 188.666 203.537C189.453 203.653 190.272 203.598 191.845 203.598C193.418 203.598 194.234 203.642 195.021 203.523C195.807 203.404 196.563 202.945 198.136 202.945C199.196 202.943 200.254 203.036 201.297 203.221C202.084 203.337 202.853 203.775 204.429 203.775C206.004 203.775 206.796 203.498 207.582 203.39C208.369 203.282 209.147 203.473 210.719 203.473C211.757 203.44 212.795 203.485 213.826 203.609C214.88 203.775 215.946 203.853 217.013 203.841C218.585 203.841 219.364 203.396 220.15 203.288C221.193 203.132 222.248 203.063 223.303 203.083C224.879 203.083 225.698 202.994 226.485 203.113C227.271 203.232 228.024 203.639 229.597 203.639C230.652 203.643 231.706 203.551 232.745 203.362C233.531 203.246 234.318 203.49 235.89 203.49" stroke="#3F4249" stroke-width="1.2" stroke-miterlimit="10" stroke-linecap="round"/>
<path d="M141.917 203.033C143.384 203.033 143.384 203.512 144.851 203.512C146.319 203.512 146.319 203.066 147.786 203.066C149.254 203.066 149.254 203.564 150.721 203.564C152.189 203.564 152.189 203.091 153.656 203.091" stroke="#3F4249" stroke-width="1.2" stroke-miterlimit="10" stroke-linecap="round"/>
<path d="M209.937 211.596C211.8 211.596 211.8 211.989 213.661 211.989C215.522 211.989 215.522 211.497 217.385 211.497C219.248 211.497 219.246 211.845 221.109 211.845C222.972 211.845 222.97 211.436 224.833 211.436C226.696 211.436 226.693 211.942 228.557 211.942C230.42 211.942 230.42 211.505 232.284 211.505C234.147 211.505 234.147 211.925 236.01 211.925" stroke="#3F4249" stroke-width="1.2" stroke-miterlimit="10" stroke-linecap="round"/>
<path d="M174.526 211.383C176.68 211.383 176.68 212.011 178.834 212.011C180.988 212.011 180.988 211.651 183.142 211.651C185.296 211.651 185.294 211.836 187.448 211.836C189.602 211.836 189.602 211.601 191.756 211.601C193.91 211.601 193.91 212.011 196.061 212.011C198.213 212.011 198.218 211.515 200.372 211.515C202.526 211.515 202.526 212.113 204.68 212.113" stroke="#3F4249" stroke-width="1.2" stroke-miterlimit="10" stroke-linecap="round"/>
<path d="M142.033 211.585C143.73 211.585 143.73 211.958 145.425 211.958C147.119 211.958 147.119 211.471 148.817 211.471C150.514 211.471 150.511 212.003 152.206 212.003C153.9 212.003 153.903 211.485 155.597 211.485C157.292 211.485 157.295 211.92 158.989 211.92C160.683 211.92 160.686 211.552 162.384 211.552C164.081 211.552 164.078 212.047 165.775 212.047" stroke="#3F4249" stroke-width="1.2" stroke-miterlimit="10" stroke-linecap="round"/>
<path d="M142.152 220.112C144.11 220.112 145.046 220.372 146.029 220.488C147.339 220.676 148.661 220.769 149.985 220.765C151.31 220.766 152.633 220.674 153.944 220.488C154.922 220.369 155.858 219.62 157.821 219.62C159.784 219.62 160.769 219.896 161.75 220.021C162.73 220.145 163.688 219.954 165.651 219.954C167.614 219.954 168.566 220.062 169.546 219.954C170.526 219.846 171.523 220.079 173.481 220.079C174.783 220.065 176.084 220.141 177.376 220.306C178.354 220.422 179.353 220.101 181.311 220.101C182.608 220.101 183.904 220.004 185.187 219.81C186.499 219.656 187.82 219.587 189.141 219.606C191.098 219.606 192.087 219.927 193.067 220.043C194.047 220.159 195.005 220.712 196.971 220.712C198.937 220.712 199.856 219.805 200.847 219.686C201.838 219.567 202.857 219.797 204.817 219.797C206.778 219.797 207.714 220.35 208.694 220.461C209.674 220.571 210.69 220.436 212.647 220.436C214.605 220.436 215.613 220.474 216.59 220.355C217.879 220.24 219.173 220.199 220.466 220.234C222.424 220.234 223.385 220.178 224.362 220.297C225.339 220.416 226.342 220.779 228.299 220.779C230.257 220.779 231.215 220.062 232.192 219.949C233.169 219.835 234.175 219.481 236.132 219.481" stroke="#3F4249" stroke-width="1.2" stroke-miterlimit="10" stroke-linecap="round"/>
<path d="M142.384 228.666C144.341 228.666 145.321 228.442 146.299 228.561C147.276 228.68 148.256 228.525 150.214 228.525C152.171 228.525 153.138 228.575 154.118 228.456C155.098 228.337 156.086 228.387 158.044 228.387C160.001 228.387 161.023 228.11 162 228.226C162.978 228.342 163.919 228.663 165.877 228.663C167.834 228.663 168.781 228.423 169.753 228.304C170.725 228.185 171.741 228.5 173.698 228.5C175.656 228.5 176.633 228.445 177.613 228.561C178.593 228.677 179.571 229.004 181.528 229.004C182.845 229.008 184.16 228.915 185.463 228.727C186.44 228.608 187.401 227.914 189.358 227.914C191.316 227.914 192.268 228.674 193.235 228.791C194.54 228.968 195.857 229.052 197.175 229.042C199.135 229.042 200.068 228.309 201.051 228.193C202.034 228.077 203.083 228.666 205.021 228.666C206.959 228.666 207.97 228.342 208.947 228.459C209.925 228.575 210.885 229.084 212.854 229.084C214.823 229.084 215.794 228.702 216.775 228.583C218.071 228.417 219.377 228.34 220.684 228.353C221.991 228.36 223.295 228.468 224.585 228.677C225.565 228.793 226.559 229.084 228.517 229.084C230.474 229.084 231.463 228.724 232.44 228.608C233.734 228.409 235.041 228.308 236.35 228.306" stroke="#3F4249" stroke-width="1.2" stroke-miterlimit="10" stroke-linecap="round"/>
<path d="M142.5 236.767C143.793 236.767 143.793 237.24 145.086 237.24C146.379 237.24 146.379 236.756 147.675 236.756C148.971 236.756 148.968 237.273 150.261 237.273C151.554 237.273 151.554 236.784 152.847 236.784C154.14 236.784 154.14 237.285 155.433 237.285C156.726 237.285 156.726 236.59 158.019 236.59C159.312 236.59 159.312 237.047 160.608 237.047C161.904 237.047 161.901 236.701 163.194 236.701C164.487 236.701 164.487 237.099 165.78 237.099C167.073 237.099 167.076 236.573 168.369 236.573C169.662 236.573 169.662 237.069 170.957 237.069C172.253 237.069 172.25 236.814 173.546 236.814" stroke="#3F4249" stroke-width="1.2" stroke-miterlimit="10" stroke-linecap="round"/>
<path d="M170.001 137.953C169.599 137.953 169.272 137.821 169.021 137.559C168.768 137.294 168.642 136.941 168.642 136.5V136.406C168.642 136.113 168.698 135.851 168.81 135.621C168.923 135.389 169.08 135.209 169.281 135.079C169.483 134.948 169.702 134.882 169.938 134.882C170.323 134.882 170.623 135.009 170.836 135.262C171.05 135.516 171.157 135.879 171.157 136.352V136.562H169.149C169.156 136.854 169.241 137.091 169.404 137.271C169.568 137.45 169.776 137.54 170.028 137.54C170.207 137.54 170.359 137.503 170.483 137.43C170.607 137.357 170.716 137.26 170.809 137.14L171.118 137.381C170.87 137.762 170.498 137.953 170.001 137.953ZM169.938 135.298C169.733 135.298 169.562 135.373 169.423 135.522C169.284 135.67 169.199 135.878 169.166 136.146H170.65V136.108C170.636 135.851 170.566 135.652 170.442 135.512C170.318 135.369 170.15 135.298 169.938 135.298ZM171.729 138.692L171.442 138.495C171.613 138.256 171.703 138.009 171.71 137.756V137.299H172.206V137.696C172.206 137.88 172.16 138.064 172.069 138.248C171.98 138.433 171.866 138.58 171.729 138.692Z" fill="black"/>
<path d="M112.167 306.177L189.777 250.509L267.155 306.177H112.167Z" fill="#008BCC"/>
<path opacity="0.5" d="M112.263 305.992L189.741 250.21L267.041 306.144L112.263 305.992Z" fill="white"/>
<path d="M266.601 212.44L194.381 262.024L266.601 305.411V212.44Z" fill="#008BCC"/>
<path d="M266.601 305.411V212.44L194.381 262.024" fill="#008BCC"/>
<path opacity="0.6" d="M266.601 305.411V212.44L194.381 262.024" fill="white"/>
<path d="M111.731 212.44L183.952 262.024L111.731 305.411V212.44Z" fill="#008BCC"/>
<path d="M111.731 305.411V212.44L183.952 262.024" fill="#008BCC"/>
<path opacity="0.6" d="M111.731 305.411V212.44L183.952 262.024" fill="white"/>
<path d="M189.107 277.907C197.022 277.907 203.438 271.496 203.438 263.587C203.438 255.678 197.022 249.267 189.107 249.267C181.192 249.267 174.776 255.678 174.776 263.587C174.776 271.496 181.192 277.907 189.107 277.907Z" fill="#008BCC"/>
<path d="M203.3 263.587C203.3 271.419 196.945 277.769 189.107 277.769C181.269 277.769 174.914 271.419 174.914 263.587C174.914 255.755 181.269 249.405 189.107 249.405C196.945 249.405 203.3 255.755 203.3 263.587Z" stroke="black"/>
<path d="M204.19 263.587C204.19 265.131 202.473 266.387 202.019 267.779C201.551 269.226 202.185 271.245 201.31 272.446C200.436 273.647 198.301 273.68 197.085 274.562C195.87 275.445 195.214 277.456 193.763 277.927C192.378 278.378 190.645 277.152 189.1 277.152C187.555 277.152 185.83 278.378 184.435 277.927C182.99 277.456 182.322 275.437 181.112 274.562C179.902 273.688 177.773 273.661 176.887 272.446C176.001 271.231 176.646 269.226 176.179 267.779C175.724 266.395 174.008 265.131 174.008 263.587C174.008 262.043 175.724 260.787 176.179 259.393C176.646 257.949 176.012 255.926 176.887 254.725C177.762 253.525 179.897 253.492 181.112 252.609C182.328 251.726 182.984 249.715 184.435 249.245C185.819 248.794 187.55 250.019 189.097 250.019C190.645 250.019 192.365 248.794 193.76 249.245C195.205 249.715 195.873 251.735 197.083 252.609C198.293 253.483 200.422 253.511 201.308 254.725C202.194 255.94 201.549 257.949 202.016 259.393C202.473 260.787 204.19 262.041 204.19 263.587Z" fill="#008BCC"/>
<path d="M189.107 275.929C195.928 275.929 201.458 270.403 201.458 263.587C201.458 256.771 195.928 251.245 189.107 251.245C182.285 251.245 176.755 256.771 176.755 263.587C176.755 270.403 182.285 275.929 189.107 275.929Z" stroke="white" stroke-width="2.72" stroke-miterlimit="10"/>
<path d="M49.822 104.291V136.688H91.1041V104.291H49.822Z" fill="white"/>
<path d="M53.9751 108.606V132.386H86.9509V108.62L53.9751 108.606Z" fill="#DDDDDD"/>
<path d="M92.0285 104.296H91.0872V136.666H92.0285V104.296Z" fill="#DADDDF"/>
<path d="M71.0696 121.699C72.0879 121.699 73.0835 121.397 73.9305 120.831C74.7775 120.266 75.4375 119.462 75.8274 118.522C76.2172 117.582 76.3191 116.547 76.1203 115.549C75.9215 114.55 75.4312 113.634 74.711 112.914C73.9906 112.194 73.073 111.704 72.0741 111.506C71.0751 111.307 70.0396 111.409 69.0988 111.798C68.1577 112.188 67.3533 112.848 66.7874 113.694C66.2215 114.54 65.9197 115.535 65.9197 116.553C65.9197 117.918 66.4621 119.226 67.4278 120.191C68.3938 121.156 69.7037 121.699 71.0696 121.699Z" fill="#008BCC"/>
<path opacity="0.2" d="M57.5303 130.275L65.9196 124.916L57.6133 119.576L57.5303 130.275Z" fill="black"/>
<path opacity="0.2" d="M72.2012 117.742V128.864H83.3315V117.742H72.2012Z" fill="black"/>
<path d="M98.3807 125.094C98.842 124.403 99.0612 123.579 99.0037 122.75C98.904 120.955 97.6663 119.558 96.2044 119.541C95.4901 115.668 91.7745 112.824 87.4774 113.064C82.8397 113.324 79.2791 117.065 79.5255 121.42C79.5828 122.452 79.8542 123.461 80.3229 124.383C78.8563 125.068 77.64 126.194 76.8434 127.603C76.0468 129.012 75.7099 130.633 75.8791 132.243C76.0632 133.788 76.7003 135.244 77.7106 136.428C78.7206 137.613 80.0588 138.472 81.5564 138.898C83.054 139.325 84.6444 139.299 86.1276 138.825C87.6105 138.35 88.9201 137.448 89.8917 136.232C90.8151 137.456 92.0981 138.362 93.5614 138.822C95.025 139.281 96.5954 139.273 98.054 138.798C99.5123 138.323 100.786 137.404 101.696 136.17C102.607 134.936 103.109 133.449 103.132 131.916C103.135 130.43 102.681 128.978 101.832 127.757C100.982 126.537 99.777 125.607 98.3807 125.094Z" fill="#21252B"/>
<path d="M85.1177 130.887C85.1177 130.887 86.2861 138.828 84.6498 139.53L82.4348 140.114L84.0711 145.719L90.6165 149.225L97.1618 146.419L97.746 139.53C96.9746 139.408 96.2492 139.086 95.6418 138.595C94.7059 137.428 94.7059 133.455 94.8111 129.601L85.1177 130.887Z" fill="#FC9D9D"/>
<path opacity="0.15" d="M89.9076 133.573L90.3257 134.617C89.6086 134.581 88.4346 134.431 87.7175 133.858C87.6937 133.839 87.6663 133.825 87.637 133.816C87.6076 133.807 87.5766 133.805 87.5461 133.808C87.5157 133.811 87.4863 133.82 87.4592 133.835C87.4323 133.849 87.4085 133.869 87.3894 133.893C87.37 133.917 87.3557 133.944 87.3471 133.974C87.3382 134.003 87.3354 134.034 87.3388 134.064C87.3418 134.094 87.3509 134.124 87.3656 134.151C87.3803 134.178 87.4002 134.202 87.424 134.221C88.4152 135.015 90.0627 135.095 90.7078 135.095C90.8601 135.095 90.9542 135.095 90.9847 135.095C91.0146 135.094 91.0442 135.087 91.0713 135.074C91.0984 135.061 91.1225 135.043 91.1425 135.02C93.4045 135.74 94.6228 134.984 94.8858 135.02L94.7114 132.749L89.9076 133.573Z" fill="black"/>
<path d="M90.6114 134.741C89.0612 134.741 87.5747 134.125 86.4785 133.03C85.3824 131.935 84.7666 130.449 84.7666 128.901V118.155H95.0525L96.3566 128.148C96.4768 128.969 96.4178 129.807 96.1835 130.604C95.9493 131.4 95.5456 132.137 94.9999 132.763C94.4545 133.39 93.7797 133.89 93.0222 134.232C92.2647 134.573 91.4423 134.747 90.6114 134.741Z" fill="#FC9D9D"/>
<path d="M96.4555 122.593C96.4555 122.593 90.0264 123.879 87.2189 120.609C87.2189 120.609 87.8059 122.593 85.2337 124.228C85.2337 124.228 85.8678 125.771 85.3805 127.097C85.3589 127.142 85.3251 127.181 85.283 127.209C85.2409 127.237 85.1919 127.252 85.1413 127.254C85.0909 127.257 85.0408 127.245 84.9965 127.22C84.9524 127.196 84.9156 127.16 84.8904 127.116L83.5974 124.228V117.687H95.2843L96.4555 122.593Z" fill="#21252B"/>
<path d="M114.048 276.931L115.222 289.541C115.3 291.019 115.682 291.934 116.114 292.546L120.702 301.869L119.428 303.626L114.444 301.136L110.014 293.113C110.014 291.73 109.887 290.925 109.632 289.09L107.423 275.479L114.048 276.931Z" fill="#FC9D9D"/>
<path opacity="0.15" d="M115.422 294.27C114.921 293.57 114.293 291.882 114.14 291.11L112.631 286.683C112.605 286.528 112.53 286.387 112.416 286.279C112.303 286.172 112.158 286.1 112.003 286.08L109.013 285.696L108.963 285.068H114.794L115.298 290.277C115.397 291.168 115.949 292.341 116.5 293.113L120.705 301.95L119.924 303.178L115.422 294.27Z" fill="black"/>
<path d="M123.344 303.474L120.716 301.894C119.783 302.044 118.828 301.95 117.944 301.621C117.059 301.289 116.276 300.732 115.671 300.008L109.97 293.13C108.954 295.324 108.591 297.767 108.927 300.16L109.743 305.865H110.405L110.582 300.005C110.586 299.913 110.618 299.822 110.674 299.748C110.73 299.673 110.807 299.617 110.896 299.587C110.984 299.557 111.08 299.554 111.169 299.581C111.259 299.606 111.339 299.656 111.399 299.728L114.866 303.958C115.356 304.553 115.971 305.032 116.667 305.361C117.364 305.69 118.124 305.865 118.894 305.867H124.299C124.398 305.87 124.497 305.848 124.585 305.801C124.673 305.757 124.747 305.688 124.801 305.605C124.855 305.522 124.886 305.425 124.892 305.325C124.897 305.225 124.877 305.126 124.833 305.037C124.56 304.343 124.025 303.781 123.344 303.474Z" fill="#008BCC"/>
<path d="M91.0544 292.023C91.3111 292.812 91.4127 293.642 91.3534 294.469L91.3783 301.358C91.3468 302.561 91.0001 303.734 90.3733 304.761L90.2376 305.001C90.0576 305.303 89.8026 305.552 89.4972 305.724C89.1919 305.895 88.8469 305.986 88.4961 305.984H86.4832C86.0377 305.989 85.6033 305.845 85.2486 305.574C84.8942 305.306 84.6398 304.927 84.5257 304.495C84.2588 303.48 84.2219 302.415 84.4177 301.383L86.1316 293.99C86.244 293.298 86.4538 292.629 86.7545 291.995H91.0544V292.023Z" fill="#008BCC"/>
<path d="M91.3539 288.905C91.0479 291.384 90.9203 293.879 90.9718 296.375L91.0272 299.355C90.9959 299.988 90.7209 300.586 90.2597 301.02C89.7987 301.457 89.1868 301.698 88.5519 301.695H88.1172C87.7656 301.701 87.417 301.631 87.095 301.49C86.773 301.349 86.4856 301.139 86.2527 300.876C86.0196 300.613 85.8466 300.303 85.7455 299.966C85.6442 299.631 85.6176 299.277 85.6669 298.928L86.3757 295.393C86.7348 293.6 86.8624 291.766 86.755 289.94L86.0767 277.913L92.4143 278.018L91.3539 288.905Z" fill="#FC9D9D"/>
<path opacity="0.15" d="M91.8672 285.236C91.8672 285.236 91.1058 292.114 91.0504 293.041V293.063C90.9701 294.369 90.9147 295.65 90.9424 296.953L90.9978 299.609C90.9424 300.749 89.9097 301.651 88.6305 301.698C89.8017 300.915 89.6909 299.634 89.7186 298.685L89.9097 287.04C89.9 286.844 89.8208 286.658 89.6865 286.515C89.5522 286.371 89.3711 286.279 89.1759 286.257L86.3463 285.806L86.3186 285.253L91.8672 285.236Z" fill="black"/>
<path d="M108.375 285.173H115.388C115.388 285.173 114.406 204.94 110.925 192.844L102.065 184.729H79.8571C79.8571 184.729 69.8037 183.326 85.9345 285.159H92.4798L93.2163 200.38C93.2102 200.164 93.2473 199.95 93.3254 199.748C93.4037 199.547 93.5217 199.364 93.6723 199.209C93.8226 199.054 94.0029 198.931 94.2017 198.847C94.4008 198.763 94.6145 198.72 94.8305 198.72C95.2189 198.72 95.5941 198.86 95.8876 199.114C96.1811 199.368 96.3729 199.719 96.428 200.103L108.375 285.173Z" fill="#3F4249"/>
<path d="M85.0231 130.876C85.0231 130.876 81.7643 130.726 81.5345 127.724C81.3047 124.723 84.9788 124.662 85.12 127.669L85.3582 130.937L85.0231 130.876Z" fill="#FC9D9D"/>
<path d="M83.4733 139.762C84.2267 140.859 85.2395 141.753 86.4221 142.365C87.6046 142.976 88.92 143.286 90.2512 143.268C90.2512 143.268 95.8607 143.268 97.4971 139.53L98.5492 139.646V185.196H87.1032L80.209 140.93L83.4733 139.762Z" fill="white"/>
<path opacity="0.15" d="M82.6146 126.455C82.7259 126.366 82.8541 126.302 82.9912 126.264C83.1279 126.226 83.2714 126.217 83.412 126.236C83.5496 126.27 83.6781 126.333 83.7886 126.422C83.899 126.51 83.9887 126.621 84.0516 126.748C84.2393 127.053 84.3459 127.4 84.3617 127.758V128.051C84.3617 128.267 84.0239 128.328 84.0128 128.093V127.797C83.9965 127.498 83.9112 127.207 83.7636 126.947C83.7229 126.861 83.6648 126.785 83.5928 126.723C83.5208 126.661 83.4367 126.615 83.3456 126.588C83.2511 126.577 83.1556 126.585 83.0643 126.612C82.9732 126.638 82.8879 126.683 82.814 126.742C82.7954 126.756 82.7741 126.766 82.7514 126.771C82.729 126.776 82.7054 126.776 82.6827 126.772C82.66 126.768 82.6384 126.759 82.619 126.747C82.5997 126.734 82.5831 126.718 82.5703 126.698C82.5122 126.593 82.5343 126.485 82.6146 126.455Z" fill="black"/>
<path d="M104.515 183.846H81.5901V185.927H104.515V183.846Z" fill="black"/>
<path opacity="0.15" d="M84.6307 195.798C84.6307 195.798 89.9079 196.628 90.3758 188.467C90.3758 188.467 92.6407 168.774 83.9468 143.968L84.6307 195.798Z" fill="black"/>
<path opacity="0.2" d="M94.8254 198.745H94.6094C92.6713 198.745 90.3926 200.325 90.4009 202.267L89.6035 285.173H92.4886L93.225 200.394C93.2206 200.181 93.2585 199.968 93.3369 199.77C93.415 199.571 93.5321 199.389 93.6808 199.236C93.8297 199.083 94.0075 198.96 94.2038 198.876C94.4004 198.792 94.6116 198.747 94.8254 198.745Z" fill="black"/>
<path opacity="0.2" d="M108.61 194.775C108.61 194.775 109.776 202.01 113.154 285.173H115.388C115.388 285.173 114.616 210.833 111.313 194.484L108.61 194.775Z" fill="black"/>
<path d="M97.9725 139.53L106.783 140.783C107.942 140.974 109.053 141.392 110.05 142.013C111.048 142.633 111.913 143.444 112.597 144.399C113.455 145.6 114.297 146.814 115.2 147.982L116.152 149.21V162.214L108.383 155.148C108.383 155.148 102.624 176.932 111.706 194.401C111.724 194.441 111.732 194.485 111.73 194.529C111.728 194.573 111.715 194.616 111.694 194.654C111.672 194.692 111.641 194.724 111.604 194.748C111.567 194.772 111.525 194.787 111.481 194.791L105.224 195.068C103.829 195.13 102.454 194.715 101.327 193.892C100.199 193.069 99.3862 191.886 99.0219 190.539C97.0035 183.127 93.1854 167.343 97.9725 139.53Z" fill="#008BCC"/>
<path d="M82.7779 139.998L74.8315 142.842C74.8315 142.842 81.4212 171.59 75.9667 196.731C75.9598 196.773 75.9626 196.816 75.9748 196.856C75.9869 196.897 76.0083 196.934 76.0373 196.965C76.0661 196.996 76.1018 197.02 76.1414 197.035C76.181 197.05 76.2237 197.056 76.2658 197.052L84.1982 195.879C85.5004 195.686 86.7026 195.069 87.6179 194.123C88.533 193.178 89.1103 191.957 89.2595 190.65C90.1427 182.887 90.5054 166.016 82.7779 139.998Z" fill="#008BCC"/>
<path opacity="0.15" d="M88.9465 169.136H88.1795C84.3033 160.56 82.0689 155.931 81.0472 153.814C81.0306 153.781 80.834 153.814 80.8479 153.842L86.9862 170.796L89.0821 170.719L88.9465 169.136Z" fill="black"/>
<path opacity="0.15" d="M89.8499 169.142L89.9911 170.683L103.685 170.238V169.773L89.8499 169.142Z" fill="black"/>
<path opacity="0.15" d="M106.731 153.28C106.731 153.28 100.042 171.427 108.478 194.913L111.072 194.8L111.565 194.753C111.628 194.72 111.676 194.664 111.699 194.596C111.721 194.529 111.717 194.455 111.687 194.39C102.617 176.93 108.392 155.021 108.392 155.021L106.731 153.28Z" fill="black"/>
<path d="M90.3086 126.704C90.418 126.704 90.5252 126.672 90.6162 126.611C90.7071 126.55 90.7782 126.463 90.82 126.362C90.8621 126.261 90.8732 126.15 90.8519 126.043C90.8305 125.935 90.7777 125.837 90.7004 125.759C90.6229 125.682 90.524 125.629 90.4166 125.608C90.3092 125.586 90.1982 125.598 90.0968 125.639C89.9958 125.681 89.9091 125.752 89.8485 125.843C89.7876 125.934 89.7549 126.041 89.7549 126.151C89.7549 126.297 89.813 126.438 89.9169 126.542C90.0207 126.646 90.1619 126.704 90.3086 126.704Z" fill="#21252B"/>
<path d="M90.5417 126.146C90.5697 126.142 90.5955 126.127 90.6141 126.106C90.6327 126.084 90.6427 126.057 90.6427 126.028C90.6427 125.999 90.6327 125.972 90.6141 125.95C90.5955 125.929 90.5697 125.914 90.5417 125.91C90.5134 125.914 90.4879 125.929 90.4693 125.95C90.4507 125.972 90.4404 125.999 90.4404 126.028C90.4404 126.057 90.4507 126.084 90.4693 126.106C90.4879 126.127 90.5134 126.142 90.5417 126.146Z" fill="white"/>
<path d="M94.6809 126.704C94.7906 126.704 94.8977 126.672 94.9888 126.611C95.0796 126.55 95.1508 126.463 95.1926 126.362C95.2347 126.261 95.2455 126.15 95.2242 126.043C95.2028 125.935 95.15 125.837 95.0727 125.759C94.9952 125.682 94.8966 125.629 94.7892 125.608C94.6818 125.586 94.5705 125.598 94.4691 125.639C94.3681 125.681 94.2814 125.752 94.2208 125.843C94.1599 125.934 94.1272 126.041 94.1272 126.151C94.1272 126.297 94.1856 126.438 94.2894 126.542C94.3933 126.646 94.5342 126.704 94.6809 126.704Z" fill="#21252B"/>
<path d="M94.9389 126.121C94.9619 126.12 94.9841 126.113 95.003 126.1C95.0218 126.087 95.0363 126.068 95.0446 126.047C95.0532 126.026 95.0549 126.003 95.0501 125.98C95.0454 125.958 95.034 125.937 95.0177 125.921C95.0013 125.905 94.9805 125.894 94.958 125.89C94.9356 125.886 94.9122 125.888 94.8912 125.897C94.8698 125.906 94.8518 125.921 94.8393 125.94C94.8265 125.959 94.8196 125.981 94.8196 126.004C94.8196 126.02 94.8229 126.035 94.8287 126.05C94.8348 126.064 94.8437 126.077 94.8548 126.088C94.8659 126.099 94.8792 126.107 94.8937 126.113C94.9081 126.118 94.9233 126.121 94.9389 126.121Z" fill="white"/>
<g opacity="0.3">
<path opacity="0.3" d="M92.1088 129.18H91.6188C91.5972 129.181 91.5753 129.177 91.5551 129.169C91.5349 129.161 91.5163 129.149 91.5008 129.134C91.4853 129.119 91.4729 129.1 91.4646 129.08C91.4565 129.06 91.4524 129.038 91.4526 129.017C91.4526 128.995 91.4571 128.974 91.4654 128.954C91.474 128.934 91.4862 128.916 91.5017 128.9C91.5172 128.885 91.5354 128.873 91.5556 128.865C91.5756 128.857 91.5972 128.853 91.6188 128.854H92.1088C92.1576 128.858 92.2066 128.852 92.2528 128.836C92.2991 128.821 92.3414 128.796 92.3774 128.763C92.4134 128.73 92.4422 128.69 92.4619 128.645C92.4815 128.6 92.4918 128.552 92.4918 128.504C92.4918 128.455 92.4815 128.406 92.4619 128.362C92.4422 128.317 92.4134 128.277 92.3774 128.244C92.3414 128.211 92.2991 128.186 92.2528 128.171C92.2066 128.155 92.1576 128.149 92.1088 128.154C92.0656 128.154 92.0241 128.136 91.9934 128.106C91.9629 128.075 91.9455 128.034 91.9455 127.99C91.9455 127.947 91.9629 127.905 91.9934 127.875C92.0241 127.844 92.0656 127.827 92.1088 127.827C92.2016 127.821 92.2943 127.834 92.3816 127.866C92.4688 127.897 92.5488 127.946 92.6164 128.009C92.6839 128.073 92.7379 128.149 92.7747 128.234C92.8116 128.319 92.8307 128.411 92.8307 128.504C92.8307 128.596 92.8116 128.688 92.7747 128.773C92.7379 128.858 92.6839 128.934 92.6164 128.998C92.5488 129.061 92.4688 129.11 92.3816 129.141C92.2943 129.173 92.2016 129.186 92.1088 129.18Z" fill="black"/>
</g>
<path d="M84.4255 129.636C84.4277 129.588 84.4202 129.539 84.4036 129.493C84.3867 129.447 84.361 129.405 84.3278 129.369C84.2945 129.333 84.2544 129.305 84.2098 129.284C84.1655 129.264 84.1173 129.253 84.0683 129.252C83.9695 129.252 83.8745 129.29 83.8042 129.36C83.7336 129.429 83.6934 129.524 83.6918 129.622C83.6896 129.671 83.6973 129.72 83.7139 129.766C83.7308 129.812 83.7566 129.854 83.7898 129.889C83.823 129.925 83.8632 129.954 83.9077 129.974C83.952 129.995 84.0002 130.006 84.0489 130.007C84.1481 130.007 84.243 129.968 84.3134 129.899C84.384 129.829 84.4241 129.735 84.4255 129.636Z" fill="#008BCC"/>
<path opacity="0.15" d="M84.1818 129.952C84.1303 129.952 84.0793 129.941 84.032 129.921C83.9849 129.9 83.9425 129.87 83.9079 129.832C83.873 129.794 83.8467 129.749 83.8307 129.7C83.8143 129.651 83.8085 129.599 83.8135 129.548C83.8199 129.474 83.8406 129.401 83.8744 129.335C83.826 129.37 83.7867 129.417 83.7601 129.471C83.7335 129.525 83.7205 129.585 83.7221 129.645C83.7205 129.694 83.7285 129.743 83.7462 129.789C83.7639 129.835 83.7908 129.877 83.8254 129.912C83.8597 129.947 83.901 129.975 83.9467 129.994C83.9924 130.013 84.0411 130.022 84.0904 130.021C84.1676 130.024 84.2432 130 84.3036 129.952H84.1818Z" fill="black"/>
<path d="M93.2089 130.652C93.2255 130.652 93.2415 130.657 93.2559 130.665C93.2703 130.673 93.2825 130.685 93.2914 130.698C93.3005 130.712 93.3058 130.728 93.3074 130.745C93.3088 130.761 93.3066 130.777 93.3002 130.793C93.1693 131.065 92.9638 131.296 92.7077 131.457C92.4516 131.618 92.1548 131.704 91.8522 131.704C91.5493 131.704 91.2527 131.618 90.9966 131.457C90.7402 131.296 90.5351 131.065 90.4041 130.793C90.3792 130.724 90.4041 130.652 90.4955 130.652H93.2089Z" fill="white"/>
<path d="M94.5486 124.214C94.2086 124.243 93.8794 124.348 93.5851 124.52C93.2905 124.693 93.038 124.928 92.8459 125.21C92.3885 125.052 91.8906 125.057 91.4366 125.223C91.2178 124.863 90.9019 124.571 90.5248 124.381C90.1477 124.191 89.7249 124.111 89.3046 124.15C88.8553 124.186 88.4267 124.354 88.0731 124.634C87.7195 124.913 87.4568 125.291 87.3181 125.72C87.1796 126.148 87.1713 126.608 87.2942 127.041C87.4175 127.475 87.6664 127.862 88.0094 128.154C88.3527 128.446 88.775 128.63 89.2227 128.682C89.6704 128.734 90.1236 128.652 90.5248 128.447C90.926 128.241 91.2574 127.922 91.4767 127.528C91.6963 127.135 91.794 126.685 91.7577 126.236C91.7353 125.985 91.6736 125.738 91.575 125.506C91.9397 125.376 92.3367 125.371 92.7047 125.492C92.5471 125.806 92.4646 126.151 92.4632 126.502C92.4618 126.853 92.5419 127.199 92.6969 127.514C92.852 127.828 93.0779 128.103 93.3567 128.316C93.6358 128.529 93.9603 128.674 94.305 128.741C94.6494 128.807 95.0049 128.793 95.3433 128.7C95.6816 128.606 95.9934 128.435 96.2547 128.201C96.5158 127.967 96.7193 127.675 96.8489 127.349C96.9785 127.023 97.0308 126.672 97.0018 126.322C96.9824 126.021 96.9035 125.728 96.7689 125.458C96.6346 125.188 96.4477 124.948 96.219 124.752C95.9906 124.556 95.7251 124.407 95.4382 124.314C95.1514 124.222 94.8488 124.188 94.5486 124.214ZM89.6701 128.38C89.2769 128.412 88.8835 128.326 88.5394 128.134C88.1949 127.943 87.9155 127.653 87.7359 127.302C87.5562 126.952 87.4847 126.556 87.5301 126.164C87.5758 125.773 87.7364 125.404 87.992 125.104C88.2473 124.804 88.5859 124.587 88.9652 124.479C89.3442 124.371 89.7468 124.378 90.122 124.499C90.4971 124.62 90.8283 124.849 91.073 125.158C91.3178 125.466 91.4654 125.841 91.4975 126.233C91.5396 126.758 91.3723 127.279 91.0321 127.681C90.6918 128.083 90.2061 128.335 89.6812 128.38H89.6701ZM94.9141 128.447C94.5215 128.474 94.13 128.384 93.7883 128.19C93.4467 127.995 93.1704 127.703 92.9943 127.352C92.8179 127.001 92.7498 126.605 92.798 126.215C92.8464 125.825 93.0089 125.458 93.2656 125.16C93.5223 124.862 93.8612 124.647 94.2402 124.541C94.619 124.435 95.0204 124.444 95.3945 124.566C95.7686 124.688 96.098 124.917 96.3417 125.226C96.5851 125.534 96.7321 125.908 96.7636 126.3C96.7839 126.561 96.7526 126.825 96.6712 127.074C96.5898 127.323 96.4602 127.554 96.2894 127.754C96.1188 127.953 95.9103 128.117 95.6764 128.236C95.4421 128.355 95.1868 128.426 94.9252 128.447H94.9141Z" fill="white"/>
<path d="M112.689 169.382L116.158 166.646L116.119 167.753L115.843 168.978L112.689 169.382Z" fill="#FC9D9D"/>
<path opacity="0.1" d="M112.689 169.382L116.158 166.646L116.119 167.753L115.843 168.978L112.689 169.382Z" fill="black"/>
<path d="M102.041 176.335L102.163 170.168L110.145 170.198C110.454 170.188 110.758 170.109 111.034 169.969L111.419 169.775C111.516 169.753 111.609 169.716 111.696 169.667L115.996 167.7C116.45 167.473 116.939 167.322 117.444 167.255L123.311 166.488C123.427 166.472 123.546 166.499 123.645 166.563C123.744 166.628 123.816 166.726 123.848 166.84C123.866 166.968 123.835 167.098 123.761 167.205C123.687 167.311 123.576 167.385 123.449 167.412L118.059 168.63L123.795 168.707C123.861 168.704 123.927 168.715 123.988 168.74C124.05 168.764 124.105 168.802 124.151 168.849C124.196 168.897 124.231 168.954 124.253 169.017C124.275 169.079 124.283 169.145 124.277 169.211C124.267 169.341 124.213 169.464 124.124 169.559C124.035 169.655 123.916 169.717 123.787 169.736L118.283 170.317L123.253 169.783C123.315 169.774 123.379 169.777 123.441 169.793C123.502 169.809 123.56 169.837 123.61 169.876C123.661 169.915 123.702 169.963 123.733 170.019C123.764 170.074 123.783 170.135 123.79 170.198C123.801 170.331 123.764 170.463 123.686 170.571C123.608 170.679 123.493 170.755 123.363 170.785L118.549 171.828L122.685 170.937C122.735 170.923 122.788 170.92 122.839 170.927C122.891 170.934 122.94 170.952 122.985 170.979C123.029 171.007 123.068 171.043 123.098 171.085C123.128 171.128 123.148 171.177 123.158 171.228C123.171 171.28 123.174 171.335 123.165 171.389C123.157 171.443 123.138 171.494 123.109 171.54C123.081 171.586 123.043 171.626 122.999 171.658C122.954 171.689 122.904 171.711 122.851 171.723L117.452 172.83C114.769 173.709 112.012 173.994 110.851 174.318C110.32 174.467 109.791 174.631 109.254 174.752L102.041 176.335Z" fill="#FC9D9D"/>
<path opacity="0.15" d="M123.266 169.684L118.506 169.748" stroke="black" stroke-width="1.09" stroke-miterlimit="10" stroke-linecap="round"/>
<path opacity="0.15" d="M118.331 171.396L122.636 170.843" stroke="black" stroke-width="1.09" stroke-miterlimit="10" stroke-linecap="round"/>
<path opacity="0.1" d="M123.066 171.549C123.06 171.517 123.051 171.487 123.039 171.458L118.689 172.066L111.261 173.281L102.079 175.361L102.063 176.335L109.422 174.764C109.976 174.647 110.51 174.487 111.053 174.332C112.235 174.006 115.062 173.649 117.798 172.755L122.762 171.803C122.989 171.751 123.108 171.795 123.066 171.549Z" fill="black"/>
<path d="M79.2724 141.165L74.5655 142.905C70.7585 144.346 68.7982 148.358 70.1826 151.977L81.6397 175.748C82.3817 177.668 84.4859 178.816 86.6373 178.479L103.726 176.061L103.684 169.96H87.6257C87.6257 169.96 85.5381 165.072 80.9807 154.467C80.6291 153.482 79.5963 151.371 79.505 150.347C79.2447 147.326 79.5326 144.186 79.2724 141.165Z" fill="#008BCC"/>
<g opacity="0.15">
<path opacity="0.15" d="M77.9355 167.194L81.5986 175.749C82.3406 177.669 84.4449 178.817 86.5824 178.479L103.685 176.061V174.941L90.118 176.877C87.903 177.207 86.8288 177.483 85.7185 177.431C85.0274 177.409 84.3543 177.205 83.7674 176.84C83.1801 176.475 82.6995 175.962 82.3739 175.353L77.9355 167.194Z" fill="black"/>
</g>
<path opacity="0.15" d="M85.2224 131.703L85.6873 130.674C85.5032 130.76 85.3124 130.831 85.1172 130.887L85.2224 131.703Z" fill="black"/>
<path d="M52.0868 245.405L50.0989 294.449" stroke="#21252B" stroke-width="0.93" stroke-miterlimit="10" stroke-linecap="round"/>
<path d="M37.6536 266.722L46.4748 277.083" stroke="#21252B" stroke-width="0.93" stroke-miterlimit="10" stroke-linecap="round"/>
<path d="M58.1861 279.02L50.248 291.071" stroke="#21252B" stroke-width="0.93" stroke-miterlimit="10" stroke-linecap="round"/>
<path d="M62.0565 258.782L51.1089 271.287" stroke="#21252B" stroke-width="0.93" stroke-miterlimit="10" stroke-linecap="round"/>
<path d="M61.323 265.497C63.9174 262.453 64.7009 258.857 63.0757 257.473C61.4504 256.09 58.0172 257.44 55.4228 260.484C52.8285 263.527 52.045 267.124 53.6702 268.507C55.2955 269.89 58.7232 268.543 61.323 265.497Z" fill="#008BCC"/>
<path opacity="0.3" d="M63.1725 257.597L53.6204 268.465C53.6536 268.465 53.6536 268.498 53.6896 268.498C55.3287 269.881 58.7453 268.534 61.323 265.504C63.8675 262.541 64.6704 259.058 63.1725 257.597Z" fill="black"/>
<path d="M42.93 272.825C44.1898 271.782 43.6222 269.015 41.6564 266.642C39.6906 264.268 37.0797 263.192 35.8199 264.235C34.5601 265.278 35.1277 268.044 37.0907 270.415C39.0538 272.786 41.6647 273.865 42.93 272.825Z" fill="#008BCC"/>
<path opacity="0.3" d="M35.7366 264.321L42.952 272.784L42.916 272.82C41.6617 273.863 39.0397 272.784 37.0601 270.416C35.1773 268.116 34.5848 265.4 35.7366 264.321Z" fill="black"/>
<path d="M38.9795 280.76L48.2853 288.006" stroke="#21252B" stroke-width="0.93" stroke-miterlimit="10" stroke-linecap="round"/>
<path d="M45.375 285.66C46.3967 284.384 45.2754 281.787 42.8832 279.867C40.491 277.947 37.7001 277.421 36.6784 278.699C35.6567 279.977 36.7781 282.573 39.1841 284.492C41.5902 286.412 44.3534 286.938 45.375 285.66Z" fill="#008BCC"/>
<path opacity="0.3" d="M36.6068 278.809L45.392 285.637L45.3588 285.673C44.3482 286.96 41.5573 286.44 39.154 284.522C36.8172 282.641 35.7014 280.099 36.6068 278.809Z" fill="black"/>
<path d="M55.722 249.093C55.9047 245.095 54.3515 241.778 52.2555 241.681C50.1596 241.584 48.3128 244.749 48.1301 248.747C47.9473 252.745 49.5006 256.062 51.5966 256.159C53.6925 256.256 55.542 253.091 55.722 249.093Z" fill="#008BCC"/>
<path opacity="0.3" d="M48.1461 248.783C48.3205 244.813 50.1673 241.642 52.2605 241.747L51.596 256.203C49.5055 256.057 47.9717 252.756 48.1461 248.783Z" fill="black"/>
<path d="M59.034 283.571C60.7755 280.849 60.9721 277.858 59.4576 276.896C57.9431 275.933 55.3045 277.358 53.5712 280.08C51.838 282.802 51.6331 285.79 53.1476 286.755C54.6621 287.721 57.2897 286.293 59.034 283.571Z" fill="#008BCC"/>
<path opacity="0.3" d="M53.5847 280.066C51.8764 282.711 51.6687 285.638 53.0614 286.647L59.4295 276.895L59.0474 276.721C57.5579 276.162 55.1878 277.556 53.5847 280.066Z" fill="black"/>
<path d="M49.2269 293.857L43.7891 259.999" stroke="#21252B" stroke-width="0.93" stroke-miterlimit="10" stroke-linecap="round"/>
<path d="M44.3028 264.741C46.1661 264.443 47.2155 261.322 46.6479 257.769C46.0803 254.217 44.1062 251.578 42.2428 251.876C40.3795 252.175 39.3301 255.296 39.9005 258.848C40.4708 262.401 42.4394 265.037 44.3028 264.741Z" fill="#008BCC"/>
<path opacity="0.3" d="M39.8852 258.851C39.3314 255.298 40.3725 252.161 42.222 251.848L44.2764 264.738C42.4297 265.087 40.4417 262.439 39.8852 258.851Z" fill="black"/>
<path d="M46.8232 305.856H53.3408C53.6299 305.859 53.9159 305.801 54.1831 305.693C54.4502 305.582 54.6928 305.419 54.8968 305.214C55.1009 305.012 55.2626 304.769 55.3725 304.501C55.4822 304.235 55.5381 303.95 55.5364 303.66V295.022H44.5916V303.643C44.5982 304.232 44.836 304.794 45.2536 305.206C45.6711 305.621 46.2348 305.853 46.8232 305.856Z" fill="#868A91"/>
<path d="M55.8167 293.857H44.3817C44.2314 293.868 44.0902 293.935 43.9872 294.045C43.8845 294.156 43.8271 294.3 43.8271 294.452C43.8271 294.601 43.8845 294.748 43.9872 294.856C44.0902 294.967 44.2314 295.033 44.3817 295.044H55.8167C55.8947 295.044 55.9723 295.03 56.0445 295C56.1168 294.969 56.1824 294.925 56.2375 294.87C56.2926 294.814 56.3361 294.751 56.3657 294.676C56.3951 294.604 56.41 294.527 56.4092 294.449C56.3984 294.297 56.3322 294.15 56.2234 294.043C56.1146 293.935 55.9703 293.868 55.8167 293.857Z" fill="#868A91"/>
<path d="M55.5725 295.008H45.605C45.4478 295.008 45.2972 294.947 45.1858 294.834C45.0748 294.723 45.0125 294.574 45.0125 294.416C45.0125 294.258 45.0748 294.109 45.1858 293.998C45.2972 293.888 45.4478 293.824 45.605 293.824H44.384C44.2268 293.824 44.0761 293.888 43.9648 293.998C43.8538 294.109 43.7915 294.258 43.7915 294.416C43.7915 294.574 43.8538 294.723 43.9648 294.834C44.0761 294.947 44.2268 295.008 44.384 295.008H44.6277V303.612C44.6268 303.9 44.6833 304.188 44.7935 304.454C44.9037 304.722 45.0657 304.963 45.27 305.167C45.4743 305.372 45.7169 305.532 45.9841 305.643C46.251 305.751 46.5373 305.809 46.8261 305.806H50.3811C49.6302 305.809 48.9018 305.552 48.322 305.073C47.7425 304.597 47.3485 303.933 47.2081 303.195L45.6383 295.146H55.5753L55.5725 295.008Z" fill="#61656D"/>
<path d="M336.839 171.537L353.914 176.564C353.62 183.662 351.582 190.578 347.977 196.7L330.9 191.673C334.474 185.538 336.512 178.629 336.839 171.537Z" fill="white"/>
<path d="M338.494 174.63L350.937 178.017" stroke="#61656D" stroke-width="0.75" stroke-miterlimit="10" stroke-linecap="round"/>
<path d="M338.494 176.29L350.937 179.677" stroke="#61656D" stroke-width="0.75" stroke-miterlimit="10" stroke-linecap="round"/>
<path d="M341.947 178.966L350.66 181.337" stroke="#61656D" stroke-width="0.75" stroke-miterlimit="10" stroke-linecap="round"/>
<path d="M338.218 177.95L341.116 178.739" stroke="#61656D" stroke-width="0.75" stroke-miterlimit="10" stroke-linecap="round"/>
<path d="M337.941 179.61L350.383 182.997" stroke="#61656D" stroke-width="0.75" stroke-miterlimit="10" stroke-linecap="round"/>
<path d="M347.064 183.829L350.107 184.657" stroke="#61656D" stroke-width="0.75" stroke-miterlimit="10"/>
<path d="M341.947 182.435L346.302 183.622" stroke="#61656D" stroke-width="0.75" stroke-miterlimit="10" stroke-linecap="round"/>
<path d="M337.664 181.27L341.116 182.211" stroke="#61656D" stroke-width="0.75" stroke-miterlimit="10" stroke-linecap="round"/>
<path d="M337.11 182.93L349.553 186.317" stroke="#61656D" stroke-width="0.75" stroke-miterlimit="10" stroke-linecap="round"/>
<path d="M341.532 185.943L348.999 187.977" stroke="#61656D" stroke-width="0.75" stroke-miterlimit="10" stroke-linecap="round"/>
<path d="M336.556 184.59L340.51 185.667" stroke="#61656D" stroke-width="0.75" stroke-miterlimit="10" stroke-linecap="round"/>
<path d="M335.726 186.25L348.168 189.637" stroke="#61656D" stroke-width="0.75" stroke-miterlimit="10" stroke-linecap="round"/>
<path d="M339.178 189.075L347.338 191.297" stroke="#61656D" stroke-width="0.75" stroke-miterlimit="10" stroke-linecap="round"/>
<path d="M334.895 187.91L337.664 188.663" stroke="#61656D" stroke-width="0.75" stroke-miterlimit="10" stroke-linecap="round"/>
<path d="M334.064 189.57L346.507 192.957" stroke="#61656D" stroke-width="0.75" stroke-miterlimit="10" stroke-linecap="round"/>
<path d="M205.741 88.6481L190.255 92.8921C190.176 90.4727 189.713 88.0815 188.885 85.8067C187.73 82.6859 186.337 81.1615 185.473 77.562C185.151 76.2006 184.965 74.8103 184.92 73.412L200.405 69.168C200.344 70.582 200.445 71.9985 200.704 73.3899C201.305 76.6048 202.51 78.2814 203.7 81.1725C204.678 83.5735 205.363 86.0834 205.741 88.6481Z" fill="white"/>
<path d="M187.769 75.1328L198.002 72.3274" stroke="#61656D" stroke-width="0.5" stroke-miterlimit="10"/>
<path d="M187.747 77.1467L197.98 74.3413" stroke="#61656D" stroke-width="0.5" stroke-miterlimit="10"/>
<path d="M188.794 78.8679L199.027 76.0625" stroke="#61656D" stroke-width="0.5" stroke-miterlimit="10"/>
<path d="M193.483 79.3023L200.001 77.5178" stroke="#61656D" stroke-width="0.5" stroke-miterlimit="10"/>
<path d="M189.768 80.323L192.62 79.54" stroke="#61656D" stroke-width="0.5" stroke-miterlimit="10"/>
<path d="M190.475 81.8501L200.708 79.0447" stroke="#61656D" stroke-width="0.5" stroke-miterlimit="10"/>
<path d="M198.639 81.3333L201.413 80.5725" stroke="#61656D" stroke-width="0.5" stroke-miterlimit="10"/>
<path d="M191.181 83.3774L197.621 81.6123" stroke="#61656D" stroke-width="0.5" stroke-miterlimit="10"/>
<path d="M199.079 82.9349L201.853 82.1741" stroke="#61656D" stroke-width="0.5" stroke-miterlimit="10"/>
<path d="M194.802 84.1052L198.329 83.1396" stroke="#61656D" stroke-width="0.5" stroke-miterlimit="10"/>
<path d="M191.621 84.9793L193.939 84.343" stroke="#61656D" stroke-width="0.5" stroke-miterlimit="10"/>
<path d="M192.326 86.5063L202.559 83.7009" stroke="#61656D" stroke-width="0.5" stroke-miterlimit="10"/>
<path d="M194.624 87.5966L202.731 85.375" stroke="#61656D" stroke-width="0.5" stroke-miterlimit="10"/>
<path d="M192.498 88.1805L194.046 87.7544" stroke="#61656D" stroke-width="0.5" stroke-miterlimit="10"/>
<path d="M192.67 89.8545L202.906 87.0491" stroke="#61656D" stroke-width="0.5" stroke-miterlimit="10"/>
<path d="M35.6289 187.653L51.5437 189.794C51.2984 187.39 51.4368 184.962 51.9535 182.601C52.6816 179.356 53.8584 177.657 54.2349 173.975C54.3731 172.583 54.3731 171.181 54.2349 169.789L38.3201 167.647C38.5726 169.041 38.6654 170.458 38.597 171.872C38.4309 175.139 37.4591 176.963 36.6589 179.987C36.0096 182.492 35.6638 185.066 35.6289 187.653Z" fill="white"/>
<path d="M51.3583 171.861L40.8398 170.447" stroke="#61656D" stroke-width="0.5" stroke-miterlimit="10"/>
<path d="M51.6491 173.855L41.1306 172.439" stroke="#61656D" stroke-width="0.5" stroke-miterlimit="10"/>
<path d="M50.84 175.7L40.3215 174.284" stroke="#61656D" stroke-width="0.5" stroke-miterlimit="10"/>
<path d="M46.2503 176.758L39.5527 175.856" stroke="#61656D" stroke-width="0.5" stroke-miterlimit="10"/>
<path d="M50.071 177.272L47.1389 176.877" stroke="#61656D" stroke-width="0.5" stroke-miterlimit="10"/>
<path d="M49.5759 178.879L39.0574 177.466" stroke="#61656D" stroke-width="0.5" stroke-miterlimit="10"/>
<path d="M41.4101 179.458L38.561 179.073" stroke="#61656D" stroke-width="0.5" stroke-miterlimit="10"/>
<path d="M49.0773 180.487L42.46 179.596" stroke="#61656D" stroke-width="0.5" stroke-miterlimit="10"/>
<path d="M41.1882 181.102L38.3391 180.72" stroke="#61656D" stroke-width="0.5" stroke-miterlimit="10"/>
<path d="M45.5855 181.693L41.9612 181.207" stroke="#61656D" stroke-width="0.5" stroke-miterlimit="10"/>
<path d="M48.8557 182.133L46.4746 181.812" stroke="#61656D" stroke-width="0.5" stroke-miterlimit="10"/>
<path d="M48.3595 183.741L37.8438 182.327" stroke="#61656D" stroke-width="0.5" stroke-miterlimit="10"/>
<path d="M46.2281 185.13L37.897 184.009" stroke="#61656D" stroke-width="0.5" stroke-miterlimit="10"/>
<path d="M48.4128 185.423L46.8208 185.21" stroke="#61656D" stroke-width="0.5" stroke-miterlimit="10"/>
<path d="M48.4657 187.105L37.95 185.691" stroke="#61656D" stroke-width="0.5" stroke-miterlimit="10"/>
<path d="M276.912 168.978C276.995 168.148 277.05 167.318 277.133 166.46C277.078 167.318 277.009 168.148 276.912 168.978Z" fill="white"/>
<path d="M278.767 146.457C278.822 145.766 278.878 145.074 278.905 144.382C278.878 145.074 278.822 145.738 278.767 146.457Z" fill="white"/>
<path d="M277.687 160.291C277.742 159.461 277.825 158.659 277.881 157.856C277.839 158.67 277.742 159.461 277.687 160.291Z" fill="white"/>
<path d="M275.084 187.211C275.223 186.077 275.334 184.915 275.472 183.725C275.347 184.915 275.223 186.077 275.084 187.211Z" fill="white"/>
<path d="M278.186 154.287C278.241 153.512 278.296 152.738 278.379 151.963C278.296 152.71 278.241 153.485 278.186 154.287Z" fill="white"/>
<path d="M293.386 145.268C293.774 137.106 292.943 131.407 292.943 131.407H292.971L292.085 131.02L290.949 131.269L283.252 132.984L280.788 129.387L279.736 129.277L280.622 129.387C280.733 133.676 283.059 159.599 278.462 192.689H293.358C291.392 177.804 292.5 161.591 292.943 149.363L293.386 145.268Z" fill="white"/>
<path d="M275.721 181.356C275.804 180.554 275.887 179.751 275.97 178.921C275.901 179.74 275.804 180.543 275.721 181.356Z" fill="white"/>
<path d="M276.33 175.231C276.441 173.986 276.579 172.741 276.69 171.496C276.579 172.741 276.455 173.986 276.33 175.231Z" fill="white"/>
<path d="M275.97 178.938C276.054 178.136 276.137 177.306 276.22 176.476C276.137 177.278 276.054 178.108 275.97 178.938Z" fill="white"/>
<path d="M277.466 162.753C277.549 161.923 277.604 161.093 277.687 160.291C277.604 161.093 277.562 161.923 277.466 162.753Z" fill="white"/>
<path d="M277.133 166.488L277.466 162.753C277.355 163.971 277.244 165.216 277.133 166.488Z" fill="white"/>
<path d="M280.65 129.387L279.764 129.277C279.791 130.854 279.487 136.608 278.933 144.355C278.878 145.019 278.822 145.711 278.795 146.43C278.712 147.481 278.628 148.56 278.545 149.667C278.49 150.414 278.435 151.161 278.379 151.936C278.324 152.71 278.269 153.457 278.185 154.26C278.102 155.422 277.992 156.611 277.909 157.829C277.853 158.631 277.77 159.433 277.715 160.263C277.659 161.093 277.576 161.896 277.493 162.726L277.161 166.461C277.078 167.291 277.023 168.121 276.94 168.978C276.856 169.836 276.773 170.638 276.718 171.496C276.607 172.741 276.469 173.986 276.358 175.231C276.33 175.646 276.275 176.061 276.247 176.476C276.164 177.306 276.081 178.108 275.998 178.938C275.915 179.768 275.832 180.571 275.749 181.373C275.666 182.175 275.583 182.978 275.5 183.752C275.361 184.942 275.251 186.104 275.112 187.238C274.891 189.147 274.697 190.973 274.475 192.716H278.518C283.1 159.627 280.76 133.676 280.65 129.387Z" fill="white"/>
<path opacity="0.15" d="M279.902 132.209L279.764 129.304C279.791 130.881 279.487 136.636 278.933 144.382C278.878 145.046 278.822 145.738 278.795 146.457C278.712 147.509 278.628 148.588 278.545 149.694C278.49 150.441 278.435 151.188 278.379 151.963C278.324 152.738 278.269 153.485 278.185 154.287C278.102 155.449 277.992 156.639 277.909 157.856C277.853 158.658 277.77 159.461 277.715 160.291C277.659 161.121 277.576 161.923 277.493 162.753L277.161 166.488C277.078 167.318 277.023 168.148 276.94 169.006C276.856 169.863 276.773 170.666 276.718 171.523C276.607 172.768 276.469 174.013 276.358 175.258C276.33 175.673 276.275 176.088 276.247 176.503C276.164 177.333 276.081 178.136 275.998 178.966C275.915 179.796 275.832 180.598 275.749 181.4C275.666 182.203 275.583 183.005 275.5 183.78C275.361 184.969 275.251 186.131 275.112 187.266C274.891 189.175 274.697 191.001 274.475 192.744H278.518C283.1 159.627 280.013 136.47 279.902 132.209Z" fill="black"/>
<path d="M266.086 189.933L268.135 291.304H277.41L282.588 205.537C282.618 205.055 282.829 204.604 283.183 204.275C283.535 203.946 284 203.764 284.484 203.768C284.966 203.771 285.428 203.96 285.777 204.294C286.123 204.628 286.331 205.083 286.353 205.565L291.06 291.304H300.335L303.187 189.933H266.086Z" fill="#21252B"/>
<path opacity="0.3" d="M268.384 192.699L267.941 202.77H274.032C274.813 202.785 275.575 202.523 276.184 202.033C276.79 201.542 277.205 200.853 277.355 200.086C277.77 197.596 278.13 192.367 278.49 189.96H268.384V192.699Z" fill="black"/>
<path d="M269.104 297.103L268.855 289.024H276.732L276.372 297.352L269.104 297.103Z" fill="#FC9D9D"/>
<path opacity="0.15" d="M276.635 291.292L276.386 297.351L274.503 297.296L274.558 293.727C274.561 293.448 274.47 293.177 274.298 292.955C274.126 292.734 273.888 292.579 273.617 292.51L268.91 291.292H276.635Z" fill="black"/>
<path d="M276.358 304.406V297.351C276.358 296.325 275.948 295.34 275.223 294.612C274.495 293.885 273.509 293.478 272.482 293.478H272.316C271.469 293.473 270.646 293.763 269.99 294.3C269.334 294.834 268.883 295.581 268.716 296.411C268.52 297.423 268.063 298.37 267.387 299.15L266.28 300.45C265.339 301.554 264.818 302.957 264.812 304.406H276.358Z" fill="#008BCC"/>
<path d="M269.686 297.241C269.658 297.241 269.63 297.233 269.605 297.219C269.58 297.205 269.561 297.183 269.547 297.158C269.519 297.075 269.519 296.992 269.602 296.964C270.253 296.596 270.987 296.403 271.734 296.403C272.482 296.403 273.216 296.596 273.866 296.964C273.897 296.986 273.916 297.02 273.919 297.056C273.924 297.091 273.916 297.127 273.894 297.158C273.872 297.188 273.839 297.208 273.803 297.21C273.767 297.216 273.731 297.208 273.7 297.186C273.097 296.843 272.415 296.663 271.721 296.663C271.026 296.663 270.344 296.843 269.741 297.186C269.741 297.241 269.713 297.241 269.686 297.241Z" fill="white"/>
<path d="M269.215 298.237C269.187 298.237 269.157 298.231 269.135 298.215C269.11 298.201 269.09 298.179 269.076 298.154C269.049 298.071 269.049 297.988 269.132 297.96C269.782 297.592 270.516 297.398 271.264 297.398C272.011 297.398 272.745 297.592 273.396 297.96C273.423 297.982 273.445 298.015 273.448 298.051C273.454 298.087 273.445 298.123 273.423 298.154C273.401 298.184 273.368 298.204 273.332 298.209C273.296 298.212 273.257 298.204 273.229 298.181C272.626 297.838 271.945 297.658 271.25 297.658C270.555 297.658 269.874 297.838 269.27 298.181C269.27 298.237 269.256 298.237 269.215 298.237Z" fill="white"/>
<path d="M268.716 299.288C268.689 299.288 268.661 299.28 268.636 299.266C268.611 299.252 268.592 299.23 268.578 299.205C268.55 299.122 268.55 299.039 268.633 299.012C269.284 298.644 270.018 298.45 270.765 298.45C271.513 298.45 272.246 298.644 272.897 299.012C272.928 299.034 272.947 299.067 272.95 299.103C272.955 299.139 272.947 299.175 272.925 299.205C272.903 299.236 272.869 299.255 272.833 299.258C272.797 299.263 272.761 299.255 272.731 299.233C272.127 298.89 271.446 298.71 270.751 298.71C270.056 298.71 269.375 298.89 268.772 299.233C268.744 299.288 268.716 299.288 268.716 299.288Z" fill="white"/>
<path d="M265.311 305.873H275.86C275.926 305.873 275.99 305.862 276.051 305.837C276.112 305.812 276.167 305.773 276.214 305.729C276.258 305.682 276.297 305.627 276.322 305.566C276.347 305.505 276.358 305.441 276.358 305.375V304.434H264.826V305.375C264.826 305.505 264.876 305.629 264.967 305.723C265.056 305.815 265.181 305.87 265.311 305.873Z" fill="#3F4249"/>
<path d="M267.941 291.293L267.858 288.083H277.825L277.632 291.293H267.941Z" fill="#008BCC"/>
<path d="M277.839 288.083L277.646 291.293H267.955L267.872 288.083H277.839Z" fill="#21252B"/>
<path opacity="0.4" d="M277.839 288.083L277.646 291.293H267.955L267.872 288.083H277.839Z" fill="black"/>
<path d="M312.905 144.327C312.579 142.856 311.911 141.483 310.953 140.32C309.996 139.156 308.777 138.235 307.396 137.632L292.97 131.379H292.943C292.962 131.526 292.962 131.675 292.943 131.822C292.923 131.971 292.896 132.118 292.86 132.264C292.694 134.118 292.334 138.683 292.057 144.853C292.001 146.07 291.946 147.37 291.891 148.726C291.475 160.346 291.42 185.163 293.081 200.38C293.15 201.013 293.452 201.597 293.928 202.021C294.405 202.445 295.019 202.678 295.656 202.676H303.132L303.575 181.732L304.018 160.484L304.378 161.785L316.062 159.046L312.905 144.327Z" fill="#008BCC"/>
<path opacity="0.2" d="M304.143 160.296L301.534 151.54C301.515 151.48 301.474 151.429 301.421 151.396C301.368 151.362 301.305 151.347 301.241 151.354C301.18 151.361 301.122 151.389 301.078 151.433C301.033 151.477 301.003 151.535 300.997 151.598L297.243 202.383C297.24 202.421 297.246 202.459 297.257 202.495C297.271 202.531 297.29 202.563 297.318 202.591C297.343 202.619 297.373 202.641 297.409 202.656C297.445 202.671 297.481 202.679 297.52 202.679H302.78C302.852 202.679 302.924 202.65 302.977 202.598C303.027 202.546 303.057 202.476 303.057 202.402L304.165 160.382C304.159 160.353 304.154 160.324 304.143 160.296Z" fill="black"/>
<path d="M291.165 119.128L290.888 117.855C290.174 109.118 278.947 116.616 278.947 116.616C278.947 116.616 279.334 119.728 279.548 123.159C279.548 123.901 280.22 124.432 280.362 124.999V127.439L280.148 132.142C280.148 132.142 281.992 134.599 286.146 134.599C286.146 134.599 290.576 134.599 293.067 131.279L291.165 119.128Z" fill="#FC9D9D"/>
<path d="M279.778 129.188L274.157 130.173C271.887 130.574 269.602 130.875 267.31 131.102C264.641 131.365 262.628 131.761 260.189 132.721L259.843 133.1V147.486L263.65 146.637L264.093 150.068C265.92 163.846 266.529 174.995 265.892 188.912L265.283 202.662H271.374C272.152 202.665 272.908 202.4 273.515 201.911C274.118 201.422 274.536 200.74 274.697 199.978C279.985 175.031 279.874 133.448 279.778 129.188Z" fill="#008BCC"/>
<path d="M279.736 138.213L280.345 128.225L277.77 129.636L273.672 139.319L279.736 138.213Z" fill="#008BCC"/>
<path opacity="0.15" d="M273.922 139.126L277.77 129.636L277.41 129.858L273.423 139.513L279.681 140.039L279.736 138.213L273.922 139.126Z" fill="black"/>
<path d="M292.694 129.526L294.826 132.209L297.235 142.529L292.445 139.818L292.888 132.735L292.915 132.597C292.998 132.215 293.026 131.824 292.998 131.435L292.694 129.526Z" fill="#008BCC"/>
<path opacity="0.2" d="M295.241 132.386L294.798 132.22L297.124 142.374L292.417 139.801L292.251 141.904L297.567 142.9L295.241 132.386Z" fill="black"/>
<path opacity="0.15" d="M259.843 143.176L259.939 147.553L263.65 146.723L263.096 143.569C263.063 143.379 262.991 143.199 262.88 143.04C262.772 142.882 262.628 142.75 262.462 142.652C262.296 142.555 262.11 142.495 261.919 142.476C261.725 142.458 261.534 142.481 261.351 142.545L259.843 143.176Z" fill="black"/>
<path opacity="0.4" d="M284.484 203.766C284.003 203.765 283.54 203.948 283.191 204.277C282.84 204.607 282.629 205.057 282.602 205.537L277.618 288.094H274.655L275.846 209.244C275.868 207.784 276.463 206.391 277.504 205.366C278.545 204.34 279.949 203.766 281.411 203.766H284.484Z" fill="black"/>
<path opacity="0.2" d="M277.632 291.293L277.826 288.083H274.642L274.586 291.293H277.632Z" fill="black"/>
<path opacity="0.4" d="M302.91 202.759L300.335 291.293H299.449L299.532 289.024H296.113L297.331 202.759H302.91Z" fill="black"/>
<path d="M299.283 297.103L299.533 289.024H291.642L292.002 297.352L299.283 297.103Z" fill="#FC9D9D"/>
<path opacity="0.15" d="M299.45 291.293L299.283 297.103L295.989 297.213L296.044 293.285C296.047 293.102 295.991 292.925 295.889 292.775C295.784 292.626 295.634 292.513 295.463 292.455L291.752 291.265H299.45V291.293Z" fill="black"/>
<path d="M292.001 304.406V297.351C292.001 296.325 292.411 295.34 293.137 294.612C293.865 293.885 294.851 293.478 295.878 293.478H296.044C296.891 293.473 297.713 293.763 298.37 294.3C299.026 294.834 299.477 295.581 299.643 296.411C299.84 297.423 300.297 298.37 300.972 299.15L302.08 300.45C303.021 301.554 303.542 302.957 303.547 304.406H292.001Z" fill="#008BCC"/>
<path d="M298.702 297.241C298.685 297.244 298.672 297.241 298.658 297.235C298.644 297.233 298.63 297.224 298.619 297.213C298.018 296.859 297.334 296.674 296.639 296.674C295.942 296.674 295.26 296.859 294.66 297.213C294.646 297.224 294.629 297.233 294.61 297.235C294.593 297.241 294.574 297.241 294.557 297.238C294.538 297.235 294.521 297.23 294.505 297.222C294.491 297.213 294.477 297.199 294.466 297.186C294.455 297.172 294.446 297.155 294.441 297.136C294.438 297.119 294.435 297.1 294.438 297.083C294.441 297.064 294.449 297.047 294.458 297.031C294.466 297.017 294.48 297.003 294.494 296.992C295.141 296.618 295.878 296.419 296.625 296.419C297.373 296.419 298.11 296.618 298.757 296.992C298.84 297.02 298.84 297.13 298.813 297.186C298.782 297.213 298.744 297.233 298.702 297.241Z" fill="white"/>
<path d="M299.159 298.237C299.145 298.24 299.128 298.237 299.114 298.231C299.101 298.229 299.087 298.22 299.076 298.209C298.475 297.855 297.791 297.67 297.096 297.67C296.401 297.67 295.717 297.855 295.116 298.209C295.102 298.22 295.086 298.229 295.066 298.234C295.05 298.237 295.03 298.24 295.014 298.237C294.994 298.234 294.978 298.226 294.961 298.218C294.947 298.209 294.934 298.195 294.922 298.182C294.911 298.168 294.903 298.151 294.9 298.132C294.895 298.115 294.895 298.099 294.895 298.079C294.898 298.063 294.906 298.043 294.914 298.029C294.922 298.013 294.936 297.999 294.95 297.988C295.598 297.614 296.335 297.418 297.082 297.418C297.83 297.418 298.566 297.614 299.214 297.988C299.297 298.016 299.297 298.126 299.269 298.182C299.242 298.237 299.2 298.237 299.159 298.237Z" fill="white"/>
<path d="M299.671 299.288C299.654 299.291 299.641 299.288 299.627 299.283C299.613 299.28 299.599 299.272 299.588 299.261C298.987 298.906 298.303 298.721 297.608 298.721C296.911 298.721 296.229 298.906 295.629 299.261C295.615 299.272 295.598 299.28 295.579 299.283C295.562 299.288 295.543 299.288 295.526 299.285C295.507 299.285 295.49 299.277 295.474 299.269C295.46 299.261 295.446 299.247 295.435 299.233C295.424 299.219 295.415 299.202 295.41 299.183C295.407 299.167 295.404 299.147 295.407 299.131C295.41 299.111 295.418 299.095 295.427 299.078C295.435 299.064 295.449 299.05 295.463 299.039C296.11 298.666 296.847 298.467 297.594 298.467C298.342 298.467 299.079 298.666 299.726 299.039C299.809 299.067 299.809 299.178 299.782 299.233C299.768 299.25 299.751 299.263 299.732 299.272C299.713 299.283 299.693 299.288 299.671 299.288Z" fill="white"/>
<path d="M303.049 305.873H292.514C292.447 305.873 292.384 305.862 292.323 305.837C292.262 305.812 292.206 305.773 292.159 305.729C292.115 305.682 292.076 305.627 292.051 305.566C292.026 305.505 292.015 305.441 292.015 305.375V304.434H303.589V305.375C303.583 305.513 303.522 305.64 303.423 305.734C303.32 305.829 303.187 305.878 303.049 305.873Z" fill="#3F4249"/>
<path d="M290.645 288.083L290.839 291.293H300.529L300.585 288.083H290.645Z" fill="#21252B"/>
<path opacity="0.4" d="M290.645 288.083L290.839 291.293H300.529L300.585 288.083H290.645Z" fill="black"/>
<path opacity="0.2" d="M296.113 288.083V291.293H300.543L300.598 288.083H296.113Z" fill="black"/>
<path d="M276.651 117.396C275.724 117.355 274.852 116.949 274.223 116.267C273.595 115.585 273.265 114.682 273.301 113.756C273.337 112.83 273.739 111.956 274.42 111.325C275.098 110.694 276.001 110.359 276.928 110.391C277.034 110.391 277.319 110.322 277.283 110.427C276.51 113.47 277.429 117.396 276.651 117.396Z" fill="#21252B"/>
<path d="M277.252 106.36C277.252 106.36 273.252 126.983 282.776 127.974C291.024 128.823 291.556 115.98 291.556 115.98L290.916 107.705L284.509 105.37L277.252 106.36Z" fill="#FC9D9D"/>
<path d="M279.98 111.277C280.935 109.932 282.527 108.941 284.227 108.977C286.137 109.013 287.696 110.532 287.519 112.762L287.483 113.257C287.466 113.482 287.538 113.704 287.685 113.875C287.829 114.047 288.037 114.155 288.261 114.176C288.471 114.18 288.676 114.225 288.87 114.309C289.061 114.393 289.236 114.514 289.379 114.665C289.523 114.816 289.637 114.995 289.715 115.19C289.789 115.385 289.825 115.594 289.82 115.803L289.784 117.255C289.784 117.297 289.792 117.339 289.806 117.378C289.822 117.416 289.847 117.452 289.875 117.481C289.906 117.511 289.942 117.534 289.98 117.55C290.019 117.566 290.061 117.574 290.102 117.573C290.102 117.573 290.528 117.643 290.598 117.297L290.811 115.742L289.324 106.969L282.031 105.06L278.986 107.641L279.98 111.277Z" fill="#21252B"/>
<path opacity="0.15" d="M291.165 119.164C291.165 119.164 290.598 119.128 290.138 118.387L291.271 120.324L291.165 119.164Z" fill="black"/>
<path d="M280.863 122.454L284.65 121.571C284.67 122.004 284.542 122.43 284.282 122.778C284.025 123.126 283.656 123.374 283.236 123.48C281.439 123.94 280.863 122.454 280.863 122.454Z" fill="white"/>
<path d="M284.227 117.573C284.382 117.574 284.531 117.529 284.661 117.443C284.789 117.358 284.891 117.236 284.949 117.094C285.01 116.951 285.024 116.794 284.996 116.643C284.966 116.491 284.891 116.352 284.783 116.243C284.673 116.133 284.534 116.059 284.382 116.028C284.232 115.998 284.074 116.013 283.93 116.072C283.789 116.131 283.667 116.231 283.582 116.36C283.496 116.488 283.449 116.639 283.449 116.793C283.449 116.896 283.468 116.997 283.507 117.092C283.546 117.186 283.604 117.272 283.676 117.345C283.748 117.417 283.834 117.475 283.928 117.514C284.022 117.553 284.124 117.573 284.227 117.573Z" fill="#21252B"/>
<path d="M283.873 116.725C283.9 116.725 283.928 116.717 283.95 116.701C283.975 116.686 283.992 116.664 284.003 116.638C284.014 116.612 284.017 116.584 284.011 116.556C284.006 116.529 283.992 116.503 283.973 116.483C283.953 116.464 283.928 116.45 283.9 116.445C283.873 116.439 283.845 116.442 283.817 116.453C283.792 116.464 283.77 116.482 283.756 116.505C283.74 116.528 283.731 116.556 283.731 116.584C283.731 116.621 283.745 116.657 283.773 116.684C283.798 116.71 283.834 116.725 283.873 116.725Z" fill="white"/>
<path d="M278.172 117.784C278.324 117.784 278.476 117.738 278.603 117.653C278.731 117.567 278.831 117.446 278.889 117.304C278.95 117.162 278.963 117.005 278.933 116.854C278.905 116.704 278.831 116.565 278.723 116.457C278.612 116.348 278.473 116.274 278.324 116.244C278.172 116.214 278.017 116.229 277.873 116.288C277.731 116.347 277.61 116.446 277.524 116.574C277.438 116.702 277.394 116.852 277.394 117.006C277.394 117.212 277.474 117.41 277.621 117.556C277.767 117.702 277.964 117.784 278.172 117.784Z" fill="#21252B"/>
<path d="M277.854 116.893C277.873 116.894 277.89 116.89 277.909 116.883C277.926 116.877 277.942 116.866 277.956 116.853C277.967 116.84 277.978 116.824 277.987 116.807C277.995 116.789 277.998 116.771 277.998 116.752C277.998 116.723 277.989 116.695 277.976 116.671C277.959 116.647 277.937 116.628 277.912 116.617C277.884 116.605 277.856 116.602 277.826 116.607C277.798 116.613 277.773 116.626 277.754 116.646C277.731 116.666 277.718 116.692 277.712 116.72C277.706 116.748 277.709 116.777 277.72 116.804C277.731 116.83 277.748 116.853 277.773 116.869C277.798 116.885 277.826 116.893 277.854 116.893Z" fill="white"/>
<g opacity="0.3">
<path opacity="0.3" d="M280.935 121.286L281.926 121.322C281.987 121.327 282.048 121.307 282.095 121.268C282.139 121.228 282.17 121.171 282.172 121.11C282.178 121.05 282.159 120.989 282.12 120.943C282.078 120.896 282.023 120.868 281.962 120.863L280.971 120.827C280.722 120.791 280.508 120.581 280.544 120.368C280.58 120.155 280.794 119.908 281.004 119.942C281.062 119.934 281.115 119.91 281.159 119.873C281.203 119.836 281.237 119.786 281.253 119.731C281.289 119.623 281.145 119.518 281.04 119.482C280.802 119.476 280.572 119.56 280.395 119.718C280.215 119.875 280.107 120.095 280.085 120.332C280.077 120.451 280.09 120.57 280.129 120.683C280.165 120.796 280.226 120.901 280.306 120.99C280.387 121.079 280.481 121.151 280.592 121.202C280.699 121.253 280.816 121.282 280.935 121.286Z" fill="black"/>
</g>
<path d="M274.879 116.229L274.915 117.078C274.943 117.868 275.284 118.613 275.86 119.153C276.438 119.692 277.205 119.982 277.994 119.958C278.783 119.935 279.534 119.601 280.076 119.028C280.622 118.455 280.915 117.691 280.899 116.901L280.863 116.052C280.868 115.929 280.849 115.806 280.807 115.691C280.763 115.576 280.699 115.47 280.616 115.379L281.785 115.344C281.704 115.436 281.646 115.542 281.61 115.658C281.571 115.773 281.56 115.895 281.571 116.016L281.607 116.865C281.63 117.658 281.967 118.408 282.546 118.952C283.122 119.496 283.892 119.788 284.686 119.765C285.478 119.741 286.231 119.404 286.774 118.827C287.319 118.25 287.61 117.481 287.588 116.688L287.555 115.839C287.541 115.549 287.416 115.276 287.206 115.078C286.993 114.88 286.713 114.772 286.422 114.779L282.668 114.884H282.632L279.73 114.956H279.271L275.948 115.061C275.655 115.085 275.383 115.219 275.184 115.435C274.985 115.652 274.877 115.936 274.879 116.229ZM282.599 115.344L286.386 115.238C286.558 115.236 286.727 115.301 286.852 115.42C286.976 115.539 287.051 115.702 287.059 115.875L287.092 116.724C287.106 117.062 287.056 117.4 286.937 117.718C286.821 118.035 286.644 118.327 286.411 118.575C286.181 118.823 285.905 119.022 285.594 119.162C285.287 119.301 284.955 119.378 284.614 119.387C284.277 119.397 283.939 119.339 283.623 119.216C283.308 119.094 283.02 118.91 282.776 118.675C282.532 118.441 282.336 118.16 282.203 117.849C282.07 117.538 281.998 117.204 281.995 116.865L281.962 116.016C281.976 115.849 282.048 115.692 282.164 115.57C282.28 115.448 282.433 115.368 282.599 115.344ZM275.306 116.229C275.303 116.056 275.37 115.889 275.489 115.764C275.605 115.638 275.768 115.564 275.943 115.557L279.265 115.451H279.725C279.896 115.449 280.065 115.514 280.19 115.633C280.314 115.752 280.389 115.915 280.398 116.088L280.434 116.937C280.447 117.275 280.398 117.613 280.279 117.931C280.162 118.249 279.985 118.54 279.752 118.788C279.523 119.036 279.246 119.235 278.936 119.375C278.628 119.514 278.296 119.591 277.956 119.6C277.618 119.61 277.28 119.552 276.964 119.429C276.649 119.307 276.361 119.123 276.117 118.888C275.873 118.654 275.677 118.373 275.544 118.062C275.411 117.751 275.339 117.417 275.336 117.078L275.306 116.229Z" fill="#21252B"/>
<path d="M293.394 110.253C293.117 108.026 291.943 106.363 289.997 105.937C289.169 105.772 288.316 105.809 287.505 106.045C287.433 106.068 287.356 106.077 287.281 106.07C287.206 106.063 287.131 106.04 287.065 106.003C286.998 105.967 286.94 105.917 286.896 105.857C286.849 105.797 286.816 105.728 286.796 105.655C286.614 104.92 286.19 104.267 285.595 103.8C284.997 103.332 284.263 103.077 283.504 103.073C282.973 103.067 282.447 103.19 281.973 103.431C281.497 103.672 281.09 104.024 280.78 104.457C280.736 104.52 280.68 104.574 280.614 104.615C280.547 104.655 280.473 104.681 280.398 104.691C280.32 104.701 280.243 104.695 280.168 104.673C280.093 104.652 280.024 104.615 279.966 104.565C279.966 104.565 277.698 102.761 274.725 104.598C273.722 105.251 272.994 106.252 272.69 107.409C272.382 108.566 272.515 109.795 273.063 110.859C274.268 113.23 277.383 113.938 279.296 112.134C279.969 111.498 280.497 110.541 280.605 109.127C280.697 108.342 280.625 107.547 280.392 106.792H281.383C282.552 106.723 284.393 106.515 286.126 106.756C286.09 106.792 286.057 106.792 286.021 106.828L289.1 107.854C289.1 107.854 290.055 115.988 290.554 115.919C292.721 115.452 293.679 112.267 293.394 110.253Z" fill="#21252B"/>
<path d="M290.811 115.025C290.811 115.025 291.129 113.503 292.749 113.966C294.59 114.494 294.272 118.21 291.83 119.059C290.307 119.377 290.52 118.456 290.625 117.219L290.811 115.025Z" fill="#FC9D9D"/>
<path opacity="0.15" d="M292.971 114.989C292.841 114.906 292.694 114.853 292.539 114.835C292.386 114.817 292.231 114.833 292.085 114.884C291.949 114.94 291.827 115.022 291.725 115.124C291.622 115.228 291.539 115.35 291.484 115.485C291.326 115.831 291.276 116.216 291.343 116.591V116.893C291.351 116.94 291.379 116.981 291.42 117.007C291.459 117.034 291.509 117.043 291.556 117.034C291.603 117.024 291.644 116.997 291.669 116.957C291.697 116.917 291.705 116.868 291.697 116.821V116.503C291.672 116.193 291.708 115.881 291.802 115.584C291.883 115.404 292.018 115.254 292.193 115.158C292.381 115.119 292.575 115.145 292.746 115.23C292.791 115.246 292.838 115.248 292.882 115.235C292.926 115.222 292.968 115.195 292.996 115.158C293.068 115.166 293.043 115.061 292.971 114.989Z" fill="black"/>
<path opacity="0.15" d="M288.89 125.904C287.807 127.254 286.254 128.144 284.54 128.394C283.28 129.279 281.771 129.741 280.232 129.713L280.348 127.152L280.697 127.345C282.006 128.014 283.507 128.209 284.944 127.898C286.378 127.586 287.663 126.788 288.579 125.638C288.618 125.561 288.773 125.561 288.856 125.599C288.887 125.643 288.906 125.694 288.912 125.747C288.917 125.801 288.909 125.854 288.89 125.904Z" fill="black"/>
<path d="M300.585 216.258C300.474 216.258 300.363 216.258 300.247 216.258C298.489 216.166 296.758 214.977 295.105 212.719L294.939 212.492C294.385 211.726 293.801 210.935 293.214 210.176L276.048 187.908C275.954 187.8 275.882 187.673 275.837 187.537C275.793 187.4 275.777 187.256 275.79 187.113C275.804 186.97 275.846 186.831 275.915 186.705C275.987 186.58 276.081 186.469 276.195 186.381C276.308 186.293 276.438 186.23 276.577 186.194C276.718 186.159 276.862 186.152 277.003 186.175C277.147 186.198 277.283 186.249 277.402 186.326C277.524 186.404 277.629 186.505 277.709 186.624L294.875 208.895C295.473 209.673 296.06 210.475 296.628 211.25L296.794 211.477C298.023 213.156 299.242 214.083 300.313 214.158C300.579 214.176 300.848 214.139 301.1 214.049C301.352 213.959 301.581 213.818 301.775 213.635C301.866 213.533 301.98 213.45 302.105 213.391C302.229 213.333 302.362 213.299 302.501 213.293C302.639 213.286 302.777 213.307 302.905 213.354C303.035 213.401 303.154 213.473 303.256 213.566C303.461 213.755 303.586 214.018 303.597 214.297C303.611 214.576 303.514 214.849 303.326 215.057C302.6 215.795 301.617 216.225 300.585 216.258Z" fill="#3F4249"/>
<path d="M241.237 128.372C241.188 128.373 241.139 128.364 241.094 128.346C241.049 128.327 241.008 128.299 240.974 128.264L238.801 125.989C238.739 125.922 238.706 125.832 238.709 125.74C238.713 125.649 238.752 125.562 238.819 125.499C238.885 125.436 238.974 125.401 239.066 125.402C239.157 125.403 239.245 125.44 239.31 125.505L241.481 127.78C241.527 127.829 241.558 127.89 241.57 127.957C241.583 128.023 241.575 128.092 241.55 128.154C241.524 128.217 241.481 128.27 241.425 128.309C241.37 128.348 241.305 128.369 241.237 128.372Z" fill="black"/>
<path d="M311.303 208.14L287.97 177.38L278.042 184.787L301.88 215.386C302.368 216.012 302.977 216.535 303.669 216.922C304.364 217.309 305.128 217.553 305.917 217.64C306.706 217.727 307.504 217.655 308.265 217.428C309.027 217.201 309.735 216.824 310.347 216.318C311.535 215.343 312.296 213.947 312.476 212.422C312.654 210.897 312.233 209.362 311.303 208.14Z" fill="#3F4249"/>
<path opacity="0.15" d="M311.303 208.14L287.97 177.38L278.042 184.787L301.88 215.386C302.368 216.012 302.977 216.535 303.669 216.922C304.364 217.309 305.128 217.553 305.917 217.64C306.706 217.727 307.504 217.655 308.265 217.428C309.027 217.201 309.735 216.824 310.347 216.318C311.535 215.343 312.296 213.947 312.476 212.422C312.654 210.897 312.233 209.362 311.303 208.14Z" fill="white"/>
<path d="M286.949 176.072L288.056 177.35L277.989 184.892L242.123 134.323C240.977 132.731 240.419 130.791 240.545 128.834C240.583 128.28 240.686 127.807 240.971 127.55C241.161 127.4 241.398 127.319 241.641 127.323C242.558 127.295 243.47 127.474 244.308 127.847C245.146 128.22 245.889 128.778 246.481 129.478L286.949 176.072Z" fill="#3F4249"/>
<path opacity="0.15" d="M286.949 176.072L288.056 177.35L277.989 184.892L242.123 134.323C240.977 132.731 240.419 130.791 240.545 128.834C240.583 128.28 240.686 127.807 240.971 127.55C241.161 127.4 241.398 127.319 241.641 127.323C242.558 127.295 243.47 127.474 244.308 127.847C245.146 128.22 245.889 128.778 246.481 129.478L286.949 176.072Z" fill="white"/>
<path d="M276.865 183.304L286.63 175.826L287.945 177.253L277.911 184.781L276.865 183.304Z" fill="white"/>
<path d="M271.125 173.515C270.571 173.587 270.126 173.792 270.051 174.069C269.918 174.561 270.533 174.929 271.374 174.976C271.748 174.998 272.025 174.998 272.025 174.998L271.579 175.018C271.449 175.021 271.322 175.053 271.205 175.113C271.089 175.173 270.987 175.259 270.909 175.363C270.535 175.897 271.15 176.329 271.74 176.382C272.296 176.388 272.85 176.426 273.401 176.498L272.554 176.409C272.446 176.395 272.338 176.404 272.235 176.435C272.133 176.467 272.036 176.52 271.956 176.592C271.56 176.968 271.898 177.452 272.833 177.765C273.412 177.936 274.016 178.013 274.619 177.992L273.919 178.033C273.692 178.041 273.47 178.1 273.268 178.205C272.739 178.498 272.786 178.916 273.941 179.148C275.145 179.389 284.974 179.126 288.463 178.49L314.351 175.668C315.018 175.603 315.666 175.396 316.247 175.061C316.832 174.727 317.336 174.272 317.729 173.728C318.122 173.183 318.393 172.562 318.526 171.904C318.662 171.246 318.653 170.568 318.504 169.913L316.151 159.095L304.466 161.834L306.792 167.838L287.245 173.012L286.165 173.233C285.805 173.316 285.473 173.344 285.224 173.095L285.099 172.97C284.83 172.693 284.523 172.457 284.185 172.27C283.961 172.153 283.723 172.061 283.479 171.994L279.423 170.486C279.08 170.36 278.728 170.263 278.368 170.195C277.308 169.958 276.283 169.578 275.323 169.067C275.203 168.998 275.068 168.958 274.932 168.949C274.794 168.94 274.655 168.962 274.528 169.014C274.456 169.041 274.395 169.087 274.348 169.147C274.237 169.307 274.27 169.913 274.492 170.397C274.622 170.666 274.832 170.888 275.095 171.031C276.377 171.668 277.693 172.239 279.035 172.741C276.098 173.524 271.125 173.515 271.125 173.515Z" fill="#FC9D9D"/>
<path opacity="0.1" d="M273.963 178.866C275.348 178.866 281.868 178.866 284.484 177.876C285.902 177.35 287.367 176.96 288.859 176.714C294.507 175.773 309.209 173.283 313.169 172.398C313.443 172.339 313.703 172.226 313.933 172.065C314.163 171.905 314.359 171.7 314.509 171.463C314.658 171.226 314.758 170.961 314.805 170.684C314.849 170.408 314.841 170.125 314.775 169.852L312.504 160.003L316.187 159.145L318.54 169.963C318.67 170.618 318.665 171.292 318.523 171.945C318.38 172.597 318.103 173.212 317.709 173.753C317.316 174.293 316.818 174.746 316.239 175.083C315.663 175.42 315.024 175.634 314.359 175.712L288.471 178.534C283.917 179.087 274.78 179.419 273.949 179.143C273.949 179.143 273.066 179.098 272.953 178.567C273.257 178.756 273.606 178.86 273.963 178.866Z" fill="black"/>
<path d="M287.253 173.073L288.278 178.606L290.022 178.413L288.997 172.686L287.253 173.073Z" fill="#001B34"/>
<path d="M288.707 177.693C289.053 177.693 289.388 177.591 289.676 177.399C289.964 177.208 290.185 176.936 290.318 176.617C290.451 176.299 290.484 175.948 290.418 175.61C290.351 175.272 290.185 174.961 289.939 174.718C289.695 174.474 289.385 174.308 289.047 174.241C288.709 174.174 288.358 174.208 288.039 174.34C287.721 174.472 287.447 174.695 287.256 174.982C287.065 175.269 286.962 175.606 286.962 175.95C286.962 176.413 287.145 176.856 287.472 177.183C287.801 177.51 288.244 177.693 288.707 177.693Z" fill="#008BCC"/>
<path d="M288.707 177.416C288.997 177.416 289.28 177.33 289.521 177.169C289.764 177.008 289.95 176.779 290.063 176.511C290.174 176.243 290.202 175.948 290.146 175.664C290.088 175.38 289.95 175.118 289.745 174.913C289.54 174.708 289.277 174.569 288.992 174.512C288.709 174.456 288.413 174.484 288.145 174.596C287.876 174.707 287.646 174.894 287.486 175.136C287.325 175.377 287.239 175.66 287.239 175.95C287.239 176.339 287.394 176.712 287.668 176.987C287.945 177.262 288.316 177.416 288.707 177.416Z" fill="white"/>
<path d="M289.676 176.1L288.679 176.045L287.959 175.519C287.931 175.491 287.904 175.436 287.931 175.408C287.959 175.381 288.014 175.353 288.042 175.381L288.707 175.879L289.648 175.934C289.659 175.933 289.67 175.934 289.681 175.938C289.692 175.941 289.701 175.947 289.709 175.955C289.717 175.963 289.723 175.973 289.728 175.983C289.731 175.994 289.731 176.006 289.731 176.017C289.759 176.034 289.745 176.1 289.676 176.1Z" fill="#001B34"/>
<path opacity="0.1" d="M272.094 175.012C272.094 175.012 275.486 175.142 277.701 174.589" stroke="black" stroke-miterlimit="10" stroke-linecap="round"/>
<path opacity="0.1" d="M272.717 176.526C272.717 176.526 276.317 176.526 278.255 175.972" stroke="black" stroke-miterlimit="10" stroke-linecap="round"/>
<path opacity="0.1" d="M274.517 177.995C275.957 177.948 277.391 177.827 278.817 177.632" stroke="black" stroke-miterlimit="10" stroke-linecap="round"/>
<path d="M347.227 244.89H317.324C317.078 244.89 316.843 244.792 316.668 244.618C316.494 244.445 316.397 244.209 316.397 243.963C316.397 243.717 316.494 243.482 316.668 243.308C316.843 243.134 317.078 243.036 317.324 243.036H347.227C347.349 243.036 347.471 243.059 347.584 243.105C347.695 243.151 347.797 243.22 347.886 243.306C347.972 243.392 348.038 243.495 348.085 243.607C348.132 243.72 348.155 243.841 348.155 243.963C348.152 244.208 348.052 244.441 347.878 244.614C347.706 244.787 347.473 244.886 347.227 244.89Z" fill="#61656D"/>
<path d="M345.981 244.89L350.934 305.856H349.938L342.487 244.884L345.981 244.89Z" fill="#61656D"/>
<path d="M318.393 244.89L313.409 305.862H314.406L321.862 244.89H318.393Z" fill="#61656D"/>
<path d="M318.393 244.89L318.249 246.065H319.96L313.974 305.856H314.401L321.863 244.89H318.393Z" fill="#3F4249"/>
<path d="M347.335 268.251H346.443L342.487 244.89H345.981L350.934 305.856H350.436L347.335 268.251Z" fill="#3F4249"/>
<path d="M330.05 244.89L330.833 305.856H331.83L333.541 244.884L330.05 244.89Z" fill="#3F4249"/>
<path d="M329.092 242.124H315.605V243.053H329.092V242.124Z" fill="#AFB3B8"/>
<path d="M329.092 237.475H315.605V243.053H329.092V237.475Z" fill="#D7DADC"/>
<path d="M315.602 237.475H347.781V243.053H329.092V238.405H315.602V237.475Z" fill="#AFB3B8"/>
<path d="M315.602 237.475H347.781V243.053H329.092V238.405H315.602V237.475Z" fill="#AFB3B8"/>
<path d="M329.092 242.124H315.605V243.053H329.092V242.124Z" fill="#AFB3B8"/>
<path d="M340.109 239.409H332.22V241.393H340.109V239.409Z" fill="#D7DADC"/>
<path d="M342.074 240.259C342.074 239.934 342.171 239.616 342.351 239.346C342.531 239.076 342.789 238.865 343.091 238.741C343.39 238.616 343.722 238.584 344.04 238.647C344.359 238.71 344.652 238.867 344.882 239.097C345.112 239.326 345.27 239.619 345.333 239.938C345.397 240.257 345.364 240.588 345.239 240.888C345.115 241.188 344.904 241.445 344.633 241.625C344.361 241.806 344.043 241.902 343.719 241.902C343.282 241.902 342.864 241.729 342.556 241.421C342.249 241.113 342.074 240.695 342.074 240.259ZM342.628 240.259C342.628 240.472 342.689 240.68 342.808 240.858C342.924 241.035 343.093 241.175 343.29 241.258C343.487 241.341 343.702 241.364 343.91 241.324C344.121 241.285 344.314 241.185 344.467 241.036C344.619 240.887 344.724 240.697 344.768 240.488C344.813 240.28 344.796 240.064 344.719 239.865C344.641 239.667 344.505 239.496 344.331 239.374C344.157 239.252 343.949 239.185 343.736 239.18C343.592 239.177 343.448 239.203 343.315 239.255C343.182 239.308 343.06 239.387 342.955 239.488C342.852 239.588 342.769 239.708 342.714 239.84C342.659 239.973 342.628 240.115 342.628 240.259Z" fill="#D7DADC"/>
<path d="M331.42 232.816H320.558V237.478H331.42V232.816Z" fill="#D7DADC"/>
<path d="M320.558 232.816H346.471V237.478H331.42V233.552H320.558V232.816Z" fill="#AFB3B8"/>
<path d="M331.642 236.557H320.567V237.475H331.642V236.557Z" fill="#AFB3B8"/>
<path d="M320.558 232.816H346.471V237.478H331.42V233.552H320.558V232.816Z" fill="#AFB3B8"/>
<path d="M331.42 236.557H320.558V237.475H331.42V236.557Z" fill="#AFB3B8"/>
<path d="M340.294 234.371H333.943V235.976H340.294V234.371Z" fill="#D7DADC"/>
<path d="M341.881 235.055C341.881 234.793 341.958 234.537 342.105 234.32C342.249 234.102 342.457 233.933 342.697 233.833C342.938 233.733 343.207 233.707 343.462 233.757C343.719 233.809 343.954 233.935 344.14 234.12C344.325 234.304 344.45 234.54 344.503 234.797C344.552 235.053 344.528 235.319 344.428 235.561C344.328 235.802 344.157 236.009 343.941 236.154C343.722 236.3 343.467 236.377 343.204 236.377C342.852 236.377 342.517 236.238 342.268 235.99C342.019 235.742 341.881 235.405 341.881 235.055ZM342.332 235.055C342.332 235.227 342.385 235.396 342.479 235.539C342.576 235.682 342.711 235.794 342.872 235.86C343.03 235.926 343.204 235.943 343.376 235.909C343.545 235.876 343.7 235.793 343.822 235.671C343.943 235.549 344.026 235.394 344.06 235.225C344.093 235.056 344.076 234.88 344.01 234.721C343.943 234.562 343.833 234.426 343.689 234.33C343.545 234.234 343.376 234.183 343.204 234.183C343.091 234.183 342.977 234.206 342.872 234.249C342.764 234.293 342.67 234.358 342.587 234.438C342.506 234.519 342.443 234.615 342.398 234.721C342.354 234.827 342.332 234.94 342.332 235.055Z" fill="#D7DADC"/>
<path opacity="0.15" d="M346.471 237.179H320.558V237.475H346.471V237.179Z" fill="black"/>
</g>
<defs>
<clipPath id="clip0_156_3139">
<rect width="388" height="347" fill="white" transform="translate(0 0.501465)"/>
</clipPath>
</defs>
</svg>
