<svg width="240" height="40" viewBox="0 0 240 40" fill="none" xmlns="http://www.w3.org/2000/svg">
<g clip-path="url(#clip0_222_4916)">
<path d="M71.3631 8.27307L77.1674 22.8927L82.2634 9.07205L87.3364 22.8927L93.1293 8.27307H96.7913L87.3536 32.0158L82.1948 17.7702L77.1389 31.9875L67.7183 8.27307H71.3631Z" fill="#008CCC"/>
<path d="M115.044 31.6249H111.434L109.56 27.7773H98.7738L96.8999 31.6249H93.2722L104.161 8.05212L115.044 31.6249ZM104.15 25.267H108.297C107.608 23.7975 106.918 22.2222 106.229 20.5411C105.54 18.8601 104.856 17.2791 104.178 15.7983C103.481 17.2716 102.79 18.8525 102.087 20.5411C101.385 22.2298 100.699 23.7994 100.019 25.267H104.15Z" fill="#008CCC"/>
<path d="M126.076 28.3666C126.563 28.1882 127.023 27.9421 127.441 27.6356C127.846 27.3331 128.18 26.9463 128.418 26.5023C128.662 26.0714 128.79 25.5855 128.789 25.0913C128.801 24.681 128.704 24.2748 128.509 23.9127C128.316 23.5577 128.056 23.2424 127.744 22.9834C127.391 22.7027 127.008 22.4614 126.601 22.2637C126.178 22.0466 125.741 21.8573 125.293 21.6971C124.876 21.5611 124.419 21.4307 123.916 21.3004C122.879 21.039 121.877 20.6586 120.928 20.1671C120.063 19.7181 119.288 19.115 118.643 18.3878C118.193 17.8891 117.839 17.313 117.598 16.6879C117.354 16.0627 117.23 15.3977 117.232 14.7272C117.231 13.8277 117.426 12.9384 117.803 12.1206C118.177 11.306 118.711 10.5738 119.375 9.96736C120.061 9.3411 120.859 8.84724 121.728 8.51107C123.472 7.8561 125.392 7.82603 127.156 8.42607C127.956 8.7069 128.703 9.1187 129.366 9.64437C130.436 10.4749 131.22 11.6129 131.612 12.9026L128.23 13.5599C128.029 13.0555 127.717 12.6023 127.315 12.234C126.761 11.7262 126.073 11.3843 125.331 11.248C124.589 11.1116 123.823 11.1862 123.122 11.4633C122.665 11.6424 122.244 11.9037 121.882 12.234C121.53 12.5543 121.243 12.9391 121.037 13.3673C120.836 13.7927 120.732 14.2573 120.734 14.7272C120.729 15.0557 120.785 15.3823 120.9 15.6906C121.002 15.9696 121.146 16.2314 121.328 16.4669C121.522 16.7052 121.749 16.915 122.002 17.0902C122.258 17.2739 122.528 17.4387 122.808 17.5832C123.108 17.7319 123.417 17.8624 123.733 17.9742C124.093 18.1045 124.402 18.2122 124.665 18.2858L125.596 18.5578C125.95 18.6598 126.224 18.7448 126.413 18.8071C127.017 18.9999 127.605 19.2386 128.172 19.5211C128.737 19.7992 129.275 20.1293 129.778 20.5071C130.264 20.869 130.707 21.2854 131.097 21.7481C131.476 22.1999 131.775 22.7113 131.983 23.261C132.205 23.8263 132.317 24.428 132.314 25.0346C132.314 25.9532 132.092 26.8584 131.669 27.6753C131.251 28.5011 130.668 29.2337 129.955 29.8285C129.218 30.4396 128.382 30.9207 127.481 31.2508C126.558 31.599 125.578 31.7776 124.59 31.7778C123.509 31.7798 122.438 31.5719 121.437 31.1658C120.438 30.7691 119.53 30.1754 118.769 29.4205C118.032 28.7054 117.477 27.8278 117.146 26.8593L120.546 26.1906C120.892 26.9131 121.46 27.5082 122.168 27.8906C122.893 28.3266 123.725 28.5578 124.573 28.5592C125.101 28.5258 125.621 28.415 126.116 28.2306" fill="#008CCC"/>
<path d="M139.432 8.27307V17.4302V18.3992H140.489H149.67H150.727V17.4302V8.27307H154.098V31.6248H150.727V22.4677V21.4931H149.67H140.489H139.432V22.4677V31.6248H136.056V8.27307H139.432Z" fill="#008CCC"/>
<path d="M175.441 24.0714V21.2892V8.22782H178.829V32.0499L162.29 15.7926V17.5833V31.6872H158.896V8.03516L175.441 24.0714Z" fill="#008CCC"/>
<path d="M201.789 8.94747C203.335 9.56056 204.752 10.4563 205.965 11.5881C207.166 12.6624 208.138 13.965 208.822 15.4187C209.451 16.8564 209.776 18.4071 209.776 19.9745C209.776 21.542 209.451 23.0926 208.822 24.5304C208.142 25.9866 207.17 27.29 205.965 28.361C204.755 29.4886 203.337 30.3737 201.789 30.9676C198.604 32.116 195.113 32.116 191.929 30.9676C190.384 30.3771 188.97 29.4915 187.77 28.361C186.564 27.2905 185.6 25.9793 184.942 24.5134C184.325 23.0804 184.007 21.5383 184.007 19.9802C184.007 18.4221 184.325 16.88 184.942 15.447C185.614 13.9841 186.576 12.67 187.77 11.5824C188.974 10.4526 190.386 9.56209 191.929 8.95881C195.113 7.81044 198.604 7.81044 201.789 8.95881M193.22 11.8997C192.099 12.3459 191.072 12.9955 190.192 13.815C189.309 14.6071 188.601 15.5718 188.112 16.6483C187.652 17.6973 187.421 18.8307 187.432 19.9745C187.416 21.1207 187.647 22.257 188.112 23.3065C188.593 24.3877 189.302 25.3539 190.192 26.1397C191.058 26.9735 192.089 27.6199 193.22 28.038C194.379 28.4724 195.608 28.6914 196.847 28.684C198.077 28.692 199.298 28.4729 200.446 28.038C201.576 27.6067 202.61 26.962 203.491 26.1397C204.374 25.3476 205.082 24.383 205.571 23.3065C206.055 22.2622 206.299 21.124 206.285 19.9745C206.294 18.8275 206.05 17.6923 205.571 16.6483C205.071 15.5829 204.371 14.6214 203.509 13.815C201.706 12.1383 199.318 11.2202 196.847 11.2538C195.615 11.2448 194.391 11.4599 193.237 11.8884L193.22 11.8997Z" fill="#008CCC"/>
<path d="M214.072 8.27307L219.876 22.8927L224.972 9.07205L230.045 22.8927L235.838 8.27307H239.5L230.062 32.0158L224.904 17.7702L219.842 31.9875L210.427 8.27307H214.072Z" fill="#008CCC"/>
<path d="M7.7041 32.5825C7.7041 34.054 8.14403 35.4925 8.96826 36.716C9.79249 37.9395 10.964 38.8932 12.3346 39.4563C13.7053 40.0194 15.2135 40.1668 16.6686 39.8797C18.1236 39.5926 19.4602 38.884 20.5092 37.8435C21.5583 36.8029 22.2727 35.4772 22.5621 34.034C22.8515 32.5907 22.703 31.0948 22.1352 29.7353C21.5675 28.3758 20.6061 27.2138 19.3725 26.3962C18.139 25.5787 16.6887 25.1423 15.2052 25.1423C13.2167 25.1453 11.3105 25.9302 9.90445 27.3248C8.49838 28.7195 7.70712 30.6102 7.7041 32.5825ZM10.4292 32.5825C10.4292 31.6456 10.7093 30.7297 11.2341 29.9506C11.7589 29.1716 12.5048 28.5644 13.3775 28.2059C14.2502 27.8473 15.2105 27.7535 16.1369 27.9363C17.0634 28.1191 17.9144 28.5703 18.5823 29.2328C19.2502 29.8953 19.7051 30.7394 19.8894 31.6583C20.0737 32.5772 19.9791 33.5297 19.6176 34.3953C19.2561 35.261 18.644 36.0008 17.8586 36.5213C17.0732 37.0419 16.1498 37.3197 15.2052 37.3197C13.939 37.3182 12.725 36.8186 11.8297 35.9305C10.9343 35.0425 10.4307 33.8384 10.4292 32.5825Z" fill="#008CCC"/>
<path d="M41.1189 32.5825C41.1178 34.0556 41.5572 35.496 42.3816 36.7213C43.2061 37.9466 44.3784 38.9018 45.7503 39.4661C47.1222 40.0304 48.6321 40.1783 50.0888 39.8912C51.5455 39.6041 52.8836 38.8948 53.9338 37.8531C54.984 36.8115 55.699 35.4842 55.9885 34.0394C56.278 32.5945 56.1288 31.0969 55.5599 29.7361C54.9911 28.3754 54.028 27.2125 52.7927 26.3948C51.5573 25.5771 50.1052 25.1412 48.62 25.1423C46.6315 25.1453 44.7253 25.9302 43.3192 27.3248C41.9132 28.7195 41.1219 30.6102 41.1189 32.5825ZM43.8497 32.5825C43.8497 31.6453 44.1299 30.7292 44.655 29.95C45.18 29.1709 45.9263 28.5637 46.7993 28.2053C47.6723 27.847 48.6329 27.7535 49.5595 27.9367C50.4861 28.12 51.3371 28.5717 52.0048 29.2348C52.6725 29.8979 53.127 30.7425 53.3106 31.6618C53.4942 32.5811 53.3988 33.5338 53.0365 34.3993C52.6741 35.2648 52.0611 36.0042 51.2749 36.5241C50.4888 37.0439 49.5648 37.3208 48.62 37.3197C47.3543 37.3182 46.141 36.8184 45.2465 35.9302C44.3521 35.042 43.8497 33.8379 43.8497 32.5825Z" fill="#008CCC"/>
<path d="M21.8491 31.5002V33.6195H42.3528V31.5002H21.8491Z" fill="#008CCC"/>
<path d="M20.7752 9.79745C14.2853 10.1544 9.21226 12.3871 5.6931 16.4273C1.23131 21.5272 0.157284 28.8936 0.591466 33.6252L0.68287 34.6565H6.6643V32.3899H2.80236C2.80236 32.1916 2.80236 31.9762 2.80236 31.7382C2.80236 28.752 3.37365 22.5811 7.42983 17.8949C10.5262 14.3363 15.0623 12.3701 20.9123 12.0471C38.2396 11.0951 44.8266 19.0679 44.9066 19.1529L45.1979 19.5155L45.6664 19.5722C59.5774 21.2155 61.3312 29.0466 61.5026 31.8856H57.0694V34.1522H63.6678L63.7707 33.1379C63.7707 33.1379 63.7707 32.9396 63.7707 32.6222C63.7707 30.1573 62.7766 19.5439 46.3748 17.4076C44.8609 15.753 37.5312 8.87381 20.7866 9.79745" fill="#008CCC"/>
<path d="M19.8269 13.747C19.8269 16.4659 20.6398 19.1237 22.1627 21.3844C23.6856 23.6451 25.8501 25.4071 28.3826 26.4476C30.9151 27.488 33.7018 27.7603 36.3903 27.2298C39.0788 26.6994 41.5483 25.3901 43.4866 23.4676C45.4249 21.545 46.7449 19.0956 47.2797 16.4289C47.8145 13.7622 47.54 10.9982 46.491 8.48625C45.442 5.97431 43.6656 3.82732 41.3864 2.31679C39.1072 0.806247 36.4276 0 33.6865 0C30.0121 0.00449852 26.4895 1.45429 23.8913 4.03137C21.2931 6.60846 19.8314 10.1024 19.8269 13.747ZM22.1121 13.747C22.1087 11.4743 22.7851 9.2517 24.0557 7.36047C25.3264 5.46925 27.1341 3.99441 29.2501 3.12262C31.3661 2.25082 33.6953 2.02126 35.9429 2.46299C38.1905 2.90472 40.2555 3.99788 41.8765 5.60412C43.4975 7.21037 44.6016 9.25748 45.0492 11.4864C45.4967 13.7153 45.2676 16.0258 44.3908 18.1255C43.5139 20.2252 42.0288 22.0197 40.1233 23.2819C38.2179 24.544 35.9778 25.2172 33.6865 25.216C30.6196 25.2116 27.6794 24.0023 25.5091 21.8529C23.3389 19.7035 22.1154 16.7889 22.1064 13.747H22.1121Z" fill="#008CCC"/>
<path d="M46.4089 6.40317C46.4078 7.44706 46.7189 8.46781 47.3029 9.33623C47.8869 10.2047 48.7175 10.8817 49.6896 11.2817C50.6617 11.6817 51.7316 11.7867 52.7639 11.5833C53.7962 11.3799 54.7444 10.8773 55.4886 10.1392C56.2328 9.40106 56.7394 8.46054 56.9445 7.43666C57.1495 6.41278 57.0437 5.35157 56.6404 4.38736C56.2372 3.42315 55.5546 2.59928 54.679 2.02003C53.8035 1.44078 52.7744 1.13218 51.722 1.1333C50.3133 1.1348 48.9628 1.69051 47.9668 2.67847C46.9707 3.66644 46.4105 5.00598 46.4089 6.40317ZM48.6941 6.40317C48.6941 5.80694 48.8724 5.2241 49.2063 4.72835C49.5403 4.2326 50.015 3.84622 50.5703 3.61805C51.1257 3.38989 51.7368 3.33019 52.3263 3.44651C52.9159 3.56283 53.4574 3.84994 53.8825 4.27153C54.3075 4.69313 54.597 5.23028 54.7143 5.81505C54.8315 6.39983 54.7713 7.00596 54.5413 7.55681C54.3113 8.10765 53.9217 8.57847 53.4219 8.90971C52.9221 9.24096 52.3345 9.41776 51.7334 9.41776C51.3333 9.41925 50.9369 9.34238 50.5668 9.19155C50.1967 9.04072 49.8603 8.8189 49.5769 8.53883C49.2935 8.25875 49.0686 7.92591 48.9151 7.55943C48.7617 7.19294 48.6827 6.80001 48.6827 6.40317H48.6941Z" fill="#008CCC"/>
</g>
<defs>
<clipPath id="clip0_222_4916">
<rect width="239" height="40" fill="white" transform="translate(0.5)"/>
</clipPath>
</defs>
</svg>
