<svg width="170" height="28" viewBox="0 0 170 28" fill="none" xmlns="http://www.w3.org/2000/svg">
<g clip-path="url(#clip0_394_663)">
<path d="M50.4046 5.79114L54.5332 16.0249L58.1579 6.35042L61.7664 16.0249L65.8868 5.79114H68.4916L61.7785 22.4111L58.1091 12.4391L54.5129 22.3912L47.812 5.79114H50.4046Z" fill="white"/>
<path d="M81.4746 22.1374H78.9064L77.5736 19.4441H69.9015L68.5687 22.1374H65.9883L73.7335 5.63647L81.4746 22.1374ZM73.7253 17.6869H76.6755C76.1852 16.6582 75.6948 15.5555 75.2045 14.3788C74.7142 13.202 74.2279 12.0954 73.7457 11.0588C73.2499 12.0901 72.7582 13.1967 72.2584 14.3788C71.7586 15.5608 71.2709 16.6596 70.7874 17.6869H73.7253Z" fill="white"/>
<path d="M89.3216 19.8566C89.6685 19.7318 89.9955 19.5595 90.2928 19.3449C90.581 19.1332 90.8181 18.8624 90.9877 18.5516C91.1611 18.25 91.2521 17.9099 91.2518 17.564C91.26 17.2767 91.1913 16.9924 91.0527 16.7389C90.9149 16.4905 90.7301 16.2697 90.5082 16.0884C90.257 15.8919 89.9844 15.723 89.6954 15.5846C89.3945 15.4326 89.0837 15.3001 88.7649 15.188C88.4682 15.0928 88.1432 15.0016 87.7856 14.9103C87.048 14.7273 86.3348 14.4611 85.6603 14.117C85.0448 13.8027 84.4938 13.3805 84.0349 12.8715C83.7148 12.5224 83.4627 12.1191 83.2912 11.6815C83.1176 11.2439 83.0294 10.7784 83.0312 10.3091C83.0301 9.67941 83.1688 9.05694 83.4375 8.48449C83.7031 7.91423 84.0831 7.4017 84.555 6.97719C85.0433 6.53881 85.6111 6.19311 86.2292 5.95778C87.4696 5.4993 88.835 5.47825 90.0896 5.89828C90.6589 6.09487 91.1905 6.38313 91.6622 6.7511C92.4227 7.33249 92.9805 8.1291 93.2592 9.03187L90.8536 9.49199C90.711 9.13886 90.4888 8.82161 90.2034 8.56382C89.809 8.20835 89.3197 7.96907 88.7919 7.87361C88.2641 7.77815 87.7194 7.83041 87.2207 8.02436C86.8953 8.14972 86.5964 8.3326 86.3389 8.56382C86.0881 8.78805 85.8839 9.05741 85.7375 9.35713C85.5943 9.65493 85.5207 9.98012 85.5221 10.3091C85.5186 10.539 85.5585 10.7676 85.64 10.9834C85.7125 11.1787 85.8152 11.362 85.9448 11.5268C86.0827 11.6937 86.2441 11.8406 86.4243 11.9632C86.6063 12.0918 86.7978 12.2071 86.9972 12.3083C87.2108 12.4123 87.4306 12.5037 87.6555 12.582C87.9115 12.6732 88.131 12.7485 88.3179 12.8001L88.9803 12.9905C89.2322 13.0619 89.4272 13.1214 89.5613 13.165C89.9911 13.3 90.4095 13.467 90.8129 13.6648C91.2148 13.8595 91.5971 14.0906 91.9548 14.355C92.3009 14.6083 92.6159 14.8998 92.8935 15.2237C93.1624 15.54 93.3753 15.8979 93.5233 16.2828C93.6811 16.6785 93.7611 17.0997 93.759 17.5243C93.7586 18.1673 93.6012 18.8009 93.2998 19.3727C93.0026 19.9508 92.5878 20.4636 92.0808 20.88C91.557 21.3077 90.9618 21.6445 90.3212 21.8756C89.6644 22.1193 88.9677 22.2443 88.2651 22.2445C87.4959 22.2459 86.7339 22.1004 86.022 21.8161C85.3112 21.5384 84.6656 21.1228 84.1243 20.5944C83.6004 20.0938 83.205 19.4795 82.9702 18.8015L85.3881 18.3335C85.6343 18.8392 86.0383 19.2558 86.5421 19.5234C87.058 19.8286 87.6496 19.9905 88.2529 19.9915C88.6282 19.9681 88.998 19.8905 89.35 19.7614" fill="white"/>
<path d="M98.8225 5.79114V12.2011V12.8794H99.5742H106.104H106.856V12.2011V5.79114H109.254V22.1374H106.856V15.7274V15.0451H106.104H99.5742H98.8225V15.7274V22.1374H96.4209V5.79114H98.8225Z" fill="white"/>
<path d="M124.435 16.85V14.9024V5.7595H126.845V22.4349L115.081 11.0549V12.3083V22.1811H112.667V5.62463L124.435 16.85Z" fill="white"/>
<path d="M143.177 6.26317C144.277 6.69233 145.284 7.31934 146.147 8.11159C147.001 8.86365 147.692 9.77547 148.179 10.793C148.626 11.7994 148.857 12.8849 148.857 13.9821C148.857 15.0793 148.626 16.1648 148.179 17.1712C147.695 18.1906 147.004 19.1029 146.147 19.8526C145.287 20.642 144.278 21.2616 143.177 21.6773C140.911 22.4811 138.428 22.4811 136.163 21.6773C135.064 21.2639 134.059 20.644 133.205 19.8526C132.347 19.1033 131.662 18.1855 131.193 17.1593C130.754 16.1562 130.528 15.0768 130.528 13.9861C130.528 12.8954 130.754 11.816 131.193 10.8128C131.671 9.78884 132.355 8.86896 133.205 8.10763C134.062 7.31679 135.066 6.6934 136.163 6.27111C138.428 5.46725 140.911 5.46725 143.177 6.27111M137.081 8.32976C136.284 8.64208 135.554 9.09676 134.927 9.67046C134.3 10.2249 133.796 10.9002 133.448 11.6537C133.121 12.3881 132.957 13.1814 132.965 13.9821C132.953 14.7844 133.118 15.5798 133.448 16.3145C133.79 17.0713 134.295 17.7477 134.927 18.2977C135.543 18.8814 136.277 19.3339 137.081 19.6265C137.906 19.9307 138.78 20.0839 139.662 20.0787C140.536 20.0843 141.404 19.931 142.222 19.6265C143.025 19.3247 143.76 18.8734 144.388 18.2977C145.015 17.7433 145.519 17.068 145.867 16.3145C146.211 15.5835 146.385 14.7867 146.375 13.9821C146.381 13.1792 146.208 12.3845 145.867 11.6537C145.511 10.9079 145.013 10.2349 144.4 9.67046C143.118 8.49673 141.419 7.85405 139.662 7.87757C138.785 7.87128 137.914 8.02185 137.093 8.32182L137.081 8.32976Z" fill="white"/>
<path d="M151.913 5.79114L156.041 16.0249L159.666 6.35042L163.275 16.0249L167.395 5.79114H170L163.287 22.4111L159.617 12.4391L156.017 22.3912L149.32 5.79114H151.913Z" fill="white"/>
<path d="M5.12402 22.8077C5.12402 23.8378 5.43695 24.8447 6.02322 25.7012C6.60949 26.5576 7.44278 27.2252 8.41771 27.6194C9.39264 28.0136 10.4654 28.1167 11.5004 27.9157C12.5354 27.7148 13.4861 27.2188 14.2323 26.4904C14.9784 25.762 15.4866 24.834 15.6925 23.8238C15.8983 22.8135 15.7927 21.7663 15.3889 20.8147C14.985 19.863 14.3012 19.0496 13.4237 18.4773C12.5463 17.9051 11.5148 17.5996 10.4595 17.5996C9.04511 17.6017 7.68925 18.1511 6.68912 19.1273C5.68899 20.1036 5.12617 21.4271 5.12402 22.8077ZM7.06235 22.8077C7.06235 22.1519 7.26159 21.5107 7.63488 20.9654C8.00816 20.4201 8.53872 19.9951 9.15947 19.7441C9.78022 19.4931 10.4633 19.4274 11.1223 19.5554C11.7812 19.6833 12.3866 19.9992 12.8617 20.4629C13.3368 20.9267 13.6603 21.5175 13.7914 22.1608C13.9225 22.804 13.8552 23.4708 13.5981 24.0767C13.3409 24.6826 12.9055 25.2005 12.3469 25.5649C11.7882 25.9293 11.1314 26.1238 10.4595 26.1238C9.55886 26.1227 8.6954 25.773 8.05854 25.1514C7.42168 24.5297 7.06343 23.6869 7.06235 22.8077Z" fill="white"/>
<path d="M28.8921 22.8077C28.8913 23.8389 29.2039 24.8472 29.7903 25.7049C30.3767 26.5626 31.2106 27.2313 32.1864 27.6262C33.1622 28.0212 34.2362 28.1248 35.2723 27.9238C36.3085 27.7228 37.2603 27.2263 38.0073 26.4972C38.7543 25.768 39.2629 24.8389 39.4688 23.8275C39.6747 22.8161 39.5686 21.7678 39.164 20.8153C38.7593 19.8627 38.0743 19.0488 37.1956 18.4764C36.3169 17.9039 35.284 17.5988 34.2276 17.5996C32.8132 17.6017 31.4573 18.1511 30.4572 19.1273C29.4571 20.1036 28.8942 21.4271 28.8921 22.8077ZM30.8345 22.8077C30.8345 22.1517 31.0338 21.5104 31.4073 20.965C31.7808 20.4196 32.3116 19.9946 32.9325 19.7437C33.5535 19.4928 34.2368 19.4274 34.8959 19.5557C35.555 19.6839 36.1603 20.0002 36.6352 20.4643C37.1102 20.9285 37.4334 21.5197 37.564 22.1632C37.6946 22.8067 37.6268 23.4736 37.369 24.0795C37.1113 24.6853 36.6752 25.2029 36.116 25.5668C35.5568 25.9307 34.8996 26.1246 34.2276 26.1238C33.3273 26.1227 32.4643 25.7729 31.8281 25.1511C31.1918 24.5294 30.8345 23.6865 30.8345 22.8077Z" fill="white"/>
<path d="M15.1855 22.0502V23.5337H29.7698V22.0502H15.1855Z" fill="white"/>
<path d="M14.4217 6.85815C9.80551 7.10805 6.19705 8.67088 3.69388 11.499C0.520224 15.069 -0.24373 20.2255 0.0651024 23.5376L0.130118 24.2595H4.38469V22.6729H1.63771C1.63771 22.534 1.63771 22.3833 1.63771 22.2167C1.63771 20.1263 2.04406 15.8067 4.92921 12.5264C7.13167 10.0354 10.3582 8.65898 14.5193 8.43288C26.8441 7.7665 31.5294 13.3475 31.5863 13.407L31.7936 13.6608L32.1268 13.7005C42.0216 14.8508 43.2691 20.3326 43.391 22.3198H40.2377V23.9065H44.9311L45.0043 23.1964C45.0043 23.1964 45.0043 23.0576 45.0043 22.8355C45.0043 21.11 44.2972 13.6807 32.6307 12.1853C31.5538 11.027 26.3402 6.2116 14.4299 6.85815" fill="white"/>
<path d="M13.7471 9.62289C13.7471 11.5261 14.3252 13.3866 15.4085 14.9691C16.4917 16.5516 18.0314 17.785 19.8327 18.5133C21.6341 19.2416 23.6163 19.4322 25.5286 19.0609C27.4409 18.6896 29.1975 17.7731 30.5762 16.4273C31.9549 15.0815 32.8938 13.3669 33.2742 11.5002C33.6545 9.63357 33.4593 7.69873 32.7132 5.94037C31.967 4.18202 30.7035 2.67913 29.0823 1.62175C27.4611 0.564373 25.5551 0 23.6053 0C20.9917 0.00314897 18.4861 1.018 16.6381 2.82196C14.79 4.62592 13.7503 7.07171 13.7471 9.62289ZM15.3725 9.62289C15.3701 8.03201 15.8512 6.47619 16.755 5.15233C17.6588 3.82847 18.9446 2.79609 20.4497 2.18583C21.9549 1.57558 23.6116 1.41488 25.2103 1.72409C26.809 2.0333 28.2779 2.79852 29.4309 3.92289C30.5839 5.04726 31.3692 6.48023 31.6876 8.04047C32.0059 9.60071 31.843 11.2181 31.2193 12.6879C30.5956 14.1576 29.5392 15.4138 28.1839 16.2973C26.8285 17.1808 25.2351 17.652 23.6053 17.6512C21.4239 17.6481 19.3325 16.8016 17.7888 15.297C16.2452 13.7925 15.3749 11.7523 15.3684 9.62289H15.3725Z" fill="white"/>
<path d="M32.6548 4.48225C32.654 5.21297 32.8753 5.92749 33.2907 6.53539C33.7061 7.14329 34.2969 7.61722 34.9883 7.89722C35.6798 8.17722 36.4408 8.25068 37.1751 8.10832C37.9093 7.96595 38.5838 7.61416 39.1131 7.09747C39.6424 6.58077 40.0028 5.9224 40.1487 5.20568C40.2945 4.48897 40.2193 3.74612 39.9324 3.07118C39.6456 2.39623 39.16 1.81952 38.5373 1.41405C37.9145 1.00857 37.1825 0.792553 36.4339 0.793337C35.432 0.794387 34.4714 1.18338 33.7629 1.87496C33.0544 2.56653 32.6559 3.50421 32.6548 4.48225ZM34.2802 4.48225C34.2802 4.06489 34.407 3.65689 34.6446 3.30987C34.8821 2.96285 35.2197 2.69238 35.6148 2.53266C36.0098 2.37295 36.4445 2.33116 36.8638 2.41258C37.2832 2.494 37.6684 2.69498 37.9707 2.9901C38.273 3.28522 38.4789 3.66122 38.5623 4.07056C38.6457 4.4799 38.6029 4.9042 38.4393 5.28979C38.2757 5.67538 37.9986 6.00495 37.6431 6.23682C37.2876 6.4687 36.8696 6.59246 36.442 6.59246C36.1575 6.5935 35.8755 6.53969 35.6123 6.43411C35.349 6.32853 35.1098 6.17326 34.9081 5.9772C34.7065 5.78115 34.5466 5.54816 34.4374 5.29162C34.3283 5.03508 34.2721 4.76003 34.2721 4.48225H34.2802Z" fill="white"/>
</g>
<defs>
<clipPath id="clip0_394_663">
<rect width="170" height="28" fill="white"/>
</clipPath>
</defs>
</svg>
