<svg width="221" height="37" viewBox="0 0 221 37" fill="none" xmlns="http://www.w3.org/2000/svg">
<g clip-path="url(#clip0_99_1135)">
<path d="M65.5261 7.44873L70.8933 20.6064L75.6054 8.16781L80.2964 20.6064L85.653 7.44873H89.0392L80.3123 28.8172L75.542 15.9961L70.8669 28.7917L62.1558 7.44873H65.5261Z" fill="white"/>
<path d="M105.917 28.4652H102.579L100.846 25.0024H90.8724L89.1396 28.4652H85.7852L95.8539 7.24976L105.917 28.4652ZM95.8433 22.7432H99.6786C99.0411 21.4206 98.4037 20.0028 97.7662 18.4899C97.1288 16.9769 96.4966 15.554 95.8697 14.2213C95.2253 15.5472 94.5861 16.9701 93.9363 18.4899C93.2865 20.0096 92.6526 21.4223 92.024 22.7432H95.8433Z" fill="white"/>
<path d="M116.118 25.5329C116.569 25.3723 116.994 25.1508 117.381 24.875C117.755 24.6027 118.064 24.2546 118.284 23.855C118.509 23.4672 118.628 23.0299 118.627 22.5851C118.638 22.2158 118.549 21.8502 118.369 21.5244C118.189 21.2049 117.949 20.9211 117.661 20.688C117.334 20.4354 116.98 20.2182 116.604 20.0403C116.213 19.8449 115.809 19.6745 115.394 19.5303C115.009 19.4079 114.586 19.2906 114.121 19.1733C113.162 18.938 112.235 18.5957 111.358 18.1533C110.558 17.7492 109.842 17.2064 109.245 16.552C108.829 16.1031 108.502 15.5846 108.279 15.022C108.053 14.4594 107.938 13.8609 107.941 13.2575C107.939 12.4478 108.119 11.6475 108.469 10.9115C108.814 10.1783 109.308 9.51937 109.922 8.97357C110.556 8.40994 111.294 7.96546 112.098 7.6629C113.71 7.07343 115.486 7.04637 117.117 7.5864C117.857 7.83915 118.548 8.20977 119.161 8.68288C120.15 9.43038 120.875 10.4546 121.237 11.6153L118.11 12.2069C117.924 11.7529 117.635 11.345 117.264 11.0135C116.752 10.5565 116.116 10.2488 115.429 10.1261C114.743 10.0034 114.035 10.0706 113.387 10.3199C112.964 10.4811 112.575 10.7162 112.241 11.0135C111.915 11.3018 111.649 11.6481 111.459 12.0335C111.273 12.4164 111.177 12.8345 111.179 13.2575C111.174 13.5531 111.226 13.847 111.332 14.1244C111.426 14.3756 111.56 14.6112 111.728 14.8231C111.908 15.0376 112.117 15.2265 112.352 15.3841C112.588 15.5494 112.837 15.6977 113.096 15.8278C113.374 15.9616 113.66 16.0791 113.952 16.1797C114.285 16.297 114.57 16.3939 114.813 16.4602L115.674 16.705C116.002 16.7968 116.255 16.8733 116.43 16.9294C116.988 17.1028 117.532 17.3177 118.057 17.572C118.579 17.8222 119.076 18.1193 119.541 18.4593C119.991 18.785 120.401 19.1598 120.762 19.5762C121.111 19.9829 121.388 20.4431 121.58 20.9379C121.785 21.4467 121.889 21.9882 121.887 22.5341C121.886 23.3608 121.682 24.1755 121.29 24.9107C120.903 25.6539 120.364 26.3133 119.705 26.8486C119.024 27.3986 118.25 27.8315 117.418 28.1287C116.564 28.442 115.658 28.6028 114.745 28.603C113.745 28.6048 112.754 28.4176 111.829 28.0522C110.905 27.6952 110.065 27.1608 109.362 26.4814C108.681 25.8378 108.166 25.048 107.861 24.1763L111.005 23.5745C111.325 24.2247 111.85 24.7603 112.505 25.1045C113.176 25.4969 113.945 25.705 114.729 25.7062C115.217 25.6761 115.697 25.5765 116.155 25.4105" fill="white"/>
<path d="M128.469 7.44873V15.6901V16.5622H129.446H137.935H138.913V15.6901V7.44873H142.03V28.4653H138.913V20.2239V19.3467H137.935H129.446H128.469V20.2239V28.4653H125.347V7.44873H128.469Z" fill="white"/>
<path d="M161.766 21.6673V19.1632V7.40801H164.898V28.8479L149.605 14.2163V15.8279V28.5215H146.467V7.23462L161.766 21.6673Z" fill="white"/>
<path d="M186.129 8.05572C187.559 8.6075 188.869 9.41365 189.991 10.4323C191.101 11.3992 192 12.5715 192.632 13.8798C193.214 15.1738 193.514 16.5694 193.514 17.9801C193.514 19.3907 193.214 20.7864 192.632 22.0804C192.004 23.3909 191.105 24.564 189.991 25.5279C188.872 26.5428 187.561 27.3394 186.129 27.8738C183.184 28.9074 179.956 28.9074 177.011 27.8738C175.583 27.3424 174.276 26.5453 173.166 25.5279C172.051 24.5645 171.16 23.3844 170.551 22.0651C169.98 20.7753 169.687 19.3875 169.687 17.9852C169.687 16.5829 169.98 15.195 170.551 13.9053C171.173 12.5887 172.062 11.406 173.166 10.4272C174.28 9.41037 175.585 8.60887 177.011 8.06592C179.956 7.03239 183.184 7.03239 186.129 8.06592M178.205 10.7128C177.169 11.1143 176.22 11.6989 175.405 12.4365C174.589 13.1494 173.935 14.0176 173.483 14.9865C173.057 15.9306 172.843 16.9506 172.854 17.9801C172.838 19.0116 173.053 20.0343 173.483 20.9788C173.927 21.9519 174.583 22.8215 175.405 23.5287C176.206 24.2792 177.16 24.8609 178.205 25.2372C179.277 25.6282 180.414 25.8253 181.56 25.8186C182.697 25.8258 183.825 25.6286 184.888 25.2372C185.932 24.8491 186.888 24.2688 187.703 23.5287C188.52 22.8158 189.174 21.9477 189.626 20.9788C190.074 20.039 190.3 19.0146 190.287 17.9801C190.295 16.9477 190.069 15.9261 189.626 14.9865C189.164 14.0276 188.517 13.1623 187.719 12.4365C186.053 10.9274 183.845 10.1011 181.56 10.1314C180.42 10.1233 179.288 10.3169 178.221 10.7026L178.205 10.7128Z" fill="white"/>
<path d="M197.487 7.44873L202.854 20.6064L207.566 8.16781L212.257 20.6064L217.614 7.44873H221L212.273 28.8172L207.503 15.9961L202.822 28.7917L194.116 7.44873H197.487Z" fill="white"/>
<path d="M6.66138 29.3272C6.66138 30.6516 7.06818 31.9462 7.83033 33.0474C8.59248 34.1486 9.67575 35.0068 10.9432 35.5137C12.2106 36.0205 13.6052 36.1531 14.9507 35.8947C16.2962 35.6363 17.5321 34.9986 18.5021 34.0621C19.4721 33.1257 20.1327 31.9325 20.4004 30.6336C20.668 29.3347 20.5306 27.9883 20.0057 26.7647C19.4807 25.5412 18.5917 24.4954 17.451 23.7596C16.3104 23.0238 14.9693 22.6311 13.5975 22.6311C11.7588 22.6338 9.99618 23.3402 8.69601 24.5953C7.39583 25.8505 6.66417 27.5521 6.66138 29.3272ZM9.1812 29.3272C9.1812 28.484 9.44022 27.6597 9.92549 26.9586C10.4108 26.2574 11.1005 25.711 11.9075 25.3883C12.7144 25.0656 13.6024 24.9812 14.4591 25.1457C15.3158 25.3102 16.1027 25.7162 16.7203 26.3125C17.3379 26.9088 17.7585 27.6684 17.929 28.4955C18.0994 29.3225 18.0119 30.1798 17.6776 30.9588C17.3434 31.7379 16.7773 32.4037 16.0511 32.8722C15.3248 33.3407 14.471 33.5907 13.5975 33.5907C12.4267 33.5894 11.3042 33.1398 10.4763 32.3405C9.64834 31.5412 9.1826 30.4576 9.1812 29.3272Z" fill="white"/>
<path d="M37.5598 29.3272C37.5588 30.6531 37.9651 31.9494 38.7275 33.0522C39.4898 34.155 40.5738 35.0147 41.8424 35.5225C43.111 36.0303 44.5071 36.1635 45.8541 35.9051C47.2011 35.6466 48.4385 35.0083 49.4095 34.0708C50.3806 33.1333 51.0418 31.9388 51.3095 30.6384C51.5772 29.338 51.4393 27.9902 50.9132 26.7655C50.3872 25.5408 49.4967 24.4943 48.3544 23.7583C47.2121 23.0224 45.8693 22.6301 44.4959 22.6311C42.6572 22.6338 40.8946 23.3402 39.5944 24.5953C38.2943 25.8505 37.5626 27.5521 37.5598 29.3272ZM40.0849 29.3272C40.0849 28.4838 40.3441 27.6593 40.8296 26.958C41.3151 26.2568 42.0051 25.7103 42.8124 25.3878C43.6197 25.0653 44.5079 24.9811 45.3648 25.146C46.2216 25.311 47.0085 25.7175 47.6259 26.3143C48.2433 26.9111 48.6635 27.6712 48.8333 28.4986C49.0031 29.326 48.9149 30.1834 48.5798 30.9623C48.2448 31.7413 47.6779 32.4068 46.951 32.8747C46.224 33.3426 45.3696 33.5917 44.4959 33.5907C43.3256 33.5894 42.2036 33.1396 41.3766 32.3402C40.5495 31.5408 40.0849 30.4571 40.0849 29.3272Z" fill="white"/>
<path d="M19.7412 28.353V30.2604H38.7007V28.353H19.7412Z" fill="white"/>
<path d="M18.7482 8.82057C12.7471 9.14186 8.05607 11.1512 4.80195 14.7874C0.676193 19.3773 -0.316947 26.0071 0.0845355 30.2655L0.169056 31.1937H5.7V29.1538H2.12892C2.12892 28.9753 2.12892 28.7815 2.12892 28.5673C2.12892 25.8796 2.65719 20.3259 6.40787 16.1083C9.27108 12.9056 13.4655 11.1359 18.875 10.8452C34.8973 9.98844 40.9882 17.164 41.0621 17.2405L41.3315 17.5669L41.7647 17.6179C54.628 19.0968 56.2498 26.1448 56.4082 28.6999H52.3089V30.7398H58.4104L58.5055 29.8269C58.5055 29.8269 58.5055 29.6485 58.5055 29.3629C58.5055 27.1444 57.5863 17.5924 42.4198 15.6697C41.0199 14.1805 34.2422 7.98929 18.7587 8.82057" fill="white"/>
<path d="M17.8713 12.3752C17.8713 14.8222 18.623 17.2143 20.0312 19.2489C21.4394 21.2835 23.4409 22.8693 25.7827 23.8057C28.1245 24.7422 30.7013 24.9872 33.1873 24.5098C35.6733 24.0324 37.9568 22.8541 39.7492 21.1238C41.5415 19.3935 42.7621 17.1889 43.2565 14.7889C43.751 12.3889 43.4972 9.90129 42.5273 7.64055C41.5573 5.37981 39.9146 3.44752 37.8071 2.08804C35.6996 0.728552 33.2218 0.00292969 30.6871 0.00292969C27.2894 0.00697836 24.0321 1.31179 21.6296 3.63117C19.2271 5.95054 17.8755 9.09513 17.8713 12.3752ZM19.9844 12.3752C19.9813 10.3298 20.6067 8.32946 21.7817 6.62736C22.9566 4.92525 24.6282 3.5979 26.5848 2.81328C28.5415 2.02867 30.6953 1.82206 32.7736 2.21962C34.8519 2.61718 36.7614 3.60103 38.2603 5.04664C39.7592 6.49226 40.7802 8.33466 41.194 10.3407C41.6079 12.3467 41.396 14.4262 40.5852 16.3159C39.7744 18.2056 38.4011 19.8206 36.6392 20.9566C34.8772 22.0926 32.8058 22.6984 30.6871 22.6974C27.8512 22.6933 25.1324 21.605 23.1256 19.6705C21.1189 17.7361 19.9875 15.113 19.9791 12.3752H19.9844Z" fill="white"/>
<path d="M42.4514 5.76583C42.4504 6.70533 42.7381 7.62401 43.2781 8.40559C43.8181 9.18717 44.5861 9.79652 45.485 10.1565C46.3839 10.5165 47.3732 10.611 48.3278 10.4279C49.2823 10.2449 50.1591 9.79258 50.8472 9.12826C51.5354 8.46394 52.0039 7.61746 52.1935 6.69597C52.3831 5.77448 52.2852 4.81939 51.9123 3.9516C51.5394 3.08382 50.9083 2.34233 50.0987 1.82101C49.2891 1.29968 48.3375 1.02194 47.3643 1.02295C46.0617 1.0243 44.813 1.52443 43.8919 2.4136C42.9709 3.30277 42.4528 4.50836 42.4514 5.76583ZM44.5645 5.76583C44.5645 5.22923 44.7293 4.70467 45.0381 4.25849C45.3469 3.81232 45.7858 3.46458 46.2994 3.25923C46.8129 3.05388 47.378 3.00015 47.9231 3.10484C48.4683 3.20952 48.9691 3.46792 49.3621 3.84736C49.7551 4.2268 50.0228 4.71023 50.1312 5.23653C50.2397 5.76282 50.184 6.30834 49.9713 6.8041C49.7586 7.29986 49.3984 7.7236 48.9362 8.02172C48.4741 8.31984 47.9307 8.47896 47.3749 8.47896C47.0049 8.48031 46.6383 8.41112 46.2961 8.27538C45.9539 8.13963 45.6429 7.93999 45.3808 7.68792C45.1187 7.43585 44.9107 7.1363 44.7689 6.80646C44.627 6.47662 44.5539 6.12299 44.5539 5.76583H44.5645Z" fill="white"/>
</g>
<defs>
<clipPath id="clip0_99_1135">
<rect width="221" height="36" fill="white" transform="translate(0 0.00292969)"/>
</clipPath>
</defs>
</svg>
