<svg width="170" height="28" viewBox="0 0 170 28" fill="none" xmlns="http://www.w3.org/2000/svg">
<g clip-path="url(#clip0_394_762)">
<path d="M50.4047 5.79102L54.5333 16.0248L58.158 6.3503L61.7665 16.0248L65.8869 5.79102H68.4917L61.7787 22.4109L58.1092 12.439L54.513 22.3911L47.8121 5.79102H50.4047Z" fill="white"/>
<path d="M81.4748 22.1376H78.9067L77.5738 19.4443H69.9018L68.5689 22.1376H65.9885L73.7337 5.63672L81.4748 22.1376ZM73.7256 17.6871H76.6758C76.1854 16.6585 75.6951 15.5558 75.2047 14.379C74.7144 13.2023 74.2281 12.0956 73.7459 11.059C73.2501 12.0903 72.7585 13.197 72.2586 14.379C71.7588 15.5611 71.2712 16.6598 70.7876 17.6871H73.7256Z" fill="white"/>
<path d="M89.3216 19.8569C89.6685 19.732 89.9955 19.5597 90.2928 19.3452C90.581 19.1334 90.8182 18.8627 90.9877 18.5519C91.1611 18.2502 91.2521 17.9101 91.2518 17.5642C91.26 17.277 91.1914 16.9926 91.0527 16.7392C90.9149 16.4907 90.7301 16.27 90.5082 16.0886C90.257 15.8922 89.9844 15.7233 89.6955 15.5849C89.3945 15.4329 89.0837 15.3004 88.7649 15.1882C88.4683 15.093 88.1432 15.0018 87.7856 14.9106C87.048 14.7276 86.3348 14.4613 85.6603 14.1173C85.0448 13.803 84.4938 13.3808 84.0349 12.8718C83.7148 12.5227 83.4628 12.1194 83.2913 11.6818C83.1176 11.2442 83.0294 10.7787 83.0312 10.3094C83.0302 9.67965 83.1688 9.05719 83.4376 8.48473C83.7032 7.91447 84.0831 7.40195 84.555 6.97743C85.0434 6.53905 85.6111 6.19335 86.2292 5.95803C87.4696 5.49955 88.8351 5.4785 90.0896 5.89853C90.6589 6.09511 91.1905 6.38337 91.6623 6.75134C92.4227 7.33273 92.9805 8.12934 93.2592 9.03212L90.8536 9.49224C90.711 9.1391 90.4888 8.82186 90.2034 8.56406C89.8091 8.20859 89.3197 7.96931 88.7919 7.87385C88.2641 7.77839 87.7194 7.83065 87.2207 8.02461C86.8953 8.14996 86.5964 8.33284 86.339 8.56406C86.0881 8.7883 85.8839 9.05765 85.7375 9.35737C85.5943 9.65517 85.5207 9.98036 85.5222 10.3094C85.5186 10.5393 85.5586 10.7679 85.64 10.9837C85.7125 11.179 85.8153 11.3623 85.9448 11.5271C86.0827 11.6939 86.2441 11.8408 86.4243 11.9634C86.6063 12.092 86.7979 12.2073 86.9973 12.3085C87.2108 12.4126 87.4307 12.504 87.6556 12.5822C87.9116 12.6734 88.131 12.7488 88.3179 12.8004L88.9803 12.9908C89.2322 13.0621 89.4273 13.1216 89.5614 13.1653C89.9911 13.3002 90.4096 13.4673 90.813 13.6651C91.2149 13.8597 91.5972 14.0908 91.9548 14.3553C92.3009 14.6086 92.6159 14.9001 92.8935 15.2239C93.1625 15.5402 93.3753 15.8982 93.5234 16.283C93.6811 16.6787 93.7611 17.0999 93.7591 17.5245C93.7586 18.1675 93.6012 18.8012 93.2999 19.373C93.0027 19.951 92.5879 20.4639 92.0808 20.8803C91.557 21.308 90.9618 21.6447 90.3213 21.8759C89.6645 22.1196 88.9677 22.2446 88.2651 22.2448C87.4959 22.2461 86.7339 22.1006 86.022 21.8164C85.3113 21.5387 84.6657 21.123 84.1243 20.5947C83.6004 20.094 83.205 19.4797 82.9702 18.8018L85.3881 18.3337C85.6343 18.8394 86.0383 19.256 86.5421 19.5237C87.0581 19.8289 87.6496 19.9907 88.2529 19.9917C88.6283 19.9683 88.998 19.8908 89.3501 19.7617" fill="white"/>
<path d="M98.8223 5.79102V12.201V12.8793H99.5741H106.104H106.856V12.201V5.79102H109.254V22.1372H106.856V15.7273V15.045H106.104H99.5741H98.8223V15.7273V22.1372H96.4207V5.79102H98.8223Z" fill="white"/>
<path d="M124.435 16.8499V14.9023V5.75938H126.845V22.4348L115.081 11.0547V12.3082V22.181H112.667V5.62451L124.435 16.8499Z" fill="white"/>
<path d="M143.176 6.26341C144.276 6.69258 145.284 7.31959 146.147 8.11184C147.001 8.8639 147.692 9.77572 148.179 10.7932C148.626 11.7997 148.857 12.8852 148.857 13.9824C148.857 15.0796 148.626 16.165 148.179 17.1715C147.695 18.1908 147.004 19.1032 146.147 19.8529C145.286 20.6422 144.278 21.2618 143.176 21.6775C140.911 22.4814 138.428 22.4814 136.163 21.6775C135.064 21.2642 134.059 20.6442 133.204 19.8529C132.347 19.1036 131.661 18.1857 131.193 17.1596C130.754 16.1564 130.528 15.077 130.528 13.9863C130.528 12.8956 130.754 11.8162 131.193 10.8131C131.671 9.78909 132.355 8.8692 133.204 8.10787C134.061 7.31704 135.065 6.69364 136.163 6.27135C138.428 5.46749 140.911 5.46749 143.176 6.27135M137.081 8.33C136.284 8.64233 135.554 9.097 134.927 9.6707C134.299 10.2252 133.796 10.9004 133.448 11.654C133.121 12.3883 132.956 13.1817 132.965 13.9824C132.953 14.7847 133.117 15.5801 133.448 16.3147C133.79 17.0716 134.294 17.7479 134.927 18.298C135.543 18.8817 136.277 19.3341 137.081 19.6268C137.905 19.9309 138.78 20.0842 139.661 20.079C140.536 20.0846 141.404 19.9312 142.221 19.6268C143.025 19.3249 143.76 18.8736 144.387 18.298C145.015 17.7435 145.519 17.0683 145.866 16.3147C146.211 15.5837 146.385 14.787 146.374 13.9824C146.381 13.1794 146.207 12.3848 145.866 11.654C145.51 10.9082 145.013 10.2352 144.399 9.6707C143.117 8.49698 141.419 7.85429 139.661 7.87781C138.785 7.87153 137.914 8.0221 137.093 8.32207L137.081 8.33Z" fill="white"/>
<path d="M151.913 5.79102L156.042 16.0248L159.666 6.3503L163.275 16.0248L167.395 5.79102H170L163.287 22.4109L159.617 12.439L156.017 22.3911L149.32 5.79102H151.913Z" fill="white"/>
<path d="M5.12418 22.8077C5.12418 23.8378 5.4371 24.8447 6.02337 25.7012C6.60964 26.5576 7.44293 27.2252 8.41786 27.6194C9.39279 28.0136 10.4656 28.1167 11.5006 27.9157C12.5355 27.7148 13.4862 27.2188 14.2324 26.4904C14.9786 25.762 15.4868 24.834 15.6926 23.8238C15.8985 22.8135 15.7928 21.7663 15.389 20.8147C14.9852 19.863 14.3013 19.0496 13.4239 18.4773C12.5465 17.9051 11.5149 17.5996 10.4597 17.5996C9.04526 17.6017 7.68941 18.1511 6.68928 19.1273C5.68914 20.1036 5.12633 21.4271 5.12418 22.8077ZM7.0625 22.8077C7.0625 22.1519 7.26175 21.5107 7.63503 20.9654C8.00831 20.4201 8.53888 19.9951 9.15962 19.7441C9.78037 19.4931 10.4634 19.4274 11.1224 19.5554C11.7814 19.6833 12.3867 19.9992 12.8618 20.4629C13.3369 20.9267 13.6605 21.5175 13.7915 22.1608C13.9226 22.804 13.8553 23.4708 13.5982 24.0767C13.3411 24.6826 12.9057 25.2005 12.347 25.5649C11.7884 25.9293 11.1316 26.1238 10.4597 26.1238C9.55901 26.1227 8.69555 25.773 8.05869 25.1514C7.42184 24.5297 7.06358 23.6869 7.0625 22.8077Z" fill="white"/>
<path d="M28.8921 22.8077C28.8913 23.8389 29.2039 24.8472 29.7903 25.7049C30.3767 26.5626 31.2105 27.2313 32.1864 27.6262C33.1622 28.0212 34.2362 28.1248 35.2723 27.9238C36.3085 27.7228 37.2603 27.2263 38.0073 26.4972C38.7542 25.768 39.2629 24.8389 39.4688 23.8275C39.6747 22.8161 39.5686 21.7678 39.1639 20.8153C38.7593 19.8627 38.0743 19.0488 37.1956 18.4764C36.3169 17.9039 35.284 17.5988 34.2276 17.5996C32.8132 17.6017 31.4573 18.1511 30.4572 19.1273C29.457 20.1036 28.8942 21.4271 28.8921 22.8077ZM30.8345 22.8077C30.8345 22.1517 31.0338 21.5104 31.4073 20.965C31.7807 20.4196 32.3115 19.9946 32.9325 19.7437C33.5535 19.4928 34.2368 19.4274 34.8959 19.5557C35.555 19.6839 36.1603 20.0002 36.6352 20.4643C37.1101 20.9285 37.4334 21.5197 37.564 22.1632C37.6946 22.8067 37.6268 23.4736 37.369 24.0795C37.1113 24.6853 36.6752 25.2029 36.116 25.5668C35.5568 25.9307 34.8996 26.1246 34.2276 26.1238C33.3273 26.1227 32.4642 25.7729 31.828 25.1511C31.1918 24.5294 30.8345 23.6865 30.8345 22.8077Z" fill="white"/>
<path d="M15.1856 22.0503V23.5338H29.7698V22.0503H15.1856Z" fill="white"/>
<path d="M14.422 6.85828C9.80575 7.10817 6.19729 8.671 3.69413 11.4992C0.520468 15.0691 -0.243486 20.2256 0.0653466 23.5377L0.130362 24.2596H4.38493V22.673H1.63795C1.63795 22.5342 1.63795 22.3834 1.63795 22.2168C1.63795 20.1264 2.04431 15.8069 4.92945 12.5265C7.13192 10.0355 10.3584 8.6591 14.5195 8.433C26.8444 7.76662 31.5297 13.3476 31.5866 13.4071L31.7938 13.6609L32.127 13.7006C42.0218 14.8509 43.2694 20.3327 43.3913 22.32H40.2379V23.9066H44.9314L45.0045 23.1966C45.0045 23.1966 45.0045 23.0577 45.0045 22.8356C45.0045 21.1102 44.2974 13.6808 32.6309 12.1854C31.554 11.0271 26.3405 6.21172 14.4301 6.85828" fill="white"/>
<path d="M13.7471 9.62289C13.7471 11.5261 14.3253 13.3866 15.4085 14.9691C16.4918 16.5516 18.0314 17.785 19.8328 18.5133C21.6341 19.2416 23.6163 19.4322 25.5286 19.0609C27.4409 18.6896 29.1975 17.7731 30.5762 16.4273C31.9549 15.0815 32.8938 13.3669 33.2742 11.5002C33.6546 9.63357 33.4593 7.69873 32.7132 5.94037C31.967 4.18202 30.7035 2.67913 29.0823 1.62175C27.4611 0.564373 25.5551 0 23.6054 0C20.9918 0.00314897 18.4862 1.018 16.6381 2.82196C14.79 4.62592 13.7503 7.07171 13.7471 9.62289ZM15.3725 9.62289C15.3701 8.03201 15.8513 6.47619 16.7551 5.15233C17.6588 3.82847 18.9447 2.79609 20.4498 2.18583C21.9549 1.57558 23.6117 1.41488 25.2104 1.72409C26.8091 2.0333 28.2779 2.79852 29.4309 3.92289C30.5839 5.04726 31.3693 6.48023 31.6876 8.04047C32.006 9.60071 31.843 11.2181 31.2193 12.6879C30.5956 14.1576 29.5392 15.4138 28.1839 16.2973C26.8285 17.1808 25.2351 17.652 23.6054 17.6512C21.4239 17.6481 19.3325 16.8016 17.7889 15.297C16.2452 13.7925 15.3749 11.7523 15.3685 9.62289H15.3725Z" fill="white"/>
<path d="M32.655 4.48237C32.6542 5.21309 32.8755 5.92761 33.2909 6.53551C33.7062 7.14341 34.2971 7.61734 34.9885 7.89734C35.68 8.17734 36.441 8.2508 37.1752 8.10844C37.9095 7.96608 38.5839 7.61428 39.1133 7.09759C39.6426 6.58089 40.003 5.92252 40.1489 5.20581C40.2947 4.48909 40.2194 3.74625 39.9326 3.0713C39.6457 2.39635 39.1602 1.81964 38.5374 1.41417C37.9147 1.00869 37.1827 0.792675 36.4341 0.793459C35.4321 0.794509 34.4715 1.1835 33.763 1.87508C33.0545 2.56665 32.656 3.50433 32.655 4.48237ZM34.2804 4.48237C34.2804 4.06501 34.4072 3.65702 34.6447 3.30999C34.8823 2.96297 35.2199 2.6925 35.6149 2.53278C36.0099 2.37307 36.4446 2.33128 36.864 2.4127C37.2833 2.49413 37.6685 2.6951 37.9709 2.99022C38.2732 3.28534 38.4791 3.66134 38.5625 4.07068C38.6459 4.48002 38.6031 4.90432 38.4395 5.28991C38.2759 5.6755 37.9988 6.00507 37.6433 6.23695C37.2878 6.46882 36.8698 6.59258 36.4422 6.59258C36.1576 6.59362 35.8756 6.53981 35.6124 6.43423C35.3492 6.32865 35.1099 6.17338 34.9083 5.97732C34.7067 5.78127 34.5467 5.54829 34.4376 5.29175C34.3284 5.0352 34.2723 4.76015 34.2723 4.48237H34.2804Z" fill="white"/>
</g>
<defs>
<clipPath id="clip0_394_762">
<rect width="170" height="28" fill="white"/>
</clipPath>
</defs>
</svg>
