<svg width="25" height="24" viewBox="0 0 25 24" fill="none" xmlns="http://www.w3.org/2000/svg">
<path d="M5.5 22C4.95 22 4.479 21.804 4.087 21.412C3.695 21.02 3.49934 20.5493 3.5 20V6C3.5 5.45 3.696 4.979 4.088 4.587C4.48 4.195 4.95067 3.99934 5.5 4H6.5V3C6.5 2.71667 6.596 2.479 6.788 2.287C6.98 2.095 7.21734 1.99934 7.5 2C7.78334 2 8.021 2.096 8.213 2.288C8.405 2.48 8.50067 2.71734 8.5 3V4H16.5V3C16.5 2.71667 16.596 2.479 16.788 2.287C16.98 2.095 17.2173 1.99934 17.5 2C17.7833 2 18.021 2.096 18.213 2.288C18.405 2.48 18.5007 2.71734 18.5 3V4H19.5C20.05 4 20.521 4.196 20.913 4.588C21.305 4.98 21.5007 5.45067 21.5 6V20C21.5 20.55 21.304 21.021 20.912 21.413C20.52 21.805 20.0493 22.0007 19.5 22H5.5ZM5.5 8H19.5V6H5.5V8ZM12.5 14C12.2167 14 11.979 13.904 11.787 13.712C11.595 13.52 11.4993 13.2827 11.5 13C11.5 12.7167 11.596 12.479 11.788 12.287C11.98 12.095 12.2173 11.9993 12.5 12C12.7833 12 13.021 12.096 13.213 12.288C13.405 12.48 13.5007 12.7173 13.5 13C13.5 13.2833 13.404 13.521 13.212 13.713C13.02 13.905 12.7827 14.0007 12.5 14ZM8.5 14C8.21667 14 7.979 13.904 7.787 13.712C7.595 13.52 7.49934 13.2827 7.5 13C7.5 12.7167 7.596 12.479 7.788 12.287C7.98 12.095 8.21734 11.9993 8.5 12C8.78334 12 9.021 12.096 9.213 12.288C9.405 12.48 9.50067 12.7173 9.5 13C9.5 13.2833 9.404 13.521 9.212 13.713C9.02 13.905 8.78267 14.0007 8.5 14ZM16.5 14C16.2167 14 15.979 13.904 15.787 13.712C15.595 13.52 15.4993 13.2827 15.5 13C15.5 12.7167 15.596 12.479 15.788 12.287C15.98 12.095 16.2173 11.9993 16.5 12C16.7833 12 17.021 12.096 17.213 12.288C17.405 12.48 17.5007 12.7173 17.5 13C17.5 13.2833 17.404 13.521 17.212 13.713C17.02 13.905 16.7827 14.0007 16.5 14ZM12.5 18C12.2167 18 11.979 17.904 11.787 17.712C11.595 17.52 11.4993 17.2827 11.5 17C11.5 16.7167 11.596 16.479 11.788 16.287C11.98 16.095 12.2173 15.9993 12.5 16C12.7833 16 13.021 16.096 13.213 16.288C13.405 16.48 13.5007 16.7173 13.5 17C13.5 17.2833 13.404 17.521 13.212 17.713C13.02 17.905 12.7827 18.0007 12.5 18ZM8.5 18C8.21667 18 7.979 17.904 7.787 17.712C7.595 17.52 7.49934 17.2827 7.5 17C7.5 16.7167 7.596 16.479 7.788 16.287C7.98 16.095 8.21734 15.9993 8.5 16C8.78334 16 9.021 16.096 9.213 16.288C9.405 16.48 9.50067 16.7173 9.5 17C9.5 17.2833 9.404 17.521 9.212 17.713C9.02 17.905 8.78267 18.0007 8.5 18ZM16.5 18C16.2167 18 15.979 17.904 15.787 17.712C15.595 17.52 15.4993 17.2827 15.5 17C15.5 16.7167 15.596 16.479 15.788 16.287C15.98 16.095 16.2173 15.9993 16.5 16C16.7833 16 17.021 16.096 17.213 16.288C17.405 16.48 17.5007 16.7173 17.5 17C17.5 17.2833 17.404 17.521 17.212 17.713C17.02 17.905 16.7827 18.0007 16.5 18Z" fill="white"/>
</svg>
