<svg width="16" height="17" viewBox="0 0 16 17" fill="none" xmlns="http://www.w3.org/2000/svg">
<path d="M5.84753 10.6448L12.1973 3.7643C12.3946 3.5505 12.6457 3.4436 12.9507 3.4436C13.2556 3.4436 13.5067 3.5505 13.704 3.7643C13.9013 3.9781 14 4.25021 14 4.58063C14 4.91105 13.9013 5.18316 13.704 5.39696L6.6009 13.0937C6.38565 13.327 6.13453 13.4436 5.84753 13.4436C5.56054 13.4436 5.30942 13.327 5.09417 13.0937L2.29596 10.0617C2.09865 9.84788 2 9.57577 2 9.24535C2 8.91493 2.09865 8.64283 2.29596 8.42903C2.49327 8.21523 2.74439 8.10833 3.04933 8.10833C3.35426 8.10833 3.60538 8.21523 3.80269 8.42903L5.84753 10.6448Z" fill="#008BCC"/>
</svg>
