<svg width="17" height="17" viewBox="0 0 17 17" fill="none" xmlns="http://www.w3.org/2000/svg">
<path d="M6.18103 10.6448L12.5308 3.7643C12.7281 3.5505 12.9792 3.4436 13.2842 3.4436C13.5891 3.4436 13.8402 3.5505 14.0375 3.7643C14.2348 3.9781 14.3335 4.25021 14.3335 4.58063C14.3335 4.91105 14.2348 5.18316 14.0375 5.39696L6.93439 13.0937C6.71915 13.327 6.46802 13.4436 6.18103 13.4436C5.89403 13.4436 5.64291 13.327 5.42767 13.0937L2.62946 10.0617C2.43215 9.84788 2.3335 9.57577 2.3335 9.24535C2.3335 8.91493 2.43215 8.64283 2.62946 8.42903C2.82677 8.21523 3.07789 8.10833 3.38282 8.10833C3.68776 8.10833 3.93888 8.21523 4.13619 8.42903L6.18103 10.6448Z" fill="#008BCC"/>
</svg>
