<svg width="16" height="16" viewBox="0 0 16 16" fill="none" xmlns="http://www.w3.org/2000/svg">
<path d="M5.84753 9.86779L12.1973 2.98733C12.3946 2.77353 12.6457 2.66663 12.9507 2.66663C13.2556 2.66663 13.5067 2.77353 13.704 2.98733C13.9013 3.20113 14 3.47323 14 3.80365C14 4.13407 13.9013 4.40618 13.704 4.61998L6.6009 12.3168C6.38565 12.55 6.13453 12.6666 5.84753 12.6666C5.56054 12.6666 5.30942 12.55 5.09417 12.3168L2.29596 9.2847C2.09865 9.0709 2 8.79879 2 8.46837C2 8.13796 2.09865 7.86585 2.29596 7.65205C2.49327 7.43825 2.74439 7.33135 3.04933 7.33135C3.35426 7.33135 3.60538 7.43825 3.80269 7.65205L5.84753 9.86779Z" fill="#008BCC"/>
</svg>
