<svg width="24" height="24" viewBox="0 0 24 24" fill="none" xmlns="http://www.w3.org/2000/svg">
<path d="M5.77778 20C5.28889 20 4.87022 19.8432 4.52178 19.5296C4.17333 19.216 3.99941 18.8395 4 18.4V7.2C4 6.76 4.17422 6.3832 4.52267 6.0696C4.87111 5.756 5.28948 5.59947 5.77778 5.6H6.66667V4H8.44445V5.6H15.5556V4H17.3333V5.6H18.2222C18.7111 5.6 19.1298 5.7568 19.4782 6.0704C19.8267 6.384 20.0006 6.76053 20 7.2V18.4C20 18.84 19.8258 19.2168 19.4773 19.5304C19.1289 19.844 18.7105 20.0005 18.2222 20H5.77778ZM5.77778 18.4H18.2222V10.4H5.77778V18.4ZM5.77778 8.8H18.2222V7.2H5.77778V8.8Z" fill="#666666"/>
</svg>
