<svg width="25" height="24" viewBox="0 0 25 24" fill="none" xmlns="http://www.w3.org/2000/svg">
<path d="M5.75 19.7143H9.125V12.8571H15.875V19.7143H19.25V9.42857L12.5 4.28571L5.75 9.42857V19.7143ZM5.75 22C5.13125 22 4.60138 21.776 4.16038 21.328C3.71938 20.88 3.49925 20.3421 3.5 19.7143V9.42857C3.5 9.06667 3.57988 8.72381 3.73963 8.4C3.89938 8.07619 4.1195 7.80952 4.4 7.6L11.15 2.45714C11.3562 2.30476 11.5719 2.19048 11.7969 2.11429C12.0219 2.0381 12.2562 2 12.5 2C12.7437 2 12.9781 2.0381 13.2031 2.11429C13.4281 2.19048 13.6437 2.30476 13.85 2.45714L20.6 7.6C20.8812 7.80952 21.1017 8.07619 21.2615 8.4C21.4212 8.72381 21.5007 9.06667 21.5 9.42857V19.7143C21.5 20.3429 21.2795 20.8811 20.8385 21.3291C20.3975 21.7771 19.868 22.0008 19.25 22H13.625V15.1429H11.375V22H5.75Z" fill="white"/>
</svg>
