<svg width="17" height="17" viewBox="0 0 17 17" fill="none" xmlns="http://www.w3.org/2000/svg">
<path d="M6.51404 10.6448L12.8638 3.7643C13.0611 3.5505 13.3122 3.4436 13.6172 3.4436C13.9221 3.4436 14.1732 3.5505 14.3705 3.7643C14.5678 3.9781 14.6665 4.25021 14.6665 4.58063C14.6665 4.91105 14.5678 5.18316 14.3705 5.39696L7.2674 13.0937C7.05215 13.327 6.80103 13.4436 6.51404 13.4436C6.22704 13.4436 5.97592 13.327 5.76067 13.0937L2.96247 10.0617C2.76516 9.84788 2.6665 9.57577 2.6665 9.24535C2.6665 8.91493 2.76516 8.64283 2.96247 8.42903C3.15978 8.21523 3.4109 8.10833 3.71583 8.10833C4.02076 8.10833 4.27189 8.21523 4.46919 8.42903L6.51404 10.6448Z" fill="#008BCC"/>
</svg>
