<svg width="16" height="16" viewBox="0 0 16 16" fill="none" xmlns="http://www.w3.org/2000/svg">
<path d="M5.84753 9.86785L12.1973 2.98739C12.3946 2.77359 12.6457 2.66669 12.9507 2.66669C13.2556 2.66669 13.5067 2.77359 13.704 2.98739C13.9013 3.20119 14 3.47329 14 3.80371C14 4.13413 13.9013 4.40624 13.704 4.62004L6.6009 12.3168C6.38565 12.5501 6.13453 12.6667 5.84753 12.6667C5.56054 12.6667 5.30942 12.5501 5.09417 12.3168L2.29596 9.28476C2.09865 9.07096 2 8.79885 2 8.46844C2 8.13802 2.09865 7.86591 2.29596 7.65211C2.49327 7.43831 2.74439 7.33141 3.04933 7.33141C3.35426 7.33141 3.60538 7.43831 3.80269 7.65211L5.84753 9.86785Z" fill="#008BCC"/>
</svg>
