<svg width="48" height="48" viewBox="0 0 48 48" fill="none" xmlns="http://www.w3.org/2000/svg">
<path d="M18.58 34H10V36C10 37 9.2 38 8 38H6C5 38 4 37 4 36V20L8.2 8C8.6 6.8 9.6 6 11 6H33C34.2 6 35.4 6.8 35.8 8L39.82 19.48C38.3318 17.8444 36.4533 16.6127 34.36 15.9L32.2 10H11.6L9.6 16H25.82C23.58 16.8 21.62 18.2 20.16 20H8V30H17.36C17.56 31.42 18 32.76 18.58 34ZM10 25C10 26.6 11.4 28 13 28C14.6 28 16 26.6 16 25C16 23.4 14.6 22 13 22C11.4 22 10 23.4 10 25ZM30.22 19.22C25.22 19.22 21.22 23.22 21.22 28.22C21.22 33.22 25.22 37.22 30.22 37.22C32 37.22 33.6 36.72 35 35.86L41.22 42L44 39.22L37.84 33C38.72 31.64 39.22 30 39.22 28.22C39.22 23.22 35.22 19.22 30.22 19.22ZM30.22 23.22C33 23.22 35.22 25.46 35.22 28.22C35.22 30.98 33 33.22 30.22 33.22C27.44 33.22 25.22 31 25.22 28.22C25.22 25.44 27.46 23.22 30.22 23.22Z" fill="#008BCC"/>
</svg>
