<svg width="16" height="16" viewBox="0 0 16 16" fill="none" xmlns="http://www.w3.org/2000/svg">
<path d="M8.00004 13.3333C10.9334 13.3333 13.3334 10.9333 13.3334 7.99992C13.3334 5.06659 10.9334 2.66659 8.00004 2.66659C5.06671 2.66659 2.66671 5.06659 2.66671 7.99992C2.66671 10.9333 5.06671 13.3333 8.00004 13.3333ZM8.00004 1.33325C11.6667 1.33325 14.6667 4.33325 14.6667 7.99992C14.6667 11.6666 11.6667 14.6666 8.00004 14.6666C4.33337 14.6666 1.33337 11.6666 1.33337 7.99992C1.33337 4.33325 4.33337 1.33325 8.00004 1.33325ZM8.33337 4.66658V8.66658H4.66671V7.66658H7.33337V4.66658H8.33337Z" fill="#008BCC"/>
</svg>
