<svg width="25" height="25" viewBox="0 0 25 25" fill="none" xmlns="http://www.w3.org/2000/svg">
<path d="M12.3335 19.1769C15.8535 19.1769 18.7335 16.2969 18.7335 12.7769C18.7335 9.25686 15.8535 6.37686 12.3335 6.37686C8.8135 6.37686 5.9335 9.25686 5.9335 12.7769C5.9335 16.2969 8.8135 19.1769 12.3335 19.1769ZM12.3335 4.77686C16.7335 4.77686 20.3335 8.37686 20.3335 12.7769C20.3335 17.1769 16.7335 20.7769 12.3335 20.7769C7.9335 20.7769 4.3335 17.1769 4.3335 12.7769C4.3335 8.37686 7.9335 4.77686 12.3335 4.77686ZM12.7335 8.77686V13.5769H8.3335V12.3769H11.5335V8.77686H12.7335Z" fill="#008BCC"/>
</svg>
