<svg width="25" height="25" viewBox="0 0 25 25" fill="none" xmlns="http://www.w3.org/2000/svg">
<path d="M12.6665 19.1769C16.1865 19.1769 19.0665 16.2969 19.0665 12.7769C19.0665 9.25686 16.1865 6.37686 12.6665 6.37686C9.1465 6.37686 6.2665 9.25686 6.2665 12.7769C6.2665 16.2969 9.1465 19.1769 12.6665 19.1769ZM12.6665 4.77686C17.0665 4.77686 20.6665 8.37686 20.6665 12.7769C20.6665 17.1769 17.0665 20.7769 12.6665 20.7769C8.2665 20.7769 4.6665 17.1769 4.6665 12.7769C4.6665 8.37686 8.2665 4.77686 12.6665 4.77686ZM13.0665 8.77686V13.5769H8.6665V12.3769H11.8665V8.77686H13.0665Z" fill="#008BCC"/>
</svg>
