<svg width="16" height="16" viewBox="0 0 16 16" fill="none" xmlns="http://www.w3.org/2000/svg">
<path d="M8 13.3333C10.9333 13.3333 13.3333 10.9333 13.3333 7.99998C13.3333 5.06665 10.9333 2.66665 8 2.66665C5.06667 2.66665 2.66667 5.06665 2.66667 7.99998C2.66667 10.9333 5.06667 13.3333 8 13.3333ZM8 1.33331C11.6667 1.33331 14.6667 4.33331 14.6667 7.99998C14.6667 11.6666 11.6667 14.6666 8 14.6666C4.33334 14.6666 1.33334 11.6666 1.33334 7.99998C1.33334 4.33331 4.33334 1.33331 8 1.33331ZM8.33334 4.66665V8.66665H4.66667V7.66665H7.33334V4.66665H8.33334Z" fill="#008BCC"/>
</svg>
