<svg width="16" height="16" viewBox="0 0 16 16" fill="none" xmlns="http://www.w3.org/2000/svg">
<path d="M7.99999 13.3333C10.9333 13.3333 13.3333 10.9333 13.3333 7.99998C13.3333 5.06665 10.9333 2.66665 7.99999 2.66665C5.06666 2.66665 2.66666 5.06665 2.66666 7.99998C2.66666 10.9333 5.06666 13.3333 7.99999 13.3333ZM7.99999 1.33331C11.6667 1.33331 14.6667 4.33331 14.6667 7.99998C14.6667 11.6666 11.6667 14.6666 7.99999 14.6666C4.33333 14.6666 1.33333 11.6666 1.33333 7.99998C1.33333 4.33331 4.33333 1.33331 7.99999 1.33331ZM8.33333 4.66665V8.66665H4.66666V7.66665H7.33333V4.66665H8.33333Z" fill="#008BCC"/>
</svg>
