<svg width="16" height="16" viewBox="0 0 16 16" fill="none" xmlns="http://www.w3.org/2000/svg">
<path d="M8 13.3334C10.9333 13.3334 13.3333 10.9334 13.3333 8.00004C13.3333 5.06671 10.9333 2.66671 8 2.66671C5.06667 2.66671 2.66667 5.06671 2.66667 8.00004C2.66667 10.9334 5.06667 13.3334 8 13.3334ZM8 1.33337C11.6667 1.33337 14.6667 4.33337 14.6667 8.00004C14.6667 11.6667 11.6667 14.6667 8 14.6667C4.33334 14.6667 1.33334 11.6667 1.33334 8.00004C1.33334 4.33337 4.33334 1.33337 8 1.33337ZM8.33334 4.66671V8.66671H4.66667V7.66671H7.33334V4.66671H8.33334Z" fill="#008BCC"/>
</svg>
