<svg width="16" height="16" viewBox="0 0 16 16" fill="none" xmlns="http://www.w3.org/2000/svg">
<path d="M7.99999 13.3334C10.9333 13.3334 13.3333 10.9334 13.3333 8.00004C13.3333 5.06671 10.9333 2.66671 7.99999 2.66671C5.06666 2.66671 2.66666 5.06671 2.66666 8.00004C2.66666 10.9334 5.06666 13.3334 7.99999 13.3334ZM7.99999 1.33337C11.6667 1.33337 14.6667 4.33337 14.6667 8.00004C14.6667 11.6667 11.6667 14.6667 7.99999 14.6667C4.33333 14.6667 1.33333 11.6667 1.33333 8.00004C1.33333 4.33337 4.33333 1.33337 7.99999 1.33337ZM8.33333 4.66671V8.66671H4.66666V7.66671H7.33333V4.66671H8.33333Z" fill="#008BCC"/>
</svg>
