<svg width="16" height="16" viewBox="0 0 16 16" fill="none" xmlns="http://www.w3.org/2000/svg">
<path d="M8.00004 13.3334C10.9334 13.3334 13.3334 10.9334 13.3334 8.00004C13.3334 5.06671 10.9334 2.66671 8.00004 2.66671C5.06671 2.66671 2.66671 5.06671 2.66671 8.00004C2.66671 10.9334 5.06671 13.3334 8.00004 13.3334ZM8.00004 1.33337C11.6667 1.33337 14.6667 4.33337 14.6667 8.00004C14.6667 11.6667 11.6667 14.6667 8.00004 14.6667C4.33337 14.6667 1.33337 11.6667 1.33337 8.00004C1.33337 4.33337 4.33337 1.33337 8.00004 1.33337ZM8.33337 4.66671V8.66671H4.66671V7.66671H7.33337V4.66671H8.33337Z" fill="#008BCC"/>
</svg>
