<svg width="24" height="24" viewBox="0 0 24 24" fill="none" xmlns="http://www.w3.org/2000/svg">
<path d="M2.87904 15.5559C3.69279 14.1562 4.12497 12.1472 4.12497 9.75C4.12498 7.66142 4.95466 5.65838 6.43151 4.18153C7.90836 2.70469 9.91139 1.875 12 1.875C14.0886 1.875 16.0916 2.70469 17.5684 4.18153C19.0453 5.65838 19.875 7.66142 19.875 9.75C19.875 12.1481 20.3053 14.1562 21.119 15.5559C21.2851 15.8414 21.3731 16.1656 21.3743 16.4958C21.3754 16.8261 21.2897 17.1509 21.1256 17.4375C20.9626 17.7243 20.726 17.9624 20.4402 18.1272C20.1544 18.292 19.8299 18.3775 19.5 18.375H16.1081C16.0151 19.4003 15.542 20.3537 14.7819 21.048C14.0217 21.7423 13.0295 22.1273 12 22.1273C10.9705 22.1273 9.9782 21.7423 9.21806 21.048C8.45792 20.3537 7.98487 19.4003 7.89185 18.375H4.49997C4.17057 18.377 3.84657 18.2913 3.56134 18.1265C3.27611 17.9617 3.03994 17.7239 2.87716 17.4375C2.7124 17.1513 2.62583 16.8267 2.62616 16.4965C2.62649 16.1662 2.7137 15.8418 2.87904 15.5559ZM12 19.875C12.4322 19.8751 12.8512 19.7258 13.1861 19.4525C13.5209 19.1791 13.751 18.7985 13.8375 18.375H10.1625C10.2489 18.7985 10.479 19.1791 10.8139 19.4525C11.1487 19.7258 11.5677 19.8751 12 19.875ZM18.8756 16.125C18.0459 14.4375 17.625 12.2944 17.625 9.75C17.625 8.25816 17.0323 6.82742 15.9774 5.77252C14.9226 4.71763 13.4918 4.125 12 4.125C10.5081 4.125 9.07739 4.71763 8.0225 5.77252C6.96761 6.82742 6.37497 8.25816 6.37497 9.75C6.37497 12.2934 5.95497 14.4375 5.12529 16.125H18.8756Z" fill="white"/>
</svg>
