<svg width="24" height="24" viewBox="0 0 24 24" fill="none" xmlns="http://www.w3.org/2000/svg">
<path d="M2.87928 15.5559C3.69303 14.1562 4.12522 12.1472 4.12522 9.75C4.12522 7.66142 4.9549 5.65838 6.43175 4.18153C7.9086 2.70469 9.91164 1.875 12.0002 1.875C14.0888 1.875 16.0918 2.70469 17.5687 4.18153C19.0455 5.65838 19.8752 7.66142 19.8752 9.75C19.8752 12.1481 20.3055 14.1562 21.1193 15.5559C21.2853 15.8414 21.3733 16.1656 21.3745 16.4958C21.3757 16.8261 21.2899 17.1509 21.1258 17.4375C20.9628 17.7243 20.7262 17.9624 20.4404 18.1272C20.1547 18.292 19.8301 18.3775 19.5002 18.375H16.1083C16.0153 19.4003 15.5423 20.3537 14.7821 21.048C14.022 21.7423 13.0297 22.1273 12.0002 22.1273C10.9707 22.1273 9.97844 21.7423 9.21831 21.048C8.45817 20.3537 7.98512 19.4003 7.89209 18.375H4.50022C4.17081 18.377 3.84682 18.2913 3.56158 18.1265C3.27635 17.9617 3.04019 17.7239 2.87741 17.4375C2.71264 17.1513 2.62608 16.8267 2.62641 16.4965C2.62674 16.1662 2.71395 15.8418 2.87928 15.5559Z" fill="white"/>
</svg>
