<svg width="24" height="24" viewBox="0 0 24 24" fill="none" xmlns="http://www.w3.org/2000/svg">
<path d="M2.87907 15.5559C3.69282 14.1562 4.125 12.1472 4.125 9.75C4.12501 7.66142 4.95469 5.65838 6.43154 4.18153C7.90839 2.70469 9.91142 1.875 12 1.875C14.0886 1.875 16.0916 2.70469 17.5685 4.18153C19.0453 5.65838 19.875 7.66142 19.875 9.75C19.875 12.1481 20.3053 14.1562 21.1191 15.5559C21.2851 15.8414 21.3731 16.1656 21.3743 16.4958C21.3754 16.8261 21.2897 17.1509 21.1256 17.4375C20.9626 17.7243 20.726 17.9624 20.4402 18.1272C20.1545 18.292 19.8299 18.3775 19.5 18.375H16.1081C16.0151 19.4003 15.5421 20.3537 14.7819 21.048C14.0218 21.7423 13.0295 22.1273 12 22.1273C10.9705 22.1273 9.97823 21.7423 9.21809 21.048C8.45795 20.3537 7.98491 19.4003 7.89188 18.375H4.5C4.1706 18.377 3.84661 18.2913 3.56137 18.1265C3.27614 17.9617 3.03997 17.7239 2.87719 17.4375C2.71243 17.1513 2.62586 16.8267 2.62619 16.4965C2.62652 16.1662 2.71373 15.8418 2.87907 15.5559ZM12 19.875C12.4322 19.8751 12.8512 19.7258 13.1861 19.4525C13.5209 19.1791 13.7511 18.7985 13.8375 18.375H10.1625C10.249 18.7985 10.4791 19.1791 10.8139 19.4525C11.1488 19.7258 11.5678 19.8751 12 19.875ZM18.8756 16.125C18.0459 14.4375 17.625 12.2944 17.625 9.75C17.625 8.25816 17.0324 6.82742 15.9775 5.77252C14.9226 4.71763 13.4918 4.125 12 4.125C10.5082 4.125 9.07742 4.71763 8.02253 5.77252C6.96764 6.82742 6.375 8.25816 6.375 9.75C6.375 12.2934 5.955 14.4375 5.12532 16.125H18.8756Z" fill="white"/>
</svg>
