<svg width="100" height="32" viewBox="0 0 100 32" fill="none" xmlns="http://www.w3.org/2000/svg">
<path d="M15.1754 19.5361C11.7273 19.5361 8.9436 22.3198 8.9436 25.768C8.9436 29.2161 11.7273 31.9998 15.1754 31.9998C18.6236 31.9998 21.4073 29.2161 21.4073 25.768C21.4073 22.3198 18.6236 19.5361 15.1754 19.5361ZM15.1754 29.7549C12.9665 29.7549 11.1885 27.9769 11.1885 25.768C11.1885 23.559 12.9665 21.781 15.1754 21.781C17.3844 21.781 19.1624 23.559 19.1624 25.768C19.1803 27.959 17.3844 29.7549 15.1754 29.7549Z" fill="#666666"/>
<path d="M19.0185 26.8273L16.3606 26.073C16.3785 25.9832 16.3965 25.8754 16.3965 25.7677C16.3965 25.6599 16.3785 25.5522 16.3606 25.4624L19.0185 24.7081C19.0006 24.6183 18.9646 24.5285 18.9287 24.4387L17.2226 24.9236L18.7671 24.0616C18.7312 23.9718 18.6773 23.882 18.6414 23.8101L16.2349 25.1571C16.1271 24.9775 15.9834 24.8338 15.8038 24.7261L17.1508 22.3195C17.061 22.2656 16.9891 22.2297 16.8993 22.1938L16.0373 23.7383L16.5222 22.0322C16.4324 21.9963 16.3426 21.9783 16.2528 21.9424L15.4985 24.6003C15.4087 24.5824 15.301 24.5644 15.1932 24.5644C15.0855 24.5644 14.9777 24.5824 14.8879 24.6003L14.1336 21.9424C14.0438 21.9603 13.954 21.9963 13.8642 22.0322L14.3491 23.7383L13.4871 22.1938C13.3973 22.2297 13.3075 22.2836 13.2357 22.3195L14.5826 24.7261C14.403 24.8338 14.2593 24.9775 14.1516 25.1571L11.7451 23.8101C11.6912 23.8999 11.6553 23.9718 11.6193 24.0616L13.1638 24.9236L11.4577 24.4387C11.4218 24.5285 11.4038 24.6183 11.3679 24.7081L14.0259 25.4624C14.0079 25.5522 13.99 25.6599 13.99 25.7677C13.99 25.8754 14.0079 25.9832 14.0259 26.073L11.3679 26.8273C11.3859 26.9171 11.4218 27.0069 11.4577 27.0967L13.1638 26.6118L11.6193 27.4738C11.6553 27.5636 11.7091 27.6534 11.7451 27.7252L14.1516 26.3783C14.2593 26.5579 14.403 26.7016 14.5826 26.8093L13.2357 29.2158C13.3255 29.2697 13.3973 29.3056 13.4871 29.3416L14.3491 27.7971L13.8642 29.5032C13.954 29.5391 14.0438 29.5571 14.1336 29.593L14.8879 26.935C14.9777 26.953 15.0855 26.971 15.1932 26.971C15.301 26.971 15.4087 26.953 15.4985 26.935L16.2528 29.593C16.3426 29.575 16.4324 29.5391 16.5222 29.5032L16.0373 27.7971L16.8993 29.3416C16.9891 29.3056 17.0789 29.2518 17.1508 29.2158L15.8038 26.8093C15.9834 26.7016 16.1271 26.5579 16.2349 26.3783L18.6414 27.7252C18.6953 27.6354 18.7312 27.5636 18.7671 27.4738L17.2226 26.6118L18.9287 27.0967C18.9646 27.0069 19.0006 26.9171 19.0185 26.8273Z" fill="#666666"/>
<path d="M78.0143 19.5361C74.5661 19.5361 71.7825 22.3198 71.7825 25.768C71.7825 29.2161 74.5661 31.9998 78.0143 31.9998C81.4625 31.9998 84.2461 29.2161 84.2461 25.768C84.2461 22.3198 81.4625 19.5361 78.0143 19.5361ZM78.0143 29.7549C75.8053 29.7549 74.0274 27.9769 74.0274 25.768C74.0274 23.559 75.8053 21.781 78.0143 21.781C80.2233 21.781 82.0012 23.559 82.0012 25.768C82.0012 27.959 80.2233 29.7549 78.0143 29.7549Z" fill="#666666"/>
<path d="M81.8576 26.8273L79.1997 26.073C79.2176 25.9832 79.2356 25.8754 79.2356 25.7677C79.2356 25.6599 79.2176 25.5522 79.1997 25.4624L81.8576 24.7081C81.8397 24.6183 81.8038 24.5285 81.7678 24.4387L80.0617 24.9236L81.6062 24.0616C81.5703 23.9718 81.5164 23.882 81.4805 23.8101L79.074 25.1571C78.9662 24.9775 78.8225 24.8338 78.6429 24.7261L79.9899 22.3195C79.9001 22.2656 79.8282 22.2297 79.7385 22.1938L78.8764 23.7383L79.3613 22.0322C79.2715 21.9963 79.1817 21.9783 79.0919 21.9424L78.3376 24.6003C78.2478 24.5824 78.1401 24.5644 78.0323 24.5644C77.9246 24.5644 77.8168 24.5824 77.727 24.6003L76.9727 21.9424C76.883 21.9603 76.7932 21.9963 76.7034 22.0322L77.1883 23.7383L76.3262 22.1938C76.2364 22.2297 76.1466 22.2836 76.0748 22.3195L77.4217 24.7261C77.2421 24.8338 77.0985 24.9775 76.9907 25.1571L74.5842 23.8101C74.5303 23.8999 74.4944 23.9718 74.4585 24.0616L76.0029 24.9236L74.2968 24.4387C74.2609 24.5285 74.2429 24.6183 74.207 24.7081L76.865 25.4624C76.847 25.5522 76.8291 25.6599 76.8291 25.7677C76.8291 25.8754 76.847 25.9832 76.865 26.073L74.207 26.8273C74.225 26.9171 74.2609 27.0069 74.2968 27.0967L76.0029 26.6118L74.4585 27.4738C74.4944 27.5636 74.5483 27.6534 74.5842 27.7252L76.9907 26.3783C77.0985 26.5579 77.2421 26.7016 77.4217 26.8093L76.0748 29.2158C76.1646 29.2697 76.2364 29.3056 76.3262 29.3416L77.1883 27.7971L76.7034 29.5032C76.7932 29.5391 76.883 29.5571 76.9727 29.593L77.727 26.935C77.8168 26.953 77.9246 26.971 78.0323 26.971C78.1401 26.971 78.2478 26.953 78.3376 26.935L79.0919 29.593C79.1817 29.575 79.2715 29.5391 79.3613 29.5032L78.8764 27.7971L79.7385 29.3416C79.8282 29.3056 79.918 29.2518 79.9899 29.2158L78.6429 26.8093C78.8225 26.7016 78.9662 26.5579 79.074 26.3783L81.4805 27.7252C81.5344 27.6354 81.5703 27.5636 81.6062 27.4738L80.0617 26.6118L81.7678 27.0967C81.8038 27.0069 81.8397 26.9171 81.8576 26.8273Z" fill="#666666"/>
<path d="M99.9967 21.0628V20.3085C99.9967 19.8954 99.9608 19.5721 99.9069 19.3028C99.7273 18.2432 98.56 18.3689 98.56 18.3689V11.7599C98.56 9.98195 96.9436 9.65869 96.9436 9.65869H60.9894V26.0734H70.5616C70.5616 25.9656 70.5437 25.8399 70.5437 25.7321C70.5437 21.6015 73.8841 18.2611 78.0147 18.2611C82.1453 18.2611 85.4857 21.6015 85.4857 25.7321C85.4857 25.7501 85.4857 25.7681 85.4857 25.786L95.9738 23.6848C100.266 22.9305 99.9967 21.0628 99.9967 21.0628ZM94.2677 12.1191C94.2677 12.3705 94.0702 12.5681 93.8187 12.5681H63.0547C62.8033 12.5681 62.6057 12.3705 62.6057 12.1191V12.1011C62.6057 11.8497 62.8033 11.6522 63.0547 11.6522H93.8187C94.0702 11.6522 94.2677 11.8497 94.2677 12.1011V12.1191ZM97.7518 17.7583H96.8C95.9379 17.7583 95.2195 17.0399 95.2195 16.1779V13.1966C95.2195 12.3346 95.9379 11.6162 96.8 11.6162H97.7338C97.7338 11.6701 97.7338 11.724 97.7338 11.7779V17.7583H97.7518Z" fill="#666666"/>
<path d="M57.8285 0.355944H40.1208C37.0677 0.355944 33.5298 2.60084 33.5298 2.60084L23.3828 10.0718L8.27917 11.2572C3.23265 11.8139 1.74204 14.9747 1.32898 17.04V19.8416C1.32898 19.8416 0 19.7159 0 21.458V23.9184C0 26.1812 1.86775 26.0914 1.86775 26.0914H7.7404C7.7404 25.9837 7.72244 25.858 7.72244 25.7502C7.72244 21.6196 11.0628 18.2792 15.1935 18.2792C19.3241 18.2792 22.6645 21.6196 22.6645 25.7502C22.6645 25.858 22.6465 25.9837 22.6465 26.0914H60.3967V2.098C60.3967 0.194325 57.8285 0.355944 57.8285 0.355944ZM2.78367 24.8523H1.02367C0.862039 24.5469 0.754284 24.1518 0.754284 23.6131V22.1225H2.78367C3.53796 22.1225 4.14857 22.7331 4.14857 23.4874C4.13061 24.2416 3.52 24.8523 2.78367 24.8523ZM7.93795 17.7763C7.93795 18.6384 7.21958 19.3568 6.35754 19.3568H2.08326V17.04C2.26285 16.1959 2.62204 15.1543 3.32245 14.2025H6.35754C7.21958 14.2025 7.93795 14.9208 7.93795 15.7829V17.7763ZM34.4098 3.91187C35.3257 3.33717 38.0375 1.93636 40.1208 1.93636H46.7836C46.7836 1.93636 48.831 1.84657 48.831 3.89391V8.50941C48.831 8.50941 49.0465 10.4131 46.7836 10.4131H25.5559L34.4098 3.91187ZM48.3102 13.1429H45.0595C44.7004 13.1429 44.413 12.8555 44.413 12.4963C44.413 12.1372 44.7004 11.8498 45.0595 11.8498H48.3102C48.6693 11.8498 48.9567 12.1372 48.9567 12.4963C48.9567 12.8555 48.6514 13.1429 48.3102 13.1429ZM58.0261 8.83268C58.0261 9.69472 57.3077 10.4131 56.4457 10.4131H52.4946C51.6326 10.4131 50.9142 9.69472 50.9142 8.83268V3.4988C50.9142 2.63676 51.6326 1.9184 52.4946 1.9184H56.4457C57.3077 1.9184 58.0261 2.63676 58.0261 3.4988V8.83268Z" fill="#666666"/>
</svg>
