<svg width="150" height="49" viewBox="0 0 150 49" fill="none" xmlns="http://www.w3.org/2000/svg">
<path d="M21.9285 27.0015C15.8949 27.0015 10.9966 31.8799 10.9966 37.8892C10.9966 43.8984 15.8949 48.7769 21.9285 48.7769C27.9622 48.7769 32.8605 43.8984 32.8605 37.8892C32.8605 31.8799 27.9622 27.0015 21.9285 27.0015ZM21.9285 44.8353C18.0683 44.8353 14.9541 41.7338 14.9541 37.8892C14.9541 34.0446 18.0683 30.943 21.9285 30.943C25.7888 30.943 28.9029 34.0446 28.9029 37.8892C28.9029 41.7338 25.7888 44.8353 21.9285 44.8353Z" fill="#666666"/>
<path d="M28.6763 39.7307L24.005 38.4384C24.0375 38.2769 24.0699 38.0831 24.0699 37.8892C24.0699 37.6954 24.0375 37.5338 24.005 37.34L28.6763 36.0477C28.6438 35.8861 28.5789 35.7246 28.5141 35.563L25.5297 36.403L28.2221 34.8846C28.1572 34.723 28.0599 34.5938 27.995 34.4323L23.778 36.7907C23.5833 36.4677 23.3238 36.2092 23.0319 36.0477L25.3999 31.8477C25.2702 31.7507 25.108 31.6861 24.9458 31.6215L23.4211 34.303L24.2646 31.3307C24.1024 31.2661 23.9402 31.2338 23.778 31.1692L22.4804 35.8215C22.3182 35.7892 22.1236 35.7569 21.929 35.7569C21.7343 35.7569 21.5721 35.7892 21.3775 35.8215L20.0799 31.1692C19.9177 31.2015 19.7555 31.2661 19.5933 31.3307L20.4368 34.303L18.9121 31.6215C18.7499 31.6861 18.6202 31.783 18.458 31.8477L20.826 36.0477C20.5016 36.2415 20.2421 36.5 20.0799 36.7907L15.8629 34.4323C15.7655 34.5615 15.7007 34.723 15.6358 34.8846L18.3282 36.403L15.3438 35.563C15.279 35.7246 15.2465 35.8861 15.1816 36.0477L19.8529 37.34C19.8204 37.5015 19.788 37.6954 19.788 37.8892C19.788 38.0831 19.8204 38.2446 19.8529 38.4384L15.1816 39.7307C15.2141 39.8923 15.279 40.0538 15.3438 40.2154L18.3282 39.3754L15.6358 40.8938C15.7007 41.0554 15.798 41.1846 15.8629 41.3461L20.0799 38.9877C20.2746 39.3107 20.5341 39.5692 20.826 39.7307L18.458 43.9307C18.5877 44.0277 18.7499 44.0923 18.9121 44.1569L20.4368 41.4754L19.5933 44.4477C19.7555 44.5123 19.9177 44.5446 20.0799 44.6092L21.3775 39.9569C21.5397 39.9892 21.7343 40.0215 21.929 40.0215C22.1236 40.0215 22.2858 39.9892 22.4804 39.9569L23.778 44.6092C23.9402 44.5769 24.1024 44.5123 24.2646 44.4477L23.4211 41.4754L24.9458 44.1569C25.108 44.0923 25.2377 43.9954 25.3999 43.9307L23.0319 39.7307C23.3563 39.5369 23.6158 39.2784 23.778 38.9877L27.995 41.3461C28.0924 41.2169 28.1572 41.0554 28.2221 40.8938L25.5297 39.3754L28.5141 40.2154C28.5789 40.0538 28.6114 39.8923 28.6763 39.7307Z" fill="#666666"/>
<path d="M118.11 27.0015C112.077 27.0015 107.178 31.8799 107.178 37.8892C107.178 43.8984 112.077 48.7769 118.11 48.7769C124.144 48.7769 129.042 43.8984 129.042 37.8892C129.042 31.8799 124.144 27.0015 118.11 27.0015ZM118.11 44.8353C114.25 44.8353 111.136 41.7338 111.136 37.8892C111.136 34.0446 114.25 30.943 118.11 30.943C121.97 30.943 125.085 34.0446 125.085 37.8892C125.085 41.7338 121.97 44.8353 118.11 44.8353Z" fill="#666666"/>
<path d="M124.857 39.7307L120.186 38.4384C120.219 38.2769 120.251 38.0831 120.251 37.8892C120.251 37.6954 120.219 37.5338 120.186 37.34L124.857 36.0477C124.825 35.8861 124.76 35.7246 124.695 35.563L121.711 36.403L124.403 34.8846C124.338 34.723 124.241 34.5938 124.176 34.4323L119.959 36.7907C119.764 36.4677 119.505 36.2092 119.213 36.0477L121.581 31.8477C121.451 31.7507 121.289 31.6861 121.127 31.6215L119.602 34.303L120.446 31.3307C120.284 31.2661 120.121 31.2338 119.959 31.1692L118.662 35.8215C118.499 35.7892 118.305 35.7569 118.11 35.7569C117.915 35.7569 117.753 35.7892 117.559 35.8215L116.261 31.1692C116.099 31.2015 115.937 31.2661 115.775 31.3307L116.618 34.303L115.093 31.6215C114.931 31.6861 114.801 31.783 114.639 31.8477L117.007 36.0477C116.683 36.2415 116.423 36.5 116.261 36.7907L112.044 34.4323C111.947 34.5615 111.882 34.723 111.817 34.8846L114.509 36.403L111.525 35.563C111.46 35.7246 111.428 35.8861 111.363 36.0477L116.034 37.34C116.002 37.5015 115.969 37.6954 115.969 37.8892C115.969 38.0831 116.002 38.2446 116.034 38.4384L111.363 39.7307C111.395 39.8923 111.46 40.0538 111.525 40.2154L114.509 39.3754L111.817 40.8938C111.882 41.0554 111.979 41.1846 112.044 41.3461L116.261 38.9877C116.456 39.3107 116.715 39.5692 117.007 39.7307L114.639 43.9307C114.769 44.0277 114.931 44.0923 115.093 44.1569L116.618 41.4754L115.775 44.4477C115.937 44.5123 116.099 44.5446 116.261 44.6092L117.559 39.9569C117.721 39.9892 117.915 40.0215 118.11 40.0215C118.305 40.0215 118.467 39.9892 118.662 39.9569L119.959 44.6092C120.121 44.5769 120.284 44.5123 120.446 44.4477L119.602 41.4754L121.127 44.1569C121.289 44.0923 121.419 43.9954 121.581 43.9307L119.213 39.7307C119.537 39.5369 119.797 39.2784 119.959 38.9877L124.176 41.3461C124.274 41.2169 124.338 41.0554 124.403 40.8938L121.711 39.3754L124.695 40.2154C124.76 40.0538 124.793 39.8923 124.857 39.7307Z" fill="#666666"/>
<path d="M147.5 23.8354C148.473 12.1076 142.083 12.1076 142.083 12.1076L133.941 12.3338C131.313 10.6861 128.588 9.16764 125.766 7.84302C120.446 5.32302 114.866 3.35225 109.157 1.86609C101.988 0.056859 94.3326 0.0891697 87.0014 0.056862C81.6165 0.056862 76.1019 -0.298524 70.7819 0.767631C66.4351 1.63994 62.218 3.1584 58.228 5.06456C53.4919 7.3261 49.0153 10.1692 44.8307 13.3353C43.9873 13.9815 43.1763 14.6276 42.3653 15.3061L15.0841 17.4384C5.96877 18.44 3.27634 24.1261 2.53024 27.8415C1.10293 28.0031 0 29.1984 0 30.6523V38.4061C0 39.9569 1.29756 41.2492 2.85463 41.2492H5.83902H8.75853C8.46658 40.1831 8.30438 39.0523 8.30438 37.8892C8.30438 30.3938 14.4029 24.2877 21.9612 24.2877C29.487 24.2877 35.618 30.3615 35.618 37.8892C35.618 39.0523 35.4558 40.1831 35.1639 41.2492H104.908C104.616 40.1831 104.454 39.0523 104.454 37.8892C104.454 30.3938 110.552 24.2877 118.11 24.2877C125.636 24.2877 131.767 30.3615 131.767 37.8892C131.767 39.02 131.605 40.1508 131.345 41.2169L146.138 38.4708C146.138 38.4708 149.998 37.6308 149.998 34.3677V28.2292C149.965 28.2292 150.355 24.3523 147.5 23.8354ZM3.37365 37.3077H1.10292V33.2692H3.37365C4.47658 33.2692 5.38487 34.1738 5.38487 35.2723C5.41731 36.4031 4.50902 37.3077 3.37365 37.3077ZM4.63878 28.0354C4.63878 28.0354 5.7417 18.8277 19.658 19.7323C19.658 19.7323 13.7866 25.7738 4.63878 28.0354ZM59.4607 7.61687C63.5155 5.67841 67.5055 4.28917 71.3333 3.54609C74.4799 2.93225 77.7563 2.83532 80.5136 2.83532C81.6489 2.83532 82.7843 2.83533 83.8872 2.86763C84.0494 2.86763 84.1792 2.86763 84.3414 2.86763L80.7406 14.4661L46.5499 15.5646C50.7995 12.3661 55.1463 9.68456 59.4607 7.61687ZM80.6433 18.9246C80.6433 19.5707 80.1243 20.0877 79.4755 20.0877H73.6041C72.9553 20.0877 72.4363 19.5707 72.4363 18.9246C72.4363 18.2784 72.9553 17.7615 73.6041 17.7615H79.4755C80.1243 17.7615 80.6433 18.2784 80.6433 18.9246ZM94.3001 36.8877L44.8631 37.8569L95.8572 35.6277C95.8572 35.6277 98.8092 35.3369 100.366 31.8477C100.334 31.8154 100.918 36.7261 94.3001 36.8877ZM109.514 19.183H103.643C102.994 19.183 102.475 18.6661 102.475 18.02C102.475 17.3738 102.994 16.8569 103.643 16.8569H109.514C110.163 16.8569 110.682 17.3738 110.682 18.02C110.682 18.6661 110.13 19.183 109.514 19.183ZM116.683 11.1384C116.683 11.1384 115.515 13.3353 111.882 13.4969L86.677 14.3046L88.6558 2.93225C95.3057 2.96456 102.15 3.06148 108.444 4.64456C111.006 5.32302 113.536 6.0661 115.969 6.93841C116.002 6.9061 118.727 8.06918 116.683 11.1384ZM146.203 23.803H142.213C140.655 23.803 139.358 22.5107 139.358 20.96V20.8954C139.358 19.3446 140.655 18.0523 142.213 18.0523H145.975C146.3 19.5384 146.397 21.4446 146.203 23.803Z" fill="#666666"/>
</svg>
