<svg width="151" height="49" viewBox="0 0 151 49" fill="none" xmlns="http://www.w3.org/2000/svg">
<path d="M22.262 27.0015C16.2284 27.0015 11.3301 31.8799 11.3301 37.8892C11.3301 43.8984 16.2284 48.7769 22.262 48.7769C28.2957 48.7769 33.194 43.8984 33.194 37.8892C33.194 31.8799 28.2957 27.0015 22.262 27.0015ZM22.262 44.8353C18.4018 44.8353 15.2876 41.7338 15.2876 37.8892C15.2876 34.0446 18.4018 30.943 22.262 30.943C26.1223 30.943 29.2364 34.0446 29.2364 37.8892C29.2364 41.7338 26.1223 44.8353 22.262 44.8353Z" fill="#666666"/>
<path d="M29.0098 39.7307L24.3385 38.4384C24.371 38.2769 24.4034 38.0831 24.4034 37.8892C24.4034 37.6954 24.371 37.5338 24.3385 37.34L29.0098 36.0477C28.9773 35.8861 28.9124 35.7246 28.8476 35.563L25.8632 36.403L28.5556 34.8846C28.4907 34.723 28.3934 34.5938 28.3285 34.4323L24.1115 36.7907C23.9168 36.4677 23.6573 36.2092 23.3654 36.0477L25.7334 31.8477C25.6037 31.7507 25.4415 31.6861 25.2793 31.6215L23.7546 34.303L24.5981 31.3307C24.4359 31.2661 24.2737 31.2338 24.1115 31.1692L22.8139 35.8215C22.6517 35.7892 22.4571 35.7569 22.2624 35.7569C22.0678 35.7569 21.9056 35.7892 21.711 35.8215L20.4134 31.1692C20.2512 31.2015 20.089 31.2661 19.9268 31.3307L20.7703 34.303L19.2456 31.6215C19.0834 31.6861 18.9537 31.783 18.7915 31.8477L21.1595 36.0477C20.8351 36.2415 20.5756 36.5 20.4134 36.7907L16.1964 34.4323C16.099 34.5615 16.0342 34.723 15.9693 34.8846L18.6617 36.403L15.6773 35.563C15.6125 35.7246 15.58 35.8861 15.5151 36.0477L20.1863 37.34C20.1539 37.5015 20.1215 37.6954 20.1215 37.8892C20.1215 38.0831 20.1539 38.2446 20.1863 38.4384L15.5151 39.7307C15.5476 39.8923 15.6125 40.0538 15.6773 40.2154L18.6617 39.3754L15.9693 40.8938C16.0342 41.0554 16.1315 41.1846 16.1964 41.3461L20.4134 38.9877C20.6081 39.3107 20.8676 39.5692 21.1595 39.7307L18.7915 43.9307C18.9212 44.0277 19.0834 44.0923 19.2456 44.1569L20.7703 41.4754L19.9268 44.4477C20.089 44.5123 20.2512 44.5446 20.4134 44.6092L21.711 39.9569C21.8732 39.9892 22.0678 40.0215 22.2624 40.0215C22.4571 40.0215 22.6193 39.9892 22.8139 39.9569L24.1115 44.6092C24.2737 44.5769 24.4359 44.5123 24.5981 44.4477L23.7546 41.4754L25.2793 44.1569C25.4415 44.0923 25.5712 43.9954 25.7334 43.9307L23.3654 39.7307C23.6898 39.5369 23.9493 39.2784 24.1115 38.9877L28.3285 41.3461C28.4258 41.2169 28.4907 41.0554 28.5556 40.8938L25.8632 39.3754L28.8476 40.2154C28.9124 40.0538 28.9449 39.8923 29.0098 39.7307Z" fill="#666666"/>
<path d="M118.444 27.0015C112.41 27.0015 107.512 31.8799 107.512 37.8892C107.512 43.8984 112.41 48.7769 118.444 48.7769C124.477 48.7769 129.376 43.8984 129.376 37.8892C129.376 31.8799 124.477 27.0015 118.444 27.0015ZM118.444 44.8353C114.583 44.8353 111.469 41.7338 111.469 37.8892C111.469 34.0446 114.583 30.943 118.444 30.943C122.304 30.943 125.418 34.0446 125.418 37.8892C125.418 41.7338 122.304 44.8353 118.444 44.8353Z" fill="#666666"/>
<path d="M125.191 39.7307L120.52 38.4384C120.552 38.2769 120.585 38.0831 120.585 37.8892C120.585 37.6954 120.552 37.5338 120.52 37.34L125.191 36.0477C125.158 35.8861 125.094 35.7246 125.029 35.563L122.044 36.403L124.737 34.8846C124.672 34.723 124.575 34.5938 124.51 34.4323L120.293 36.7907C120.098 36.4677 119.838 36.2092 119.547 36.0477L121.915 31.8477C121.785 31.7507 121.623 31.6861 121.46 31.6215L119.936 34.303L120.779 31.3307C120.617 31.2661 120.455 31.2338 120.293 31.1692L118.995 35.8215C118.833 35.7892 118.638 35.7569 118.444 35.7569C118.249 35.7569 118.087 35.7892 117.892 35.8215L116.595 31.1692C116.432 31.2015 116.27 31.2661 116.108 31.3307L116.951 34.303L115.427 31.6215C115.265 31.6861 115.135 31.783 114.973 31.8477L117.341 36.0477C117.016 36.2415 116.757 36.5 116.595 36.7907L112.378 34.4323C112.28 34.5615 112.215 34.723 112.15 34.8846L114.843 36.403L111.858 35.563C111.794 35.7246 111.761 35.8861 111.696 36.0477L116.368 37.34C116.335 37.5015 116.303 37.6954 116.303 37.8892C116.303 38.0831 116.335 38.2446 116.368 38.4384L111.696 39.7307C111.729 39.8923 111.794 40.0538 111.858 40.2154L114.843 39.3754L112.15 40.8938C112.215 41.0554 112.313 41.1846 112.378 41.3461L116.595 38.9877C116.789 39.3107 117.049 39.5692 117.341 39.7307L114.973 43.9307C115.102 44.0277 115.265 44.0923 115.427 44.1569L116.951 41.4754L116.108 44.4477C116.27 44.5123 116.432 44.5446 116.595 44.6092L117.892 39.9569C118.054 39.9892 118.249 40.0215 118.444 40.0215C118.638 40.0215 118.8 39.9892 118.995 39.9569L120.293 44.6092C120.455 44.5769 120.617 44.5123 120.779 44.4477L119.936 41.4754L121.46 44.1569C121.623 44.0923 121.752 43.9954 121.915 43.9307L119.547 39.7307C119.871 39.5369 120.13 39.2784 120.293 38.9877L124.51 41.3461C124.607 41.2169 124.672 41.0554 124.737 40.8938L122.044 39.3754L125.029 40.2154C125.094 40.0538 125.126 39.8923 125.191 39.7307Z" fill="#666666"/>
<path d="M147.834 23.8354C148.807 12.1076 142.416 12.1076 142.416 12.1076L134.274 12.3338C131.647 10.6861 128.922 9.16764 126.099 7.84302C120.779 5.32302 115.2 3.35225 109.491 1.86609C102.322 0.056859 94.6661 0.0891697 87.3349 0.056862C81.95 0.056862 76.4354 -0.298524 71.1154 0.767631C66.7686 1.63994 62.5515 3.1584 58.5615 5.06456C53.8254 7.3261 49.3488 10.1692 45.1642 13.3353C44.3208 13.9815 43.5098 14.6276 42.6988 15.3061L15.4176 17.4384C6.30227 18.44 3.60984 24.1261 2.86374 27.8415C1.43642 28.0031 0.333496 29.1984 0.333496 30.6523V38.4061C0.333496 39.9569 1.63106 41.2492 3.18813 41.2492H6.17251H9.09202C8.80007 40.1831 8.63788 39.0523 8.63788 37.8892C8.63788 30.3938 14.7364 24.2877 22.2947 24.2877C29.8205 24.2877 35.9515 30.3615 35.9515 37.8892C35.9515 39.0523 35.7893 40.1831 35.4974 41.2492H105.241C104.949 40.1831 104.787 39.0523 104.787 37.8892C104.787 30.3938 110.886 24.2877 118.444 24.2877C125.97 24.2877 132.101 30.3615 132.101 37.8892C132.101 39.02 131.938 40.1508 131.679 41.2169L146.471 38.4708C146.471 38.4708 150.331 37.6308 150.331 34.3677V28.2292C150.299 28.2292 150.688 24.3523 147.834 23.8354ZM3.70715 37.3077H1.43642V33.2692H3.70715C4.81007 33.2692 5.71837 34.1738 5.71837 35.2723C5.75081 36.4031 4.84251 37.3077 3.70715 37.3077ZM4.97227 28.0354C4.97227 28.0354 6.0752 18.8277 19.9915 19.7323C19.9915 19.7323 14.1201 25.7738 4.97227 28.0354ZM59.7942 7.61687C63.849 5.67841 67.839 4.28917 71.6668 3.54609C74.8134 2.93225 78.0898 2.83532 80.8471 2.83532C81.9824 2.83532 83.1178 2.83533 84.2207 2.86763C84.3829 2.86763 84.5127 2.86763 84.6749 2.86763L81.0741 14.4661L46.8834 15.5646C51.133 12.3661 55.4798 9.68456 59.7942 7.61687ZM80.9768 18.9246C80.9768 19.5707 80.4578 20.0877 79.809 20.0877H73.9376C73.2888 20.0877 72.7698 19.5707 72.7698 18.9246C72.7698 18.2784 73.2888 17.7615 73.9376 17.7615H79.809C80.4578 17.7615 80.9768 18.2784 80.9768 18.9246ZM94.6336 36.8877L45.1966 37.8569L96.1907 35.6277C96.1907 35.6277 99.1427 35.3369 100.7 31.8477C100.667 31.8154 101.251 36.7261 94.6336 36.8877ZM109.848 19.183H103.976C103.327 19.183 102.808 18.6661 102.808 18.02C102.808 17.3738 103.327 16.8569 103.976 16.8569H109.848C110.496 16.8569 111.015 17.3738 111.015 18.02C111.015 18.6661 110.464 19.183 109.848 19.183ZM117.017 11.1384C117.017 11.1384 115.849 13.3353 112.216 13.4969L87.0105 14.3046L88.9893 2.93225C95.6392 2.96456 102.484 3.06148 108.777 4.64456C111.34 5.32302 113.87 6.0661 116.303 6.93841C116.335 6.9061 119.06 8.06918 117.017 11.1384ZM146.536 23.803H142.546C140.989 23.803 139.691 22.5107 139.691 20.96V20.8954C139.691 19.3446 140.989 18.0523 142.546 18.0523H146.309C146.633 19.5384 146.731 21.4446 146.536 23.803Z" fill="#666666"/>
</svg>
