<svg width="151" height="49" viewBox="0 0 151 49" fill="none" xmlns="http://www.w3.org/2000/svg">
<path d="M22.595 27.0015C16.5614 27.0015 11.6631 31.8799 11.6631 37.8892C11.6631 43.8984 16.5614 48.7769 22.595 48.7769C28.6287 48.7769 33.527 43.8984 33.527 37.8892C33.527 31.8799 28.6287 27.0015 22.595 27.0015ZM22.595 44.8353C18.7348 44.8353 15.6206 41.7338 15.6206 37.8892C15.6206 34.0446 18.7348 30.943 22.595 30.943C26.4553 30.943 29.5694 34.0446 29.5694 37.8892C29.5694 41.7338 26.4553 44.8353 22.595 44.8353Z" fill="#666666"/>
<path d="M29.3428 39.7307L24.6715 38.4384C24.704 38.2769 24.7364 38.0831 24.7364 37.8892C24.7364 37.6954 24.704 37.5338 24.6715 37.34L29.3428 36.0477C29.3103 35.8861 29.2454 35.7246 29.1806 35.563L26.1962 36.403L28.8886 34.8846C28.8237 34.723 28.7264 34.5938 28.6615 34.4323L24.4445 36.7907C24.2498 36.4677 23.9903 36.2092 23.6984 36.0477L26.0664 31.8477C25.9367 31.7507 25.7745 31.6861 25.6123 31.6215L24.0876 34.303L24.9311 31.3307C24.7689 31.2661 24.6067 31.2338 24.4445 31.1692L23.1469 35.8215C22.9847 35.7892 22.7901 35.7569 22.5955 35.7569C22.4008 35.7569 22.2386 35.7892 22.044 35.8215L20.7464 31.1692C20.5842 31.2015 20.422 31.2661 20.2598 31.3307L21.1033 34.303L19.5786 31.6215C19.4164 31.6861 19.2867 31.783 19.1245 31.8477L21.4925 36.0477C21.1681 36.2415 20.9086 36.5 20.7464 36.7907L16.5294 34.4323C16.432 34.5615 16.3672 34.723 16.3023 34.8846L18.9947 36.403L16.0103 35.563C15.9455 35.7246 15.913 35.8861 15.8481 36.0477L20.5194 37.34C20.4869 37.5015 20.4545 37.6954 20.4545 37.8892C20.4545 38.0831 20.4869 38.2446 20.5194 38.4384L15.8481 39.7307C15.8806 39.8923 15.9455 40.0538 16.0103 40.2154L18.9947 39.3754L16.3023 40.8938C16.3672 41.0554 16.4645 41.1846 16.5294 41.3461L20.7464 38.9877C20.9411 39.3107 21.2006 39.5692 21.4925 39.7307L19.1245 43.9307C19.2542 44.0277 19.4164 44.0923 19.5786 44.1569L21.1033 41.4754L20.2598 44.4477C20.422 44.5123 20.5842 44.5446 20.7464 44.6092L22.044 39.9569C22.2062 39.9892 22.4008 40.0215 22.5955 40.0215C22.7901 40.0215 22.9523 39.9892 23.1469 39.9569L24.4445 44.6092C24.6067 44.5769 24.7689 44.5123 24.9311 44.4477L24.0876 41.4754L25.6123 44.1569C25.7745 44.0923 25.9042 43.9954 26.0664 43.9307L23.6984 39.7307C24.0228 39.5369 24.2823 39.2784 24.4445 38.9877L28.6615 41.3461C28.7589 41.2169 28.8237 41.0554 28.8886 40.8938L26.1962 39.3754L29.1806 40.2154C29.2454 40.0538 29.2779 39.8923 29.3428 39.7307Z" fill="#666666"/>
<path d="M118.777 27.0015C112.743 27.0015 107.845 31.8799 107.845 37.8892C107.845 43.8984 112.743 48.7769 118.777 48.7769C124.81 48.7769 129.709 43.8984 129.709 37.8892C129.709 31.8799 124.81 27.0015 118.777 27.0015ZM118.777 44.8353C114.916 44.8353 111.802 41.7338 111.802 37.8892C111.802 34.0446 114.916 30.943 118.777 30.943C122.637 30.943 125.751 34.0446 125.751 37.8892C125.751 41.7338 122.637 44.8353 118.777 44.8353Z" fill="#666666"/>
<path d="M125.524 39.7307L120.853 38.4384C120.885 38.2769 120.918 38.0831 120.918 37.8892C120.918 37.6954 120.885 37.5338 120.853 37.34L125.524 36.0477C125.491 35.8861 125.427 35.7246 125.362 35.563L122.377 36.403L125.07 34.8846C125.005 34.723 124.908 34.5938 124.843 34.4323L120.626 36.7907C120.431 36.4677 120.171 36.2092 119.88 36.0477L122.248 31.8477C122.118 31.7507 121.956 31.6861 121.793 31.6215L120.269 34.303L121.112 31.3307C120.95 31.2661 120.788 31.2338 120.626 31.1692L119.328 35.8215C119.166 35.7892 118.971 35.7569 118.777 35.7569C118.582 35.7569 118.42 35.7892 118.225 35.8215L116.928 31.1692C116.765 31.2015 116.603 31.2661 116.441 31.3307L117.284 34.303L115.76 31.6215C115.598 31.6861 115.468 31.783 115.306 31.8477L117.674 36.0477C117.349 36.2415 117.09 36.5 116.928 36.7907L112.711 34.4323C112.613 34.5615 112.548 34.723 112.483 34.8846L115.176 36.403L112.191 35.563C112.127 35.7246 112.094 35.8861 112.029 36.0477L116.701 37.34C116.668 37.5015 116.636 37.6954 116.636 37.8892C116.636 38.0831 116.668 38.2446 116.701 38.4384L112.029 39.7307C112.062 39.8923 112.127 40.0538 112.191 40.2154L115.176 39.3754L112.483 40.8938C112.548 41.0554 112.646 41.1846 112.711 41.3461L116.928 38.9877C117.122 39.3107 117.382 39.5692 117.674 39.7307L115.306 43.9307C115.435 44.0277 115.598 44.0923 115.76 44.1569L117.284 41.4754L116.441 44.4477C116.603 44.5123 116.765 44.5446 116.928 44.6092L118.225 39.9569C118.387 39.9892 118.582 40.0215 118.777 40.0215C118.971 40.0215 119.133 39.9892 119.328 39.9569L120.626 44.6092C120.788 44.5769 120.95 44.5123 121.112 44.4477L120.269 41.4754L121.793 44.1569C121.956 44.0923 122.085 43.9954 122.248 43.9307L119.88 39.7307C120.204 39.5369 120.463 39.2784 120.626 38.9877L124.843 41.3461C124.94 41.2169 125.005 41.0554 125.07 40.8938L122.377 39.3754L125.362 40.2154C125.427 40.0538 125.459 39.8923 125.524 39.7307Z" fill="#666666"/>
<path d="M148.167 23.8354C149.14 12.1076 142.749 12.1076 142.749 12.1076L134.607 12.3338C131.98 10.6861 129.255 9.16764 126.432 7.84302C121.112 5.32302 115.533 3.35225 109.824 1.86609C102.655 0.056859 94.9991 0.0891697 87.6679 0.056862C82.283 0.056862 76.7684 -0.298524 71.4484 0.767631C67.1016 1.63994 62.8845 3.1584 58.8945 5.06456C54.1584 7.3261 49.6818 10.1692 45.4972 13.3353C44.6538 13.9815 43.8428 14.6276 43.0318 15.3061L15.7506 17.4384C6.63528 18.44 3.94284 24.1261 3.19675 27.8415C1.76943 28.0031 0.666504 29.1984 0.666504 30.6523V38.4061C0.666504 39.9569 1.96406 41.2492 3.52114 41.2492H6.50552H9.42503C9.13308 40.1831 8.97089 39.0523 8.97089 37.8892C8.97089 30.3938 15.0694 24.2877 22.6277 24.2877C30.1535 24.2877 36.2845 30.3615 36.2845 37.8892C36.2845 39.0523 36.1223 40.1831 35.8304 41.2492H105.574C105.282 40.1831 105.12 39.0523 105.12 37.8892C105.12 30.3938 111.219 24.2877 118.777 24.2877C126.303 24.2877 132.434 30.3615 132.434 37.8892C132.434 39.02 132.271 40.1508 132.012 41.2169L146.804 38.4708C146.804 38.4708 150.664 37.6308 150.664 34.3677V28.2292C150.632 28.2292 151.021 24.3523 148.167 23.8354ZM4.04016 37.3077H1.76943V33.2692H4.04016C5.14308 33.2692 6.05138 34.1738 6.05138 35.2723C6.08382 36.4031 5.17552 37.3077 4.04016 37.3077ZM5.30528 28.0354C5.30528 28.0354 6.40821 18.8277 20.3245 19.7323C20.3245 19.7323 14.4531 25.7738 5.30528 28.0354ZM60.1272 7.61687C64.182 5.67841 68.172 4.28917 71.9998 3.54609C75.1464 2.93225 78.4228 2.83532 81.1801 2.83532C82.3154 2.83532 83.4508 2.83533 84.5537 2.86763C84.7159 2.86763 84.8457 2.86763 85.0079 2.86763L81.4072 14.4661L47.2165 15.5646C51.466 12.3661 55.8128 9.68456 60.1272 7.61687ZM81.3098 18.9246C81.3098 19.5707 80.7908 20.0877 80.142 20.0877H74.2706C73.6218 20.0877 73.1028 19.5707 73.1028 18.9246C73.1028 18.2784 73.6218 17.7615 74.2706 17.7615H80.142C80.7908 17.7615 81.3098 18.2784 81.3098 18.9246ZM94.9667 36.8877L45.5296 37.8569L96.5237 35.6277C96.5237 35.6277 99.4757 35.3369 101.033 31.8477C101 31.8154 101.584 36.7261 94.9667 36.8877ZM110.181 19.183H104.309C103.66 19.183 103.141 18.6661 103.141 18.02C103.141 17.3738 103.66 16.8569 104.309 16.8569H110.181C110.829 16.8569 111.348 17.3738 111.348 18.02C111.348 18.6661 110.797 19.183 110.181 19.183ZM117.35 11.1384C117.35 11.1384 116.182 13.3353 112.549 13.4969L87.3435 14.3046L89.3223 2.93225C95.9723 2.96456 102.817 3.06148 109.11 4.64456C111.673 5.32302 114.203 6.0661 116.636 6.93841C116.668 6.9061 119.393 8.06918 117.35 11.1384ZM146.869 23.803H142.879C141.322 23.803 140.024 22.5107 140.024 20.96V20.8954C140.024 19.3446 141.322 18.0523 142.879 18.0523H146.642C146.966 19.5384 147.064 21.4446 146.869 23.803Z" fill="#666666"/>
</svg>
