<svg width="100" height="33" viewBox="0 0 100 33" fill="none" xmlns="http://www.w3.org/2000/svg">
<path d="M14.6191 18.0741C10.5967 18.0741 7.33115 21.3397 7.33115 25.3621C7.33115 29.3845 10.5967 32.6501 14.6191 32.6501C18.6416 32.6501 21.9071 29.3845 21.9071 25.3621C21.9071 21.3397 18.6416 18.0741 14.6191 18.0741ZM14.6191 30.0117C12.0456 30.0117 9.96953 27.9356 9.96953 25.3621C9.96953 22.7886 12.0456 20.7125 14.6191 20.7125C17.1926 20.7125 19.2687 22.7886 19.2687 25.3621C19.2687 27.9356 17.1926 30.0117 14.6191 30.0117Z" fill="#878B92"/>
<path d="M19.1175 26.5948L16.0034 25.7297C16.025 25.6216 16.0466 25.4918 16.0466 25.3621C16.0466 25.2323 16.025 25.1242 16.0034 24.9944L19.1175 24.1294C19.0959 24.0213 19.0526 23.9131 19.0094 23.805L17.0198 24.3673L18.8147 23.3509C18.7715 23.2427 18.7066 23.1562 18.6634 23.0481L15.852 24.6268C15.7222 24.4105 15.5492 24.2375 15.3546 24.1294L16.9333 21.318C16.8468 21.2531 16.7386 21.2099 16.6305 21.1666L15.6141 22.9616L16.1764 20.972C16.0682 20.9287 15.9601 20.9071 15.852 20.8639L14.9869 23.978C14.8788 23.9564 14.7491 23.9348 14.6193 23.9348C14.4895 23.9348 14.3814 23.9564 14.2517 23.978L13.3866 20.8639C13.2785 20.8855 13.1704 20.9287 13.0622 20.972L13.6245 22.9616L12.6081 21.1666C12.5 21.2099 12.4135 21.2748 12.3053 21.318L13.884 24.1294C13.6678 24.2592 13.4948 24.4322 13.3866 24.6268L10.5752 23.0481C10.5104 23.1346 10.4671 23.2427 10.4239 23.3509L12.2188 24.3673L10.2292 23.805C10.186 23.9131 10.1643 24.0213 10.1211 24.1294L13.2352 24.9944C13.2136 25.1026 13.192 25.2323 13.192 25.3621C13.192 25.4918 13.2136 25.6 13.2352 25.7297L10.1211 26.5948C10.1427 26.7029 10.186 26.811 10.2292 26.9191L12.2188 26.3569L10.4239 27.3733C10.4671 27.4814 10.532 27.5679 10.5752 27.6761L13.3866 26.0974C13.5164 26.3136 13.6894 26.4866 13.884 26.5948L12.3053 29.4061C12.3918 29.471 12.5 29.5143 12.6081 29.5575L13.6245 27.7626L13.0622 29.7522C13.1704 29.7954 13.2785 29.817 13.3866 29.8603L14.2517 26.7461C14.3598 26.7678 14.4895 26.7894 14.6193 26.7894C14.7491 26.7894 14.8572 26.7678 14.9869 26.7461L15.852 29.8603C15.9601 29.8387 16.0682 29.7954 16.1764 29.7522L15.6141 27.7626L16.6305 29.5575C16.7386 29.5143 16.8252 29.4494 16.9333 29.4061L15.3546 26.5948C15.5708 26.465 15.7439 26.292 15.852 26.0974L18.6634 27.6761C18.7282 27.5896 18.7715 27.4814 18.8147 27.3733L17.0198 26.3569L19.0094 26.9191C19.0526 26.811 19.0743 26.7029 19.1175 26.5948Z" fill="#878B92"/>
<path d="M78.7402 18.0741C74.7178 18.0741 71.4522 21.3397 71.4522 25.3621C71.4522 29.3845 74.7178 32.6501 78.7402 32.6501C82.7626 32.6501 86.0282 29.3845 86.0282 25.3621C86.0282 21.3397 82.7626 18.0741 78.7402 18.0741ZM78.7402 30.0117C76.1667 30.0117 74.0906 27.9356 74.0906 25.3621C74.0906 22.7886 76.1667 20.7125 78.7402 20.7125C81.3137 20.7125 83.3898 22.7886 83.3898 25.3621C83.3898 27.9356 81.3137 30.0117 78.7402 30.0117Z" fill="#878B92"/>
<path d="M83.2384 26.5948L80.1243 25.7297C80.1459 25.6216 80.1675 25.4918 80.1675 25.3621C80.1675 25.2323 80.1459 25.1242 80.1243 24.9944L83.2384 24.1294C83.2168 24.0213 83.1736 23.9131 83.1303 23.805L81.1407 24.3673L82.9357 23.3509C82.8924 23.2427 82.8275 23.1562 82.7843 23.0481L79.9729 24.6268C79.8431 24.4105 79.6701 24.2375 79.4755 24.1294L81.0542 21.318C80.9677 21.2531 80.8596 21.2099 80.7514 21.1666L79.735 22.9616L80.2973 20.972C80.1892 20.9287 80.081 20.9071 79.9729 20.8639L79.1079 23.978C78.9997 23.9564 78.87 23.9348 78.7402 23.9348C78.6105 23.9348 78.5023 23.9564 78.3726 23.978L77.5075 20.8639C77.3994 20.8855 77.2913 20.9287 77.1832 20.972L77.7454 22.9616L76.729 21.1666C76.6209 21.2099 76.5344 21.2748 76.4262 21.318L78.0049 24.1294C77.7887 24.2592 77.6157 24.4322 77.5075 24.6268L74.6962 23.0481C74.6313 23.1346 74.588 23.2427 74.5448 23.3509L76.3397 24.3673L74.3501 23.805C74.3069 23.9131 74.2853 24.0213 74.242 24.1294L77.3562 24.9944C77.3345 25.1026 77.3129 25.2323 77.3129 25.3621C77.3129 25.4918 77.3345 25.6 77.3562 25.7297L74.242 26.5948C74.2636 26.7029 74.3069 26.811 74.3501 26.9191L76.3397 26.3569L74.5448 27.3733C74.588 27.4814 74.6529 27.5679 74.6962 27.6761L77.5075 26.0974C77.6373 26.3136 77.8103 26.4866 78.0049 26.5948L76.4262 29.4061C76.5127 29.471 76.6209 29.5143 76.729 29.5575L77.7454 27.7626L77.1832 29.7522C77.2913 29.7954 77.3994 29.817 77.5075 29.8603L78.3726 26.7461C78.4807 26.7678 78.6105 26.7894 78.7402 26.7894C78.87 26.7894 78.9781 26.7678 79.1079 26.7461L79.9729 29.8603C80.081 29.8387 80.1892 29.7954 80.2973 29.7522L79.735 27.7626L80.7514 29.5575C80.8596 29.5143 80.9461 29.4494 81.0542 29.4061L79.4755 26.5948C79.6918 26.465 79.8648 26.292 79.9729 26.0974L82.7843 27.6761C82.8492 27.5896 82.8924 27.4814 82.9357 27.3733L81.1407 26.3569L83.1303 26.9191C83.1736 26.811 83.1952 26.7029 83.2384 26.5948Z" fill="#878B92"/>
<path d="M98.3334 15.9548C98.9822 8.10456 94.7219 8.10456 94.7219 8.10456L89.2937 8.25594C87.542 7.15301 85.7254 6.13659 83.844 5.24992C80.2973 3.5631 76.5776 2.24391 72.7715 1.24912C67.9921 0.03806 62.8884 0.059688 58.0009 0.038062C54.411 0.038062 50.7346 -0.199825 47.1879 0.513833C44.29 1.09774 41.4787 2.11416 38.8187 3.39009C35.6613 4.90391 32.6769 6.807 29.8871 8.92634C29.3249 9.35886 28.7842 9.79138 28.2435 10.2455L10.0561 11.6728C3.97918 12.3433 2.18423 16.1494 1.68683 18.6364C0.735284 18.7445 0 19.5447 0 20.5179V25.7081C0 26.7462 0.86504 27.6112 1.90309 27.6112H3.89268H5.83902C5.64438 26.8975 5.53626 26.1406 5.53626 25.3621C5.53626 20.3449 9.60194 16.2576 14.6408 16.2576C19.658 16.2576 23.7453 20.3232 23.7453 25.3621C23.7453 26.1406 23.6372 26.8975 23.4426 27.6112H69.9385C69.7438 26.8975 69.6357 26.1406 69.6357 25.3621C69.6357 20.3449 73.7014 16.2576 78.7402 16.2576C83.7575 16.2576 87.8448 20.3232 87.8448 25.3621C87.8448 26.119 87.7367 26.8759 87.5637 27.5896L97.4251 25.7514C97.4251 25.7514 99.9986 25.1891 99.9986 23.0049V18.8959C99.977 18.8959 100.236 16.3008 98.3334 15.9548ZM2.2491 24.9728H0.735282V22.2696H2.2491C2.98439 22.2696 3.58992 22.8751 3.58992 23.6104C3.61154 24.3673 3.00601 24.9728 2.2491 24.9728ZM3.09252 18.7662C3.09252 18.7662 3.8278 12.6028 13.1054 13.2083C13.1054 13.2083 9.19105 17.2524 3.09252 18.7662ZM39.6404 5.09854C42.3437 3.80098 45.0037 2.87106 47.5556 2.37367C49.6533 1.96277 51.8375 1.8979 53.6757 1.8979C54.4326 1.8979 55.1895 1.8979 55.9248 1.91952C56.033 1.91952 56.1195 1.91952 56.2276 1.91952L53.8271 9.68326L31.0333 10.4185C33.8663 8.27757 36.7642 6.48261 39.6404 5.09854ZM53.7622 12.6676C53.7622 13.1002 53.4162 13.4462 52.9837 13.4462H49.0694C48.6369 13.4462 48.2908 13.1002 48.2908 12.6676C48.2908 12.2351 48.6369 11.8891 49.0694 11.8891H52.9837C53.4162 11.8891 53.7622 12.2351 53.7622 12.6676ZM62.8668 24.6917L29.9087 25.3405L63.9048 23.8483C63.9048 23.8483 65.8728 23.6536 66.9108 21.318C66.8892 21.2964 67.2785 24.5836 62.8668 24.6917ZM73.0094 12.8406H69.0951C68.6625 12.8406 68.3165 12.4946 68.3165 12.0621C68.3165 11.6296 68.6625 11.2836 69.0951 11.2836H73.0094C73.4419 11.2836 73.7879 11.6296 73.7879 12.0621C73.7879 12.4946 73.4202 12.8406 73.0094 12.8406ZM77.7887 7.45578C77.7887 7.45578 77.0102 8.92634 74.5881 9.03447L57.7847 9.57513L59.1038 1.96277C63.5372 1.9844 68.1003 2.04928 72.2957 3.10895C74.0042 3.5631 75.691 4.06049 77.3129 4.6444C77.3346 4.62277 79.1511 5.40131 77.7887 7.45578ZM97.4684 15.9332H94.8084C93.7703 15.9332 92.9053 15.0681 92.9053 14.0301V13.9868C92.9053 12.9488 93.7703 12.0837 94.8084 12.0837H97.317C97.5332 13.0785 97.5981 14.3545 97.4684 15.9332Z" fill="#878B92"/>
</svg>
