<svg width="100" height="41" viewBox="0 0 100 41" fill="none" xmlns="http://www.w3.org/2000/svg">
<path d="M15.0113 24.2373C10.3828 24.2373 6.62988 27.9902 6.62988 32.6187C6.62988 37.2473 10.3828 41.0001 15.0113 41.0001C19.6398 41.0001 23.3927 37.2473 23.3927 32.6187C23.3927 27.9902 19.6398 24.2373 15.0113 24.2373ZM15.0113 37.9978C12.0507 37.9978 9.63218 35.6002 9.63218 32.6187C9.63218 29.6581 12.0299 27.2396 15.0113 27.2396C17.9719 27.2396 20.3904 29.6373 20.3904 32.6187C20.3696 35.6002 17.9719 37.9978 15.0113 37.9978Z" fill="#666666"/>
<path d="M20.1821 34.0571L16.596 33.0564C16.6377 32.9313 16.6586 32.7853 16.6586 32.6394C16.6586 32.4934 16.6377 32.3683 16.596 32.2224L20.1821 31.2216C20.1404 31.0965 20.0987 30.9714 20.057 30.8463L17.7635 31.4927L19.8485 30.3251C19.7859 30.2 19.7442 30.0958 19.6608 29.9915L16.4083 31.8263C16.2624 31.5761 16.0748 31.3884 15.8246 31.2425L17.6593 27.99C17.5551 27.9274 17.43 27.8649 17.3257 27.8023L16.1582 29.8873L16.8045 27.5938C16.6794 27.5521 16.5543 27.5104 16.4292 27.4688L15.4284 31.0548C15.3033 31.0131 15.1574 30.9923 15.0115 30.9923C14.8655 30.9923 14.7404 31.0131 14.5945 31.0548L13.5937 27.4688C13.4686 27.5104 13.3435 27.5521 13.2184 27.5938L13.8647 29.8873L12.6972 27.8023C12.5721 27.8649 12.4678 27.9066 12.3636 27.99L14.1983 31.2425C13.9481 31.3884 13.7605 31.5761 13.6145 31.8263L10.3621 29.9915C10.2995 30.0958 10.237 30.2209 10.1744 30.3251L12.2593 31.4927L9.96591 30.8463C9.92421 30.9714 9.88252 31.0965 9.84082 31.2216L13.4269 32.2224C13.3852 32.3475 13.3644 32.4934 13.3644 32.6394C13.3644 32.7853 13.3852 32.9104 13.4269 33.0564L9.84082 34.0571C9.88252 34.1822 9.92421 34.3073 9.96591 34.4324L12.2593 33.7861L10.1744 34.9536C10.237 35.0787 10.2787 35.183 10.3621 35.2872L13.6145 33.4525C13.7605 33.7027 13.9481 33.8903 14.1983 34.0363L12.3636 37.2888C12.4678 37.3513 12.5929 37.4139 12.6972 37.4764L13.8647 35.3915L13.2184 37.6849C13.3435 37.7266 13.4686 37.7683 13.5937 37.81L14.5945 34.2239C14.7196 34.2656 14.8655 34.2865 15.0115 34.2865C15.1574 34.2865 15.2825 34.2656 15.4284 34.2239L16.4292 37.81C16.5543 37.7683 16.6794 37.7266 16.8045 37.6849L16.1582 35.3915L17.3257 37.4764C17.4508 37.4139 17.5551 37.3722 17.6593 37.2888L15.8246 34.0363C16.0748 33.8903 16.2624 33.7027 16.4083 33.4525L19.6608 35.2872C19.7234 35.183 19.7859 35.0579 19.8485 34.9536L17.7635 33.7861L20.057 34.4324C20.0987 34.3073 20.1404 34.1822 20.1821 34.0571Z" fill="#666666"/>
<path d="M80.1027 24.2373C75.4742 24.2373 71.7213 27.9902 71.7213 32.6187C71.7213 37.2473 75.4742 41.0001 80.1027 41.0001C84.7313 41.0001 88.4841 37.2473 88.4841 32.6187C88.505 27.9902 84.7521 24.2373 80.1027 24.2373ZM80.1027 37.9978C77.1421 37.9978 74.7236 35.6002 74.7236 32.6187C74.7236 29.6581 77.1213 27.2396 80.1027 27.2396C83.0633 27.2396 85.4818 29.6373 85.4818 32.6187C85.4818 35.6002 83.0842 37.9978 80.1027 37.9978Z" fill="#666666"/>
<path d="M85.2945 34.0571L81.7084 33.0564C81.7501 32.9313 81.771 32.7853 81.771 32.6394C81.771 32.4934 81.7501 32.3683 81.7084 32.2224L85.2945 31.2216C85.2528 31.0965 85.2111 30.9714 85.1694 30.8463L82.876 31.4927L84.9609 30.3251C84.8984 30.2 84.8567 30.0958 84.7733 29.9915L81.5208 31.8263C81.3748 31.5761 81.1872 31.3884 80.937 31.2425L82.7717 27.99C82.6675 27.9274 82.5424 27.8649 82.4381 27.8023L81.2706 29.8873L81.9169 27.5938C81.7918 27.5521 81.6667 27.5104 81.5416 27.4688L80.5408 31.0548C80.4157 31.0131 80.2698 30.9923 80.1239 30.9923C79.9779 30.9923 79.8528 31.0131 79.7069 31.0548L78.7061 27.4688C78.581 27.5104 78.4559 27.5521 78.3308 27.5938L78.9771 29.8873L77.8096 27.8023C77.6845 27.8649 77.5803 27.9066 77.476 27.99L79.3108 31.2425C79.0606 31.3884 78.8729 31.5761 78.727 31.8263L75.4745 29.9915C75.4119 30.0958 75.3494 30.2209 75.2868 30.3251L77.3718 31.4927L75.0783 30.8463C75.0366 30.9714 74.9949 31.0965 74.9532 31.2216L78.5393 32.2224C78.4976 32.3475 78.4768 32.4934 78.4768 32.6394C78.4768 32.7853 78.4976 32.9104 78.5393 33.0564L74.9532 34.0571C74.9949 34.1822 75.0366 34.3073 75.0783 34.4324L77.3718 33.7861L75.2868 34.9536C75.3494 35.0787 75.3911 35.183 75.4745 35.2872L78.727 33.4525C78.8729 33.7027 79.0606 33.8903 79.3108 34.0363L77.476 37.2888C77.5803 37.3513 77.7053 37.4139 77.8096 37.4764L78.9771 35.3915L78.3308 37.6849C78.4559 37.7266 78.581 37.7683 78.7061 37.81L79.7069 34.2239C79.832 34.2656 79.9779 34.2865 80.1239 34.2865C80.2698 34.2865 80.3949 34.2656 80.5408 34.2239L81.5416 37.81C81.6667 37.7683 81.7918 37.7266 81.9169 37.6849L81.2706 35.3915L82.4381 37.4764C82.5632 37.4139 82.6675 37.3722 82.7717 37.2888L80.937 34.0363C81.1872 33.8903 81.3748 33.7027 81.5208 33.4525L84.7733 35.2872C84.8358 35.183 84.8984 35.0579 84.9609 34.9536L82.876 33.7861L85.1694 34.4324C85.2111 34.3073 85.2528 34.1822 85.2945 34.0571Z" fill="#666666"/>
<path d="M98.2626 22.1942V15.8768C98.2626 15.8768 98.5545 14.8135 97.1993 11.8112L92.3832 4.57651C92.3832 4.57651 90.4233 1.86611 87.7129 1.57422C87.7129 1.57422 49.4753 -1.13619 38.0499 4.88925L26.9164 11.5193L8.11038 14.0838C8.11038 14.0838 1.3135 14.8344 1.16755 25.8428C0.479528 26.1138 0 26.781 0 27.5524V30.8883C0 31.8891 0.833956 32.723 1.83472 32.723H4.3575L4.37835 32.7439H4.98298C4.98298 32.7022 4.98298 32.6813 4.98298 32.6396C4.98298 27.0729 9.48641 22.5694 15.0532 22.5694C20.6199 22.5694 25.1234 27.0729 25.1234 32.6396C25.1234 32.6813 25.1234 32.7022 25.1234 32.7439H70.0953C70.0953 32.7022 70.0953 32.6813 70.0953 32.6396C70.0953 27.0729 74.5987 22.5694 80.1655 22.5694C85.5863 22.5694 90.0063 26.8644 90.2148 32.2435L96.5113 31.8265C96.5113 31.8265 99.0758 31.6806 99.5136 28.8242C99.4511 28.8242 101.265 23.5494 98.2626 22.1942ZM3.39842 29.3455C3.39842 30.1169 2.77295 30.7424 2.00153 30.7424H0.583765V27.9486H2.00153C2.7521 27.9486 3.39842 28.574 3.39842 29.3455ZM3.10655 22.3193C3.10655 22.3193 3.81541 15.4181 12.7598 16.1062C12.7806 16.1062 9.00689 20.6096 3.10655 22.3193ZM56.168 3.13791C59.7749 2.90857 63.7988 2.80432 68.2397 2.80432C72.6389 2.80432 76.7462 2.90857 79.9778 3.05451L77.5385 11.3108L54.6876 11.7904L56.168 3.13791ZM75.8914 13.9587C75.8914 14.1672 75.808 14.3548 75.662 14.5008C75.6412 14.5216 75.6412 14.5216 75.6203 14.5216C75.5578 14.5633 75.4952 14.6259 75.4327 14.6467C75.3493 14.6884 75.2451 14.7093 75.1408 14.7093H71.3671C71.2628 14.7093 71.1586 14.6884 71.0752 14.6467C71.0127 14.6259 70.9501 14.5633 70.8876 14.5216C70.8667 14.5008 70.8667 14.5008 70.8458 14.5008C70.6999 14.3548 70.6165 14.1672 70.6165 13.9587C70.6165 13.5417 70.9501 13.2081 71.3671 13.2081H75.1408C75.5578 13.2081 75.8914 13.5417 75.8914 13.9587ZM38.2793 6.49464C41.1565 4.9935 46.2437 3.93018 53.2908 3.3464L50.7054 11.8529L28.4593 12.3116L38.2793 6.49464ZM49.4128 14.8344C49.4128 15.0428 49.3294 15.2096 49.1835 15.3347C49.1626 15.3556 49.1626 15.3556 49.1417 15.3556C49.0792 15.3973 49.0166 15.4598 48.9541 15.4807C48.8707 15.5224 48.7665 15.5432 48.6622 15.5432H44.8885C44.7842 15.5432 44.68 15.5224 44.5966 15.4807C44.5341 15.4598 44.4715 15.3973 44.409 15.3556C44.3881 15.3347 44.3881 15.3347 44.3673 15.3347C44.2213 15.1888 44.1379 15.0012 44.1379 14.7927C44.1379 14.3757 44.4715 14.0421 44.8885 14.0421H48.6622C49.0792 14.0421 49.4128 14.3757 49.4128 14.7927C49.4336 14.8135 49.4128 14.8135 49.4128 14.8344ZM32.4623 20.5679C28.8137 20.4637 28.0423 23.9872 28.0423 23.9872C28.2716 19.3378 32.4623 19.5671 32.4623 19.5671L89.6936 17.5865L32.4623 20.5679ZM90.5276 11.0189L80.374 11.2274L82.0211 3.11706C84.794 3.24216 86.5871 3.36725 86.8789 3.3881C88.4009 3.57575 89.777 5.18114 90.194 5.72322C93.4882 10.5186 90.5276 11.0189 90.5276 11.0189ZM97.2411 22.1942H93.9885C92.8418 22.1942 91.8828 21.2559 91.8828 20.0884V20.0258C91.8828 18.8791 92.821 17.9201 93.9885 17.9201H97.2411V22.1942Z" fill="#666666"/>
</svg>
