<svg width="100" height="41" viewBox="0 0 100 41" fill="none" xmlns="http://www.w3.org/2000/svg">
<path d="M15.0113 23.2711C10.3828 23.2711 6.62991 27.024 6.62991 31.6525C6.62991 36.281 10.3828 40.0339 15.0113 40.0339C19.6399 40.0339 23.3927 36.281 23.3927 31.6525C23.3927 27.024 19.6399 23.2711 15.0113 23.2711ZM15.0113 37.0316C12.0507 37.0316 9.63221 34.6339 9.63221 31.6525C9.63221 28.6919 12.0299 26.2734 15.0113 26.2734C17.9719 26.2734 20.3904 28.6711 20.3904 31.6525C20.3696 34.6339 17.9719 37.0316 15.0113 37.0316Z" fill="#878B92"/>
<path d="M20.1821 33.0911L16.5961 32.0904C16.6378 31.9653 16.6586 31.8193 16.6586 31.6734C16.6586 31.5274 16.6378 31.4023 16.5961 31.2564L20.1821 30.2556C20.1404 30.1305 20.0987 30.0054 20.057 29.8803L17.7636 30.5267L19.8485 29.3591C19.786 29.234 19.7443 29.1297 19.6609 29.0255L16.4084 30.8602C16.2625 30.6101 16.0748 30.4224 15.8246 30.2765L17.6594 27.024C17.5551 26.9614 17.43 26.8989 17.3258 26.8363L16.1582 28.9213L16.8046 26.6278C16.6795 26.5861 16.5544 26.5444 16.4293 26.5027L15.4285 30.0888C15.3034 30.0471 15.1575 30.0263 15.0115 30.0263C14.8656 30.0263 14.7405 30.0471 14.5945 30.0888L13.5938 26.5027C13.4687 26.5444 13.3436 26.5861 13.2185 26.6278L13.8648 28.9213L12.6973 26.8363C12.5722 26.8989 12.4679 26.9406 12.3636 27.024L14.1984 30.2765C13.9482 30.4224 13.7605 30.6101 13.6146 30.8602L10.3621 29.0255C10.2996 29.1297 10.237 29.2548 10.1745 29.3591L12.2594 30.5267L9.96598 29.8803C9.92428 30.0054 9.88259 30.1305 9.84089 30.2556L13.427 31.2564C13.3853 31.3815 13.3644 31.5274 13.3644 31.6734C13.3644 31.8193 13.3853 31.9444 13.427 32.0904L9.84089 33.0911C9.88259 33.2162 9.92428 33.3413 9.96598 33.4664L12.2594 32.8201L10.1745 33.9876C10.237 34.1127 10.2787 34.217 10.3621 34.3212L13.6146 32.4865C13.7605 32.7367 13.9482 32.9243 14.1984 33.0703L12.3636 36.3228C12.4679 36.3853 12.593 36.4478 12.6973 36.5104L13.8648 34.4255L13.2185 36.7189C13.3436 36.7606 13.4687 36.8023 13.5938 36.844L14.5945 33.2579C14.7196 33.2996 14.8656 33.3205 15.0115 33.3205C15.1575 33.3205 15.2826 33.2996 15.4285 33.2579L16.4293 36.844C16.5544 36.8023 16.6795 36.7606 16.8046 36.7189L16.1582 34.4255L17.3258 36.5104C17.4509 36.4478 17.5551 36.4061 17.6594 36.3228L15.8246 33.0703C16.0748 32.9243 16.2625 32.7367 16.4084 32.4865L19.6609 34.3212C19.7234 34.217 19.786 34.0919 19.8485 33.9876L17.7636 32.8201L20.057 33.4664C20.0987 33.3413 20.1404 33.2162 20.1821 33.0911Z" fill="#878B92"/>
<path d="M80.1027 23.2711C75.4742 23.2711 71.7213 27.024 71.7213 31.6525C71.7213 36.281 75.4742 40.0339 80.1027 40.0339C84.7312 40.0339 88.4841 36.281 88.4841 31.6525C88.505 27.024 84.7521 23.2711 80.1027 23.2711ZM80.1027 37.0316C77.1421 37.0316 74.7236 34.6339 74.7236 31.6525C74.7236 28.6919 77.1212 26.2734 80.1027 26.2734C83.0633 26.2734 85.4818 28.6711 85.4818 31.6525C85.4818 34.6339 83.0841 37.0316 80.1027 37.0316Z" fill="#878B92"/>
<path d="M85.2945 33.0911L81.7084 32.0904C81.7501 31.9653 81.771 31.8193 81.771 31.6734C81.771 31.5274 81.7501 31.4023 81.7084 31.2564L85.2945 30.2556C85.2528 30.1305 85.2111 30.0054 85.1694 29.8803L82.876 30.5267L84.9609 29.3591C84.8984 29.234 84.8567 29.1297 84.7733 29.0255L81.5208 30.8602C81.3748 30.6101 81.1872 30.4224 80.937 30.2765L82.7717 27.024C82.6675 26.9614 82.5424 26.8989 82.4382 26.8363L81.2706 28.9213L81.9169 26.6278C81.7918 26.5861 81.6667 26.5444 81.5416 26.5027L80.5409 30.0888C80.4158 30.0471 80.2698 30.0263 80.1239 30.0263C79.9779 30.0263 79.8528 30.0471 79.7069 30.0888L78.7061 26.5027C78.581 26.5444 78.4559 26.5861 78.3308 26.6278L78.9772 28.9213L77.8096 26.8363C77.6845 26.8989 77.5803 26.9406 77.476 27.024L79.3108 30.2765C79.0606 30.4224 78.8729 30.6101 78.727 30.8602L75.4745 29.0255C75.4119 29.1297 75.3494 29.2548 75.2868 29.3591L77.3718 30.5267L75.0784 29.8803C75.0367 30.0054 74.995 30.1305 74.9533 30.2556L78.5393 31.2564C78.4976 31.3815 78.4768 31.5274 78.4768 31.6734C78.4768 31.8193 78.4976 31.9444 78.5393 32.0904L74.9533 33.0911C74.995 33.2162 75.0367 33.3413 75.0784 33.4664L77.3718 32.8201L75.2868 33.9876C75.3494 34.1127 75.3911 34.217 75.4745 34.3212L78.727 32.4865C78.8729 32.7367 79.0606 32.9243 79.3108 33.0703L77.476 36.3228C77.5803 36.3853 77.7054 36.4478 77.8096 36.5104L78.9772 34.4255L78.3308 36.7189C78.4559 36.7606 78.581 36.8023 78.7061 36.844L79.7069 33.2579C79.832 33.2996 79.9779 33.3205 80.1239 33.3205C80.2698 33.3205 80.3949 33.2996 80.5409 33.2579L81.5416 36.844C81.6667 36.8023 81.7918 36.7606 81.9169 36.7189L81.2706 34.4255L82.4382 36.5104C82.5633 36.4478 82.6675 36.4061 82.7717 36.3228L80.937 33.0703C81.1872 32.9243 81.3748 32.7367 81.5208 32.4865L84.7733 34.3212C84.8358 34.217 84.8984 34.0919 84.9609 33.9876L82.876 32.8201L85.1694 33.4664C85.2111 33.3413 85.2528 33.2162 85.2945 33.0911Z" fill="#878B92"/>
<path d="M98.2626 21.2278V14.9105C98.2626 14.9105 98.5545 13.8472 97.1993 10.8449L92.3832 3.6102C92.3832 3.6102 90.4233 0.899797 87.7129 0.607907C87.7129 0.607907 49.4753 -2.1025 38.0499 3.92294L26.9164 10.553L8.11038 13.1175C8.11038 13.1175 1.3135 13.868 1.16755 24.8765C0.479528 25.1475 0 25.8147 0 26.5861V29.922C0 30.9228 0.833956 31.7567 1.83472 31.7567H4.3575L4.37835 31.7776H4.98298C4.98298 31.7359 4.98298 31.715 4.98298 31.6733C4.98298 26.1066 9.48641 21.6031 15.0532 21.6031C20.6199 21.6031 25.1234 26.1066 25.1234 31.6733C25.1234 31.715 25.1234 31.7359 25.1234 31.7776H70.0953C70.0953 31.7359 70.0953 31.715 70.0953 31.6733C70.0953 26.1066 74.5987 21.6031 80.1655 21.6031C85.5863 21.6031 90.0063 25.8981 90.2148 31.2772L96.5113 30.8602C96.5113 30.8602 99.0758 30.7143 99.5136 27.8579C99.4511 27.8579 101.265 22.583 98.2626 21.2278ZM3.39842 28.3791C3.39842 29.1506 2.77295 29.7761 2.00153 29.7761H0.583765V26.9823H2.00153C2.7521 26.9823 3.39842 27.6077 3.39842 28.3791ZM3.10655 21.3529C3.10655 21.3529 3.81541 14.4518 12.7598 15.1399C12.7806 15.1399 9.00689 19.6433 3.10655 21.3529ZM56.168 2.1716C59.7749 1.94226 63.7988 1.83801 68.2397 1.83801C72.6389 1.83801 76.7462 1.94226 79.9778 2.0882L77.5385 10.3445L54.6876 10.8241L56.168 2.1716ZM75.8914 12.9924C75.8914 13.2009 75.808 13.3885 75.662 13.5345C75.6412 13.5553 75.6412 13.5553 75.6203 13.5553C75.5578 13.597 75.4952 13.6596 75.4327 13.6804C75.3493 13.7221 75.2451 13.743 75.1408 13.743H71.3671C71.2628 13.743 71.1586 13.7221 71.0752 13.6804C71.0127 13.6596 70.9501 13.597 70.8876 13.5553C70.8667 13.5345 70.8667 13.5345 70.8458 13.5345C70.6999 13.3885 70.6165 13.2009 70.6165 12.9924C70.6165 12.5754 70.9501 12.2418 71.3671 12.2418H75.1408C75.5578 12.2418 75.8914 12.5754 75.8914 12.9924ZM38.2793 5.52834C41.1565 4.02719 46.2437 2.96388 53.2908 2.3801L50.7054 10.8866L28.4593 11.3453L38.2793 5.52834ZM49.4128 13.868C49.4128 14.0765 49.3294 14.2433 49.1835 14.3684C49.1626 14.3893 49.1626 14.3893 49.1417 14.3893C49.0792 14.431 49.0166 14.4935 48.9541 14.5144C48.8707 14.5561 48.7665 14.5769 48.6622 14.5769H44.8885C44.7842 14.5769 44.68 14.5561 44.5966 14.5144C44.5341 14.4935 44.4715 14.431 44.409 14.3893C44.3881 14.3684 44.3881 14.3684 44.3673 14.3684C44.2213 14.2225 44.1379 14.0348 44.1379 13.8264C44.1379 13.4094 44.4715 13.0758 44.8885 13.0758H48.6622C49.0792 13.0758 49.4128 13.4094 49.4128 13.8264C49.4336 13.8472 49.4128 13.8472 49.4128 13.868ZM32.4623 19.6016C28.8137 19.4974 28.0423 23.0209 28.0423 23.0209C28.2716 18.3715 32.4623 18.6008 32.4623 18.6008L89.6936 16.6202L32.4623 19.6016ZM90.5276 10.0526L80.374 10.2611L82.0211 2.15075C84.794 2.27585 86.5871 2.40094 86.8789 2.42179C88.4009 2.60944 89.777 4.21483 90.194 4.75691C93.4882 9.55225 90.5276 10.0526 90.5276 10.0526ZM97.2411 21.2278H93.9885C92.8418 21.2278 91.8828 20.2896 91.8828 19.1221V19.0595C91.8828 17.9128 92.821 16.9537 93.9885 16.9537H97.2411V21.2278Z" fill="#878B92"/>
</svg>
