<svg width="277" height="192" viewBox="0 0 277 192" fill="none" xmlns="http://www.w3.org/2000/svg">
<g clip-path="url(#clip0_214_4690)">
<path d="M55.4912 192C85.8619 192 110.482 190.13 110.482 187.824C110.482 185.518 85.8619 183.648 55.4912 183.648C25.1204 183.648 0.5 185.518 0.5 187.824C0.5 190.13 25.1204 192 55.4912 192Z" fill="#E6E6E6"/>
<path d="M42.5342 42.6014C52.1044 38.5315 64.0241 41.1102 75.665 42.8998C75.7733 40.7325 77.0864 38.0948 75.7109 36.5827C74.0399 34.7457 74.1938 32.8156 75.1993 30.8743C77.7706 25.9101 74.0866 20.628 70.3669 16.236C69.5285 15.2483 68.469 14.4722 67.2743 13.9708C66.0796 13.4695 64.7834 13.2569 63.4912 13.3505L56.6007 13.8426C54.924 13.9623 53.3239 14.5912 52.0144 15.6451C50.7049 16.699 49.7486 18.1276 49.2734 19.7398C47.6281 21.9771 46.7475 24.2082 47.3019 26.4277C44.8375 28.1116 44.4234 30.1442 45.5309 32.4357C46.4699 33.8784 46.4599 35.2828 45.4881 36.6483C44.2119 38.3893 43.2345 40.3305 42.5958 42.3924L42.5342 42.6014Z" fill="#2F2E41"/>
<path d="M269.96 165.981H74.909C73.1745 165.981 71.5109 165.292 70.2844 164.066C69.0579 162.839 68.3689 161.176 68.3689 159.442C139.075 151.225 208.452 151.225 276.5 159.442C276.5 161.176 275.811 162.839 274.584 164.066C273.358 165.292 271.694 165.981 269.96 165.981Z" fill="#2F2E41"/>
<path d="M276.5 159.826L68.3689 159.442L92.4905 118.86L92.6059 118.668V29.2303C92.6058 28.1448 92.8196 27.0698 93.2351 26.0668C93.6505 25.0639 94.2595 24.1526 95.0272 23.3849C95.795 22.6173 96.7064 22.0084 97.7095 21.593C98.7126 21.1777 99.7877 20.9639 100.873 20.964H242.841C243.927 20.9639 245.002 21.1777 246.005 21.593C247.008 22.0084 247.92 22.6173 248.687 23.3849C249.455 24.1526 250.064 25.0639 250.48 26.0668C250.895 27.0698 251.109 28.1448 251.109 29.2303V119.283L276.5 159.826Z" fill="#3F3D56"/>
<path d="M100.685 26.7339C99.971 26.7347 99.2865 27.0186 98.7816 27.5234C98.2767 28.0282 97.9927 28.7126 97.9919 29.4265V110.974C97.9928 111.688 98.2768 112.373 98.7816 112.878C99.2865 113.382 99.971 113.666 100.685 113.667H244.184C244.898 113.666 245.582 113.382 246.087 112.878C246.592 112.373 246.876 111.688 246.877 110.974V29.4265C246.876 28.7126 246.592 28.0282 246.087 27.5235C245.582 27.0187 244.898 26.7347 244.184 26.7339H100.685Z" fill="white"/>
<path d="M101.286 124.438C101.066 124.438 100.85 124.501 100.664 124.62C100.478 124.739 100.33 124.909 100.238 125.109L92.805 141.265C92.7241 141.441 92.6887 141.634 92.7021 141.827C92.7155 142.02 92.7773 142.207 92.8817 142.37C92.9861 142.533 93.1298 142.667 93.2996 142.76C93.4694 142.853 93.6599 142.901 93.8534 142.901H250.158C250.355 142.901 250.548 142.851 250.72 142.755C250.892 142.659 251.036 142.521 251.14 142.354C251.243 142.187 251.302 141.996 251.311 141.799C251.32 141.603 251.278 141.407 251.19 141.231L243.111 125.075C243.016 124.883 242.868 124.722 242.686 124.609C242.504 124.496 242.293 124.437 242.079 124.438H101.286Z" fill="#2F2E41"/>
<path d="M171.857 25.3876C172.813 25.3876 173.589 24.6126 173.589 23.6566C173.589 22.7006 172.813 21.9257 171.857 21.9257C170.901 21.9257 170.126 22.7006 170.126 23.6566C170.126 24.6126 170.901 25.3876 171.857 25.3876Z" fill="white"/>
<path d="M156.494 145.979C156.24 145.979 155.994 146.063 155.792 146.217C155.591 146.371 155.446 146.588 155.38 146.832L153.515 153.756C153.469 153.927 153.463 154.107 153.497 154.28C153.532 154.454 153.606 154.618 153.713 154.758C153.821 154.899 153.96 155.013 154.119 155.091C154.278 155.17 154.452 155.21 154.63 155.21H190.086C190.27 155.21 190.452 155.166 190.615 155.082C190.779 154.998 190.92 154.876 191.026 154.726C191.133 154.576 191.202 154.403 191.228 154.221C191.255 154.038 191.237 153.853 191.177 153.679L188.78 146.755C188.701 146.528 188.554 146.332 188.358 146.193C188.163 146.053 187.929 145.979 187.689 145.979H156.494Z" fill="#2F2E41"/>
<path d="M251.393 117.013V118.551H92.7746L92.894 118.359V117.013H251.393Z" fill="#2F2E41"/>
<path d="M246.685 53.8524C261.558 53.8524 273.615 41.7972 273.615 26.9262C273.615 12.0553 261.558 0 246.685 0C231.811 0 219.754 12.0553 219.754 26.9262C219.754 41.7972 231.811 53.8524 246.685 53.8524Z" fill="#00B0FF"/>
<path d="M257.841 38.6583H235.528C235.12 38.6579 234.729 38.4957 234.44 38.2072C234.152 37.9187 233.989 37.5276 233.989 37.1197V23.6566C233.989 23.2486 234.152 22.8575 234.44 22.5691C234.729 22.2806 235.12 22.1184 235.528 22.1179H257.841C258.249 22.1184 258.64 22.2806 258.929 22.5691C259.217 22.8575 259.38 23.2486 259.38 23.6566V37.1197C259.38 37.5276 259.217 37.9187 258.929 38.2072C258.64 38.4957 258.249 38.6579 257.841 38.6583ZM235.528 23.6566V37.1197H257.842L257.841 23.6566L235.528 23.6566Z" fill="white"/>
<path d="M253.609 23.6566H239.76V17.502C239.76 13.0443 242.672 9.80884 246.685 9.80884C250.697 9.80884 253.609 13.0443 253.609 17.502L253.609 23.6566ZM241.299 22.118H252.071V17.502C252.071 13.8784 249.856 11.3475 246.685 11.3475C243.513 11.3475 241.299 13.8784 241.299 17.502L241.299 22.118Z" fill="white"/>
<path d="M246.685 31.5421C247.534 31.5421 248.223 30.8533 248.223 30.0035C248.223 29.1537 247.534 28.4648 246.685 28.4648C245.835 28.4648 245.146 29.1537 245.146 30.0035C245.146 30.8533 245.835 31.5421 246.685 31.5421Z" fill="white"/>
<path d="M227.885 86.0069H116.984C116.439 86.0063 115.917 85.7897 115.532 85.4048C115.147 85.0198 114.931 84.4979 114.93 83.9535V56.4476C114.931 55.9032 115.147 55.3813 115.532 54.9963C115.917 54.6114 116.439 54.3948 116.984 54.3942H227.885C228.429 54.3948 228.951 54.6114 229.337 54.9963C229.722 55.3813 229.938 55.9032 229.939 56.4476V83.9535C229.938 84.4979 229.722 85.0198 229.337 85.4048C228.951 85.7897 228.429 86.0063 227.885 86.0069ZM116.984 55.2155C116.657 55.2159 116.344 55.3458 116.113 55.5768C115.882 55.8078 115.752 56.1209 115.752 56.4476V83.9535C115.752 84.2801 115.882 84.5933 116.113 84.8243C116.344 85.0553 116.657 85.1852 116.984 85.1855H227.885C228.212 85.1852 228.525 85.0553 228.756 84.8243C228.987 84.5933 229.117 84.2801 229.117 83.9535V56.4476C229.117 56.1209 228.987 55.8078 228.756 55.5768C228.525 55.3458 228.212 55.2159 227.885 55.2155L116.984 55.2155Z" fill="#E6E6E6"/>
<path d="M134.216 77.5097C138.836 77.5097 142.581 73.7647 142.581 69.1451C142.581 64.5255 138.836 60.7805 134.216 60.7805C129.595 60.7805 125.85 64.5255 125.85 69.1451C125.85 73.7647 129.595 77.5097 134.216 77.5097Z" fill="#E6E6E6"/>
<path d="M153.537 63.5687C153.353 63.5684 153.172 63.6043 153.002 63.6742C152.833 63.7441 152.679 63.8468 152.549 63.9763C152.42 64.1058 152.317 64.2595 152.246 64.4288C152.176 64.5981 152.14 64.7796 152.14 64.9628C152.14 65.1461 152.176 65.3275 152.246 65.4968C152.317 65.6661 152.42 65.8199 152.549 65.9494C152.679 66.0789 152.833 66.1815 153.002 66.2514C153.172 66.3214 153.353 66.3572 153.537 66.3569H219.268C219.637 66.3569 219.992 66.21 220.254 65.9486C220.515 65.6871 220.662 65.3326 220.662 64.9628C220.662 64.5931 220.515 64.2385 220.254 63.977C219.992 63.7156 219.637 63.5687 219.268 63.5687H153.537Z" fill="#E6E6E6"/>
<path d="M153.537 71.9333C153.167 71.9333 152.812 72.0802 152.551 72.3417C152.289 72.6031 152.142 72.9577 152.142 73.3274C152.142 73.6972 152.289 74.0518 152.551 74.3132C152.812 74.5747 153.167 74.7215 153.537 74.7215H181.821C182.191 74.7215 182.545 74.5747 182.807 74.3132C183.068 74.0518 183.215 73.6972 183.215 73.3274C183.215 72.9577 183.068 72.6031 182.807 72.3417C182.545 72.0802 182.191 71.9333 181.821 71.9333H153.537Z" fill="#E6E6E6"/>
<path d="M92.2176 72.4972L71.7167 83.3949L71.4572 74.3135C78.1485 73.1966 84.5147 71.252 90.4011 68.0862L92.5452 62.7897C92.7788 62.2126 93.1586 61.7061 93.6471 61.32C94.1356 60.9339 94.7162 60.6815 95.3318 60.5875C95.9474 60.4935 96.5768 60.5612 97.1583 60.7839C97.7398 61.0066 98.2534 61.3767 98.6487 61.8578C99.227 62.5618 99.5161 63.4591 99.4574 64.3682C99.3986 65.2773 98.9965 66.13 98.3325 66.7537L92.2176 72.4972Z" fill="#FFB8B8"/>
<path d="M42.1256 135.416C41.976 134.868 41.9443 134.294 42.0324 133.732C42.1206 133.171 42.3266 132.634 42.637 132.158L47.1404 125.248C48.2056 123.613 49.84 122.433 51.7266 121.935C53.6132 121.437 55.6174 121.658 57.3503 122.554C55.4577 125.776 55.7215 128.601 58.004 131.057C54.4607 132.787 51.1859 135.019 48.281 137.685C47.7507 138.046 47.1416 138.276 46.5046 138.354C45.8676 138.433 45.2211 138.358 44.6189 138.136C44.0166 137.914 43.4762 137.551 43.0425 137.078C42.6088 136.605 42.2944 136.035 42.1256 135.416Z" fill="#2F2E41"/>
<path d="M93.1513 126.381C92.4699 127.517 91.5079 128.458 90.3578 129.115C89.2076 129.772 87.9079 130.122 86.5834 130.132L56.6653 130.359L55.3678 122.834L68.6026 118.942L57.4439 110.38L69.6406 96.1089L91.7937 116.753C93.0885 117.96 93.9298 119.575 94.1769 121.327C94.424 123.079 94.062 124.863 93.1513 126.381Z" fill="#2F2E41"/>
<path d="M51.9942 177.841H44.9876C38.6966 134.725 32.2931 91.4891 51.2157 75.3513L73.5332 78.9839L70.6786 97.9251L58.2224 112.196L51.9942 177.841Z" fill="#2F2E41"/>
<path d="M58.1534 187.608C57.6049 187.758 57.031 187.79 56.4693 187.702C55.9076 187.614 55.371 187.408 54.8946 187.097L47.2868 186.075C45.6521 185.01 44.4712 183.376 43.9734 181.489C43.4755 179.603 43.6962 177.599 44.5926 175.867C47.8144 177.759 50.6406 177.495 53.0966 175.212C54.8319 178.716 57.6911 178.502 60.4218 181.454C60.7833 181.984 61.0129 182.593 61.0915 183.23C61.17 183.867 61.0952 184.513 60.8733 185.115C60.6513 185.717 60.2887 186.258 59.8156 186.692C59.3425 187.125 58.7726 187.44 58.1534 187.608Z" fill="#2F2E41"/>
<path d="M68.6026 46.5504L55.6273 43.4368C57.7823 39.0263 57.9598 34.1188 56.9248 28.9066L65.748 28.6471C66.0245 35.1286 66.8609 41.1841 68.6026 46.5504Z" fill="#FFB8B8"/>
<path d="M72.1686 86.7964C62.7231 93.2319 56.0492 87.0166 50.9562 77.4271C51.6639 71.5593 50.518 64.5372 48.3957 56.9071C47.4519 53.5417 47.8043 49.9448 49.3833 46.8265C50.9623 43.7082 53.6533 41.2951 56.9248 40.0637L68.0836 44.7342C77.5586 52.4563 79.4236 60.8209 75.8687 69.6431L72.1686 86.7964Z" fill="#00B0FF"/>
<path d="M44.9876 53.0371L34.6074 58.4859L53.0323 69.3836L55.596 75.7065C55.7671 76.1285 55.8505 76.581 55.841 77.0363C55.8315 77.4915 55.7294 77.9401 55.5408 78.3547C55.3523 78.7692 55.0813 79.141 54.7444 79.4474C54.4074 79.7538 54.0116 79.9884 53.5811 80.1368C53.0916 80.3055 52.5698 80.3587 52.0563 80.2922C51.5429 80.2256 51.0519 80.0411 50.6217 79.7531C50.1915 79.4651 49.8338 79.0814 49.5766 78.6321C49.3195 78.1828 49.1699 77.6801 49.1395 77.1634L48.8802 72.7567L25.4624 65.0299C24.6734 64.7696 23.954 64.3331 23.3586 63.7537C22.7633 63.1742 22.3077 62.4668 22.0262 61.6852C21.616 60.5458 21.5951 59.3027 21.9669 58.1502C22.3386 56.9977 23.0819 56.001 24.0806 55.316L42.9116 42.3989L44.9876 53.0371Z" fill="#FFB8B8"/>
<path d="M55.3678 54.075C51.0386 52.1781 47.102 54.2387 42.133 55.8913L41.3545 42.1395C46.2885 39.5101 50.9926 38.8012 55.3678 40.8422L55.3678 54.075Z" fill="#00B0FF"/>
<path d="M60.5465 35.4589C65.1218 35.4589 68.8307 31.7504 68.8307 27.1758C68.8307 22.6013 65.1218 18.8928 60.5465 18.8928C55.9713 18.8928 52.2623 22.6013 52.2623 27.1758C52.2623 31.7504 55.9713 35.4589 60.5465 35.4589Z" fill="#FFB8B8"/>
<path d="M70.4571 26.1308C62.255 26.934 56.0051 25.5928 52.0107 21.7738V18.6984H69.761L70.4571 26.1308Z" fill="#2F2E41"/>
</g>
<defs>
<clipPath id="clip0_214_4690">
<rect width="276" height="192" fill="white" transform="translate(0.5)"/>
</clipPath>
</defs>
</svg>
