<svg width="229" height="213" viewBox="0 0 229 213" fill="none" xmlns="http://www.w3.org/2000/svg">
<g clip-path="url(#clip0_214_4890)">
<path d="M77.6812 95.7813C68.2296 95.7813 58.9902 92.9726 51.1315 87.7103C43.2727 82.448 37.1476 74.9685 33.5306 66.2176C29.9136 57.4668 28.9673 47.8375 30.8112 38.5477C32.6551 29.2578 37.2065 20.7245 43.8898 14.0269C50.5731 7.32924 59.0882 2.7681 68.3582 0.920226C77.6282 -0.927645 87.2368 0.0207517 95.9689 3.64548C104.701 7.27021 112.165 13.4085 117.416 21.2841C122.667 29.1596 125.469 38.4188 125.469 47.8907C125.455 60.5876 120.416 72.7605 111.457 81.7386C102.498 90.7167 90.351 95.7669 77.6812 95.7813ZM77.6812 0.754207C68.3784 0.754207 59.2846 3.51871 51.5496 8.69813C43.8146 13.8776 37.7859 21.2393 34.2259 29.8523C30.6659 38.4654 29.7344 47.943 31.5493 57.0865C33.3642 66.2301 37.8439 74.629 44.422 81.2212C51 87.8133 59.381 92.3027 68.505 94.1214C77.629 95.9402 87.0863 95.0067 95.6809 91.4391C104.276 87.8714 111.622 81.8298 116.79 74.0783C121.958 66.3267 124.717 57.2134 124.717 47.8907C124.717 35.3893 119.761 23.4 110.94 14.5602C102.119 5.72036 90.1558 0.754207 77.6812 0.754207Z" fill="#F2F2F2"/>
<path d="M47.7145 49.6075C46.3865 44.7555 57.0974 40.5947 59.91 44.5021C60.3011 43.9466 61.7465 43.6092 62.4097 43.7796C63.0588 43.9956 63.6587 44.3385 64.1747 44.7884C64.9229 45.3644 65.6983 45.9608 66.1574 46.789C66.62 47.6138 66.6914 48.7385 66.069 49.4542C65.5759 50.0233 64.1203 50.3914 63.3789 50.5414C62.862 50.6471 62.4267 50.7323 62.0526 50.7936C61.7128 50.303 61.5562 49.7081 61.6105 49.1134C61.3587 49.2836 61.1476 49.5075 60.9924 49.7692C60.8371 50.0308 60.7416 50.3236 60.7126 50.6266C60.7024 50.7527 64.8923 66.202 64.8923 66.202C64.3889 66.4891 63.8594 66.7276 63.3109 66.9142C62.2259 65.2524 61.3948 63.4374 60.8452 61.5293C60.7189 62.8052 60.7349 64.0912 60.8929 65.3635C60.9769 66.077 61.0972 66.7857 61.2534 67.4868C56.2745 68.5638 48.7857 68.2094 45.5277 63.6288L45.526 63.5719C45.5235 63.3911 45.4583 63.2168 45.3417 63.0788C45.225 62.9409 45.0641 62.8479 44.8865 62.8158C44.7089 62.7837 44.5257 62.8144 44.3683 62.9028C44.2109 62.9911 44.089 63.1316 44.0235 63.3001C43.9445 63.5022 43.8717 63.6771 43.8068 63.8162C42.858 60.4148 44.0857 56.4784 47.7145 49.6075Z" fill="#2F2E41"/>
<path d="M71.1946 204.805L74.9044 204.773L76.5465 190.099L71.0715 190.146L71.1946 204.805Z" fill="#A0616A"/>
<path d="M82.3504 209.355L76.4255 205.328L76.4031 202.668L75.129 202.753L71.1797 203.026L70.2114 203.091L69.5087 212.493L72.2917 212.468L72.7659 209.832L74.0571 212.455L81.4328 212.393C81.7863 212.39 82.1297 212.274 82.4127 212.061C82.6957 211.849 82.9036 211.551 83.006 211.212C83.1085 210.873 83.1001 210.51 82.9822 210.176C82.8642 209.842 82.6429 209.554 82.3504 209.355Z" fill="#2F2E41"/>
<path d="M34.2042 203.355L37.8719 203.914L41.8153 189.687L36.4021 188.862L34.2042 203.355Z" fill="#A0616A"/>
<path d="M44.4988 209.621L39.2861 204.703L39.685 202.073L38.4135 201.955L34.471 201.597L33.5048 201.507L31.323 210.678L34.0748 211.096L34.9602 208.568L35.82 211.363L43.1121 212.474C43.4617 212.528 43.819 212.467 44.1321 212.303C44.4451 212.138 44.6974 211.877 44.8523 211.559C45.0071 211.24 45.0563 210.88 44.9927 210.532C44.9291 210.183 44.756 209.864 44.4988 209.621Z" fill="#2F2E41"/>
<path d="M69.4884 102.288L80.0066 121.166C80.0066 121.166 79.5677 159.993 80.9656 161.434C82.3634 162.874 83.629 164.165 82.3634 164.154C81.0978 164.142 79.566 167.228 79.566 167.228L76.9481 196.402H70.347C70.347 196.402 65.7021 179.198 66.6922 169.387L58.8721 133.534C58.8721 133.534 53.2541 167.44 52.2416 168.454C51.2291 169.469 50.6183 169.462 51.683 170.48C52.7478 171.498 51.683 173.801 51.683 173.801L40.5835 196.887L34.563 196.126C34.563 196.126 35.6067 177.28 39.2413 169.189V130.954C38.9676 134.232 51.7729 101.052 43.9422 103.542C46.4197 102.754 69.4884 102.288 69.4884 102.288Z" fill="#2F2E41"/>
<path d="M60.5484 66.2895L49.856 64.0165L47.7329 68.299L40.5835 72.447C40.5835 72.447 45.192 91.3303 45.1657 93.9862C45.0989 100.729 34.3333 115.844 42.4649 114.681C50.5966 113.518 52.2483 108.648 54.8588 109.418C65.6287 112.595 78.4284 112.259 74.0729 107.894C69.7174 103.529 70.6906 74.4732 70.6906 74.4732L62.2544 70.4778L60.5484 66.2895Z" fill="#00B0FF"/>
<path d="M40.3813 134.866C40.811 134.352 41.0237 133.691 40.9744 133.023C40.925 132.355 40.6174 131.732 40.117 131.288C40.0139 131.199 39.9036 131.119 39.7873 131.049L41.5751 122.256L37.4422 119.777L36.2926 132.087C36.0383 132.593 35.9582 133.169 36.065 133.726C36.1717 134.282 36.4592 134.787 36.8825 135.162C37.3732 135.589 38.0129 135.803 38.661 135.757C39.309 135.711 39.9122 135.409 40.338 134.917C40.3527 134.9 40.3671 134.883 40.3813 134.866Z" fill="#A0616A"/>
<path d="M38.0985 93.7231L38.4423 77.7005C38.4639 76.6933 38.6863 75.7006 39.0966 74.7809C39.5069 73.8612 40.0968 73.0331 40.8313 72.3453C41.5659 71.6575 42.4304 71.124 43.3739 70.7762C44.3174 70.4284 45.3208 70.2734 46.325 70.3202C49.592 70.4731 48.7215 71.7814 49.5893 74.9416C50.9994 80.0786 51.5418 83.048 51.2015 83.7671C51.0863 84.0106 50.9649 84.2439 50.8481 84.4683C50.2466 85.6243 49.8121 86.4595 50.9165 87.2596C51.3533 87.5492 51.8291 87.7749 52.3294 87.93C52.8279 88.1075 53.1881 88.2357 53.2134 88.5181C53.2378 88.7916 52.9299 89.075 52.0772 89.564C49.7877 90.8771 47.8024 98.7254 47.783 98.8029L41.1393 126.732L35.8468 126.468L38.0985 93.7231Z" fill="#00B0FF"/>
<path d="M104.694 115.615C104.032 115.52 103.433 115.171 103.024 114.64C102.616 114.11 102.429 113.441 102.506 112.775C102.523 112.64 102.552 112.507 102.591 112.376L95.3997 107.03L96.8226 102.419L105.884 110.81C106.411 111.016 106.854 111.391 107.146 111.876C107.437 112.362 107.56 112.93 107.495 113.493C107.455 113.813 107.353 114.122 107.194 114.402C107.035 114.682 106.822 114.928 106.568 115.126C106.314 115.324 106.024 115.47 105.714 115.555C105.404 115.641 105.08 115.664 104.761 115.624C104.738 115.621 104.716 115.618 104.694 115.615Z" fill="#A0616A"/>
<path d="M102.47 106.33L98.7076 110.069L75.1462 93.7347C75.0801 93.69 68.3709 89.179 65.7919 89.7347C64.8315 89.9417 64.4134 89.9369 64.2493 89.7172C64.0798 89.49 64.2624 89.1534 64.515 88.6877C64.7839 88.2373 64.9875 87.7509 65.1195 87.243C65.408 85.9082 64.5278 85.5776 63.3097 85.1201C63.0732 85.0313 62.8273 84.939 62.5793 84.8349C61.8467 84.5276 60.2708 81.9549 57.8957 77.1883C56.4348 74.2557 54.915 73.865 57.2441 71.564C57.9601 70.8569 58.8101 70.3005 59.7441 69.9277C60.678 69.5549 61.6769 69.3731 62.682 69.3931C63.6871 69.4131 64.678 69.6345 65.5964 70.0441C66.5148 70.4538 67.3421 71.0436 68.0296 71.7786L78.9664 83.4712L102.47 106.33Z" fill="#00B0FF"/>
<path d="M56.0373 63.8558C60.8551 63.8558 64.7607 59.9419 64.7607 55.1137C64.7607 50.2856 60.8551 46.3716 56.0373 46.3716C51.2195 46.3716 47.3138 50.2856 47.3138 55.1137C47.3138 59.9419 51.2195 63.8558 56.0373 63.8558Z" fill="#A0616A"/>
<path d="M42.9532 50.2891C41.6252 45.437 52.3361 41.2762 55.1488 45.1836C55.5399 44.6281 56.9853 44.2907 57.6484 44.4611C58.2976 44.6771 58.8975 45.02 59.4135 45.4699C60.1617 46.0459 60.9371 46.6423 61.3962 47.4705C61.8587 48.2953 61.9301 49.42 61.3078 50.1357C60.8147 50.7049 59.3591 51.073 58.6177 51.2229C58.1008 51.3286 57.6654 51.4138 57.2914 51.4751C56.9515 50.9845 56.795 50.3896 56.8492 49.7949C56.5974 49.9651 56.3863 50.1891 56.2311 50.4507C56.0759 50.7123 55.9804 51.0051 55.9514 51.3081C55.9412 51.4342 60.1311 66.8835 60.1311 66.8835C59.6276 67.1706 59.0981 67.4091 58.5497 67.5958C57.4646 65.9339 56.6336 64.1189 56.084 62.2109C55.9577 63.4867 55.9737 64.7727 56.1316 66.0451C56.2156 66.7585 56.336 67.4672 56.4921 68.1683C51.5132 69.2453 44.0245 68.8909 40.7664 64.3103L40.7648 64.2534C40.7623 64.0726 40.6971 63.8983 40.5804 63.7604C40.4637 63.6225 40.3028 63.5295 40.1253 63.4974C39.9477 63.4652 39.7645 63.496 39.6071 63.5843C39.4497 63.6726 39.3278 63.8131 39.2623 63.9816C39.1833 64.1837 39.1105 64.3586 39.0456 64.4978C38.0968 61.0964 39.3245 57.1599 42.9532 50.2891Z" fill="#2F2E41"/>
<path d="M20.9168 206.33C20.7419 206.338 20.5688 206.292 20.4208 206.198C20.2729 206.105 20.1573 205.967 20.0898 205.806C20.0222 205.644 20.006 205.465 20.0432 205.293C20.0804 205.122 20.1694 204.966 20.2979 204.847L20.3564 204.614C20.3487 204.595 20.341 204.577 20.3332 204.558C20.157 204.141 19.8617 203.785 19.4845 203.536C19.1073 203.286 18.6649 203.154 18.213 203.156C17.761 203.158 17.3197 203.293 16.9443 203.545C16.5689 203.798 16.2763 204.155 16.1032 204.574C15.4114 206.244 14.5306 207.916 14.3137 209.682C14.2182 210.462 14.2585 211.253 14.4328 212.02C12.8079 208.468 11.9641 204.607 11.9587 200.699C11.9583 199.719 12.0127 198.739 12.1215 197.764C12.2114 196.966 12.3362 196.172 12.4958 195.385C13.3667 191.112 15.2366 187.107 17.952 183.699C19.2662 182.98 20.329 181.875 20.9972 180.533C21.2393 180.05 21.4104 179.535 21.5052 179.003C21.3569 179.023 20.9462 176.76 21.058 176.621C20.8514 176.307 20.4816 176.151 20.256 175.844C19.1338 174.32 17.5877 174.586 16.7805 176.658C15.0563 177.53 15.0396 178.976 16.0976 180.367C16.7707 181.252 16.8631 182.45 17.4537 183.397C17.393 183.475 17.3298 183.55 17.269 183.628C16.1583 185.06 15.1903 186.597 14.3788 188.217C14.5761 186.402 14.3406 184.565 13.6915 182.859C13.0337 181.268 11.8007 179.929 10.7149 178.554C10.4278 178.185 10.0378 177.909 9.59427 177.762C9.15076 177.615 8.67366 177.603 8.22325 177.727C7.77285 177.851 7.36936 178.107 7.0638 178.461C6.75825 178.815 6.56433 179.252 6.50657 179.717C6.50434 179.737 6.50217 179.757 6.50005 179.778C6.66132 179.869 6.81919 179.966 6.97366 180.068C7.1677 180.198 7.31806 180.384 7.40503 180.601C7.492 180.818 7.51151 181.056 7.46103 181.284C7.41056 181.513 7.29244 181.72 7.12214 181.88C6.95184 182.04 6.73731 182.145 6.50667 182.18L6.48305 182.184C6.5405 182.767 6.64206 183.344 6.78684 183.911C5.39391 189.309 8.40113 191.275 12.6951 191.364C12.7898 191.413 12.8822 191.461 12.977 191.507C12.1617 193.823 11.6502 196.235 11.4556 198.683C11.3454 200.127 11.3519 201.577 11.475 203.02L11.4677 202.969C11.1566 201.365 10.3025 199.917 9.0495 198.87C7.18854 197.338 4.55936 196.774 2.55171 195.543C2.33835 195.405 2.09025 195.332 1.83669 195.331C1.58314 195.331 1.3347 195.403 1.12066 195.539C0.906631 195.675 0.735945 195.87 0.628729 196.1C0.521514 196.331 0.48224 196.587 0.51555 196.839L0.52376 196.893C0.823035 197.015 1.11443 197.155 1.39624 197.314C1.55752 197.405 1.71538 197.502 1.86985 197.604C2.06389 197.734 2.21425 197.92 2.30122 198.137C2.38818 198.354 2.4077 198.592 2.35722 198.82C2.30674 199.049 2.18862 199.257 2.01832 199.416C1.84803 199.576 1.63349 199.681 1.40284 199.717L1.37921 199.72C1.3622 199.723 1.3476 199.725 1.33062 199.728C1.84199 200.951 2.5597 202.077 3.45233 203.057C4.32329 207.77 8.06408 208.217 12.0656 206.844H12.068C12.5071 208.756 13.1432 210.617 13.9661 212.397H20.7469C20.7712 212.322 20.7931 212.244 20.8149 212.169C20.1873 212.208 19.5572 212.17 18.9387 212.057C19.4418 211.438 19.9449 210.814 20.4479 210.196C20.4592 210.184 20.4697 210.172 20.4796 210.159C20.7347 209.843 20.9924 209.528 21.2476 209.212L21.2477 209.211C21.2613 208.241 21.1499 207.272 20.9168 206.33Z" fill="#F2F2F2"/>
<path d="M0.751223 212.551C0.751047 212.61 0.762507 212.669 0.784949 212.723C0.807392 212.778 0.840377 212.827 0.881995 212.869C0.923613 212.911 0.973044 212.944 1.02745 212.966C1.08186 212.989 1.14017 213 1.19903 213H96.5083C96.627 213 96.7409 212.953 96.8249 212.869C96.9089 212.784 96.956 212.67 96.956 212.551C96.956 212.432 96.9089 212.318 96.8249 212.234C96.7409 212.15 96.627 212.103 96.5083 212.103H1.19903C1.14017 212.102 1.08186 212.114 1.02745 212.136C0.973045 212.159 0.923612 212.192 0.881995 212.234C0.840377 212.275 0.807392 212.325 0.784949 212.379C0.762506 212.434 0.751049 212.492 0.751223 212.551Z" fill="#CCCCCC"/>
<path d="M209.016 21.5397H112.866C111.725 21.5397 110.595 21.7649 109.54 22.2026C108.486 22.6403 107.528 23.2818 106.721 24.0905C105.914 24.8992 105.274 25.8593 104.837 26.916C104.4 27.9726 104.176 29.1051 104.176 30.2488V175.734C104.176 178.044 105.091 180.259 106.721 181.892C108.351 183.526 110.561 184.443 112.866 184.443H209.016C211.321 184.443 213.531 183.526 215.161 181.892C216.791 180.259 217.706 178.044 217.706 175.734C230.461 126.292 230.853 77.768 217.706 30.2488C217.706 27.939 216.791 25.7238 215.161 24.0905C213.531 22.4572 211.321 21.5397 209.016 21.5397ZM115.787 164.287C115.787 164.66 115.639 165.019 115.375 165.283C115.111 165.548 114.753 165.696 114.38 165.696H110.743C110.37 165.696 110.012 165.548 109.748 165.283C109.484 165.019 109.336 164.66 109.336 164.287V160.642C109.336 160.268 109.484 159.909 109.748 159.645C110.012 159.381 110.37 159.232 110.743 159.232H114.38C114.753 159.232 115.111 159.381 115.375 159.645C115.639 159.909 115.787 160.268 115.787 160.642V164.287ZM115.787 149.903C115.787 150.277 115.639 150.636 115.375 150.9C115.111 151.165 114.753 151.313 114.38 151.313H110.743C110.37 151.313 110.012 151.165 109.748 150.9C109.484 150.636 109.336 150.277 109.336 149.903V146.259C109.336 146.073 109.373 145.89 109.443 145.719C109.514 145.548 109.618 145.393 109.748 145.262C109.879 145.131 110.034 145.027 110.205 144.956C110.375 144.885 110.558 144.849 110.743 144.849H114.38C114.565 144.849 114.748 144.885 114.918 144.956C115.089 145.027 115.244 145.131 115.375 145.262C115.505 145.393 115.609 145.548 115.68 145.719C115.75 145.89 115.787 146.073 115.787 146.259V149.903ZM115.787 135.52C115.787 135.894 115.639 136.252 115.375 136.517C115.111 136.781 114.753 136.93 114.38 136.93H110.743C110.37 136.93 110.012 136.781 109.748 136.517C109.484 136.252 109.336 135.894 109.336 135.52V131.875C109.336 131.501 109.484 131.143 109.748 130.878C110.012 130.614 110.37 130.465 110.743 130.465H114.38C114.753 130.465 115.111 130.614 115.375 130.878C115.639 131.143 115.787 131.501 115.787 131.875V135.52ZM115.787 121.136C115.787 121.51 115.639 121.869 115.375 122.133C115.111 122.398 114.753 122.546 114.38 122.546H110.743C110.37 122.546 110.012 122.398 109.748 122.133C109.484 121.869 109.336 121.51 109.336 121.136V117.492C109.336 117.118 109.484 116.759 109.748 116.495C110.012 116.23 110.37 116.082 110.743 116.082H114.38C114.753 116.082 115.111 116.23 115.375 116.495C115.639 116.759 115.787 117.118 115.787 117.492V121.136ZM115.787 106.753C115.787 107.127 115.639 107.486 115.375 107.75C115.111 108.014 114.753 108.163 114.38 108.163H110.743C110.37 108.163 110.012 108.014 109.748 107.75C109.484 107.486 109.336 107.127 109.336 106.753V103.109C109.336 102.735 109.484 102.376 109.748 102.112C110.012 101.847 110.37 101.699 110.743 101.699H114.38C114.753 101.699 115.111 101.847 115.375 102.112C115.639 102.376 115.787 102.735 115.787 103.109V106.753ZM115.787 92.3697C115.787 92.7437 115.639 93.1023 115.375 93.3667C115.111 93.6311 114.753 93.7797 114.38 93.7797H110.743C110.37 93.7797 110.012 93.6311 109.748 93.3667C109.484 93.1023 109.336 92.7437 109.336 92.3697V88.7252C109.336 88.3513 109.484 87.9926 109.748 87.7282C110.012 87.4638 110.37 87.3153 110.743 87.3153H114.38C114.753 87.3153 115.111 87.4638 115.375 87.7282C115.639 87.9926 115.787 88.3513 115.787 88.7252V92.3697ZM115.787 77.9864C115.787 78.3603 115.639 78.7189 115.375 78.9834C115.111 79.2478 114.753 79.3963 114.38 79.3963H110.743C110.37 79.3963 110.012 79.2478 109.748 78.9834C109.484 78.7189 109.336 78.3603 109.336 77.9864V74.3418C109.336 73.9679 109.484 73.6093 109.748 73.3449C110.012 73.0804 110.37 72.9319 110.743 72.9319H114.38C114.753 72.9319 115.111 73.0804 115.375 73.3449C115.639 73.6093 115.787 73.9679 115.787 74.3418V77.9864ZM115.787 63.603C115.787 63.977 115.639 64.3356 115.375 64.6C115.111 64.8644 114.753 65.013 114.38 65.013H110.743C110.37 65.013 110.012 64.8644 109.748 64.6C109.484 64.3356 109.336 63.977 109.336 63.603V59.9585C109.336 59.5845 109.484 59.2259 109.748 58.9615C110.012 58.6971 110.37 58.5485 110.743 58.5485H114.38C114.753 58.5485 115.111 58.6971 115.375 58.9615C115.639 59.2259 115.787 59.5845 115.787 59.9585V63.603ZM115.787 49.2197C115.787 49.5936 115.639 49.9522 115.375 50.2166C115.111 50.4811 114.753 50.6296 114.38 50.6296H110.743C110.37 50.6296 110.012 50.4811 109.748 50.2166C109.484 49.9522 109.336 49.5936 109.336 49.2197V45.5751C109.336 45.2012 109.484 44.8426 109.748 44.5781C110.012 44.3137 110.37 44.1652 110.743 44.1652H114.38C114.753 44.1652 115.111 44.3137 115.375 44.5781C115.639 44.8426 115.787 45.2012 115.787 45.5751V49.2197Z" fill="#F2F2F2"/>
<path d="M114.966 29.297H110.157C109.704 29.297 109.336 29.6652 109.336 30.1195V34.939C109.336 35.3932 109.704 35.7614 110.157 35.7614H114.966C115.419 35.7614 115.787 35.3932 115.787 34.939V30.1195C115.787 29.6652 115.419 29.297 114.966 29.297Z" fill="#00B0FF"/>
<path d="M199 47.7743H128.779C128.68 47.7743 128.584 47.7346 128.513 47.6639C128.443 47.5932 128.403 47.4972 128.403 47.3972C128.403 47.2972 128.443 47.2013 128.513 47.1306C128.584 47.0599 128.68 47.0201 128.779 47.0201H199C199.099 47.0201 199.195 47.0599 199.266 47.1306C199.336 47.2013 199.376 47.2972 199.376 47.3972C199.376 47.4972 199.336 47.5932 199.266 47.6639C199.195 47.7346 199.099 47.7743 199 47.7743Z" fill="#E6E6E6"/>
<path d="M199 33.5526H179.003C178.903 33.5526 178.807 33.5129 178.737 33.4422C178.666 33.3715 178.626 33.2756 178.626 33.1756C178.626 33.0755 178.666 32.9796 178.737 32.9089C178.807 32.8382 178.903 32.7985 179.003 32.7985H199C199.099 32.7985 199.195 32.8382 199.266 32.9089C199.336 32.9796 199.376 33.0755 199.376 33.1756C199.376 33.2756 199.336 33.3715 199.266 33.4422C199.195 33.5129 199.099 33.5526 199 33.5526Z" fill="#E6E6E6"/>
<path d="M199 61.9961H128.779C128.68 61.9961 128.584 61.9564 128.513 61.8857C128.443 61.815 128.403 61.719 128.403 61.619C128.403 61.519 128.443 61.4231 128.513 61.3524C128.584 61.2817 128.68 61.2419 128.779 61.2419H199C199.099 61.2419 199.195 61.2817 199.266 61.3524C199.336 61.4231 199.376 61.519 199.376 61.619C199.376 61.719 199.336 61.815 199.266 61.8857C199.195 61.9564 199.099 61.9961 199 61.9961Z" fill="#E6E6E6"/>
<path d="M199 76.2179H128.779C128.68 76.2179 128.584 76.1782 128.513 76.1075C128.443 76.0368 128.403 75.9408 128.403 75.8408C128.403 75.7408 128.443 75.6449 128.513 75.5742C128.584 75.5035 128.68 75.4637 128.779 75.4637H199C199.099 75.4637 199.195 75.5035 199.266 75.5742C199.336 75.6449 199.376 75.7408 199.376 75.8408C199.376 75.9408 199.336 76.0368 199.266 76.1075C199.195 76.1782 199.099 76.2179 199 76.2179Z" fill="#E6E6E6"/>
<path d="M199 90.4397H128.779C128.68 90.4397 128.584 90.4 128.513 90.3293C128.443 90.2586 128.403 90.1626 128.403 90.0626C128.403 89.9626 128.443 89.8667 128.513 89.796C128.584 89.7253 128.68 89.6855 128.779 89.6855H199C199.099 89.6855 199.195 89.7253 199.266 89.796C199.336 89.8667 199.376 89.9626 199.376 90.0626C199.376 90.1626 199.336 90.2586 199.266 90.3293C199.195 90.4 199.099 90.4397 199 90.4397Z" fill="#E6E6E6"/>
<path d="M199 104.662H128.779C128.68 104.662 128.584 104.622 128.513 104.551C128.443 104.48 128.403 104.384 128.403 104.284C128.403 104.184 128.443 104.089 128.513 104.018C128.584 103.947 128.68 103.907 128.779 103.907H199C199.099 103.907 199.195 103.947 199.266 104.018C199.336 104.089 199.376 104.184 199.376 104.284C199.376 104.384 199.336 104.48 199.266 104.551C199.195 104.622 199.099 104.662 199 104.662Z" fill="#E6E6E6"/>
<path d="M199 118.883H128.779C128.68 118.883 128.584 118.843 128.513 118.773C128.443 118.702 128.403 118.606 128.403 118.506C128.403 118.406 128.443 118.31 128.513 118.239C128.584 118.169 128.68 118.129 128.779 118.129H199C199.099 118.129 199.195 118.169 199.266 118.239C199.336 118.31 199.376 118.406 199.376 118.506C199.376 118.606 199.336 118.702 199.266 118.773C199.195 118.843 199.099 118.883 199 118.883Z" fill="#E6E6E6"/>
<path d="M199 133.105H128.779C128.68 133.105 128.584 133.065 128.513 132.995C128.443 132.924 128.403 132.828 128.403 132.728C128.403 132.628 128.443 132.532 128.513 132.461C128.584 132.391 128.68 132.351 128.779 132.351H199C199.099 132.351 199.195 132.391 199.266 132.461C199.336 132.532 199.376 132.628 199.376 132.728C199.376 132.828 199.336 132.924 199.266 132.995C199.195 133.065 199.099 133.105 199 133.105Z" fill="#E6E6E6"/>
<path d="M199 147.327H128.779C128.68 147.327 128.584 147.287 128.513 147.216C128.443 147.145 128.403 147.05 128.403 146.95C128.403 146.85 128.443 146.754 128.513 146.683C128.584 146.612 128.68 146.572 128.779 146.572H199C199.099 146.572 199.195 146.612 199.266 146.683C199.336 146.754 199.376 146.85 199.376 146.95C199.376 147.05 199.336 147.145 199.266 147.216C199.195 147.287 199.099 147.327 199 147.327Z" fill="#E6E6E6"/>
<path d="M199 161.549H128.779C128.68 161.549 128.584 161.509 128.513 161.438C128.443 161.367 128.403 161.271 128.403 161.171C128.403 161.071 128.443 160.976 128.513 160.905C128.584 160.834 128.68 160.794 128.779 160.794H199C199.099 160.794 199.195 160.834 199.266 160.905C199.336 160.976 199.376 161.071 199.376 161.171C199.376 161.271 199.336 161.367 199.266 161.438C199.195 161.509 199.099 161.549 199 161.549Z" fill="#E6E6E6"/>
<path d="M188.589 44.4543H140.161C139.972 44.4546 139.786 44.4177 139.611 44.3456C139.437 44.2735 139.279 44.1676 139.145 44.0341C139.012 43.9006 138.906 43.742 138.834 43.5675C138.761 43.3929 138.724 43.2058 138.724 43.0168C138.724 42.8279 138.761 42.6408 138.834 42.4662C138.906 42.2916 139.012 42.1331 139.145 41.9996C139.279 41.866 139.437 41.7602 139.611 41.6881C139.786 41.616 139.972 41.579 140.161 41.5793H188.589C188.969 41.58 189.334 41.7317 189.602 42.0012C189.871 42.2707 190.021 42.636 190.021 43.0168C190.021 43.3977 189.871 43.763 189.602 44.0325C189.334 44.302 188.969 44.4537 188.589 44.4543Z" fill="#CCCCCC"/>
<path d="M188.589 58.6761H140.161C139.781 58.6761 139.416 58.5247 139.147 58.2551C138.878 57.9855 138.727 57.6199 138.727 57.2386C138.727 56.8574 138.878 56.4918 139.147 56.2222C139.416 55.9526 139.781 55.8011 140.161 55.8011H188.589C188.97 55.8011 189.335 55.9526 189.604 56.2222C189.873 56.4918 190.024 56.8574 190.024 57.2386C190.024 57.6199 189.873 57.9855 189.604 58.2551C189.335 58.5247 188.97 58.6761 188.589 58.6761Z" fill="#CCCCCC"/>
<path d="M188.589 72.8978H140.161C139.972 72.8981 139.786 72.8612 139.611 72.7891C139.437 72.717 139.279 72.6111 139.145 72.4776C139.012 72.3441 138.906 72.1855 138.834 72.011C138.761 71.8364 138.724 71.6493 138.724 71.4603C138.724 71.2713 138.761 71.0842 138.834 70.9097C138.906 70.7351 139.012 70.5765 139.145 70.443C139.279 70.3095 139.437 70.2037 139.611 70.1316C139.786 70.0595 139.972 70.0225 140.161 70.0228H188.589C188.969 70.0234 189.334 70.1752 189.602 70.4447C189.871 70.7142 190.021 71.0795 190.021 71.4603C190.021 71.8412 189.871 72.2064 189.602 72.476C189.334 72.7455 188.969 72.8972 188.589 72.8978Z" fill="#CCCCCC"/>
<path d="M188.589 87.1196H140.161C139.781 87.1196 139.416 86.9682 139.147 86.6986C138.878 86.429 138.727 86.0634 138.727 85.6821C138.727 85.3009 138.878 84.9352 139.147 84.6657C139.416 84.3961 139.781 84.2446 140.161 84.2446H188.589C188.97 84.2446 189.335 84.3961 189.604 84.6657C189.873 84.9352 190.024 85.3009 190.024 85.6821C190.024 86.0634 189.873 86.429 189.604 86.6986C189.335 86.9682 188.97 87.1196 188.589 87.1196Z" fill="#CCCCCC"/>
<path d="M188.589 101.341H140.161C139.972 101.342 139.786 101.305 139.611 101.233C139.437 101.16 139.279 101.055 139.145 100.921C139.012 100.788 138.906 100.629 138.834 100.454C138.761 100.28 138.724 100.093 138.724 99.9038C138.724 99.7148 138.761 99.5277 138.834 99.3532C138.906 99.1786 139.012 99.02 139.145 98.8865C139.279 98.753 139.437 98.6472 139.611 98.5751C139.786 98.503 139.972 98.466 140.161 98.4663H188.589C188.969 98.4669 189.334 98.6187 189.602 98.8882C189.871 99.1577 190.021 99.523 190.021 99.9038C190.021 100.285 189.871 100.65 189.602 100.919C189.334 101.189 188.969 101.341 188.589 101.341Z" fill="#CCCCCC"/>
<path d="M188.589 115.563H140.161C139.972 115.563 139.786 115.526 139.611 115.454C139.437 115.382 139.279 115.276 139.145 115.143C139.012 115.009 138.906 114.851 138.834 114.676C138.761 114.502 138.724 114.315 138.724 114.126C138.724 113.937 138.761 113.75 138.834 113.575C138.906 113.4 139.012 113.242 139.145 113.108C139.279 112.975 139.437 112.869 139.611 112.797C139.786 112.725 139.972 112.688 140.161 112.688H188.589C188.969 112.689 189.334 112.84 189.602 113.11C189.871 113.379 190.021 113.745 190.021 114.126C190.021 114.506 189.871 114.872 189.602 115.141C189.334 115.411 188.969 115.562 188.589 115.563Z" fill="#CCCCCC"/>
<path d="M188.589 129.785H140.161C139.781 129.785 139.416 129.633 139.147 129.364C138.878 129.094 138.727 128.729 138.727 128.347C138.727 127.966 138.878 127.6 139.147 127.331C139.416 127.061 139.781 126.91 140.161 126.91H188.589C188.97 126.91 189.335 127.061 189.604 127.331C189.873 127.6 190.024 127.966 190.024 128.347C190.024 128.729 189.873 129.094 189.604 129.364C189.335 129.633 188.97 129.785 188.589 129.785Z" fill="#CCCCCC"/>
<path d="M188.589 144.007H140.161C139.972 144.007 139.786 143.97 139.611 143.898C139.437 143.826 139.279 143.72 139.145 143.586C139.012 143.453 138.906 143.294 138.834 143.12C138.761 142.945 138.724 142.758 138.724 142.569C138.724 142.38 138.761 142.193 138.834 142.018C138.906 141.844 139.012 141.685 139.145 141.552C139.279 141.418 139.437 141.312 139.611 141.24C139.786 141.168 139.972 141.131 140.161 141.132H188.589C188.969 141.132 189.334 141.284 189.602 141.553C189.871 141.823 190.021 142.188 190.021 142.569C190.021 142.95 189.871 143.315 189.602 143.585C189.334 143.854 188.969 144.006 188.589 144.007Z" fill="#CCCCCC"/>
<path d="M188.589 158.228H140.161C139.973 158.228 139.786 158.191 139.612 158.119C139.438 158.047 139.28 157.941 139.147 157.807C139.013 157.674 138.908 157.515 138.836 157.341C138.764 157.167 138.727 156.98 138.727 156.791C138.727 156.602 138.764 156.415 138.836 156.241C138.908 156.066 139.013 155.908 139.147 155.774C139.28 155.641 139.438 155.535 139.612 155.463C139.786 155.391 139.973 155.353 140.161 155.353H188.589C188.97 155.353 189.335 155.505 189.604 155.774C189.873 156.044 190.024 156.41 190.024 156.791C190.024 157.172 189.873 157.538 189.604 157.807C189.335 158.077 188.97 158.228 188.589 158.228Z" fill="#CCCCCC"/>
<path d="M144.841 33.6957H132.308C132.208 33.6957 132.113 33.7354 132.042 33.8061C131.972 33.8768 131.932 33.9728 131.932 34.0728C131.932 34.1728 131.972 34.2687 132.042 34.3394C132.113 34.4101 132.208 34.4499 132.308 34.4499H138.198V46.7573C138.198 46.8573 138.238 46.9532 138.309 47.0239C138.379 47.0946 138.475 47.1344 138.575 47.1344C138.674 47.1344 138.77 47.0946 138.841 47.0239C138.911 46.9532 138.951 46.8573 138.951 46.7573V40.3526C138.951 38.7871 139.572 37.2857 140.676 36.1787C141.781 35.0718 143.279 34.4499 144.841 34.4499C144.941 34.4499 145.037 34.4101 145.107 34.3394C145.178 34.2687 145.217 34.1728 145.217 34.0728C145.217 33.9728 145.178 33.8769 145.107 33.8061C145.037 33.7354 144.941 33.6957 144.841 33.6957Z" fill="#3F3D56"/>
<path d="M190.345 161.225C190.137 161.225 187.499 161.057 187.499 160.848L189.969 148.289C189.969 148.189 190.008 148.093 190.079 148.022C190.149 147.951 190.245 147.912 190.345 147.912C190.445 147.912 190.54 147.951 190.611 148.022C190.682 148.093 190.721 148.189 190.721 148.289V160.848C190.721 160.948 190.682 161.044 190.611 161.115C190.54 161.186 190.445 161.225 190.345 161.225Z" fill="#3F3D56"/>
<path d="M218.786 30.2488C218.786 27.939 217.871 25.7238 216.241 24.0905C214.611 22.4573 212.401 21.5397 210.096 21.5397H112.83C116.763 21.5397 164.017 24.3244 194.122 27.8395C199.141 28.4249 203.849 30.5763 207.582 33.9896C211.314 37.4029 213.882 41.9055 214.922 46.8609C223.773 89.0617 222.156 132.04 210.884 175.734C210.884 178.044 209.969 180.259 208.339 181.892C206.709 183.526 204.499 184.443 202.194 184.443H210.096C212.401 184.443 214.611 183.526 216.241 181.892C217.871 180.259 218.786 178.044 218.786 175.734C231.541 126.292 231.933 77.768 218.786 30.2488Z" fill="#E6E6E6"/>
<path d="M215.118 180.146L214.39 179.957C227.256 130.081 227.261 81.213 214.403 34.7095C213.065 32.2779 211.139 30.2215 208.803 28.7283C206.466 27.2352 203.794 26.3529 201.029 26.1624L162.473 23.4242L162.527 22.6719L201.083 25.41C203.98 25.6099 206.78 26.5365 209.227 28.1046C211.674 29.6728 213.687 31.8321 215.084 34.3842L215.117 34.4654C221.617 57.9512 224.89 82.2161 224.843 106.589C224.795 130.571 221.523 155.319 215.118 180.146Z" fill="white"/>
</g>
<defs>
<clipPath id="clip0_214_4890">
<rect width="228" height="213" fill="white" transform="translate(0.5)"/>
</clipPath>
</defs>
</svg>
