<svg width="201" height="203" viewBox="0 0 201 203" fill="none" xmlns="http://www.w3.org/2000/svg">
<g clip-path="url(#clip0_214_4786)">
<path d="M100.5 203C156.005 203 201 200.353 201 197.088C201 193.822 156.005 191.175 100.5 191.175C44.9954 191.175 0 193.822 0 197.088C0 200.353 44.9954 203 100.5 203Z" fill="#E6E6E6"/>
<path d="M113.93 46.8356H112.848V17.1697C112.848 12.616 111.042 8.24883 107.827 5.02889C104.613 1.80894 100.252 0 95.7059 0H32.9543C28.4078 0 24.0476 1.80894 20.8327 5.02889C17.6179 8.24883 15.8118 12.616 15.8118 17.1697V179.918C15.8118 184.472 17.6179 188.839 20.8327 192.059C24.0476 195.279 28.4078 197.088 32.9543 197.088H95.7059C100.252 197.088 104.613 195.279 107.827 192.059C111.042 188.839 112.848 184.472 112.848 179.918V67.9521H113.93V46.8356Z" fill="#3F3D56"/>
<path d="M109.2 17.2897V179.798C109.2 183.199 107.851 186.461 105.45 188.865C103.049 191.27 99.7927 192.621 96.3973 192.621H33.3447C29.9495 192.621 26.6933 191.27 24.2925 188.865C21.8917 186.461 20.5429 183.199 20.5427 179.799V17.2897C20.5428 13.889 21.8916 10.6276 24.2925 8.2229C26.6934 5.81821 29.9497 4.46724 33.345 4.46716H40.9942C40.6183 5.39222 40.4752 6.39563 40.5773 7.38912C40.6795 8.3826 41.0238 9.33573 41.5801 10.1646C42.1363 10.9935 42.8874 11.6728 43.7673 12.1428C44.6472 12.6127 45.6289 12.8588 46.6261 12.8596H82.5759C83.5731 12.8589 84.5548 12.6128 85.4347 12.1429C86.3146 11.673 87.0658 10.9937 87.6221 10.1648C88.1784 9.33584 88.5227 8.3827 88.6249 7.38919C88.7271 6.39568 88.5839 5.39225 88.208 4.46716H96.3973C99.7927 4.46724 103.049 5.81821 105.45 8.2229C107.851 10.6276 109.2 13.889 109.2 17.2897Z" fill="white"/>
<path d="M49.6704 140.329H48.3442L48.787 114.387H49.2297L49.6704 140.329Z" fill="#E6E6E6"/>
<path d="M50.775 98.0538L52.9155 94.7408C52.2807 92.9846 51.5476 91.2657 50.7195 89.5922L49.3356 90.7121L50.4315 89.0158C49.3869 86.9568 48.5652 85.6593 48.5652 85.6593C48.5652 85.6593 44.2731 92.4341 42.8383 99.6082L45.585 103.86L42.5449 101.4C42.4367 102.236 42.381 103.077 42.3782 103.92C42.3782 112.416 45.1485 119.303 48.5658 119.303C51.9831 119.303 54.7534 112.415 54.7534 103.92C54.7534 101.286 54.1584 98.5307 53.3367 95.9815L50.775 98.0538Z" fill="#CCCCCC"/>
<path d="M84.1912 140.329H82.8651L83.3078 114.387H83.7506L84.1912 140.329Z" fill="#E6E6E6"/>
<path d="M85.296 98.0538L87.4364 94.7408C86.8017 92.9846 86.0685 91.2657 85.2405 89.5922L83.8565 90.7121L84.9524 89.0158C83.9079 86.9568 83.0862 85.6593 83.0862 85.6593C83.0862 85.6593 78.7934 92.4346 77.3602 99.6082L80.1048 103.859L77.0647 101.399C76.9564 102.235 76.9007 103.077 76.8979 103.919C76.8979 112.415 79.6683 119.302 83.0856 119.302C86.5029 119.302 89.2732 112.414 89.2732 103.919C89.2732 101.286 88.6782 98.5301 87.8564 95.9809L85.296 98.0538Z" fill="#CCCCCC"/>
<path d="M48.6611 54.3346C55.3902 54.3346 60.8451 48.871 60.8451 42.1314C60.8451 35.3917 55.3902 29.9281 48.6611 29.9281C41.9321 29.9281 36.4772 35.3917 36.4772 42.1314C36.4772 48.871 41.9321 54.3346 48.6611 54.3346Z" fill="#E6E6E6"/>
<path d="M65.5369 136.552H62.8029L63.7143 83.061H64.6254L65.5369 136.552Z" fill="#E6E6E6"/>
<path d="M67.8152 49.3839L72.2286 42.5533C70.9198 38.9322 69.4081 35.3878 67.7007 31.9372L64.8468 34.2457L67.1065 30.7479C64.9519 26.5022 63.2586 23.8271 63.2586 23.8271C63.2586 23.8271 54.4075 37.797 51.4504 52.5882L57.1123 61.3548L50.8426 56.2828C50.6194 58.0058 50.5045 59.7412 50.4988 61.4787C50.4988 78.9963 56.2109 93.1971 63.2571 93.1971C70.3033 93.1971 76.0155 78.9963 76.0155 61.4787C76.0155 56.0481 74.7888 50.3666 73.0967 45.1107L67.8152 49.3839Z" fill="#CCCCCC"/>
<path d="M109.2 144.263V180.626C109.2 188.002 103.468 193.981 96.3973 193.981H33.3447C26.2743 193.981 20.5424 188.002 20.5421 180.626V147.808C31.474 134.421 47.2798 126.421 64.1252 125.747C80.9705 125.074 97.3173 131.788 109.2 144.263Z" fill="#E6E6E6"/>
<path opacity="0.2" d="M64.9398 180.133C75.2433 180.133 83.5959 171.768 83.5959 161.448C83.5959 151.128 75.2433 142.762 64.9398 142.762C54.6363 142.762 46.2837 151.128 46.2837 161.448C46.2837 171.768 54.6363 180.133 64.9398 180.133Z" fill="#00B0FF"/>
<path d="M64.9398 176.493C73.2362 176.493 79.9617 169.757 79.9617 161.448C79.9617 153.138 73.2362 146.402 64.9398 146.402C56.6435 146.402 49.918 153.138 49.918 161.448C49.918 169.757 56.6435 176.493 64.9398 176.493Z" fill="#00B0FF"/>
<path d="M63.1877 167.88L57.8936 161.063L60.9723 158.665L63.4788 161.893L71.9464 152.94L74.7781 155.627L63.1877 167.88Z" fill="white"/>
<path d="M144.769 138.046C150.148 138.046 154.509 133.678 154.509 128.291C154.509 122.903 150.148 118.535 144.769 118.535C139.39 118.535 135.029 122.903 135.029 128.291C135.029 133.678 139.39 138.046 144.769 138.046Z" fill="#2F2E41"/>
<path d="M148.716 183.057L149.466 186.602L163.477 185.39L162.37 180.157L148.716 183.057Z" fill="#FFB8B8"/>
<path d="M147.625 194.137L145.268 182.994L149.566 182.081L151.013 188.919C151.132 189.484 151.14 190.068 151.034 190.636C150.929 191.204 150.712 191.746 150.398 192.231C150.083 192.715 149.677 193.133 149.201 193.46C148.725 193.787 148.19 194.017 147.625 194.137Z" fill="#2F2E41"/>
<path d="M139.939 182.867L138.361 186.13L125.05 181.59L127.378 176.775L139.939 182.867Z" fill="#FFB8B8"/>
<path d="M136.306 188.011L139.347 181.72L143.302 183.638L138.346 193.89C137.297 193.381 136.493 192.476 136.11 191.373C135.728 190.271 135.798 189.061 136.306 188.011Z" fill="#2F2E41"/>
<path d="M113.711 176.425C114.167 176.51 114.635 176.494 115.084 176.378C115.533 176.262 115.951 176.048 116.309 175.753C116.666 175.458 116.955 175.087 117.154 174.668C117.353 174.249 117.458 173.791 117.462 173.327L139.414 153.056L133.962 148.827L114.087 170.094C113.308 170.14 112.572 170.47 112.02 171.023C111.468 171.575 111.137 172.311 111.09 173.092C111.044 173.873 111.285 174.643 111.768 175.257C112.251 175.872 112.943 176.287 113.711 176.425L113.711 176.425Z" fill="#FFB8B8"/>
<path d="M143.547 138.487C147.55 138.487 150.796 135.236 150.796 131.226C150.796 127.216 147.55 123.965 143.547 123.965C139.543 123.965 136.297 127.216 136.297 131.226C136.297 135.236 139.543 138.487 143.547 138.487Z" fill="#FFB8B8"/>
<path d="M150.052 173.906C144.967 173.906 138.843 172.833 135.065 168.444L134.98 168.345L135.068 168.248C135.098 168.216 137.876 165.035 135.101 159.361L131.285 160.537L127.486 155.515L129.59 149.192L138.202 142.245C139.436 141.254 140.938 140.658 142.514 140.532C145.366 140.256 148.145 139.463 150.715 138.193C151.891 137.621 153.186 137.337 154.493 137.365L154.662 137.37C155.06 137.381 155.451 137.473 155.812 137.64C156.173 137.807 156.496 138.046 156.762 138.342C157.028 138.638 157.232 138.985 157.36 139.362C157.488 139.739 157.538 140.138 157.508 140.536C156.924 148.112 155.893 166.415 158.922 172.717L159 172.88L158.826 172.924C155.946 173.573 153.004 173.902 150.053 173.906L150.052 173.906Z" fill="#00B0FF"/>
<path d="M136.062 168.347C136.062 168.347 116.877 166.574 114.811 172.19C112.745 177.807 115.106 180.468 118.648 181.65C122.19 182.833 130.749 184.311 130.749 184.311L134.586 179.581L144.621 180.172C144.621 180.172 155.803 186.668 158.895 193.615C159.558 195.119 160.616 196.414 161.956 197.363C163.296 198.312 164.867 198.88 166.503 199.006C168.983 199.179 171.185 198.241 171.185 194.361C171.185 185.493 158.789 172.781 158.789 172.781L136.062 168.347Z" fill="#2F2E41"/>
<path d="M121.452 177.068C121.452 177.068 126.47 175.59 134.439 179.433L121.452 177.068Z" fill="#2F2E41"/>
<path d="M136.315 126.595C139.146 128.326 142.338 129.379 145.642 129.673L144.659 128.493C145.374 128.758 146.128 128.908 146.89 128.937C147.272 128.948 147.651 128.869 147.997 128.707C148.343 128.545 148.646 128.304 148.883 128.003C149.075 127.691 149.19 127.336 149.217 126.97C149.243 126.604 149.181 126.236 149.035 125.9C148.735 125.228 148.269 124.644 147.68 124.203C146.637 123.376 145.406 122.821 144.096 122.587C142.786 122.352 141.439 122.446 140.174 122.859C139.306 123.119 138.529 123.618 137.931 124.3C137.638 124.643 137.434 125.054 137.338 125.496C137.242 125.937 137.257 126.396 137.381 126.83" fill="#2F2E41"/>
<path d="M144.717 120.792C146.005 117.796 147.933 115.12 150.365 112.951C151.927 111.561 153.751 110.366 155.81 110.006C157.868 109.645 160.188 110.263 161.45 111.93C162.483 113.294 162.676 115.121 162.562 116.828C162.448 118.536 162.067 120.228 162.104 121.938C162.141 123.684 162.613 125.393 163.477 126.909C164.341 128.426 165.569 129.703 167.051 130.623C168.532 131.544 170.219 132.08 171.96 132.181C173.7 132.283 175.439 131.948 177.017 131.206C175.24 132.19 173.855 133.748 172.206 134.933C170.557 136.118 168.38 136.932 166.506 136.148C164.523 135.32 163.613 133.068 162.903 131.037L159.736 121.979C159.197 120.439 158.632 118.854 157.533 117.65C156.434 116.446 154.651 115.711 153.139 116.317C151.992 116.776 151.246 117.871 150.592 118.918C149.937 119.965 149.247 121.082 148.142 121.632C147.037 122.181 145.397 121.843 145.036 120.661" fill="#2F2E41"/>
<path d="M147.204 173.931C147.079 173.931 146.954 173.924 146.83 173.911C146.005 173.818 145.247 173.412 144.712 172.776C144.176 172.141 143.904 171.324 143.951 170.494C143.999 169.664 144.362 168.883 144.966 168.313C145.57 167.743 146.369 167.426 147.199 167.427C147.344 167.428 147.488 167.439 147.632 167.46L157.542 156.893L156.508 153.438L161.703 151.105L163.159 154.67C163.647 155.878 163.734 157.211 163.406 158.472C163.077 159.733 162.352 160.854 161.337 161.669L150.428 170.36C150.44 170.466 150.445 170.573 150.446 170.679C150.446 171.137 150.349 171.589 150.163 172.007C149.977 172.425 149.704 172.798 149.364 173.104C148.772 173.639 148.002 173.934 147.204 173.931Z" fill="#FFB8B8"/>
<path d="M154.952 138.785C155.296 138.632 155.666 138.55 156.042 138.545C156.418 138.539 156.792 138.609 157.14 138.752C157.488 138.894 157.804 139.105 158.068 139.373C158.333 139.641 158.541 139.959 158.679 140.309L163.807 153.271L155.837 158.592L154.952 138.785Z" fill="#00B0FF"/>
</g>
<defs>
<clipPath id="clip0_214_4786">
<rect width="201" height="203" fill="white"/>
</clipPath>
</defs>
</svg>
